<?xml version="1.0" encoding="UTF-8"?>
<svg xmlns="http://www.w3.org/2000/svg" viewBox="0 0 1600 900" width="1600" height="900">
  
    <defs>
      <linearGradient id="sky-W-001" x1="0" y1="0" x2="0" y2="1">
        <stop offset="0%" stop-color="#1A2A1F"/>
        <stop offset="55%" stop-color="#3E5C42"/>
        <stop offset="100%" stop-color="#88A37B"/>
      </linearGradient>
      <linearGradient id="ground-W-001" x1="0" y1="0" x2="0" y2="1">
        <stop offset="0%" stop-color="#88A37B"/>
        <stop offset="50%" stop-color="#D5DDB8"/>
        <stop offset="100%" stop-color="#F3EEDB"/>
      </linearGradient>
      <radialGradient id="sun-W-001" cx="50%" cy="50%" r="50%">
        <stop offset="0%" stop-color="#F3EEDB" stop-opacity="0.9"/>
        <stop offset="100%" stop-color="#F3EEDB" stop-opacity="0"/>
      </radialGradient>
      <filter id="grain-W-001" x="0" y="0" width="100%" height="100%">
        <feTurbulence type="fractalNoise" baseFrequency="0.85" numOctaves="2" seed="2411820283"/>
        <feColorMatrix values="0 0 0 0 0  0 0 0 0 0  0 0 0 0 0  0 0 0 0.05 0"/>
      </filter>
    </defs>
    
  
    <rect x="0" y="0" width="1600" height="900" fill="url(#sky-W-001)"/>
    <circle cx="1180" cy="280" r="220" fill="url(#sun-W-001)"/>
    <rect x="0" y="520" width="1600" height="380" fill="url(#ground-W-001)"/>
    
  <rect x="0" y="500" width="1600" height="40" fill="#88A37B" opacity="0.35"/><rect x="0" y="520" width="1600" height="14" fill="#D5DDB8" opacity="0.25"/>
  
    <ellipse cx="657.3159291856552" cy="988.7010899444333" rx="31.457309638482027" ry="12.233398192743008" fill="#3E5C42" opacity="0.35"/>
    <rect x="651.3159291856552" y="972.7010899444333" width="3" height="14" fill="#3A2A20" opacity="0.85"/>
    <circle cx="652.3159291856552" cy="962.7010899444333" r="34.95256626498003" fill="#88A37B" opacity="0.92"/>
    <circle cx="661.3159291856552" cy="956.7010899444333" r="24.466796385486017" fill="#88A37B" opacity="0.8"/>
    <circle cx="645.3159291856552" cy="956.7010899444333" r="22.719168072237018" fill="#88A37B" opacity="0.7"/>
    

    <ellipse cx="1652.9017397131604" cy="1003.0939403692457" rx="20.589641756485225" ry="8.007082905299809" fill="#3E5C42" opacity="0.35"/>
    <rect x="1646.9017397131604" y="987.0939403692457" width="3" height="14" fill="#3A2A20" opacity="0.85"/>
    <circle cx="1647.9017397131604" cy="977.0939403692457" r="22.87737972942803" fill="#88A37B" opacity="0.92"/>
    <circle cx="1656.9017397131604" cy="971.0939403692457" r="16.014165810599618" fill="#88A37B" opacity="0.8"/>
    <circle cx="1640.9017397131604" cy="971.0939403692457" r="14.87029682412822" fill="#88A37B" opacity="0.7"/>
    

    <ellipse cx="492.7599092994105" cy="797.3344404572844" rx="23.314914225369467" ry="9.06691108764368" fill="#3E5C42" opacity="0.35"/>
    <rect x="486.7599092994105" y="781.3344404572844" width="3" height="14" fill="#3A2A20" opacity="0.85"/>
    <circle cx="487.7599092994105" cy="771.3344404572844" r="25.905460250410517" fill="#88A37B" opacity="0.92"/>
    <circle cx="496.7599092994105" cy="765.3344404572844" r="18.13382217528736" fill="#88A37B" opacity="0.8"/>
    <circle cx="480.7599092994105" cy="765.3344404572844" r="16.838549162766835" fill="#88A37B" opacity="0.7"/>
    

    <ellipse cx="632.717713580055" cy="962.0362673520325" rx="19.394627997830412" ry="7.5423553324896035" fill="#3E5C42" opacity="0.35"/>
    <rect x="626.717713580055" y="946.0362673520325" width="3" height="14" fill="#3A2A20" opacity="0.85"/>
    <circle cx="627.717713580055" cy="936.0362673520325" r="21.54958666425601" fill="#88A37B" opacity="0.92"/>
    <circle cx="636.717713580055" cy="930.0362673520325" r="15.084710664979207" fill="#88A37B" opacity="0.8"/>
    <circle cx="620.717713580055" cy="930.0362673520325" r="14.007231331766407" fill="#88A37B" opacity="0.7"/>
    

    <ellipse cx="1469.4794191188173" cy="953.2882183956641" rx="22.38601711563052" ry="8.7056733227452" fill="#3E5C42" opacity="0.35"/>
    <rect x="1463.4794191188173" y="937.2882183956641" width="3" height="14" fill="#3A2A20" opacity="0.85"/>
    <circle cx="1464.4794191188173" cy="927.2882183956641" r="24.873352350700575" fill="#88A37B" opacity="0.92"/>
    <circle cx="1473.4794191188173" cy="921.2882183956641" r="17.4113466454904" fill="#88A37B" opacity="0.8"/>
    <circle cx="1457.4794191188173" cy="921.2882183956641" r="16.167679027955373" fill="#88A37B" opacity="0.7"/>
    

    <ellipse cx="1156.6453020952756" cy="1217.2261330172307" rx="25.71895091603797" ry="10.001814245125875" fill="#3E5C42" opacity="0.35"/>
    <rect x="1150.6453020952756" y="1201.2261330172307" width="3" height="14" fill="#3A2A20" opacity="0.85"/>
    <circle cx="1151.6453020952756" cy="1191.2261330172307" r="28.576612128931075" fill="#88A37B" opacity="0.92"/>
    <circle cx="1160.6453020952756" cy="1185.2261330172307" r="20.00362849025175" fill="#88A37B" opacity="0.8"/>
    <circle cx="1144.6453020952756" cy="1185.2261330172307" r="18.5747978838052" fill="#88A37B" opacity="0.7"/>
    

    <ellipse cx="446.33411493144513" cy="936.4680030293392" rx="19.365054414522536" ry="7.530854494536541" fill="#3E5C42" opacity="0.35"/>
    <rect x="440.33411493144513" y="920.4680030293392" width="3" height="14" fill="#3A2A20" opacity="0.85"/>
    <circle cx="441.33411493144513" cy="910.4680030293392" r="21.51672712724726" fill="#88A37B" opacity="0.92"/>
    <circle cx="450.33411493144513" cy="904.4680030293392" r="15.061708989073082" fill="#88A37B" opacity="0.8"/>
    <circle cx="434.33411493144513" cy="904.4680030293392" r="13.98587263271072" fill="#88A37B" opacity="0.7"/>
    

    <ellipse cx="206.39801322934125" cy="844.3033251284969" rx="19.6650263743328" ry="7.647510256684977" fill="#3E5C42" opacity="0.35"/>
    <rect x="200.39801322934125" y="828.3033251284969" width="3" height="14" fill="#3A2A20" opacity="0.85"/>
    <circle cx="201.39801322934125" cy="818.3033251284969" r="21.85002930481422" fill="#88A37B" opacity="0.92"/>
    <circle cx="210.39801322934125" cy="812.3033251284969" r="15.295020513369954" fill="#88A37B" opacity="0.8"/>
    <circle cx="194.39801322934125" cy="812.3033251284969" r="14.202519048129243" fill="#88A37B" opacity="0.7"/>
    

    <ellipse cx="1411.1869293305492" cy="965.4853486231007" rx="23.17996980061495" ry="9.014432700239146" fill="#3E5C42" opacity="0.35"/>
    <rect x="1405.1869293305492" y="949.4853486231007" width="3" height="14" fill="#3A2A20" opacity="0.85"/>
    <circle cx="1406.1869293305492" cy="939.4853486231007" r="25.755522000683275" fill="#88A37B" opacity="0.92"/>
    <circle cx="1415.1869293305492" cy="933.4853486231007" r="18.028865400478292" fill="#88A37B" opacity="0.8"/>
    <circle cx="1399.1869293305492" cy="933.4853486231007" r="16.74108930044413" fill="#88A37B" opacity="0.7"/>
    

    <ellipse cx="1254.5230853204948" cy="987.216341188124" rx="22.640653330322596" ry="8.804698517347676" fill="#3E5C42" opacity="0.35"/>
    <rect x="1248.5230853204948" y="971.216341188124" width="3" height="14" fill="#3A2A20" opacity="0.85"/>
    <circle cx="1249.5230853204948" cy="961.216341188124" r="25.15628147813622" fill="#88A37B" opacity="0.92"/>
    <circle cx="1258.5230853204948" cy="955.216341188124" r="17.609397034695352" fill="#88A37B" opacity="0.8"/>
    <circle cx="1242.5230853204948" cy="955.216341188124" r="16.351582960788544" fill="#88A37B" opacity="0.7"/>
    

    <ellipse cx="1038.843294124188" cy="1063.9708027079198" rx="31.077850927031584" ry="12.085830916067838" fill="#3E5C42" opacity="0.35"/>
    <rect x="1032.843294124188" y="1047.9708027079198" width="3" height="14" fill="#3A2A20" opacity="0.85"/>
    <circle cx="1033.843294124188" cy="1037.9708027079198" r="34.53094547447954" fill="#88A37B" opacity="0.92"/>
    <circle cx="1042.843294124188" cy="1031.9708027079198" r="24.171661832135676" fill="#88A37B" opacity="0.8"/>
    <circle cx="1026.843294124188" cy="1031.9708027079198" r="22.4451145584117" fill="#88A37B" opacity="0.7"/>
    

    <ellipse cx="985.9858732340344" cy="1006.9863273711926" rx="23.19583510897771" ry="9.020602542380221" fill="#3E5C42" opacity="0.35"/>
    <rect x="979.9858732340344" y="990.9863273711926" width="3" height="14" fill="#3A2A20" opacity="0.85"/>
    <circle cx="980.9858732340344" cy="980.9863273711926" r="25.773150121086346" fill="#88A37B" opacity="0.92"/>
    <circle cx="989.9858732340344" cy="974.9863273711926" r="18.041205084760442" fill="#88A37B" opacity="0.8"/>
    <circle cx="973.9858732340344" cy="974.9863273711926" r="16.752547578706125" fill="#88A37B" opacity="0.7"/>
    

    <ellipse cx="902.0987490219933" cy="892.3877194621934" rx="30.82627874172971" ry="11.98799728845044" fill="#3E5C42" opacity="0.35"/>
    <rect x="896.0987490219933" y="876.3877194621934" width="3" height="14" fill="#3A2A20" opacity="0.85"/>
    <circle cx="897.0987490219933" cy="866.3877194621934" r="34.25142082414412" fill="#88A37B" opacity="0.92"/>
    <circle cx="906.0987490219933" cy="860.3877194621934" r="23.97599457690088" fill="#88A37B" opacity="0.8"/>
    <circle cx="890.0987490219933" cy="860.3877194621934" r="22.26342353569368" fill="#88A37B" opacity="0.7"/>
    

    <ellipse cx="1095.4222669096466" cy="1104.6375745661944" rx="18.51647106865955" ry="7.200849860034268" fill="#3E5C42" opacity="0.35"/>
    <rect x="1089.4222669096466" y="1088.6375745661944" width="3" height="14" fill="#3A2A20" opacity="0.85"/>
    <circle cx="1090.4222669096466" cy="1078.6375745661944" r="20.57385674295505" fill="#88A37B" opacity="0.92"/>
    <circle cx="1099.4222669096466" cy="1072.6375745661944" r="14.401699720068535" fill="#88A37B" opacity="0.8"/>
    <circle cx="1083.4222669096466" cy="1072.6375745661944" r="13.373006882920784" fill="#88A37B" opacity="0.7"/>
    

    <ellipse cx="1029.8388357682798" cy="877.5973900640593" rx="24.370645263811145" ry="9.47747315814878" fill="#3E5C42" opacity="0.35"/>
    <rect x="1023.8388357682798" y="861.5973900640593" width="3" height="14" fill="#3A2A20" opacity="0.85"/>
    <circle cx="1024.8388357682798" cy="851.5973900640593" r="27.07849473756794" fill="#88A37B" opacity="0.92"/>
    <circle cx="1033.8388357682798" cy="845.5973900640593" r="18.95494631629756" fill="#88A37B" opacity="0.8"/>
    <circle cx="1017.8388357682798" cy="845.5973900640593" r="17.60102157941916" fill="#88A37B" opacity="0.7"/>
    

    <ellipse cx="1062.7858645440303" cy="1058.8712321630255" rx="20.08360240593997" ry="7.81028982453221" fill="#3E5C42" opacity="0.35"/>
    <rect x="1056.7858645440303" y="1042.8712321630255" width="3" height="14" fill="#3A2A20" opacity="0.85"/>
    <circle cx="1057.7858645440303" cy="1032.8712321630255" r="22.315113784377743" fill="#88A37B" opacity="0.92"/>
    <circle cx="1066.7858645440303" cy="1026.8712321630255" r="15.62057964906442" fill="#88A37B" opacity="0.8"/>
    <circle cx="1050.7858645440303" cy="1026.8712321630255" r="14.504823959845533" fill="#88A37B" opacity="0.7"/>
    

    <ellipse cx="1370.5160860342899" cy="841.2227872307437" rx="29.57360593780934" ry="11.50084675359252" fill="#3E5C42" opacity="0.35"/>
    <rect x="1364.5160860342899" y="825.2227872307437" width="3" height="14" fill="#3A2A20" opacity="0.85"/>
    <circle cx="1365.5160860342899" cy="815.2227872307437" r="32.85956215312149" fill="#88A37B" opacity="0.92"/>
    <circle cx="1374.5160860342899" cy="809.2227872307437" r="23.00169350718504" fill="#88A37B" opacity="0.8"/>
    <circle cx="1358.5160860342899" cy="809.2227872307437" r="21.35871539952897" fill="#88A37B" opacity="0.7"/>
    

    <ellipse cx="894.8329668559196" cy="775.1295081830513" rx="19.584411534922424" ry="7.61616004135872" fill="#3E5C42" opacity="0.35"/>
    <rect x="888.8329668559196" y="759.1295081830513" width="3" height="14" fill="#3A2A20" opacity="0.85"/>
    <circle cx="889.8329668559196" cy="749.1295081830513" r="21.760457261024914" fill="#88A37B" opacity="0.92"/>
    <circle cx="898.8329668559196" cy="743.1295081830513" r="15.23232008271744" fill="#88A37B" opacity="0.8"/>
    <circle cx="882.8329668559196" cy="743.1295081830513" r="14.144297219666194" fill="#88A37B" opacity="0.7"/>
    

    <ellipse cx="833.3674273774071" cy="979.4906511757165" rx="22.19377382655985" ry="8.630912043662162" fill="#3E5C42" opacity="0.35"/>
    <rect x="827.3674273774071" y="963.4906511757165" width="3" height="14" fill="#3A2A20" opacity="0.85"/>
    <circle cx="828.3674273774071" cy="953.4906511757165" r="24.65974869617761" fill="#88A37B" opacity="0.92"/>
    <circle cx="837.3674273774071" cy="947.4906511757165" r="17.261824087324324" fill="#88A37B" opacity="0.8"/>
    <circle cx="821.3674273774071" cy="947.4906511757165" r="16.028836652515444" fill="#88A37B" opacity="0.7"/>
    

    <ellipse cx="1523.2733326045661" cy="929.4717980316183" rx="24.898558446172263" ry="9.68277272906699" fill="#3E5C42" opacity="0.35"/>
    <rect x="1517.2733326045661" y="913.4717980316183" width="3" height="14" fill="#3A2A20" opacity="0.85"/>
    <circle cx="1518.2733326045661" cy="903.4717980316183" r="27.665064940191403" fill="#88A37B" opacity="0.92"/>
    <circle cx="1527.2733326045661" cy="897.4717980316183" r="19.36554545813398" fill="#88A37B" opacity="0.8"/>
    <circle cx="1511.2733326045661" cy="897.4717980316183" r="17.982292211124413" fill="#88A37B" opacity="0.7"/>
    

    <ellipse cx="344.80667933929976" cy="906.1272803316468" rx="23.16184791321412" ry="9.007385299583268" fill="#3E5C42" opacity="0.35"/>
    <rect x="338.80667933929976" y="890.1272803316468" width="3" height="14" fill="#3A2A20" opacity="0.85"/>
    <circle cx="339.80667933929976" cy="880.1272803316468" r="25.73538657023791" fill="#88A37B" opacity="0.92"/>
    <circle cx="348.80667933929976" cy="874.1272803316468" r="18.014770599166535" fill="#88A37B" opacity="0.8"/>
    <circle cx="332.80667933929976" cy="874.1272803316468" r="16.72800127065464" fill="#88A37B" opacity="0.7"/>
    

    <ellipse cx="379.20937624503847" cy="891.3175842450734" rx="31.02473928258064" ry="12.065176387670249" fill="#3E5C42" opacity="0.35"/>
    <rect x="373.20937624503847" y="875.3175842450734" width="3" height="14" fill="#3A2A20" opacity="0.85"/>
    <circle cx="374.20937624503847" cy="865.3175842450734" r="34.47193253620071" fill="#88A37B" opacity="0.92"/>
    <circle cx="383.20937624503847" cy="859.3175842450734" r="24.130352775340498" fill="#88A37B" opacity="0.8"/>
    <circle cx="367.20937624503847" cy="859.3175842450734" r="22.406756148530462" fill="#88A37B" opacity="0.7"/>
    

    <ellipse cx="662.2103089227871" cy="632.9185893546935" rx="26.17647215537717" ry="10.179739171535566" fill="#3E5C42" opacity="0.35"/>
    <rect x="656.2103089227871" y="616.9185893546935" width="3" height="14" fill="#3A2A20" opacity="0.85"/>
    <circle cx="657.2103089227871" cy="606.9185893546935" r="29.084969061530188" fill="#88A37B" opacity="0.92"/>
    <circle cx="666.2103089227871" cy="600.9185893546935" r="20.35947834307113" fill="#88A37B" opacity="0.8"/>
    <circle cx="650.2103089227871" cy="600.9185893546935" r="18.905229889994622" fill="#88A37B" opacity="0.7"/>
    

    <ellipse cx="1208.523178199192" cy="819.9421005925415" rx="24.27072562162098" ry="9.438615519519269" fill="#3E5C42" opacity="0.35"/>
    <rect x="1202.523178199192" y="803.9421005925415" width="3" height="14" fill="#3A2A20" opacity="0.85"/>
    <circle cx="1203.523178199192" cy="793.9421005925415" r="26.9674729129122" fill="#88A37B" opacity="0.92"/>
    <circle cx="1212.523178199192" cy="787.9421005925415" r="18.877231039038538" fill="#88A37B" opacity="0.8"/>
    <circle cx="1196.523178199192" cy="787.9421005925415" r="17.52885739339293" fill="#88A37B" opacity="0.7"/>
    

    <ellipse cx="686.8771965919692" cy="900.7942502930136" rx="20.46004618785539" ry="7.95668462861043" fill="#3E5C42" opacity="0.35"/>
    <rect x="680.8771965919692" y="884.7942502930136" width="3" height="14" fill="#3A2A20" opacity="0.85"/>
    <circle cx="681.8771965919692" cy="874.7942502930136" r="22.733384653172656" fill="#88A37B" opacity="0.92"/>
    <circle cx="690.8771965919692" cy="868.7942502930136" r="15.91336925722086" fill="#88A37B" opacity="0.8"/>
    <circle cx="674.8771965919692" cy="868.7942502930136" r="14.776700024562228" fill="#88A37B" opacity="0.7"/>
    

    <ellipse cx="774.7806132210195" cy="606.6241822510774" rx="20.999029270867652" ry="8.166289160892974" fill="#3E5C42" opacity="0.35"/>
    <rect x="768.7806132210195" y="590.6241822510774" width="3" height="14" fill="#3A2A20" opacity="0.85"/>
    <circle cx="769.7806132210195" cy="580.6241822510774" r="23.332254745408502" fill="#88A37B" opacity="0.92"/>
    <circle cx="778.7806132210195" cy="574.6241822510774" r="16.33257832178595" fill="#88A37B" opacity="0.8"/>
    <circle cx="762.7806132210195" cy="574.6241822510774" r="15.165965584515527" fill="#88A37B" opacity="0.7"/>
    

    <ellipse cx="595.1339420408394" cy="679.5762478251079" rx="25.50149387205923" ry="9.917247616911922" fill="#3E5C42" opacity="0.35"/>
    <rect x="589.1339420408394" y="663.5762478251079" width="3" height="14" fill="#3A2A20" opacity="0.85"/>
    <circle cx="590.1339420408394" cy="653.5762478251079" r="28.33499319117692" fill="#88A37B" opacity="0.92"/>
    <circle cx="599.1339420408394" cy="647.5762478251079" r="19.834495233823844" fill="#88A37B" opacity="0.8"/>
    <circle cx="583.1339420408394" cy="647.5762478251079" r="18.417745574265" fill="#88A37B" opacity="0.7"/>
    

    <ellipse cx="765.5578724183571" cy="907.5878861259334" rx="23.106477179357924" ry="8.985852236416969" fill="#3E5C42" opacity="0.35"/>
    <rect x="759.5578724183571" y="891.5878861259334" width="3" height="14" fill="#3A2A20" opacity="0.85"/>
    <circle cx="760.5578724183571" cy="881.5878861259334" r="25.673863532619915" fill="#88A37B" opacity="0.92"/>
    <circle cx="769.5578724183571" cy="875.5878861259334" r="17.971704472833938" fill="#88A37B" opacity="0.8"/>
    <circle cx="753.5578724183571" cy="875.5878861259334" r="16.688011296202944" fill="#88A37B" opacity="0.7"/>
    

    <ellipse cx="1296.8901640256036" cy="1021.4588577584498" rx="22.299089233930587" ry="8.67186803541745" fill="#3E5C42" opacity="0.35"/>
    <rect x="1290.8901640256036" y="1005.4588577584498" width="3" height="14" fill="#3A2A20" opacity="0.85"/>
    <circle cx="1291.8901640256036" cy="995.4588577584498" r="24.77676581547843" fill="#88A37B" opacity="0.92"/>
    <circle cx="1300.8901640256036" cy="989.4588577584498" r="17.3437360708349" fill="#88A37B" opacity="0.8"/>
    <circle cx="1284.8901640256036" cy="989.4588577584498" r="16.10489778006098" fill="#88A37B" opacity="0.7"/>
    

    <ellipse cx="1180.6274039873647" cy="801.4159643649068" rx="25.901790600694433" ry="10.072918566936723" fill="#3E5C42" opacity="0.35"/>
    <rect x="1174.6274039873647" y="785.4159643649068" width="3" height="14" fill="#3A2A20" opacity="0.85"/>
    <circle cx="1175.6274039873647" cy="775.4159643649068" r="28.779767334104925" fill="#88A37B" opacity="0.92"/>
    <circle cx="1184.6274039873647" cy="769.4159643649068" r="20.145837133873446" fill="#88A37B" opacity="0.8"/>
    <circle cx="1168.6274039873647" cy="769.4159643649068" r="18.7068487671682" fill="#88A37B" opacity="0.7"/>
    

    <ellipse cx="630.3248643290574" cy="1049.464710326939" rx="19.554327855648967" ry="7.604460832752376" fill="#3E5C42" opacity="0.35"/>
    <rect x="624.3248643290574" y="1033.464710326939" width="3" height="14" fill="#3A2A20" opacity="0.85"/>
    <circle cx="625.3248643290574" cy="1023.464710326939" r="21.727030950721076" fill="#88A37B" opacity="0.92"/>
    <circle cx="634.3248643290574" cy="1017.464710326939" r="15.208921665504752" fill="#88A37B" opacity="0.8"/>
    <circle cx="618.3248643290574" cy="1017.464710326939" r="14.1225701179687" fill="#88A37B" opacity="0.7"/>
    

    <ellipse cx="717.1737444053608" cy="973.0097663908466" rx="32.630431212841295" ry="12.689612138327169" fill="#3E5C42" opacity="0.35"/>
    <rect x="711.1737444053608" y="957.0097663908466" width="3" height="14" fill="#3A2A20" opacity="0.85"/>
    <circle cx="712.1737444053608" cy="947.0097663908466" r="36.25603468093477" fill="#88A37B" opacity="0.92"/>
    <circle cx="721.1737444053608" cy="941.0097663908466" r="25.379224276654337" fill="#88A37B" opacity="0.8"/>
    <circle cx="705.1737444053608" cy="941.0097663908466" r="23.5664225426076" fill="#88A37B" opacity="0.7"/>
    

    <ellipse cx="1390.3963616148924" cy="1072.1439619528373" rx="32.170178197903915" ry="12.510624854740412" fill="#3E5C42" opacity="0.35"/>
    <rect x="1384.3963616148924" y="1056.1439619528373" width="3" height="14" fill="#3A2A20" opacity="0.85"/>
    <circle cx="1385.3963616148924" cy="1046.1439619528373" r="35.74464244211546" fill="#88A37B" opacity="0.92"/>
    <circle cx="1394.3963616148924" cy="1040.1439619528373" r="25.021249709480823" fill="#88A37B" opacity="0.8"/>
    <circle cx="1378.3963616148924" cy="1040.1439619528373" r="23.234017587375053" fill="#88A37B" opacity="0.7"/>
    

    <ellipse cx="1126.058224394625" cy="837.714077009883" rx="22.48889576907189" ry="8.7456816879724" fill="#3E5C42" opacity="0.35"/>
    <rect x="1120.058224394625" y="821.714077009883" width="3" height="14" fill="#3A2A20" opacity="0.85"/>
    <circle cx="1121.058224394625" cy="811.714077009883" r="24.987661965635432" fill="#88A37B" opacity="0.92"/>
    <circle cx="1130.058224394625" cy="805.714077009883" r="17.4913633759448" fill="#88A37B" opacity="0.8"/>
    <circle cx="1114.058224394625" cy="805.714077009883" r="16.241980277663032" fill="#88A37B" opacity="0.7"/>
    

    <ellipse cx="1041.9920637120536" cy="789.6263306795945" rx="20.043717528283455" ry="7.794779038776898" fill="#3E5C42" opacity="0.35"/>
    <rect x="1035.9920637120536" y="773.6263306795945" width="3" height="14" fill="#3A2A20" opacity="0.85"/>
    <circle cx="1036.9920637120536" cy="763.6263306795945" r="22.270797253648283" fill="#88A37B" opacity="0.92"/>
    <circle cx="1045.9920637120536" cy="757.6263306795945" r="15.589558077553797" fill="#88A37B" opacity="0.8"/>
    <circle cx="1029.9920637120536" cy="757.6263306795945" r="14.476018214871385" fill="#88A37B" opacity="0.7"/>
    

    <ellipse cx="1179.5536361087234" cy="762.1521967169065" rx="21.06031591245605" ry="8.190122854844018" fill="#3E5C42" opacity="0.35"/>
    <rect x="1173.5536361087234" y="746.1521967169065" width="3" height="14" fill="#3A2A20" opacity="0.85"/>
    <circle cx="1174.5536361087234" cy="736.1521967169065" r="23.400351013840055" fill="#88A37B" opacity="0.92"/>
    <circle cx="1183.5536361087234" cy="730.1521967169065" r="16.380245709688037" fill="#88A37B" opacity="0.8"/>
    <circle cx="1167.5536361087234" cy="730.1521967169065" r="15.210228158996037" fill="#88A37B" opacity="0.7"/>
    

    <ellipse cx="1075.7923606610293" cy="1151.7340701412195" rx="28.542435675142766" ry="11.099836095888852" fill="#3E5C42" opacity="0.35"/>
    <rect x="1069.7923606610293" y="1135.7340701412195" width="3" height="14" fill="#3A2A20" opacity="0.85"/>
    <circle cx="1070.7923606610293" cy="1125.7340701412195" r="31.713817416825293" fill="#88A37B" opacity="0.92"/>
    <circle cx="1079.7923606610293" cy="1119.7340701412195" r="22.199672191777704" fill="#88A37B" opacity="0.8"/>
    <circle cx="1063.7923606610293" cy="1119.7340701412195" r="20.613981320936443" fill="#88A37B" opacity="0.7"/>
    

    <ellipse cx="870.9725340229638" cy="671.7361916332059" rx="23.560576584001087" ry="9.162446449333755" fill="#3E5C42" opacity="0.35"/>
    <rect x="864.9725340229638" y="655.7361916332059" width="3" height="14" fill="#3A2A20" opacity="0.85"/>
    <circle cx="865.9725340229638" cy="645.7361916332059" r="26.178418426667875" fill="#88A37B" opacity="0.92"/>
    <circle cx="874.9725340229638" cy="639.7361916332059" r="18.32489289866751" fill="#88A37B" opacity="0.8"/>
    <circle cx="858.9725340229638" cy="639.7361916332059" r="17.015971977334118" fill="#88A37B" opacity="0.7"/>
    

    <ellipse cx="920.8396132255699" cy="1112.114030048095" rx="18.270828833688924" ry="7.105322324212358" fill="#3E5C42" opacity="0.35"/>
    <rect x="914.8396132255699" y="1096.114030048095" width="3" height="14" fill="#3A2A20" opacity="0.85"/>
    <circle cx="915.8396132255699" cy="1086.114030048095" r="20.300920926321027" fill="#88A37B" opacity="0.92"/>
    <circle cx="924.8396132255699" cy="1080.114030048095" r="14.210644648424717" fill="#88A37B" opacity="0.8"/>
    <circle cx="908.8396132255699" cy="1080.114030048095" r="13.195598602108667" fill="#88A37B" opacity="0.7"/>
    

    <ellipse cx="704.495124091433" cy="688.9480159632476" rx="31.017794327774947" ry="12.062475571912477" fill="#3E5C42" opacity="0.35"/>
    <rect x="698.495124091433" y="672.9480159632476" width="3" height="14" fill="#3A2A20" opacity="0.85"/>
    <circle cx="699.495124091433" cy="662.9480159632476" r="34.46421591974994" fill="#88A37B" opacity="0.92"/>
    <circle cx="708.495124091433" cy="656.9480159632476" r="24.124951143824955" fill="#88A37B" opacity="0.8"/>
    <circle cx="692.495124091433" cy="656.9480159632476" r="22.40174034783746" fill="#88A37B" opacity="0.7"/>
    

    <ellipse cx="1074.583826050315" cy="1054.987738852541" rx="20.399951028592575" ry="7.933314288897113" fill="#3E5C42" opacity="0.35"/>
    <rect x="1068.583826050315" y="1038.987738852541" width="3" height="14" fill="#3A2A20" opacity="0.85"/>
    <circle cx="1069.583826050315" cy="1028.987738852541" r="22.66661225399175" fill="#88A37B" opacity="0.92"/>
    <circle cx="1078.583826050315" cy="1022.987738852541" r="15.866628577794225" fill="#88A37B" opacity="0.8"/>
    <circle cx="1062.583826050315" cy="1022.987738852541" r="14.73329796509464" fill="#88A37B" opacity="0.7"/>
    

    <ellipse cx="861.947065518795" cy="768.5028186378681" rx="17.77726414629021" ry="6.913380501335082" fill="#3E5C42" opacity="0.35"/>
    <rect x="855.947065518795" y="752.5028186378681" width="3" height="14" fill="#3A2A20" opacity="0.85"/>
    <circle cx="856.947065518795" cy="742.5028186378681" r="19.752515718100234" fill="#88A37B" opacity="0.92"/>
    <circle cx="865.947065518795" cy="736.5028186378681" r="13.826761002670164" fill="#88A37B" opacity="0.8"/>
    <circle cx="849.947065518795" cy="736.5028186378681" r="12.839135216765152" fill="#88A37B" opacity="0.7"/>
    

    <ellipse cx="1000.5815461612704" cy="1152.2785458935828" rx="23.55439460565349" ry="9.160042346643023" fill="#3E5C42" opacity="0.35"/>
    <rect x="994.5815461612704" y="1136.2785458935828" width="3" height="14" fill="#3A2A20" opacity="0.85"/>
    <circle cx="995.5815461612704" cy="1126.2785458935828" r="26.17154956183721" fill="#88A37B" opacity="0.92"/>
    <circle cx="1004.5815461612704" cy="1120.2785458935828" r="18.320084693286045" fill="#88A37B" opacity="0.8"/>
    <circle cx="988.5815461612704" cy="1120.2785458935828" r="17.011507215194186" fill="#88A37B" opacity="0.7"/>
    

    <ellipse cx="873.1550864029045" cy="1091.9587237041083" rx="25.46160714339103" ry="9.901736111318733" fill="#3E5C42" opacity="0.35"/>
    <rect x="867.1550864029045" y="1075.9587237041083" width="3" height="14" fill="#3A2A20" opacity="0.85"/>
    <circle cx="868.1550864029045" cy="1065.9587237041083" r="28.290674603767812" fill="#88A37B" opacity="0.92"/>
    <circle cx="877.1550864029045" cy="1059.9587237041083" r="19.803472222637467" fill="#88A37B" opacity="0.8"/>
    <circle cx="861.1550864029045" cy="1059.9587237041083" r="18.38893849244908" fill="#88A37B" opacity="0.7"/>
    

    <ellipse cx="1039.476914526959" cy="901.670316849747" rx="18.86761577205182" ry="7.3374061335757075" fill="#3E5C42" opacity="0.35"/>
    <rect x="1033.476914526959" y="885.670316849747" width="3" height="14" fill="#3A2A20" opacity="0.85"/>
    <circle cx="1034.476914526959" cy="875.670316849747" r="20.964017524502022" fill="#88A37B" opacity="0.92"/>
    <circle cx="1043.476914526959" cy="869.670316849747" r="14.674812267151415" fill="#88A37B" opacity="0.8"/>
    <circle cx="1027.476914526959" cy="869.670316849747" r="13.626611390926316" fill="#88A37B" opacity="0.7"/>
    

    <ellipse cx="1030.3924093592145" cy="651.7458004198652" rx="31.12243379141862" ry="12.103168696662795" fill="#3E5C42" opacity="0.35"/>
    <rect x="1024.3924093592145" y="635.7458004198652" width="3" height="14" fill="#3A2A20" opacity="0.85"/>
    <circle cx="1025.3924093592145" cy="625.7458004198652" r="34.58048199046513" fill="#88A37B" opacity="0.92"/>
    <circle cx="1034.3924093592145" cy="619.7458004198652" r="24.20633739332559" fill="#88A37B" opacity="0.8"/>
    <circle cx="1018.3924093592145" cy="619.7458004198652" r="22.477313293802336" fill="#88A37B" opacity="0.7"/>
    

    <ellipse cx="1447.2428831225022" cy="1128.1729861054455" rx="26.12514283727916" ry="10.159777770053006" fill="#3E5C42" opacity="0.35"/>
    <rect x="1441.2428831225022" y="1112.1729861054455" width="3" height="14" fill="#3A2A20" opacity="0.85"/>
    <circle cx="1442.2428831225022" cy="1102.1729861054455" r="29.027936485865734" fill="#88A37B" opacity="0.92"/>
    <circle cx="1451.2428831225022" cy="1096.1729861054455" r="20.319555540106013" fill="#88A37B" opacity="0.8"/>
    <circle cx="1435.2428831225022" cy="1096.1729861054455" r="18.86815871581273" fill="#88A37B" opacity="0.7"/>
    

    <ellipse cx="1000.2252682936524" cy="760.3271057855122" rx="32.14318235446678" ry="12.500126471181524" fill="#3E5C42" opacity="0.35"/>
    <rect x="994.2252682936524" y="744.3271057855122" width="3" height="14" fill="#3A2A20" opacity="0.85"/>
    <circle cx="995.2252682936524" cy="734.3271057855122" r="35.714647060518644" fill="#88A37B" opacity="0.92"/>
    <circle cx="1004.2252682936524" cy="728.3271057855122" r="25.000252942363048" fill="#88A37B" opacity="0.8"/>
    <circle cx="988.2252682936524" cy="728.3271057855122" r="23.21452058933712" fill="#88A37B" opacity="0.7"/>
    

    <ellipse cx="1391.827842558896" cy="1169.0217104738977" rx="28.787684260369723" ry="11.195210545699336" fill="#3E5C42" opacity="0.35"/>
    <rect x="1385.827842558896" y="1153.0217104738977" width="3" height="14" fill="#3A2A20" opacity="0.85"/>
    <circle cx="1386.827842558896" cy="1143.0217104738977" r="31.98631584485525" fill="#88A37B" opacity="0.92"/>
    <circle cx="1395.827842558896" cy="1137.0217104738977" r="22.39042109139867" fill="#88A37B" opacity="0.8"/>
    <circle cx="1379.827842558896" cy="1137.0217104738977" r="20.791105299155912" fill="#88A37B" opacity="0.7"/>
    

    <ellipse cx="967.3353900024207" cy="757.5625070214376" rx="28.145312745140437" ry="10.945399400887947" fill="#3E5C42" opacity="0.35"/>
    <rect x="961.3353900024207" y="741.5625070214376" width="3" height="14" fill="#3A2A20" opacity="0.85"/>
    <circle cx="962.3353900024207" cy="731.5625070214376" r="31.27256971682271" fill="#88A37B" opacity="0.92"/>
    <circle cx="971.3353900024207" cy="725.5625070214376" r="21.890798801775894" fill="#88A37B" opacity="0.8"/>
    <circle cx="955.3353900024207" cy="725.5625070214376" r="20.32717031593476" fill="#88A37B" opacity="0.7"/>
    

    <ellipse cx="281.77096634382735" cy="882.6877102699876" rx="19.30939625894417" ry="7.509209656256066" fill="#3E5C42" opacity="0.35"/>
    <rect x="275.77096634382735" y="866.6877102699876" width="3" height="14" fill="#3A2A20" opacity="0.85"/>
    <circle cx="276.77096634382735" cy="856.6877102699876" r="21.45488473216019" fill="#88A37B" opacity="0.92"/>
    <circle cx="285.77096634382735" cy="850.6877102699876" r="15.018419312512131" fill="#88A37B" opacity="0.8"/>
    <circle cx="269.77096634382735" cy="850.6877102699876" r="13.945675075904123" fill="#88A37B" opacity="0.7"/>
    

    <ellipse cx="1413.5947660522252" cy="1030.9212752307878" rx="18.565679731272734" ry="7.219986562161617" fill="#3E5C42" opacity="0.35"/>
    <rect x="1407.5947660522252" y="1014.9212752307878" width="3" height="14" fill="#3A2A20" opacity="0.85"/>
    <circle cx="1408.5947660522252" cy="1004.9212752307878" r="20.62853303474748" fill="#88A37B" opacity="0.92"/>
    <circle cx="1417.5947660522252" cy="998.9212752307878" r="14.439973124323235" fill="#88A37B" opacity="0.8"/>
    <circle cx="1401.5947660522252" cy="998.9212752307878" r="13.408546472585863" fill="#88A37B" opacity="0.7"/>
    

    <ellipse cx="1329.870353969843" cy="842.7534474835552" rx="20.005629588208528" ry="7.779967062081093" fill="#3E5C42" opacity="0.35"/>
    <rect x="1323.870353969843" y="826.7534474835552" width="3" height="14" fill="#3A2A20" opacity="0.85"/>
    <circle cx="1324.870353969843" cy="816.7534474835552" r="22.228477320231697" fill="#88A37B" opacity="0.92"/>
    <circle cx="1333.870353969843" cy="810.7534474835552" r="15.559934124162186" fill="#88A37B" opacity="0.8"/>
    <circle cx="1317.870353969843" cy="810.7534474835552" r="14.448510258150604" fill="#88A37B" opacity="0.7"/>
    

    <ellipse cx="798.9102499960302" cy="799.4904239933479" rx="32.46466650420512" ry="12.625148084968655" fill="#3E5C42" opacity="0.35"/>
    <rect x="792.9102499960302" y="783.4904239933479" width="3" height="14" fill="#3A2A20" opacity="0.85"/>
    <circle cx="793.9102499960302" cy="773.4904239933479" r="36.07185167133902" fill="#88A37B" opacity="0.92"/>
    <circle cx="802.9102499960302" cy="767.4904239933479" r="25.25029616993731" fill="#88A37B" opacity="0.8"/>
    <circle cx="786.9102499960302" cy="767.4904239933479" r="23.44670358637036" fill="#88A37B" opacity="0.7"/>
    

    <ellipse cx="1580.3505945126326" cy="923.6610724164846" rx="27.415920390298055" ry="10.661746818449242" fill="#3E5C42" opacity="0.35"/>
    <rect x="1574.3505945126326" y="907.6610724164846" width="3" height="14" fill="#3A2A20" opacity="0.85"/>
    <circle cx="1575.3505945126326" cy="897.6610724164846" r="30.462133766997837" fill="#88A37B" opacity="0.92"/>
    <circle cx="1584.3505945126326" cy="891.6610724164846" r="21.323493636898483" fill="#88A37B" opacity="0.8"/>
    <circle cx="1568.3505945126326" cy="891.6610724164846" r="19.800386948548596" fill="#88A37B" opacity="0.7"/>
    

    <ellipse cx="339.29010749680947" cy="923.216253866575" rx="26.589600762129855" ry="10.340400296383832" fill="#3E5C42" opacity="0.35"/>
    <rect x="333.29010749680947" y="907.216253866575" width="3" height="14" fill="#3A2A20" opacity="0.85"/>
    <circle cx="334.29010749680947" cy="897.216253866575" r="29.54400084681095" fill="#88A37B" opacity="0.92"/>
    <circle cx="343.29010749680947" cy="891.216253866575" r="20.680800592767664" fill="#88A37B" opacity="0.8"/>
    <circle cx="327.29010749680947" cy="891.216253866575" r="19.20360055042712" fill="#88A37B" opacity="0.7"/>
    

    <ellipse cx="725.9712057358477" cy="982.6136750860359" rx="20.225572720274226" ry="7.865500502328865" fill="#3E5C42" opacity="0.35"/>
    <rect x="719.9712057358477" y="966.6136750860359" width="3" height="14" fill="#3A2A20" opacity="0.85"/>
    <circle cx="720.9712057358477" cy="956.6136750860359" r="22.472858578082473" fill="#88A37B" opacity="0.92"/>
    <circle cx="729.9712057358477" cy="950.6136750860359" r="15.73100100465773" fill="#88A37B" opacity="0.8"/>
    <circle cx="713.9712057358477" cy="950.6136750860359" r="14.607358075753607" fill="#88A37B" opacity="0.7"/>
    

    <ellipse cx="1049.5900424883707" cy="892.5591676786903" rx="24.000890053783174" ry="9.333679465360122" fill="#3E5C42" opacity="0.35"/>
    <rect x="1043.5900424883707" y="876.5591676786903" width="3" height="14" fill="#3A2A20" opacity="0.85"/>
    <circle cx="1044.5900424883707" cy="866.5591676786903" r="26.667655615314636" fill="#88A37B" opacity="0.92"/>
    <circle cx="1053.5900424883707" cy="860.5591676786903" r="18.667358930720244" fill="#88A37B" opacity="0.8"/>
    <circle cx="1037.5900424883707" cy="860.5591676786903" r="17.333976149954513" fill="#88A37B" opacity="0.7"/>
    

    <ellipse cx="1347.5648420083346" cy="1197.7813093054397" rx="27.44256119861139" ry="10.672107132793316" fill="#3E5C42" opacity="0.35"/>
    <rect x="1341.5648420083346" y="1181.7813093054397" width="3" height="14" fill="#3A2A20" opacity="0.85"/>
    <circle cx="1342.5648420083346" cy="1171.7813093054397" r="30.491734665123765" fill="#88A37B" opacity="0.92"/>
    <circle cx="1351.5648420083346" cy="1165.7813093054397" r="21.344214265586633" fill="#88A37B" opacity="0.8"/>
    <circle cx="1335.5648420083346" cy="1165.7813093054397" r="19.819627532330447" fill="#88A37B" opacity="0.7"/>
    

    <ellipse cx="1611.872996466136" cy="1016.6933769027879" rx="30.02086427649622" ry="11.674780551970752" fill="#3E5C42" opacity="0.35"/>
    <rect x="1605.872996466136" y="1000.6933769027879" width="3" height="14" fill="#3A2A20" opacity="0.85"/>
    <circle cx="1606.872996466136" cy="990.6933769027879" r="33.35651586277358" fill="#88A37B" opacity="0.92"/>
    <circle cx="1615.872996466136" cy="984.6933769027879" r="23.349561103941504" fill="#88A37B" opacity="0.8"/>
    <circle cx="1599.872996466136" cy="984.6933769027879" r="21.681735310802825" fill="#88A37B" opacity="0.7"/>
    

    <ellipse cx="1207.6416032970908" cy="815.0975299738651" rx="22.58087711006203" ry="8.781452209468567" fill="#3E5C42" opacity="0.35"/>
    <rect x="1201.6416032970908" y="799.0975299738651" width="3" height="14" fill="#3A2A20" opacity="0.85"/>
    <circle cx="1202.6416032970908" cy="789.0975299738651" r="25.089863455624478" fill="#88A37B" opacity="0.92"/>
    <circle cx="1211.6416032970908" cy="783.0975299738651" r="17.562904418937133" fill="#88A37B" opacity="0.8"/>
    <circle cx="1195.6416032970908" cy="783.0975299738651" r="16.308411246155913" fill="#88A37B" opacity="0.7"/>
    

    <ellipse cx="1280.5299657611347" cy="1222.8281169554616" rx="29.71820582819071" ry="11.557080044296388" fill="#3E5C42" opacity="0.35"/>
    <rect x="1274.5299657611347" y="1206.8281169554616" width="3" height="14" fill="#3A2A20" opacity="0.85"/>
    <circle cx="1275.5299657611347" cy="1196.8281169554616" r="33.02022869798968" fill="#88A37B" opacity="0.92"/>
    <circle cx="1284.5299657611347" cy="1190.8281169554616" r="23.114160088592776" fill="#88A37B" opacity="0.8"/>
    <circle cx="1268.5299657611347" cy="1190.8281169554616" r="21.463148653693292" fill="#88A37B" opacity="0.7"/>
    

    <ellipse cx="1274.7449610599524" cy="798.5819216354087" rx="26.088967538056483" ry="10.145709598133076" fill="#3E5C42" opacity="0.35"/>
    <rect x="1268.7449610599524" y="782.5819216354087" width="3" height="14" fill="#3A2A20" opacity="0.85"/>
    <circle cx="1269.7449610599524" cy="772.5819216354087" r="28.987741708951646" fill="#88A37B" opacity="0.92"/>
    <circle cx="1278.7449610599524" cy="766.5819216354087" r="20.29141919626615" fill="#88A37B" opacity="0.8"/>
    <circle cx="1262.7449610599524" cy="766.5819216354087" r="18.84203211081857" fill="#88A37B" opacity="0.7"/>
    

    <ellipse cx="524.4156120905119" cy="814.5045152074044" rx="28.26648215954667" ry="10.992520839823705" fill="#3E5C42" opacity="0.35"/>
    <rect x="518.4156120905119" y="798.5045152074044" width="3" height="14" fill="#3A2A20" opacity="0.85"/>
    <circle cx="519.4156120905119" cy="788.5045152074044" r="31.4072023994963" fill="#88A37B" opacity="0.92"/>
    <circle cx="528.4156120905119" cy="782.5045152074044" r="21.98504167964741" fill="#88A37B" opacity="0.8"/>
    <circle cx="512.4156120905119" cy="782.5045152074044" r="20.414681559672594" fill="#88A37B" opacity="0.7"/>
    

    <ellipse cx="1012.55515889767" cy="1093.691523482062" rx="23.319943965138272" ry="9.06886709755377" fill="#3E5C42" opacity="0.35"/>
    <rect x="1006.55515889767" y="1077.691523482062" width="3" height="14" fill="#3A2A20" opacity="0.85"/>
    <circle cx="1007.55515889767" cy="1067.691523482062" r="25.911048850153634" fill="#88A37B" opacity="0.92"/>
    <circle cx="1016.55515889767" cy="1061.691523482062" r="18.13773419510754" fill="#88A37B" opacity="0.8"/>
    <circle cx="1000.55515889767" cy="1061.691523482062" r="16.842181752599863" fill="#88A37B" opacity="0.7"/>
    

    <ellipse cx="664.635434725762" cy="658.4600634671543" rx="21.420519217660527" ry="8.330201917979092" fill="#3E5C42" opacity="0.35"/>
    <rect x="658.635434725762" y="642.4600634671543" width="3" height="14" fill="#3A2A20" opacity="0.85"/>
    <circle cx="659.635434725762" cy="632.4600634671543" r="23.800576908511694" fill="#88A37B" opacity="0.92"/>
    <circle cx="668.635434725762" cy="626.4600634671543" r="16.660403835958185" fill="#88A37B" opacity="0.8"/>
    <circle cx="652.635434725762" cy="626.4600634671543" r="15.470374990532601" fill="#88A37B" opacity="0.7"/>
    

    <ellipse cx="545.6053772594419" cy="944.3396121862323" rx="29.058989354830874" ry="11.300718082434228" fill="#3E5C42" opacity="0.35"/>
    <rect x="539.6053772594419" y="928.3396121862323" width="3" height="14" fill="#3A2A20" opacity="0.85"/>
    <circle cx="540.6053772594419" cy="918.3396121862323" r="32.28776594981208" fill="#88A37B" opacity="0.92"/>
    <circle cx="549.6053772594419" cy="912.3396121862323" r="22.601436164868456" fill="#88A37B" opacity="0.8"/>
    <circle cx="533.6053772594419" cy="912.3396121862323" r="20.987047867377854" fill="#88A37B" opacity="0.7"/>
    

    <ellipse cx="1052.1210659734675" cy="838.1348240043914" rx="32.49478505716539" ry="12.636860855564315" fill="#3E5C42" opacity="0.35"/>
    <rect x="1046.1210659734675" y="822.1348240043914" width="3" height="14" fill="#3A2A20" opacity="0.85"/>
    <circle cx="1047.1210659734675" cy="812.1348240043914" r="36.10531673018376" fill="#88A37B" opacity="0.92"/>
    <circle cx="1056.1210659734675" cy="806.1348240043914" r="25.27372171112863" fill="#88A37B" opacity="0.8"/>
    <circle cx="1040.1210659734675" cy="806.1348240043914" r="23.468455874619444" fill="#88A37B" opacity="0.7"/>
    

    <ellipse cx="688.3540570860062" cy="1044.494013189587" rx="19.488934646660653" ry="7.5790301403680305" fill="#3E5C42" opacity="0.35"/>
    <rect x="682.3540570860062" y="1028.494013189587" width="3" height="14" fill="#3A2A20" opacity="0.85"/>
    <circle cx="683.3540570860062" cy="1018.4940131895869" r="21.654371829622946" fill="#88A37B" opacity="0.92"/>
    <circle cx="692.3540570860062" cy="1012.4940131895869" r="15.158060280736061" fill="#88A37B" opacity="0.8"/>
    <circle cx="676.3540570860062" cy="1012.4940131895869" r="14.075341689254914" fill="#88A37B" opacity="0.7"/>
    

    <ellipse cx="1344.7900794230993" cy="1070.404594111018" rx="26.70443360968614" ry="10.385057514877943" fill="#3E5C42" opacity="0.35"/>
    <rect x="1338.7900794230993" y="1054.404594111018" width="3" height="14" fill="#3A2A20" opacity="0.85"/>
    <circle cx="1339.7900794230993" cy="1044.404594111018" r="29.671592899651266" fill="#88A37B" opacity="0.92"/>
    <circle cx="1348.7900794230993" cy="1038.404594111018" r="20.770115029755885" fill="#88A37B" opacity="0.8"/>
    <circle cx="1332.7900794230993" cy="1038.404594111018" r="19.286535384773323" fill="#88A37B" opacity="0.7"/>
    

    <ellipse cx="984.8480893937937" cy="624.2057729485545" rx="19.003697404968108" ry="7.390326768598708" fill="#3E5C42" opacity="0.35"/>
    <rect x="978.8480893937937" y="608.2057729485545" width="3" height="14" fill="#3A2A20" opacity="0.85"/>
    <circle cx="979.8480893937937" cy="598.2057729485545" r="21.115219338853453" fill="#88A37B" opacity="0.92"/>
    <circle cx="988.8480893937937" cy="592.2057729485545" r="14.780653537197416" fill="#88A37B" opacity="0.8"/>
    <circle cx="972.8480893937937" cy="592.2057729485545" r="13.724892570254745" fill="#88A37B" opacity="0.7"/>
    

    <ellipse cx="1220.6920970897104" cy="963.7531534685949" rx="29.030580854490374" ry="11.28967033230181" fill="#3E5C42" opacity="0.35"/>
    <rect x="1214.6920970897104" y="947.7531534685949" width="3" height="14" fill="#3A2A20" opacity="0.85"/>
    <circle cx="1215.6920970897104" cy="937.7531534685949" r="32.25620094943375" fill="#88A37B" opacity="0.92"/>
    <circle cx="1224.6920970897104" cy="931.7531534685949" r="22.57934066460362" fill="#88A37B" opacity="0.8"/>
    <circle cx="1208.6920970897104" cy="931.7531534685949" r="20.966530617131937" fill="#88A37B" opacity="0.7"/>
    

    <ellipse cx="1387.5736940176907" cy="1101.041441427216" rx="19.80568478359717" ry="7.702210749176676" fill="#3E5C42" opacity="0.35"/>
    <rect x="1381.5736940176907" y="1085.041441427216" width="3" height="14" fill="#3A2A20" opacity="0.85"/>
    <circle cx="1382.5736940176907" cy="1075.041441427216" r="22.006316426219076" fill="#88A37B" opacity="0.92"/>
    <circle cx="1391.5736940176907" cy="1069.041441427216" r="15.404421498353353" fill="#88A37B" opacity="0.8"/>
    <circle cx="1375.5736940176907" cy="1069.041441427216" r="14.3041056770424" fill="#88A37B" opacity="0.7"/>
    

    <ellipse cx="907.6751646748514" cy="719.7739123572048" rx="32.583660251502096" ry="12.671423431139702" fill="#3E5C42" opacity="0.35"/>
    <rect x="901.6751646748514" y="703.7739123572048" width="3" height="14" fill="#3A2A20" opacity="0.85"/>
    <circle cx="902.6751646748514" cy="693.7739123572048" r="36.204066946113436" fill="#88A37B" opacity="0.92"/>
    <circle cx="911.6751646748514" cy="687.7739123572048" r="25.342846862279405" fill="#88A37B" opacity="0.8"/>
    <circle cx="895.6751646748514" cy="687.7739123572048" r="23.532643514973735" fill="#88A37B" opacity="0.7"/>
    

    <ellipse cx="1145.9690997357404" cy="704.0836615083527" rx="23.978284220214256" ry="9.324888307861098" fill="#3E5C42" opacity="0.35"/>
    <rect x="1139.9690997357404" y="688.0836615083527" width="3" height="14" fill="#3A2A20" opacity="0.85"/>
    <circle cx="1140.9690997357404" cy="678.0836615083527" r="26.642538022460283" fill="#88A37B" opacity="0.92"/>
    <circle cx="1149.9690997357404" cy="672.0836615083527" r="18.649776615722196" fill="#88A37B" opacity="0.8"/>
    <circle cx="1133.9690997357404" cy="672.0836615083527" r="17.317649714599185" fill="#88A37B" opacity="0.7"/>
    

    <ellipse cx="739.3664758424553" cy="885.4766131251031" rx="28.905113216082924" ry="11.240877361810025" fill="#3E5C42" opacity="0.35"/>
    <rect x="733.3664758424553" y="869.4766131251031" width="3" height="14" fill="#3A2A20" opacity="0.85"/>
    <circle cx="734.3664758424553" cy="859.4766131251031" r="32.11679246231436" fill="#88A37B" opacity="0.92"/>
    <circle cx="743.3664758424553" cy="853.4766131251031" r="22.48175472362005" fill="#88A37B" opacity="0.8"/>
    <circle cx="727.3664758424553" cy="853.4766131251031" r="20.875915100504333" fill="#88A37B" opacity="0.7"/>
    

    <ellipse cx="1323.6173681056875" cy="1021.3222743550901" rx="17.816024924044534" ry="6.92845413712843" fill="#3E5C42" opacity="0.35"/>
    <rect x="1317.6173681056875" y="1005.3222743550901" width="3" height="14" fill="#3A2A20" opacity="0.85"/>
    <circle cx="1318.6173681056875" cy="995.3222743550901" r="19.79558324893837" fill="#88A37B" opacity="0.92"/>
    <circle cx="1327.6173681056875" cy="989.3222743550901" r="13.85690827425686" fill="#88A37B" opacity="0.8"/>
    <circle cx="1311.6173681056875" cy="989.3222743550901" r="12.867129111809941" fill="#88A37B" opacity="0.7"/>
    

    <ellipse cx="711.4093464411968" cy="982.5392309642534" rx="31.93934434606967" ry="12.420856134582648" fill="#3E5C42" opacity="0.35"/>
    <rect x="705.4093464411968" y="966.5392309642534" width="3" height="14" fill="#3A2A20" opacity="0.85"/>
    <circle cx="706.4093464411968" cy="956.5392309642534" r="35.488160384521855" fill="#88A37B" opacity="0.92"/>
    <circle cx="715.4093464411968" cy="950.5392309642534" r="24.841712269165296" fill="#88A37B" opacity="0.8"/>
    <circle cx="699.4093464411968" cy="950.5392309642534" r="23.067304249939205" fill="#88A37B" opacity="0.7"/>
    

    <ellipse cx="817.4540088550567" cy="1039.4412482658054" rx="31.45206740590829" ry="12.231359546742112" fill="#3E5C42" opacity="0.35"/>
    <rect x="811.4540088550567" y="1023.4412482658054" width="3" height="14" fill="#3A2A20" opacity="0.85"/>
    <circle cx="812.4540088550567" cy="1013.4412482658054" r="34.94674156212032" fill="#88A37B" opacity="0.92"/>
    <circle cx="821.4540088550567" cy="1007.4412482658054" r="24.462719093484225" fill="#88A37B" opacity="0.8"/>
    <circle cx="805.4540088550567" cy="1007.4412482658054" r="22.71538201537821" fill="#88A37B" opacity="0.7"/>
    

    <ellipse cx="1389.3136881768262" cy="959.5707970728477" rx="29.363614136970696" ry="11.419183275488603" fill="#3E5C42" opacity="0.35"/>
    <rect x="1383.3136881768262" y="943.5707970728477" width="3" height="14" fill="#3A2A20" opacity="0.85"/>
    <circle cx="1384.3136881768262" cy="933.5707970728477" r="32.62623792996744" fill="#88A37B" opacity="0.92"/>
    <circle cx="1393.3136881768262" cy="927.5707970728477" r="22.838366550977206" fill="#88A37B" opacity="0.8"/>
    <circle cx="1377.3136881768262" cy="927.5707970728477" r="21.207054654478835" fill="#88A37B" opacity="0.7"/>
    

    <ellipse cx="1023.5188130659334" cy="730.0836938250416" rx="31.409834396840903" ry="12.214935598771461" fill="#3E5C42" opacity="0.35"/>
    <rect x="1017.5188130659334" y="714.0836938250416" width="3" height="14" fill="#3A2A20" opacity="0.85"/>
    <circle cx="1018.5188130659334" cy="704.0836938250416" r="34.89981599648989" fill="#88A37B" opacity="0.92"/>
    <circle cx="1027.5188130659335" cy="698.0836938250416" r="24.429871197542923" fill="#88A37B" opacity="0.8"/>
    <circle cx="1011.5188130659334" cy="698.0836938250416" r="22.68488039771843" fill="#88A37B" opacity="0.7"/>
    

    <ellipse cx="774.9643212447728" cy="945.6159244760871" rx="21.789886525482803" ry="8.473844759909978" fill="#3E5C42" opacity="0.35"/>
    <rect x="768.9643212447728" y="929.6159244760871" width="3" height="14" fill="#3A2A20" opacity="0.85"/>
    <circle cx="769.9643212447728" cy="919.6159244760871" r="24.210985028314226" fill="#88A37B" opacity="0.92"/>
    <circle cx="778.9643212447728" cy="913.6159244760871" r="16.947689519819956" fill="#88A37B" opacity="0.8"/>
    <circle cx="762.9643212447728" cy="913.6159244760871" r="15.737140268404248" fill="#88A37B" opacity="0.7"/>
    

    <ellipse cx="655.8175365696136" cy="938.5754595290543" rx="28.721416477301553" ry="11.169439741172825" fill="#3E5C42" opacity="0.35"/>
    <rect x="649.8175365696136" y="922.5754595290543" width="3" height="14" fill="#3A2A20" opacity="0.85"/>
    <circle cx="650.8175365696136" cy="912.5754595290543" r="31.912684974779502" fill="#88A37B" opacity="0.92"/>
    <circle cx="659.8175365696136" cy="906.5754595290543" r="22.33887948234565" fill="#88A37B" opacity="0.8"/>
    <circle cx="643.8175365696136" cy="906.5754595290543" r="20.743245233606675" fill="#88A37B" opacity="0.7"/>
    

    <ellipse cx="814.7155298607681" cy="1147.220097303904" rx="20.439528120198847" ry="7.948705380077329" fill="#3E5C42" opacity="0.35"/>
    <rect x="808.7155298607681" y="1131.220097303904" width="3" height="14" fill="#3A2A20" opacity="0.85"/>
    <circle cx="809.7155298607681" cy="1121.220097303904" r="22.71058680022094" fill="#88A37B" opacity="0.92"/>
    <circle cx="818.7155298607681" cy="1115.220097303904" r="15.897410760154658" fill="#88A37B" opacity="0.8"/>
    <circle cx="802.7155298607681" cy="1115.220097303904" r="14.761881420143613" fill="#88A37B" opacity="0.7"/>
    

    <ellipse cx="615.4886396951107" cy="621.7667764502116" rx="18.24106682802566" ry="7.093748210898866" fill="#3E5C42" opacity="0.35"/>
    <rect x="609.4886396951107" y="605.7667764502116" width="3" height="14" fill="#3A2A20" opacity="0.85"/>
    <circle cx="610.4886396951107" cy="595.7667764502116" r="20.26785203113962" fill="#88A37B" opacity="0.92"/>
    <circle cx="619.4886396951107" cy="589.7667764502116" r="14.187496421797732" fill="#88A37B" opacity="0.8"/>
    <circle cx="603.4886396951107" cy="589.7667764502116" r="13.174103820240752" fill="#88A37B" opacity="0.7"/>
    

    <ellipse cx="1174.9987024565114" cy="855.1609153542366" rx="31.258853301508143" ry="12.156220728364277" fill="#3E5C42" opacity="0.35"/>
    <rect x="1168.9987024565114" y="839.1609153542366" width="3" height="14" fill="#3A2A20" opacity="0.85"/>
    <circle cx="1169.9987024565114" cy="829.1609153542366" r="34.732059223897934" fill="#88A37B" opacity="0.92"/>
    <circle cx="1178.9987024565114" cy="823.1609153542366" r="24.312441456728553" fill="#88A37B" opacity="0.8"/>
    <circle cx="1162.9987024565114" cy="823.1609153542366" r="22.57583849553366" fill="#88A37B" opacity="0.7"/>
    

    <ellipse cx="1008.8347924372897" cy="988.0006552275536" rx="19.724099468140228" ry="7.670483126498977" fill="#3E5C42" opacity="0.35"/>
    <rect x="1002.8347924372897" y="972.0006552275536" width="3" height="14" fill="#3A2A20" opacity="0.85"/>
    <circle cx="1003.8347924372897" cy="962.0006552275536" r="21.915666075711364" fill="#88A37B" opacity="0.92"/>
    <circle cx="1012.8347924372897" cy="956.0006552275536" r="15.340966252997953" fill="#88A37B" opacity="0.8"/>
    <circle cx="996.8347924372897" cy="956.0006552275536" r="14.245182949212387" fill="#88A37B" opacity="0.7"/>
    

    <ellipse cx="1416.5802403766704" cy="883.8304460076373" rx="32.751076910438044" ry="12.736529909614795" fill="#3E5C42" opacity="0.35"/>
    <rect x="1410.5802403766704" y="867.8304460076373" width="3" height="14" fill="#3A2A20" opacity="0.85"/>
    <circle cx="1411.5802403766704" cy="857.8304460076373" r="36.39008545604227" fill="#88A37B" opacity="0.92"/>
    <circle cx="1420.5802403766704" cy="851.8304460076373" r="25.47305981922959" fill="#88A37B" opacity="0.8"/>
    <circle cx="1404.5802403766704" cy="851.8304460076373" r="23.653555546427476" fill="#88A37B" opacity="0.7"/>
    

    <ellipse cx="801.2748300724896" cy="745.1011403390014" rx="27.558111469472358" ry="10.71704334923925" fill="#3E5C42" opacity="0.35"/>
    <rect x="795.2748300724896" y="729.1011403390014" width="3" height="14" fill="#3A2A20" opacity="0.85"/>
    <circle cx="796.2748300724896" cy="719.1011403390014" r="30.620123854969286" fill="#88A37B" opacity="0.92"/>
    <circle cx="805.2748300724896" cy="713.1011403390014" r="21.4340866984785" fill="#88A37B" opacity="0.8"/>
    <circle cx="789.2748300724896" cy="713.1011403390014" r="19.903080505730035" fill="#88A37B" opacity="0.7"/>
    

    <ellipse cx="748.3812802752526" cy="1044.0613181505091" rx="29.614286130467715" ry="11.516666828515222" fill="#3E5C42" opacity="0.35"/>
    <rect x="742.3812802752526" y="1028.0613181505091" width="3" height="14" fill="#3A2A20" opacity="0.85"/>
    <circle cx="743.3812802752526" cy="1018.0613181505091" r="32.90476236718635" fill="#88A37B" opacity="0.92"/>
    <circle cx="752.3812802752526" cy="1012.0613181505091" r="23.033333657030443" fill="#88A37B" opacity="0.8"/>
    <circle cx="736.3812802752526" cy="1012.0613181505091" r="21.388095538671127" fill="#88A37B" opacity="0.7"/>
    

    <ellipse cx="594.6330365420063" cy="755.9429184149378" rx="32.58755609683593" ry="12.672938482102863" fill="#3E5C42" opacity="0.35"/>
    <rect x="588.6330365420063" y="739.9429184149378" width="3" height="14" fill="#3A2A20" opacity="0.85"/>
    <circle cx="589.6330365420063" cy="729.9429184149378" r="36.20839566315104" fill="#88A37B" opacity="0.92"/>
    <circle cx="598.6330365420063" cy="723.9429184149378" r="25.345876964205726" fill="#88A37B" opacity="0.8"/>
    <circle cx="582.6330365420063" cy="723.9429184149378" r="23.535457181048177" fill="#88A37B" opacity="0.7"/>
    

    <ellipse cx="779.4590583999367" cy="937.1426541127875" rx="22.5681794971877" ry="8.776514248906327" fill="#3E5C42" opacity="0.35"/>
    <rect x="773.4590583999367" y="921.1426541127875" width="3" height="14" fill="#3A2A20" opacity="0.85"/>
    <circle cx="774.4590583999367" cy="911.1426541127875" r="25.075754996875222" fill="#88A37B" opacity="0.92"/>
    <circle cx="783.4590583999367" cy="905.1426541127875" r="17.553028497812655" fill="#88A37B" opacity="0.8"/>
    <circle cx="767.4590583999367" cy="905.1426541127875" r="16.299240747968895" fill="#88A37B" opacity="0.7"/>
    

    <ellipse cx="1107.555235342486" cy="798.6691067358165" rx="31.48961923612366" ry="12.245963036270311" fill="#3E5C42" opacity="0.35"/>
    <rect x="1101.555235342486" y="782.6691067358165" width="3" height="14" fill="#3A2A20" opacity="0.85"/>
    <circle cx="1102.555235342486" cy="772.6691067358165" r="34.98846581791518" fill="#88A37B" opacity="0.92"/>
    <circle cx="1111.555235342486" cy="766.6691067358165" r="24.491926072540622" fill="#88A37B" opacity="0.8"/>
    <circle cx="1095.555235342486" cy="766.6691067358165" r="22.742502781644866" fill="#88A37B" opacity="0.7"/>
    

    <ellipse cx="1436.6904276402083" cy="940.6878098798728" rx="24.65895686000989" ry="9.58959433444829" fill="#3E5C42" opacity="0.35"/>
    <rect x="1430.6904276402083" y="924.6878098798728" width="3" height="14" fill="#3A2A20" opacity="0.85"/>
    <circle cx="1431.6904276402083" cy="914.6878098798728" r="27.398840955566545" fill="#88A37B" opacity="0.92"/>
    <circle cx="1440.6904276402083" cy="908.6878098798728" r="19.17918866889658" fill="#88A37B" opacity="0.8"/>
    <circle cx="1424.6904276402083" cy="908.6878098798728" r="17.809246621118255" fill="#88A37B" opacity="0.7"/>
    

    <ellipse cx="861.1394956923674" cy="680.3922280166663" rx="27.95417696782038" ry="10.871068820819037" fill="#3E5C42" opacity="0.35"/>
    <rect x="855.1394956923674" y="664.3922280166663" width="3" height="14" fill="#3A2A20" opacity="0.85"/>
    <circle cx="856.1394956923674" cy="654.3922280166663" r="31.060196630911534" fill="#88A37B" opacity="0.92"/>
    <circle cx="865.1394956923674" cy="648.3922280166663" r="21.742137641638074" fill="#88A37B" opacity="0.8"/>
    <circle cx="849.1394956923674" cy="648.3922280166663" r="20.189127810092497" fill="#88A37B" opacity="0.7"/>
    

    <ellipse cx="1537.2489876482498" cy="1110.7313782631413" rx="19.525189425307943" ry="7.593129220953089" fill="#3E5C42" opacity="0.35"/>
    <rect x="1531.2489876482498" y="1094.7313782631413" width="3" height="14" fill="#3A2A20" opacity="0.85"/>
    <circle cx="1532.2489876482498" cy="1084.7313782631413" r="21.694654917008826" fill="#88A37B" opacity="0.92"/>
    <circle cx="1541.2489876482498" cy="1078.7313782631413" r="15.186258441906178" fill="#88A37B" opacity="0.8"/>
    <circle cx="1525.2489876482498" cy="1078.7313782631413" r="14.101525696055738" fill="#88A37B" opacity="0.7"/>
    

    <ellipse cx="1355.9106206320184" cy="1155.8479061521275" rx="27.180915992122017" ry="10.570356219158562" fill="#3E5C42" opacity="0.35"/>
    <rect x="1349.9106206320184" y="1139.8479061521275" width="3" height="14" fill="#3A2A20" opacity="0.85"/>
    <circle cx="1350.9106206320184" cy="1129.8479061521275" r="30.201017769024464" fill="#88A37B" opacity="0.92"/>
    <circle cx="1359.9106206320184" cy="1123.8479061521275" r="21.140712438317124" fill="#88A37B" opacity="0.8"/>
    <circle cx="1343.9106206320184" cy="1123.8479061521275" r="19.630661549865902" fill="#88A37B" opacity="0.7"/>
    

    <ellipse cx="1162.841976545568" cy="1256.9953310634678" rx="25.369787582510273" ry="9.866028504309549" fill="#3E5C42" opacity="0.35"/>
    <rect x="1156.841976545568" y="1240.9953310634678" width="3" height="14" fill="#3A2A20" opacity="0.85"/>
    <circle cx="1157.841976545568" cy="1230.9953310634678" r="28.188652869455858" fill="#88A37B" opacity="0.92"/>
    <circle cx="1166.841976545568" cy="1224.9953310634678" r="19.732057008619098" fill="#88A37B" opacity="0.8"/>
    <circle cx="1150.841976545568" cy="1224.9953310634678" r="18.322624365146307" fill="#88A37B" opacity="0.7"/>
    

    <ellipse cx="792.5301404171465" cy="808.2941402311823" rx="19.77003746768944" ry="7.688347904101448" fill="#3E5C42" opacity="0.35"/>
    <rect x="786.5301404171465" y="792.2941402311823" width="3" height="14" fill="#3A2A20" opacity="0.85"/>
    <circle cx="787.5301404171465" cy="782.2941402311823" r="21.96670829743271" fill="#88A37B" opacity="0.92"/>
    <circle cx="796.5301404171465" cy="776.2941402311823" r="15.376695808202896" fill="#88A37B" opacity="0.8"/>
    <circle cx="780.5301404171465" cy="776.2941402311823" r="14.278360393331262" fill="#88A37B" opacity="0.7"/>
    

    <ellipse cx="829.599695537342" cy="819.2629757881824" rx="17.646957868944263" ry="6.862705837922768" fill="#3E5C42" opacity="0.35"/>
    <rect x="823.599695537342" y="803.2629757881824" width="3" height="14" fill="#3A2A20" opacity="0.85"/>
    <circle cx="824.599695537342" cy="793.2629757881824" r="19.607730965493623" fill="#88A37B" opacity="0.92"/>
    <circle cx="833.599695537342" cy="787.2629757881824" r="13.725411675845535" fill="#88A37B" opacity="0.8"/>
    <circle cx="817.599695537342" cy="787.2629757881824" r="12.745025127570855" fill="#88A37B" opacity="0.7"/>
    

    <ellipse cx="864.62844135688" cy="936.7187636614135" rx="17.95326660811231" ry="6.981825903154786" fill="#3E5C42" opacity="0.35"/>
    <rect x="858.62844135688" y="920.7187636614135" width="3" height="14" fill="#3A2A20" opacity="0.85"/>
    <circle cx="859.62844135688" cy="910.7187636614135" r="19.948074009013677" fill="#88A37B" opacity="0.92"/>
    <circle cx="868.62844135688" cy="904.7187636614135" r="13.963651806309572" fill="#88A37B" opacity="0.8"/>
    <circle cx="852.62844135688" cy="904.7187636614135" r="12.96624810585889" fill="#88A37B" opacity="0.7"/>
    

    <ellipse cx="726.0262217760394" cy="903.2302210922796" rx="25.518480411812007" ry="9.923853493482447" fill="#3E5C42" opacity="0.35"/>
    <rect x="720.0262217760394" y="887.2302210922796" width="3" height="14" fill="#3A2A20" opacity="0.85"/>
    <circle cx="721.0262217760394" cy="877.2302210922796" r="28.353867124235563" fill="#88A37B" opacity="0.92"/>
    <circle cx="730.0262217760394" cy="871.2302210922796" r="19.847706986964894" fill="#88A37B" opacity="0.8"/>
    <circle cx="714.0262217760394" cy="871.2302210922796" r="18.430013630753116" fill="#88A37B" opacity="0.7"/>
    

    <ellipse cx="178.2050573968603" cy="845.5670876072916" rx="32.088010668695766" ry="12.478670815603909" fill="#3E5C42" opacity="0.35"/>
    <rect x="172.2050573968603" y="829.5670876072916" width="3" height="14" fill="#3A2A20" opacity="0.85"/>
    <circle cx="173.2050573968603" cy="819.5670876072916" r="35.65334518743974" fill="#88A37B" opacity="0.92"/>
    <circle cx="182.2050573968603" cy="813.5670876072916" r="24.957341631207818" fill="#88A37B" opacity="0.8"/>
    <circle cx="166.2050573968603" cy="813.5670876072916" r="23.17467437183583" fill="#88A37B" opacity="0.7"/>
    

    <ellipse cx="527.2705768315927" cy="963.320958485772" rx="29.729865350401955" ry="11.561614302934093" fill="#3E5C42" opacity="0.35"/>
    <rect x="521.2705768315927" y="947.320958485772" width="3" height="14" fill="#3A2A20" opacity="0.85"/>
    <circle cx="522.2705768315927" cy="937.320958485772" r="33.03318372266884" fill="#88A37B" opacity="0.92"/>
    <circle cx="531.2705768315927" cy="931.320958485772" r="23.123228605868185" fill="#88A37B" opacity="0.8"/>
    <circle cx="515.2705768315927" cy="931.320958485772" r="21.471569419734745" fill="#88A37B" opacity="0.7"/>
    

    <ellipse cx="613.2914817019714" cy="805.6428337953657" rx="19.73216286746995" ry="7.67361889290498" fill="#3E5C42" opacity="0.35"/>
    <rect x="607.2914817019714" y="789.6428337953657" width="3" height="14" fill="#3A2A20" opacity="0.85"/>
    <circle cx="608.2914817019714" cy="779.6428337953657" r="21.924625408299942" fill="#88A37B" opacity="0.92"/>
    <circle cx="617.2914817019714" cy="773.6428337953657" r="15.34723778580996" fill="#88A37B" opacity="0.8"/>
    <circle cx="601.2914817019714" cy="773.6428337953657" r="14.251006515394963" fill="#88A37B" opacity="0.7"/>
    

    <ellipse cx="1719.3585651986411" cy="984.0194216832981" rx="27.892220910595817" ry="10.84697479856504" fill="#3E5C42" opacity="0.35"/>
    <rect x="1713.3585651986411" y="968.0194216832981" width="3" height="14" fill="#3A2A20" opacity="0.85"/>
    <circle cx="1714.3585651986411" cy="958.0194216832981" r="30.991356567328687" fill="#88A37B" opacity="0.92"/>
    <circle cx="1723.3585651986411" cy="952.0194216832981" r="21.69394959713008" fill="#88A37B" opacity="0.8"/>
    <circle cx="1707.3585651986411" cy="952.0194216832981" r="20.144381768763648" fill="#88A37B" opacity="0.7"/>
    

    <ellipse cx="704.019958950094" cy="966.545759434803" rx="18.598610115987732" ry="7.232792822884117" fill="#3E5C42" opacity="0.35"/>
    <rect x="698.019958950094" y="950.545759434803" width="3" height="14" fill="#3A2A20" opacity="0.85"/>
    <circle cx="699.019958950094" cy="940.545759434803" r="20.66512235109748" fill="#88A37B" opacity="0.92"/>
    <circle cx="708.019958950094" cy="934.545759434803" r="14.465585645768234" fill="#88A37B" opacity="0.8"/>
    <circle cx="692.019958950094" cy="934.545759434803" r="13.432329528213362" fill="#88A37B" opacity="0.7"/>
    

    <ellipse cx="1027.9539757534321" cy="1129.780147440394" rx="21.23673632903651" ry="8.25873079462531" fill="#3E5C42" opacity="0.35"/>
    <rect x="1021.9539757534321" y="1113.780147440394" width="3" height="14" fill="#3A2A20" opacity="0.85"/>
    <circle cx="1022.9539757534321" cy="1103.780147440394" r="23.596373698929455" fill="#88A37B" opacity="0.92"/>
    <circle cx="1031.9539757534321" cy="1097.780147440394" r="16.51746158925062" fill="#88A37B" opacity="0.8"/>
    <circle cx="1015.9539757534321" cy="1097.780147440394" r="15.337642904304145" fill="#88A37B" opacity="0.7"/>
    

    <ellipse cx="530.958429342253" cy="941.8300103532744" rx="19.278753186763907" ry="7.497292905963741" fill="#3E5C42" opacity="0.35"/>
    <rect x="524.958429342253" y="925.8300103532744" width="3" height="14" fill="#3A2A20" opacity="0.85"/>
    <circle cx="525.958429342253" cy="915.8300103532744" r="21.42083687418212" fill="#88A37B" opacity="0.92"/>
    <circle cx="534.958429342253" cy="909.8300103532744" r="14.994585811927482" fill="#88A37B" opacity="0.8"/>
    <circle cx="518.958429342253" cy="909.8300103532744" r="13.923543968218377" fill="#88A37B" opacity="0.7"/>
    

    <ellipse cx="1019.460184425231" cy="941.7211601389733" rx="18.83065401990322" ry="7.323032118851253" fill="#3E5C42" opacity="0.35"/>
    <rect x="1013.460184425231" y="925.7211601389733" width="3" height="14" fill="#3A2A20" opacity="0.85"/>
    <circle cx="1014.460184425231" cy="915.7211601389733" r="20.92294891100358" fill="#88A37B" opacity="0.92"/>
    <circle cx="1023.460184425231" cy="909.7211601389733" r="14.646064237702506" fill="#88A37B" opacity="0.8"/>
    <circle cx="1007.460184425231" cy="909.7211601389733" r="13.599916792152328" fill="#88A37B" opacity="0.7"/>
    

    <ellipse cx="806.9603705132952" cy="1144.465702062946" rx="32.14731921650566" ry="12.501735250863309" fill="#3E5C42" opacity="0.35"/>
    <rect x="800.9603705132952" y="1128.465702062946" width="3" height="14" fill="#3A2A20" opacity="0.85"/>
    <circle cx="801.9603705132952" cy="1118.465702062946" r="35.71924357389517" fill="#88A37B" opacity="0.92"/>
    <circle cx="810.9603705132952" cy="1112.465702062946" r="25.003470501726618" fill="#88A37B" opacity="0.8"/>
    <circle cx="794.9603705132952" cy="1112.465702062946" r="23.21750832303186" fill="#88A37B" opacity="0.7"/>
    

    <ellipse cx="712.7029084080095" cy="697.8933211221776" rx="22.559893393745373" ry="8.773291875345421" fill="#3E5C42" opacity="0.35"/>
    <rect x="706.7029084080095" y="681.8933211221776" width="3" height="14" fill="#3A2A20" opacity="0.85"/>
    <circle cx="707.7029084080095" cy="671.8933211221776" r="25.066548215272636" fill="#88A37B" opacity="0.92"/>
    <circle cx="716.7029084080095" cy="665.8933211221776" r="17.546583750690843" fill="#88A37B" opacity="0.8"/>
    <circle cx="700.7029084080095" cy="665.8933211221776" r="16.293256339927215" fill="#88A37B" opacity="0.7"/>
    

    <ellipse cx="1136.09916273783" cy="709.7079935915259" rx="31.566468495272" ry="12.275848859272445" fill="#3E5C42" opacity="0.35"/>
    <rect x="1130.09916273783" y="693.7079935915259" width="3" height="14" fill="#3A2A20" opacity="0.85"/>
    <circle cx="1131.09916273783" cy="683.7079935915259" r="35.07385388363556" fill="#88A37B" opacity="0.92"/>
    <circle cx="1140.09916273783" cy="677.7079935915259" r="24.55169771854489" fill="#88A37B" opacity="0.8"/>
    <circle cx="1124.09916273783" cy="677.7079935915259" r="22.798005024363114" fill="#88A37B" opacity="0.7"/>
    

    <ellipse cx="1212.1618148500004" cy="947.0651221267295" rx="18.897840951853073" ry="7.349160370165083" fill="#3E5C42" opacity="0.35"/>
    <rect x="1206.1618148500004" y="931.0651221267295" width="3" height="14" fill="#3A2A20" opacity="0.85"/>
    <circle cx="1207.1618148500004" cy="921.0651221267295" r="20.997601057614524" fill="#88A37B" opacity="0.92"/>
    <circle cx="1216.1618148500004" cy="915.0651221267295" r="14.698320740330166" fill="#88A37B" opacity="0.8"/>
    <circle cx="1200.1618148500004" cy="915.0651221267295" r="13.64844068744944" fill="#88A37B" opacity="0.7"/>
    

    <ellipse cx="1166.5360644899781" cy="973.3820719413316" rx="29.276357609500828" ry="11.385250181472543" fill="#3E5C42" opacity="0.35"/>
    <rect x="1160.5360644899781" y="957.3820719413316" width="3" height="14" fill="#3A2A20" opacity="0.85"/>
    <circle cx="1161.5360644899781" cy="947.3820719413316" r="32.529286232778695" fill="#88A37B" opacity="0.92"/>
    <circle cx="1170.5360644899781" cy="941.3820719413316" r="22.770500362945086" fill="#88A37B" opacity="0.8"/>
    <circle cx="1154.5360644899781" cy="941.3820719413316" r="21.144036051306152" fill="#88A37B" opacity="0.7"/>
    

    <ellipse cx="614.8219723844189" cy="837.4971220385182" rx="24.152016416740768" ry="9.39245082873252" fill="#3E5C42" opacity="0.35"/>
    <rect x="608.8219723844189" y="821.4971220385182" width="3" height="14" fill="#3A2A20" opacity="0.85"/>
    <circle cx="609.8219723844189" cy="811.4971220385182" r="26.83557379637863" fill="#88A37B" opacity="0.92"/>
    <circle cx="618.8219723844189" cy="805.4971220385182" r="18.78490165746504" fill="#88A37B" opacity="0.8"/>
    <circle cx="602.8219723844189" cy="805.4971220385182" r="17.443122967646108" fill="#88A37B" opacity="0.7"/>
    

    <ellipse cx="1039.5230037171166" cy="915.4797305554018" rx="25.62518961337094" ry="9.96535151631092" fill="#3E5C42" opacity="0.35"/>
    <rect x="1033.5230037171166" y="899.4797305554018" width="3" height="14" fill="#3A2A20" opacity="0.85"/>
    <circle cx="1034.5230037171166" cy="889.4797305554018" r="28.472432903745485" fill="#88A37B" opacity="0.92"/>
    <circle cx="1043.5230037171166" cy="883.4797305554018" r="19.93070303262184" fill="#88A37B" opacity="0.8"/>
    <circle cx="1027.5230037171166" cy="883.4797305554018" r="18.507081387434567" fill="#88A37B" opacity="0.7"/>
    

    <ellipse cx="1083.6113034717596" cy="1288.1940317594372" rx="19.083481177535" ry="7.421353791263609" fill="#3E5C42" opacity="0.35"/>
    <rect x="1077.6113034717596" y="1272.1940317594372" width="3" height="14" fill="#3A2A20" opacity="0.85"/>
    <circle cx="1078.6113034717596" cy="1262.1940317594372" r="21.203867975038886" fill="#88A37B" opacity="0.92"/>
    <circle cx="1087.6113034717596" cy="1256.1940317594372" r="14.842707582527218" fill="#88A37B" opacity="0.8"/>
    <circle cx="1071.6113034717596" cy="1256.1940317594372" r="13.782514183775277" fill="#88A37B" opacity="0.7"/>
    

    <ellipse cx="1050.0314341163262" cy="869.3607839539366" rx="21.853277088646994" ry="8.498496645584941" fill="#3E5C42" opacity="0.35"/>
    <rect x="1044.0314341163262" y="853.3607839539366" width="3" height="14" fill="#3A2A20" opacity="0.85"/>
    <circle cx="1045.0314341163262" cy="843.3607839539366" r="24.28141898738555" fill="#88A37B" opacity="0.92"/>
    <circle cx="1054.0314341163262" cy="837.3607839539366" r="16.996993291169883" fill="#88A37B" opacity="0.8"/>
    <circle cx="1038.0314341163262" cy="837.3607839539366" r="15.782922341800608" fill="#88A37B" opacity="0.7"/>
    

    <ellipse cx="489.96950485887726" cy="818.1553817646476" rx="28.22745150506495" ry="10.977342251969702" fill="#3E5C42" opacity="0.35"/>
    <rect x="483.96950485887726" y="802.1553817646476" width="3" height="14" fill="#3A2A20" opacity="0.85"/>
    <circle cx="484.96950485887726" cy="792.1553817646476" r="31.36383500562772" fill="#88A37B" opacity="0.92"/>
    <circle cx="493.96950485887726" cy="786.1553817646476" r="21.954684503939404" fill="#88A37B" opacity="0.8"/>
    <circle cx="477.96950485887726" cy="786.1553817646476" r="20.38649275365802" fill="#88A37B" opacity="0.7"/>
    
<polygon points="960.0,880.0 904.0,908.0 904.0,860.0 960.0,832.0" fill="#3E5C42" stroke="#000" stroke-opacity="0.15" stroke-width="0.6"/>
<polygon points="904.0,908.0 960.0,936.0 960.0,888.0 904.0,860.0" fill="#88A37B" stroke="#000" stroke-opacity="0.18" stroke-width="0.6"/>
<polygon points="960.0,832.0 1016.0,860.0 960.0,888.0 904.0,860.0" fill="#3E5C42" opacity="0.92" stroke="#000" stroke-opacity="0.12" stroke-width="0.5"/>
<polygon points="960.0,832.0 1016.0,860.0 960.0,842.0" fill="#88A37B" opacity="0.85"/>
<polygon points="904.0,860.0 960.0,888.0 960.0,842.0" fill="#3E5C42" opacity="0.75"/>
  <rect x="0" y="0" width="1600" height="900" filter="url(#grain-W-001)"/>
  
    <g font-family="Inter, Helvetica, sans-serif">
      <text x="60" y="60" font-size="14" fill="#F3EEDB" opacity="0.7" letter-spacing="4">GENESIS · W-001</text>
      <text x="60" y="86" font-size="34" fill="#F3EEDB" opacity="0.95" letter-spacing="6">EDEN</text>
      <text x="60" y="112" font-size="11" fill="#F3EEDB" opacity="0.55" letter-spacing="2">The First Garden</text>
      <text x="60" y="840" font-size="10" fill="#F3EEDB" opacity="0.55" letter-spacing="2">—</text>
      <text x="60" y="858" font-size="12" fill="#F3EEDB" opacity="0.7" letter-spacing="1.5" font-style="italic">"What was given without asking is what we forget to thank for."</text>
    </g>
    
</svg>
