<?xml version="1.0" encoding="UTF-8"?>
<svg xmlns="http://www.w3.org/2000/svg" viewBox="0 0 1600 900" width="1600" height="900">
  
    <defs>
      <linearGradient id="sky-W-004" x1="0" y1="0" x2="0" y2="1">
        <stop offset="0%" stop-color="#15110C"/>
        <stop offset="55%" stop-color="#2F2820"/>
        <stop offset="100%" stop-color="#7D6B4F"/>
      </linearGradient>
      <linearGradient id="ground-W-004" x1="0" y1="0" x2="0" y2="1">
        <stop offset="0%" stop-color="#7D6B4F"/>
        <stop offset="50%" stop-color="#C9BFA0"/>
        <stop offset="100%" stop-color="#EDE3CB"/>
      </linearGradient>
      <radialGradient id="sun-W-004" cx="50%" cy="50%" r="50%">
        <stop offset="0%" stop-color="#EDE3CB" stop-opacity="0.9"/>
        <stop offset="100%" stop-color="#EDE3CB" stop-opacity="0"/>
      </radialGradient>
      <filter id="grain-W-004" x="0" y="0" width="100%" height="100%">
        <feTurbulence type="fractalNoise" baseFrequency="0.85" numOctaves="2" seed="3408443746"/>
        <feColorMatrix values="0 0 0 0 0  0 0 0 0 0  0 0 0 0 0  0 0 0 0.05 0"/>
      </filter>
    </defs>
    
  
    <rect x="0" y="0" width="1600" height="900" fill="url(#sky-W-004)"/>
    <circle cx="1180" cy="280" r="220" fill="url(#sun-W-004)"/>
    <rect x="0" y="520" width="1600" height="380" fill="url(#ground-W-004)"/>
    
  <rect x="0" y="500" width="1600" height="40" fill="#7D6B4F" opacity="0.35"/><rect x="0" y="520" width="1600" height="14" fill="#C9BFA0" opacity="0.25"/>
  <polygon points="560.0,720.0 504.0,748.0 504.0,633.0 560.0,605.0" fill="#2F2820" stroke="#000" stroke-opacity="0.15" stroke-width="0.6"/>
<polygon points="504.0,748.0 560.0,776.0 560.0,661.0 504.0,633.0" fill="#7D6B4F" stroke="#000" stroke-opacity="0.18" stroke-width="0.6"/>
<polygon points="560.0,605.0 616.0,633.0 560.0,661.0 504.0,633.0" fill="#2F2820" opacity="0.92" stroke="#000" stroke-opacity="0.12" stroke-width="0.5"/>
<rect x="518.0" y="688.0" width="6" height="8" fill="#FFE9B0" opacity="0.45"/>
<rect x="542.0" y="688.0" width="6" height="8" fill="#FFE9B0" opacity="0.45"/>
<polygon points="400.0,800.0 344.0,828.0 344.0,741.0 400.0,713.0" fill="#2F2820" stroke="#000" stroke-opacity="0.15" stroke-width="0.6"/>
<polygon points="344.0,828.0 400.0,856.0 400.0,769.0 344.0,741.0" fill="#7D6B4F" stroke="#000" stroke-opacity="0.18" stroke-width="0.6"/>
<polygon points="400.0,713.0 456.0,741.0 400.0,769.0 344.0,741.0" fill="#2F2820" opacity="0.92" stroke="#000" stroke-opacity="0.12" stroke-width="0.5"/>
<polygon points="880.0,640.0 824.0,668.0 824.0,490.0 880.0,462.0" fill="#2F2820" stroke="#000" stroke-opacity="0.15" stroke-width="0.6"/>
<polygon points="824.0,668.0 880.0,696.0 880.0,518.0 824.0,490.0" fill="#7D6B4F" stroke="#000" stroke-opacity="0.18" stroke-width="0.6"/>
<polygon points="880.0,462.0 936.0,490.0 880.0,518.0 824.0,490.0" fill="#2F2820" opacity="0.92" stroke="#000" stroke-opacity="0.12" stroke-width="0.5"/>
<rect x="838.0" y="608.0" width="6" height="8" fill="#FFE9B0" opacity="0.45"/>
<rect x="862.0" y="608.0" width="6" height="8" fill="#FFE9B0" opacity="0.45"/>
<rect x="838.0" y="580.0" width="6" height="8" fill="#FFE9B0" opacity="0.45"/>
<rect x="862.0" y="580.0" width="6" height="8" fill="#FFE9B0" opacity="0.45"/>
<rect x="838.0" y="552.0" width="6" height="8" fill="#FFE9B0" opacity="0.45"/>
<rect x="862.0" y="552.0" width="6" height="8" fill="#FFE9B0" opacity="0.45"/>
<polygon points="880.0,462.0 936.0,490.0 880.0,472.0" fill="#7D6B4F" opacity="0.85"/>
<polygon points="824.0,490.0 880.0,518.0 880.0,472.0" fill="#2F2820" opacity="0.75"/>
<polygon points="800.0,680.0 744.0,708.0 744.0,616.0 800.0,588.0" fill="#2F2820" stroke="#000" stroke-opacity="0.15" stroke-width="0.6"/>
<polygon points="744.0,708.0 800.0,736.0 800.0,644.0 744.0,616.0" fill="#7D6B4F" stroke="#000" stroke-opacity="0.18" stroke-width="0.6"/>
<polygon points="800.0,588.0 856.0,616.0 800.0,644.0 744.0,616.0" fill="#2F2820" opacity="0.92" stroke="#000" stroke-opacity="0.12" stroke-width="0.5"/>
<rect x="758.0" y="648.0" width="6" height="8" fill="#FFE9B0" opacity="0.45"/>
<rect x="782.0" y="648.0" width="6" height="8" fill="#FFE9B0" opacity="0.45"/>
<polygon points="800.0,588.0 856.0,616.0 800.0,598.0" fill="#7D6B4F" opacity="0.85"/>
<polygon points="744.0,616.0 800.0,644.0 800.0,598.0" fill="#2F2820" opacity="0.75"/>
<polygon points="720.0,720.0 664.0,748.0 664.0,660.0 720.0,632.0" fill="#2F2820" stroke="#000" stroke-opacity="0.15" stroke-width="0.6"/>
<polygon points="664.0,748.0 720.0,776.0 720.0,688.0 664.0,660.0" fill="#7D6B4F" stroke="#000" stroke-opacity="0.18" stroke-width="0.6"/>
<polygon points="720.0,632.0 776.0,660.0 720.0,688.0 664.0,660.0" fill="#2F2820" opacity="0.92" stroke="#000" stroke-opacity="0.12" stroke-width="0.5"/>
<polygon points="640.0,760.0 584.0,788.0 584.0,682.0 640.0,654.0" fill="#2F2820" stroke="#000" stroke-opacity="0.15" stroke-width="0.6"/>
<polygon points="584.0,788.0 640.0,816.0 640.0,710.0 584.0,682.0" fill="#7D6B4F" stroke="#000" stroke-opacity="0.18" stroke-width="0.6"/>
<polygon points="640.0,654.0 696.0,682.0 640.0,710.0 584.0,682.0" fill="#2F2820" opacity="0.92" stroke="#000" stroke-opacity="0.12" stroke-width="0.5"/>
<rect x="598.0" y="728.0" width="6" height="8" fill="#FFE9B0" opacity="0.45"/>
<rect x="622.0" y="728.0" width="6" height="8" fill="#FFE9B0" opacity="0.45"/>
<polygon points="560.0,800.0 504.0,828.0 504.0,737.0 560.0,709.0" fill="#2F2820" stroke="#000" stroke-opacity="0.15" stroke-width="0.6"/>
<polygon points="504.0,828.0 560.0,856.0 560.0,765.0 504.0,737.0" fill="#7D6B4F" stroke="#000" stroke-opacity="0.18" stroke-width="0.6"/>
<polygon points="560.0,709.0 616.0,737.0 560.0,765.0 504.0,737.0" fill="#2F2820" opacity="0.92" stroke="#000" stroke-opacity="0.12" stroke-width="0.5"/>
<rect x="518.0" y="768.0" width="6" height="8" fill="#FFE9B0" opacity="0.45"/>
<rect x="542.0" y="768.0" width="6" height="8" fill="#FFE9B0" opacity="0.45"/>
<polygon points="960.0,680.0 904.0,708.0 904.0,558.0 960.0,530.0" fill="#2F2820" stroke="#000" stroke-opacity="0.15" stroke-width="0.6"/>
<polygon points="904.0,708.0 960.0,736.0 960.0,586.0 904.0,558.0" fill="#7D6B4F" stroke="#000" stroke-opacity="0.18" stroke-width="0.6"/>
<polygon points="960.0,530.0 1016.0,558.0 960.0,586.0 904.0,558.0" fill="#2F2820" opacity="0.92" stroke="#000" stroke-opacity="0.12" stroke-width="0.5"/>
<rect x="918.0" y="648.0" width="6" height="8" fill="#FFE9B0" opacity="0.45"/>
<rect x="942.0" y="648.0" width="6" height="8" fill="#FFE9B0" opacity="0.45"/>
<rect x="918.0" y="620.0" width="6" height="8" fill="#FFE9B0" opacity="0.45"/>
<rect x="942.0" y="620.0" width="6" height="8" fill="#FFE9B0" opacity="0.45"/>
<rect x="918.0" y="592.0" width="6" height="8" fill="#FFE9B0" opacity="0.45"/>
<rect x="942.0" y="592.0" width="6" height="8" fill="#FFE9B0" opacity="0.45"/>
<polygon points="880.0,720.0 824.0,748.0 824.0,598.0 880.0,570.0" fill="#2F2820" stroke="#000" stroke-opacity="0.15" stroke-width="0.6"/>
<polygon points="824.0,748.0 880.0,776.0 880.0,626.0 824.0,598.0" fill="#7D6B4F" stroke="#000" stroke-opacity="0.18" stroke-width="0.6"/>
<polygon points="880.0,570.0 936.0,598.0 880.0,626.0 824.0,598.0" fill="#2F2820" opacity="0.92" stroke="#000" stroke-opacity="0.12" stroke-width="0.5"/>
<rect x="838.0" y="688.0" width="6" height="8" fill="#FFE9B0" opacity="0.45"/>
<rect x="862.0" y="688.0" width="6" height="8" fill="#FFE9B0" opacity="0.45"/>
<rect x="838.0" y="660.0" width="6" height="8" fill="#FFE9B0" opacity="0.45"/>
<rect x="862.0" y="660.0" width="6" height="8" fill="#FFE9B0" opacity="0.45"/>
<rect x="838.0" y="632.0" width="6" height="8" fill="#FFE9B0" opacity="0.45"/>
<rect x="862.0" y="632.0" width="6" height="8" fill="#FFE9B0" opacity="0.45"/>
<polygon points="800.0,760.0 744.0,788.0 744.0,645.0 800.0,617.0" fill="#2F2820" stroke="#000" stroke-opacity="0.15" stroke-width="0.6"/>
<polygon points="744.0,788.0 800.0,816.0 800.0,673.0 744.0,645.0" fill="#7D6B4F" stroke="#000" stroke-opacity="0.18" stroke-width="0.6"/>
<polygon points="800.0,617.0 856.0,645.0 800.0,673.0 744.0,645.0" fill="#2F2820" opacity="0.92" stroke="#000" stroke-opacity="0.12" stroke-width="0.5"/>
<rect x="758.0" y="728.0" width="6" height="8" fill="#FFE9B0" opacity="0.45"/>
<rect x="782.0" y="728.0" width="6" height="8" fill="#FFE9B0" opacity="0.45"/>
<rect x="758.0" y="700.0" width="6" height="8" fill="#FFE9B0" opacity="0.45"/>
<rect x="782.0" y="700.0" width="6" height="8" fill="#FFE9B0" opacity="0.45"/>
<polygon points="800.0,617.0 856.0,645.0 800.0,627.0" fill="#7D6B4F" opacity="0.85"/>
<polygon points="744.0,645.0 800.0,673.0 800.0,627.0" fill="#2F2820" opacity="0.75"/>
<polygon points="720.0,800.0 664.0,828.0 664.0,724.0 720.0,696.0" fill="#2F2820" stroke="#000" stroke-opacity="0.15" stroke-width="0.6"/>
<polygon points="664.0,828.0 720.0,856.0 720.0,752.0 664.0,724.0" fill="#7D6B4F" stroke="#000" stroke-opacity="0.18" stroke-width="0.6"/>
<polygon points="720.0,696.0 776.0,724.0 720.0,752.0 664.0,724.0" fill="#2F2820" opacity="0.92" stroke="#000" stroke-opacity="0.12" stroke-width="0.5"/>
<rect x="678.0" y="768.0" width="6" height="8" fill="#FFE9B0" opacity="0.45"/>
<rect x="702.0" y="768.0" width="6" height="8" fill="#FFE9B0" opacity="0.45"/>
<polygon points="720.0,696.0 776.0,724.0 720.0,706.0" fill="#7D6B4F" opacity="0.85"/>
<polygon points="664.0,724.0 720.0,752.0 720.0,706.0" fill="#2F2820" opacity="0.75"/>
<polygon points="640.0,840.0 584.0,868.0 584.0,764.0 640.0,736.0" fill="#2F2820" stroke="#000" stroke-opacity="0.15" stroke-width="0.6"/>
<polygon points="584.0,868.0 640.0,896.0 640.0,792.0 584.0,764.0" fill="#7D6B4F" stroke="#000" stroke-opacity="0.18" stroke-width="0.6"/>
<polygon points="640.0,736.0 696.0,764.0 640.0,792.0 584.0,764.0" fill="#2F2820" opacity="0.92" stroke="#000" stroke-opacity="0.12" stroke-width="0.5"/>
<rect x="598.0" y="808.0" width="6" height="8" fill="#FFE9B0" opacity="0.45"/>
<rect x="622.0" y="808.0" width="6" height="8" fill="#FFE9B0" opacity="0.45"/>
<polygon points="960.0,760.0 904.0,788.0 904.0,702.0 960.0,674.0" fill="#2F2820" stroke="#000" stroke-opacity="0.15" stroke-width="0.6"/>
<polygon points="904.0,788.0 960.0,816.0 960.0,730.0 904.0,702.0" fill="#7D6B4F" stroke="#000" stroke-opacity="0.18" stroke-width="0.6"/>
<polygon points="960.0,674.0 1016.0,702.0 960.0,730.0 904.0,702.0" fill="#2F2820" opacity="0.92" stroke="#000" stroke-opacity="0.12" stroke-width="0.5"/>
<polygon points="960.0,674.0 1016.0,702.0 960.0,684.0" fill="#7D6B4F" opacity="0.85"/>
<polygon points="904.0,702.0 960.0,730.0 960.0,684.0" fill="#2F2820" opacity="0.75"/>
<polygon points="800.0,840.0 744.0,868.0 744.0,714.0 800.0,686.0" fill="#2F2820" stroke="#000" stroke-opacity="0.15" stroke-width="0.6"/>
<polygon points="744.0,868.0 800.0,896.0 800.0,742.0 744.0,714.0" fill="#7D6B4F" stroke="#000" stroke-opacity="0.18" stroke-width="0.6"/>
<polygon points="800.0,686.0 856.0,714.0 800.0,742.0 744.0,714.0" fill="#2F2820" opacity="0.92" stroke="#000" stroke-opacity="0.12" stroke-width="0.5"/>
<rect x="758.0" y="808.0" width="6" height="8" fill="#FFE9B0" opacity="0.45"/>
<rect x="782.0" y="808.0" width="6" height="8" fill="#FFE9B0" opacity="0.45"/>
<rect x="758.0" y="780.0" width="6" height="8" fill="#FFE9B0" opacity="0.45"/>
<rect x="782.0" y="780.0" width="6" height="8" fill="#FFE9B0" opacity="0.45"/>
<rect x="758.0" y="752.0" width="6" height="8" fill="#FFE9B0" opacity="0.45"/>
<rect x="782.0" y="752.0" width="6" height="8" fill="#FFE9B0" opacity="0.45"/>
<polygon points="800.0,686.0 856.0,714.0 800.0,696.0" fill="#7D6B4F" opacity="0.85"/>
<polygon points="744.0,714.0 800.0,742.0 800.0,696.0" fill="#2F2820" opacity="0.75"/>
<polygon points="720.0,880.0 664.0,908.0 664.0,763.0 720.0,735.0" fill="#2F2820" stroke="#000" stroke-opacity="0.15" stroke-width="0.6"/>
<polygon points="664.0,908.0 720.0,936.0 720.0,791.0 664.0,763.0" fill="#7D6B4F" stroke="#000" stroke-opacity="0.18" stroke-width="0.6"/>
<polygon points="720.0,735.0 776.0,763.0 720.0,791.0 664.0,763.0" fill="#2F2820" opacity="0.92" stroke="#000" stroke-opacity="0.12" stroke-width="0.5"/>
<rect x="678.0" y="848.0" width="6" height="8" fill="#FFE9B0" opacity="0.45"/>
<rect x="702.0" y="848.0" width="6" height="8" fill="#FFE9B0" opacity="0.45"/>
<rect x="678.0" y="820.0" width="6" height="8" fill="#FFE9B0" opacity="0.45"/>
<rect x="702.0" y="820.0" width="6" height="8" fill="#FFE9B0" opacity="0.45"/>
<polygon points="720.0,735.0 776.0,763.0 720.0,745.0" fill="#7D6B4F" opacity="0.85"/>
<polygon points="664.0,763.0 720.0,791.0 720.0,745.0" fill="#2F2820" opacity="0.75"/>
<polygon points="640.0,920.0 584.0,948.0 584.0,776.0 640.0,748.0" fill="#2F2820" stroke="#000" stroke-opacity="0.15" stroke-width="0.6"/>
<polygon points="584.0,948.0 640.0,976.0 640.0,804.0 584.0,776.0" fill="#7D6B4F" stroke="#000" stroke-opacity="0.18" stroke-width="0.6"/>
<polygon points="640.0,748.0 696.0,776.0 640.0,804.0 584.0,776.0" fill="#2F2820" opacity="0.92" stroke="#000" stroke-opacity="0.12" stroke-width="0.5"/>
<rect x="598.0" y="888.0" width="6" height="8" fill="#FFE9B0" opacity="0.45"/>
<rect x="622.0" y="888.0" width="6" height="8" fill="#FFE9B0" opacity="0.45"/>
<rect x="598.0" y="860.0" width="6" height="8" fill="#FFE9B0" opacity="0.45"/>
<rect x="622.0" y="860.0" width="6" height="8" fill="#FFE9B0" opacity="0.45"/>
<rect x="598.0" y="832.0" width="6" height="8" fill="#FFE9B0" opacity="0.45"/>
<rect x="622.0" y="832.0" width="6" height="8" fill="#FFE9B0" opacity="0.45"/>
<polygon points="1040.0,800.0 984.0,828.0 984.0,704.0 1040.0,676.0" fill="#2F2820" stroke="#000" stroke-opacity="0.15" stroke-width="0.6"/>
<polygon points="984.0,828.0 1040.0,856.0 1040.0,732.0 984.0,704.0" fill="#7D6B4F" stroke="#000" stroke-opacity="0.18" stroke-width="0.6"/>
<polygon points="1040.0,676.0 1096.0,704.0 1040.0,732.0 984.0,704.0" fill="#2F2820" opacity="0.92" stroke="#000" stroke-opacity="0.12" stroke-width="0.5"/>
<rect x="998.0" y="768.0" width="6" height="8" fill="#FFE9B0" opacity="0.45"/>
<rect x="1022.0" y="768.0" width="6" height="8" fill="#FFE9B0" opacity="0.45"/>
<rect x="998.0" y="740.0" width="6" height="8" fill="#FFE9B0" opacity="0.45"/>
<rect x="1022.0" y="740.0" width="6" height="8" fill="#FFE9B0" opacity="0.45"/>
<polygon points="1040.0,676.0 1096.0,704.0 1040.0,686.0" fill="#7D6B4F" opacity="0.85"/>
<polygon points="984.0,704.0 1040.0,732.0 1040.0,686.0" fill="#2F2820" opacity="0.75"/>
<polygon points="800.0,920.0 744.0,948.0 744.0,800.0 800.0,772.0" fill="#2F2820" stroke="#000" stroke-opacity="0.15" stroke-width="0.6"/>
<polygon points="744.0,948.0 800.0,976.0 800.0,828.0 744.0,800.0" fill="#7D6B4F" stroke="#000" stroke-opacity="0.18" stroke-width="0.6"/>
<polygon points="800.0,772.0 856.0,800.0 800.0,828.0 744.0,800.0" fill="#2F2820" opacity="0.92" stroke="#000" stroke-opacity="0.12" stroke-width="0.5"/>
<rect x="758.0" y="888.0" width="6" height="8" fill="#FFE9B0" opacity="0.45"/>
<rect x="782.0" y="888.0" width="6" height="8" fill="#FFE9B0" opacity="0.45"/>
<rect x="758.0" y="860.0" width="6" height="8" fill="#FFE9B0" opacity="0.45"/>
<rect x="782.0" y="860.0" width="6" height="8" fill="#FFE9B0" opacity="0.45"/>
<polygon points="800.0,772.0 856.0,800.0 800.0,782.0" fill="#7D6B4F" opacity="0.85"/>
<polygon points="744.0,800.0 800.0,828.0 800.0,782.0" fill="#2F2820" opacity="0.75"/>
<polygon points="720.0,960.0 664.0,988.0 664.0,903.0 720.0,875.0" fill="#2F2820" stroke="#000" stroke-opacity="0.15" stroke-width="0.6"/>
<polygon points="664.0,988.0 720.0,1016.0 720.0,931.0 664.0,903.0" fill="#7D6B4F" stroke="#000" stroke-opacity="0.18" stroke-width="0.6"/>
<polygon points="720.0,875.0 776.0,903.0 720.0,931.0 664.0,903.0" fill="#2F2820" opacity="0.92" stroke="#000" stroke-opacity="0.12" stroke-width="0.5"/>
<polygon points="1120.0,840.0 1064.0,868.0 1064.0,690.0 1120.0,662.0" fill="#2F2820" stroke="#000" stroke-opacity="0.15" stroke-width="0.6"/>
<polygon points="1064.0,868.0 1120.0,896.0 1120.0,718.0 1064.0,690.0" fill="#7D6B4F" stroke="#000" stroke-opacity="0.18" stroke-width="0.6"/>
<polygon points="1120.0,662.0 1176.0,690.0 1120.0,718.0 1064.0,690.0" fill="#2F2820" opacity="0.92" stroke="#000" stroke-opacity="0.12" stroke-width="0.5"/>
<rect x="1078.0" y="808.0" width="6" height="8" fill="#FFE9B0" opacity="0.45"/>
<rect x="1102.0" y="808.0" width="6" height="8" fill="#FFE9B0" opacity="0.45"/>
<rect x="1078.0" y="780.0" width="6" height="8" fill="#FFE9B0" opacity="0.45"/>
<rect x="1102.0" y="780.0" width="6" height="8" fill="#FFE9B0" opacity="0.45"/>
<rect x="1078.0" y="752.0" width="6" height="8" fill="#FFE9B0" opacity="0.45"/>
<rect x="1102.0" y="752.0" width="6" height="8" fill="#FFE9B0" opacity="0.45"/>
<polygon points="1040.0,880.0 984.0,908.0 984.0,740.0 1040.0,712.0" fill="#2F2820" stroke="#000" stroke-opacity="0.15" stroke-width="0.6"/>
<polygon points="984.0,908.0 1040.0,936.0 1040.0,768.0 984.0,740.0" fill="#7D6B4F" stroke="#000" stroke-opacity="0.18" stroke-width="0.6"/>
<polygon points="1040.0,712.0 1096.0,740.0 1040.0,768.0 984.0,740.0" fill="#2F2820" opacity="0.92" stroke="#000" stroke-opacity="0.12" stroke-width="0.5"/>
<rect x="998.0" y="848.0" width="6" height="8" fill="#FFE9B0" opacity="0.45"/>
<rect x="1022.0" y="848.0" width="6" height="8" fill="#FFE9B0" opacity="0.45"/>
<rect x="998.0" y="820.0" width="6" height="8" fill="#FFE9B0" opacity="0.45"/>
<rect x="1022.0" y="820.0" width="6" height="8" fill="#FFE9B0" opacity="0.45"/>
<rect x="998.0" y="792.0" width="6" height="8" fill="#FFE9B0" opacity="0.45"/>
<rect x="1022.0" y="792.0" width="6" height="8" fill="#FFE9B0" opacity="0.45"/>
<polygon points="960.0,920.0 904.0,948.0 904.0,804.0 960.0,776.0" fill="#2F2820" stroke="#000" stroke-opacity="0.15" stroke-width="0.6"/>
<polygon points="904.0,948.0 960.0,976.0 960.0,832.0 904.0,804.0" fill="#7D6B4F" stroke="#000" stroke-opacity="0.18" stroke-width="0.6"/>
<polygon points="960.0,776.0 1016.0,804.0 960.0,832.0 904.0,804.0" fill="#2F2820" opacity="0.92" stroke="#000" stroke-opacity="0.12" stroke-width="0.5"/>
<rect x="918.0" y="888.0" width="6" height="8" fill="#FFE9B0" opacity="0.45"/>
<rect x="942.0" y="888.0" width="6" height="8" fill="#FFE9B0" opacity="0.45"/>
<rect x="918.0" y="860.0" width="6" height="8" fill="#FFE9B0" opacity="0.45"/>
<rect x="942.0" y="860.0" width="6" height="8" fill="#FFE9B0" opacity="0.45"/>
<polygon points="800.0,1000.0 744.0,1028.0 744.0,917.0 800.0,889.0" fill="#2F2820" stroke="#000" stroke-opacity="0.15" stroke-width="0.6"/>
<polygon points="744.0,1028.0 800.0,1056.0 800.0,945.0 744.0,917.0" fill="#7D6B4F" stroke="#000" stroke-opacity="0.18" stroke-width="0.6"/>
<polygon points="800.0,889.0 856.0,917.0 800.0,945.0 744.0,917.0" fill="#2F2820" opacity="0.92" stroke="#000" stroke-opacity="0.12" stroke-width="0.5"/>
<rect x="758.0" y="968.0" width="6" height="8" fill="#FFE9B0" opacity="0.45"/>
<rect x="782.0" y="968.0" width="6" height="8" fill="#FFE9B0" opacity="0.45"/>
<polygon points="800.0,889.0 856.0,917.0 800.0,899.0" fill="#7D6B4F" opacity="0.85"/>
<polygon points="744.0,917.0 800.0,945.0 800.0,899.0" fill="#2F2820" opacity="0.75"/>
<polygon points="1280.0,840.0 1224.0,868.0 1224.0,780.0 1280.0,752.0" fill="#2F2820" stroke="#000" stroke-opacity="0.15" stroke-width="0.6"/>
<polygon points="1224.0,868.0 1280.0,896.0 1280.0,808.0 1224.0,780.0" fill="#7D6B4F" stroke="#000" stroke-opacity="0.18" stroke-width="0.6"/>
<polygon points="1280.0,752.0 1336.0,780.0 1280.0,808.0 1224.0,780.0" fill="#2F2820" opacity="0.92" stroke="#000" stroke-opacity="0.12" stroke-width="0.5"/>
<polygon points="1040.0,960.0 984.0,988.0 984.0,887.0 1040.0,859.0" fill="#2F2820" stroke="#000" stroke-opacity="0.15" stroke-width="0.6"/>
<polygon points="984.0,988.0 1040.0,1016.0 1040.0,915.0 984.0,887.0" fill="#7D6B4F" stroke="#000" stroke-opacity="0.18" stroke-width="0.6"/>
<polygon points="1040.0,859.0 1096.0,887.0 1040.0,915.0 984.0,887.0" fill="#2F2820" opacity="0.92" stroke="#000" stroke-opacity="0.12" stroke-width="0.5"/>
<rect x="998.0" y="928.0" width="6" height="8" fill="#FFE9B0" opacity="0.45"/>
<rect x="1022.0" y="928.0" width="6" height="8" fill="#FFE9B0" opacity="0.45"/>
<polygon points="960.0,1000.0 904.0,1028.0 904.0,892.0 960.0,864.0" fill="#2F2820" stroke="#000" stroke-opacity="0.15" stroke-width="0.6"/>
<polygon points="904.0,1028.0 960.0,1056.0 960.0,920.0 904.0,892.0" fill="#7D6B4F" stroke="#000" stroke-opacity="0.18" stroke-width="0.6"/>
<polygon points="960.0,864.0 1016.0,892.0 960.0,920.0 904.0,892.0" fill="#2F2820" opacity="0.92" stroke="#000" stroke-opacity="0.12" stroke-width="0.5"/>
<rect x="918.0" y="968.0" width="6" height="8" fill="#FFE9B0" opacity="0.45"/>
<rect x="942.0" y="968.0" width="6" height="8" fill="#FFE9B0" opacity="0.45"/>
<rect x="918.0" y="940.0" width="6" height="8" fill="#FFE9B0" opacity="0.45"/>
<rect x="942.0" y="940.0" width="6" height="8" fill="#FFE9B0" opacity="0.45"/>
<polygon points="960.0,864.0 1016.0,892.0 960.0,874.0" fill="#7D6B4F" opacity="0.85"/>
<polygon points="904.0,892.0 960.0,920.0 960.0,874.0" fill="#2F2820" opacity="0.75"/>
<polygon points="880.0,1040.0 824.0,1068.0 824.0,905.0 880.0,877.0" fill="#2F2820" stroke="#000" stroke-opacity="0.15" stroke-width="0.6"/>
<polygon points="824.0,1068.0 880.0,1096.0 880.0,933.0 824.0,905.0" fill="#7D6B4F" stroke="#000" stroke-opacity="0.18" stroke-width="0.6"/>
<polygon points="880.0,877.0 936.0,905.0 880.0,933.0 824.0,905.0" fill="#2F2820" opacity="0.92" stroke="#000" stroke-opacity="0.12" stroke-width="0.5"/>
<rect x="838.0" y="1008.0" width="6" height="8" fill="#FFE9B0" opacity="0.45"/>
<rect x="862.0" y="1008.0" width="6" height="8" fill="#FFE9B0" opacity="0.45"/>
<rect x="838.0" y="980.0" width="6" height="8" fill="#FFE9B0" opacity="0.45"/>
<rect x="862.0" y="980.0" width="6" height="8" fill="#FFE9B0" opacity="0.45"/>
<rect x="838.0" y="952.0" width="6" height="8" fill="#FFE9B0" opacity="0.45"/>
<rect x="862.0" y="952.0" width="6" height="8" fill="#FFE9B0" opacity="0.45"/>
<polygon points="880.0,877.0 936.0,905.0 880.0,887.0" fill="#7D6B4F" opacity="0.85"/>
<polygon points="824.0,905.0 880.0,933.0 880.0,887.0" fill="#2F2820" opacity="0.75"/>
<polygon points="1360.0,880.0 1304.0,908.0 1304.0,769.0 1360.0,741.0" fill="#2F2820" stroke="#000" stroke-opacity="0.15" stroke-width="0.6"/>
<polygon points="1304.0,908.0 1360.0,936.0 1360.0,797.0 1304.0,769.0" fill="#7D6B4F" stroke="#000" stroke-opacity="0.18" stroke-width="0.6"/>
<polygon points="1360.0,741.0 1416.0,769.0 1360.0,797.0 1304.0,769.0" fill="#2F2820" opacity="0.92" stroke="#000" stroke-opacity="0.12" stroke-width="0.5"/>
<rect x="1318.0" y="848.0" width="6" height="8" fill="#FFE9B0" opacity="0.45"/>
<rect x="1342.0" y="848.0" width="6" height="8" fill="#FFE9B0" opacity="0.45"/>
<rect x="1318.0" y="820.0" width="6" height="8" fill="#FFE9B0" opacity="0.45"/>
<rect x="1342.0" y="820.0" width="6" height="8" fill="#FFE9B0" opacity="0.45"/>
<polygon points="1360.0,741.0 1416.0,769.0 1360.0,751.0" fill="#7D6B4F" opacity="0.85"/>
<polygon points="1304.0,769.0 1360.0,797.0 1360.0,751.0" fill="#2F2820" opacity="0.75"/>
<polygon points="1040.0,1040.0 984.0,1068.0 984.0,890.0 1040.0,862.0" fill="#2F2820" stroke="#000" stroke-opacity="0.15" stroke-width="0.6"/>
<polygon points="984.0,1068.0 1040.0,1096.0 1040.0,918.0 984.0,890.0" fill="#7D6B4F" stroke="#000" stroke-opacity="0.18" stroke-width="0.6"/>
<polygon points="1040.0,862.0 1096.0,890.0 1040.0,918.0 984.0,890.0" fill="#2F2820" opacity="0.92" stroke="#000" stroke-opacity="0.12" stroke-width="0.5"/>
<rect x="998.0" y="1008.0" width="6" height="8" fill="#FFE9B0" opacity="0.45"/>
<rect x="1022.0" y="1008.0" width="6" height="8" fill="#FFE9B0" opacity="0.45"/>
<rect x="998.0" y="980.0" width="6" height="8" fill="#FFE9B0" opacity="0.45"/>
<rect x="1022.0" y="980.0" width="6" height="8" fill="#FFE9B0" opacity="0.45"/>
<rect x="998.0" y="952.0" width="6" height="8" fill="#FFE9B0" opacity="0.45"/>
<rect x="1022.0" y="952.0" width="6" height="8" fill="#FFE9B0" opacity="0.45"/>
<polygon points="1040.0,862.0 1096.0,890.0 1040.0,872.0" fill="#7D6B4F" opacity="0.85"/>
<polygon points="984.0,890.0 1040.0,918.0 1040.0,872.0" fill="#2F2820" opacity="0.75"/>
<polygon points="1360.0,960.0 1304.0,988.0 1304.0,857.0 1360.0,829.0" fill="#2F2820" stroke="#000" stroke-opacity="0.15" stroke-width="0.6"/>
<polygon points="1304.0,988.0 1360.0,1016.0 1360.0,885.0 1304.0,857.0" fill="#7D6B4F" stroke="#000" stroke-opacity="0.18" stroke-width="0.6"/>
<polygon points="1360.0,829.0 1416.0,857.0 1360.0,885.0 1304.0,857.0" fill="#2F2820" opacity="0.92" stroke="#000" stroke-opacity="0.12" stroke-width="0.5"/>
<rect x="1318.0" y="928.0" width="6" height="8" fill="#FFE9B0" opacity="0.45"/>
<rect x="1342.0" y="928.0" width="6" height="8" fill="#FFE9B0" opacity="0.45"/>
<rect x="1318.0" y="900.0" width="6" height="8" fill="#FFE9B0" opacity="0.45"/>
<rect x="1342.0" y="900.0" width="6" height="8" fill="#FFE9B0" opacity="0.45"/>
<polygon points="1280.0,1000.0 1224.0,1028.0 1224.0,905.0 1280.0,877.0" fill="#2F2820" stroke="#000" stroke-opacity="0.15" stroke-width="0.6"/>
<polygon points="1224.0,1028.0 1280.0,1056.0 1280.0,933.0 1224.0,905.0" fill="#7D6B4F" stroke="#000" stroke-opacity="0.18" stroke-width="0.6"/>
<polygon points="1280.0,877.0 1336.0,905.0 1280.0,933.0 1224.0,905.0" fill="#2F2820" opacity="0.92" stroke="#000" stroke-opacity="0.12" stroke-width="0.5"/>
<rect x="1238.0" y="968.0" width="6" height="8" fill="#FFE9B0" opacity="0.45"/>
<rect x="1262.0" y="968.0" width="6" height="8" fill="#FFE9B0" opacity="0.45"/>
<rect x="1238.0" y="940.0" width="6" height="8" fill="#FFE9B0" opacity="0.45"/>
<rect x="1262.0" y="940.0" width="6" height="8" fill="#FFE9B0" opacity="0.45"/>
<polygon points="1200.0,1040.0 1144.0,1068.0 1144.0,910.0 1200.0,882.0" fill="#2F2820" stroke="#000" stroke-opacity="0.15" stroke-width="0.6"/>
<polygon points="1144.0,1068.0 1200.0,1096.0 1200.0,938.0 1144.0,910.0" fill="#7D6B4F" stroke="#000" stroke-opacity="0.18" stroke-width="0.6"/>
<polygon points="1200.0,882.0 1256.0,910.0 1200.0,938.0 1144.0,910.0" fill="#2F2820" opacity="0.92" stroke="#000" stroke-opacity="0.12" stroke-width="0.5"/>
<rect x="1158.0" y="1008.0" width="6" height="8" fill="#FFE9B0" opacity="0.45"/>
<rect x="1182.0" y="1008.0" width="6" height="8" fill="#FFE9B0" opacity="0.45"/>
<rect x="1158.0" y="980.0" width="6" height="8" fill="#FFE9B0" opacity="0.45"/>
<rect x="1182.0" y="980.0" width="6" height="8" fill="#FFE9B0" opacity="0.45"/>
<rect x="1158.0" y="952.0" width="6" height="8" fill="#FFE9B0" opacity="0.45"/>
<rect x="1182.0" y="952.0" width="6" height="8" fill="#FFE9B0" opacity="0.45"/>
<polygon points="1120.0,1080.0 1064.0,1108.0 1064.0,1023.0 1120.0,995.0" fill="#2F2820" stroke="#000" stroke-opacity="0.15" stroke-width="0.6"/>
<polygon points="1064.0,1108.0 1120.0,1136.0 1120.0,1051.0 1064.0,1023.0" fill="#7D6B4F" stroke="#000" stroke-opacity="0.18" stroke-width="0.6"/>
<polygon points="1120.0,995.0 1176.0,1023.0 1120.0,1051.0 1064.0,1023.0" fill="#2F2820" opacity="0.92" stroke="#000" stroke-opacity="0.12" stroke-width="0.5"/>
<polygon points="1520.0,960.0 1464.0,988.0 1464.0,857.0 1520.0,829.0" fill="#2F2820" stroke="#000" stroke-opacity="0.15" stroke-width="0.6"/>
<polygon points="1464.0,988.0 1520.0,1016.0 1520.0,885.0 1464.0,857.0" fill="#7D6B4F" stroke="#000" stroke-opacity="0.18" stroke-width="0.6"/>
<polygon points="1520.0,829.0 1576.0,857.0 1520.0,885.0 1464.0,857.0" fill="#2F2820" opacity="0.92" stroke="#000" stroke-opacity="0.12" stroke-width="0.5"/>
<rect x="1478.0" y="928.0" width="6" height="8" fill="#FFE9B0" opacity="0.45"/>
<rect x="1502.0" y="928.0" width="6" height="8" fill="#FFE9B0" opacity="0.45"/>
<rect x="1478.0" y="900.0" width="6" height="8" fill="#FFE9B0" opacity="0.45"/>
<rect x="1502.0" y="900.0" width="6" height="8" fill="#FFE9B0" opacity="0.45"/>
<polygon points="1440.0,1000.0 1384.0,1028.0 1384.0,903.0 1440.0,875.0" fill="#2F2820" stroke="#000" stroke-opacity="0.15" stroke-width="0.6"/>
<polygon points="1384.0,1028.0 1440.0,1056.0 1440.0,931.0 1384.0,903.0" fill="#7D6B4F" stroke="#000" stroke-opacity="0.18" stroke-width="0.6"/>
<polygon points="1440.0,875.0 1496.0,903.0 1440.0,931.0 1384.0,903.0" fill="#2F2820" opacity="0.92" stroke="#000" stroke-opacity="0.12" stroke-width="0.5"/>
<rect x="1398.0" y="968.0" width="6" height="8" fill="#FFE9B0" opacity="0.45"/>
<rect x="1422.0" y="968.0" width="6" height="8" fill="#FFE9B0" opacity="0.45"/>
<rect x="1398.0" y="940.0" width="6" height="8" fill="#FFE9B0" opacity="0.45"/>
<rect x="1422.0" y="940.0" width="6" height="8" fill="#FFE9B0" opacity="0.45"/>
<polygon points="1440.0,875.0 1496.0,903.0 1440.0,885.0" fill="#7D6B4F" opacity="0.85"/>
<polygon points="1384.0,903.0 1440.0,931.0 1440.0,885.0" fill="#2F2820" opacity="0.75"/>
<polygon points="1280.0,1080.0 1224.0,1108.0 1224.0,979.0 1280.0,951.0" fill="#2F2820" stroke="#000" stroke-opacity="0.15" stroke-width="0.6"/>
<polygon points="1224.0,1108.0 1280.0,1136.0 1280.0,1007.0 1224.0,979.0" fill="#7D6B4F" stroke="#000" stroke-opacity="0.18" stroke-width="0.6"/>
<polygon points="1280.0,951.0 1336.0,979.0 1280.0,1007.0 1224.0,979.0" fill="#2F2820" opacity="0.92" stroke="#000" stroke-opacity="0.12" stroke-width="0.5"/>
<rect x="1238.0" y="1048.0" width="6" height="8" fill="#FFE9B0" opacity="0.45"/>
<rect x="1262.0" y="1048.0" width="6" height="8" fill="#FFE9B0" opacity="0.45"/>
<rect x="1238.0" y="1020.0" width="6" height="8" fill="#FFE9B0" opacity="0.45"/>
<rect x="1262.0" y="1020.0" width="6" height="8" fill="#FFE9B0" opacity="0.45"/>
<polygon points="1280.0,951.0 1336.0,979.0 1280.0,961.0" fill="#7D6B4F" opacity="0.85"/>
<polygon points="1224.0,979.0 1280.0,1007.0 1280.0,961.0" fill="#2F2820" opacity="0.75"/>
<polygon points="1120.0,1160.0 1064.0,1188.0 1064.0,1060.0 1120.0,1032.0" fill="#2F2820" stroke="#000" stroke-opacity="0.15" stroke-width="0.6"/>
<polygon points="1064.0,1188.0 1120.0,1216.0 1120.0,1088.0 1064.0,1060.0" fill="#7D6B4F" stroke="#000" stroke-opacity="0.18" stroke-width="0.6"/>
<polygon points="1120.0,1032.0 1176.0,1060.0 1120.0,1088.0 1064.0,1060.0" fill="#2F2820" opacity="0.92" stroke="#000" stroke-opacity="0.12" stroke-width="0.5"/>
<rect x="1078.0" y="1128.0" width="6" height="8" fill="#FFE9B0" opacity="0.45"/>
<rect x="1102.0" y="1128.0" width="6" height="8" fill="#FFE9B0" opacity="0.45"/>
<rect x="1078.0" y="1100.0" width="6" height="8" fill="#FFE9B0" opacity="0.45"/>
<rect x="1102.0" y="1100.0" width="6" height="8" fill="#FFE9B0" opacity="0.45"/>
  <rect x="0" y="0" width="1600" height="900" filter="url(#grain-W-004)"/>
  
    <g font-family="Inter, Helvetica, sans-serif">
      <text x="60" y="60" font-size="14" fill="#EDE3CB" opacity="0.7" letter-spacing="4">GENESIS · W-004</text>
      <text x="60" y="86" font-size="34" fill="#EDE3CB" opacity="0.95" letter-spacing="6">JERUSALEM</text>
      <text x="60" y="112" font-size="11" fill="#EDE3CB" opacity="0.55" letter-spacing="2">The City of Peace</text>
      <text x="60" y="840" font-size="10" fill="#EDE3CB" opacity="0.55" letter-spacing="2">—</text>
      <text x="60" y="858" font-size="12" fill="#EDE3CB" opacity="0.7" letter-spacing="1.5" font-style="italic">"The temple curtain split top to bottom."</text>
    </g>
    
</svg>
