<?xml version="1.0" encoding="UTF-8"?>
<svg xmlns="http://www.w3.org/2000/svg" viewBox="0 0 1600 900" width="1600" height="900">
  
    <defs>
      <linearGradient id="sky-W-103" x1="0" y1="0" x2="0" y2="1">
        <stop offset="0%" stop-color="#10141A"/>
        <stop offset="55%" stop-color="#2D353F"/>
        <stop offset="100%" stop-color="#727B85"/>
      </linearGradient>
      <linearGradient id="ground-W-103" x1="0" y1="0" x2="0" y2="1">
        <stop offset="0%" stop-color="#727B85"/>
        <stop offset="50%" stop-color="#BCC1C7"/>
        <stop offset="100%" stop-color="#E9E9E8"/>
      </linearGradient>
      <radialGradient id="sun-W-103" cx="50%" cy="50%" r="50%">
        <stop offset="0%" stop-color="#E9E9E8" stop-opacity="0.9"/>
        <stop offset="100%" stop-color="#E9E9E8" stop-opacity="0"/>
      </radialGradient>
      <filter id="grain-W-103" x="0" y="0" width="100%" height="100%">
        <feTurbulence type="fractalNoise" baseFrequency="0.85" numOctaves="2" seed="3771003564"/>
        <feColorMatrix values="0 0 0 0 0  0 0 0 0 0  0 0 0 0 0  0 0 0 0.05 0"/>
      </filter>
    </defs>
    
  
    <rect x="0" y="0" width="1600" height="900" fill="url(#sky-W-103)"/>
    <circle cx="1180" cy="280" r="220" fill="url(#sun-W-103)"/>
    <rect x="0" y="520" width="1600" height="380" fill="url(#ground-W-103)"/>
    
  <rect x="0" y="500" width="1600" height="40" fill="#727B85" opacity="0.35"/><rect x="0" y="520" width="1600" height="14" fill="#BCC1C7" opacity="0.25"/>
  <line x1="560.0" y1="720.0" x2="1360.0" y2="1120.0" stroke="#10141A" stroke-width="14" opacity="0.55" stroke-linecap="round"/>
<line x1="1200.0" y1="800.0" x2="720.0" y2="1040.0" stroke="#10141A" stroke-width="14" opacity="0.55" stroke-linecap="round"/>
<polygon points="680.0,700.0 624.0,728.0 624.0,656.0 680.0,628.0" fill="#2D353F" stroke="#000" stroke-opacity="0.15" stroke-width="0.6"/>
<polygon points="624.0,728.0 680.0,756.0 680.0,684.0 624.0,656.0" fill="#727B85" stroke="#000" stroke-opacity="0.18" stroke-width="0.6"/>
<polygon points="680.0,628.0 736.0,656.0 680.0,684.0 624.0,656.0" fill="#2D353F" opacity="0.92" stroke="#000" stroke-opacity="0.12" stroke-width="0.5"/>
<polygon points="560.0,760.0 504.0,788.0 504.0,658.0 560.0,630.0" fill="#2D353F" stroke="#000" stroke-opacity="0.15" stroke-width="0.6"/>
<polygon points="504.0,788.0 560.0,816.0 560.0,686.0 504.0,658.0" fill="#727B85" stroke="#000" stroke-opacity="0.18" stroke-width="0.6"/>
<polygon points="560.0,630.0 616.0,658.0 560.0,686.0 504.0,658.0" fill="#2D353F" opacity="0.92" stroke="#000" stroke-opacity="0.12" stroke-width="0.5"/>
<rect x="518.0" y="728.0" width="6" height="8" fill="#FFE9B0" opacity="0.45"/>
<rect x="542.0" y="728.0" width="6" height="8" fill="#FFE9B0" opacity="0.45"/>
<rect x="518.0" y="700.0" width="6" height="8" fill="#FFE9B0" opacity="0.45"/>
<rect x="542.0" y="700.0" width="6" height="8" fill="#FFE9B0" opacity="0.45"/>
<polygon points="440.0,820.0 384.0,848.0 384.0,766.0 440.0,738.0" fill="#2D353F" stroke="#000" stroke-opacity="0.15" stroke-width="0.6"/>
<polygon points="384.0,848.0 440.0,876.0 440.0,794.0 384.0,766.0" fill="#727B85" stroke="#000" stroke-opacity="0.18" stroke-width="0.6"/>
<polygon points="440.0,738.0 496.0,766.0 440.0,794.0 384.0,766.0" fill="#2D353F" opacity="0.92" stroke="#000" stroke-opacity="0.12" stroke-width="0.5"/>
<polygon points="800.0,760.0 744.0,788.0 744.0,715.0 800.0,687.0" fill="#2D353F" stroke="#000" stroke-opacity="0.15" stroke-width="0.6"/>
<polygon points="744.0,788.0 800.0,816.0 800.0,743.0 744.0,715.0" fill="#727B85" stroke="#000" stroke-opacity="0.18" stroke-width="0.6"/>
<polygon points="800.0,687.0 856.0,715.0 800.0,743.0 744.0,715.0" fill="#2D353F" opacity="0.92" stroke="#000" stroke-opacity="0.12" stroke-width="0.5"/>
<polygon points="560.0,880.0 504.0,908.0 504.0,836.0 560.0,808.0" fill="#2D353F" stroke="#000" stroke-opacity="0.15" stroke-width="0.6"/>
<polygon points="504.0,908.0 560.0,936.0 560.0,864.0 504.0,836.0" fill="#727B85" stroke="#000" stroke-opacity="0.18" stroke-width="0.6"/>
<polygon points="560.0,808.0 616.0,836.0 560.0,864.0 504.0,836.0" fill="#2D353F" opacity="0.92" stroke="#000" stroke-opacity="0.12" stroke-width="0.5"/>
<polygon points="800.0,880.0 744.0,908.0 744.0,859.0 800.0,831.0" fill="#2D353F" stroke="#000" stroke-opacity="0.15" stroke-width="0.6"/>
<polygon points="744.0,908.0 800.0,936.0 800.0,887.0 744.0,859.0" fill="#727B85" stroke="#000" stroke-opacity="0.18" stroke-width="0.6"/>
<polygon points="800.0,831.0 856.0,859.0 800.0,887.0 744.0,859.0" fill="#2D353F" opacity="0.92" stroke="#000" stroke-opacity="0.12" stroke-width="0.5"/>
<polygon points="680.0,940.0 624.0,968.0 624.0,852.0 680.0,824.0" fill="#2D353F" stroke="#000" stroke-opacity="0.15" stroke-width="0.6"/>
<polygon points="624.0,968.0 680.0,996.0 680.0,880.0 624.0,852.0" fill="#727B85" stroke="#000" stroke-opacity="0.18" stroke-width="0.6"/>
<polygon points="680.0,824.0 736.0,852.0 680.0,880.0 624.0,852.0" fill="#2D353F" opacity="0.92" stroke="#000" stroke-opacity="0.12" stroke-width="0.5"/>
<rect x="638.0" y="908.0" width="6" height="8" fill="#FFE9B0" opacity="0.45"/>
<rect x="662.0" y="908.0" width="6" height="8" fill="#FFE9B0" opacity="0.45"/>
<polygon points="680.0,824.0 736.0,852.0 680.0,834.0" fill="#727B85" opacity="0.85"/>
<polygon points="624.0,852.0 680.0,880.0 680.0,834.0" fill="#2D353F" opacity="0.75"/>
<polygon points="1280.0,880.0 1224.0,908.0 1224.0,834.0 1280.0,806.0" fill="#2D353F" stroke="#000" stroke-opacity="0.15" stroke-width="0.6"/>
<polygon points="1224.0,908.0 1280.0,936.0 1280.0,862.0 1224.0,834.0" fill="#727B85" stroke="#000" stroke-opacity="0.18" stroke-width="0.6"/>
<polygon points="1280.0,806.0 1336.0,834.0 1280.0,862.0 1224.0,834.0" fill="#2D353F" opacity="0.92" stroke="#000" stroke-opacity="0.12" stroke-width="0.5"/>
<polygon points="1280.0,806.0 1336.0,834.0 1280.0,816.0" fill="#727B85" opacity="0.85"/>
<polygon points="1224.0,834.0 1280.0,862.0 1280.0,816.0" fill="#2D353F" opacity="0.75"/>
<polygon points="1160.0,940.0 1104.0,968.0 1104.0,867.0 1160.0,839.0" fill="#2D353F" stroke="#000" stroke-opacity="0.15" stroke-width="0.6"/>
<polygon points="1104.0,968.0 1160.0,996.0 1160.0,895.0 1104.0,867.0" fill="#727B85" stroke="#000" stroke-opacity="0.18" stroke-width="0.6"/>
<polygon points="1160.0,839.0 1216.0,867.0 1160.0,895.0 1104.0,867.0" fill="#2D353F" opacity="0.92" stroke="#000" stroke-opacity="0.12" stroke-width="0.5"/>
<rect x="1118.0" y="908.0" width="6" height="8" fill="#FFE9B0" opacity="0.45"/>
<rect x="1142.0" y="908.0" width="6" height="8" fill="#FFE9B0" opacity="0.45"/>
<polygon points="1160.0,839.0 1216.0,867.0 1160.0,849.0" fill="#727B85" opacity="0.85"/>
<polygon points="1104.0,867.0 1160.0,895.0 1160.0,849.0" fill="#2D353F" opacity="0.75"/>
<polygon points="1040.0,1000.0 984.0,1028.0 984.0,956.0 1040.0,928.0" fill="#2D353F" stroke="#000" stroke-opacity="0.15" stroke-width="0.6"/>
<polygon points="984.0,1028.0 1040.0,1056.0 1040.0,984.0 984.0,956.0" fill="#727B85" stroke="#000" stroke-opacity="0.18" stroke-width="0.6"/>
<polygon points="1040.0,928.0 1096.0,956.0 1040.0,984.0 984.0,956.0" fill="#2D353F" opacity="0.92" stroke="#000" stroke-opacity="0.12" stroke-width="0.5"/>
<polygon points="1040.0,928.0 1096.0,956.0 1040.0,938.0" fill="#727B85" opacity="0.85"/>
<polygon points="984.0,956.0 1040.0,984.0 1040.0,938.0" fill="#2D353F" opacity="0.75"/>
<polygon points="920.0,1060.0 864.0,1088.0 864.0,989.0 920.0,961.0" fill="#2D353F" stroke="#000" stroke-opacity="0.15" stroke-width="0.6"/>
<polygon points="864.0,1088.0 920.0,1116.0 920.0,1017.0 864.0,989.0" fill="#727B85" stroke="#000" stroke-opacity="0.18" stroke-width="0.6"/>
<polygon points="920.0,961.0 976.0,989.0 920.0,1017.0 864.0,989.0" fill="#2D353F" opacity="0.92" stroke="#000" stroke-opacity="0.12" stroke-width="0.5"/>
<rect x="878.0" y="1028.0" width="6" height="8" fill="#FFE9B0" opacity="0.45"/>
<rect x="902.0" y="1028.0" width="6" height="8" fill="#FFE9B0" opacity="0.45"/>
<polygon points="1400.0,940.0 1344.0,968.0 1344.0,897.0 1400.0,869.0" fill="#2D353F" stroke="#000" stroke-opacity="0.15" stroke-width="0.6"/>
<polygon points="1344.0,968.0 1400.0,996.0 1400.0,925.0 1344.0,897.0" fill="#727B85" stroke="#000" stroke-opacity="0.18" stroke-width="0.6"/>
<polygon points="1400.0,869.0 1456.0,897.0 1400.0,925.0 1344.0,897.0" fill="#2D353F" opacity="0.92" stroke="#000" stroke-opacity="0.12" stroke-width="0.5"/>
<polygon points="1280.0,1000.0 1224.0,1028.0 1224.0,970.0 1280.0,942.0" fill="#2D353F" stroke="#000" stroke-opacity="0.15" stroke-width="0.6"/>
<polygon points="1224.0,1028.0 1280.0,1056.0 1280.0,998.0 1224.0,970.0" fill="#727B85" stroke="#000" stroke-opacity="0.18" stroke-width="0.6"/>
<polygon points="1280.0,942.0 1336.0,970.0 1280.0,998.0 1224.0,970.0" fill="#2D353F" opacity="0.92" stroke="#000" stroke-opacity="0.12" stroke-width="0.5"/>
<polygon points="1280.0,942.0 1336.0,970.0 1280.0,952.0" fill="#727B85" opacity="0.85"/>
<polygon points="1224.0,970.0 1280.0,998.0 1280.0,952.0" fill="#2D353F" opacity="0.75"/>
<polygon points="1160.0,1060.0 1104.0,1088.0 1104.0,975.0 1160.0,947.0" fill="#2D353F" stroke="#000" stroke-opacity="0.15" stroke-width="0.6"/>
<polygon points="1104.0,1088.0 1160.0,1116.0 1160.0,1003.0 1104.0,975.0" fill="#727B85" stroke="#000" stroke-opacity="0.18" stroke-width="0.6"/>
<polygon points="1160.0,947.0 1216.0,975.0 1160.0,1003.0 1104.0,975.0" fill="#2D353F" opacity="0.92" stroke="#000" stroke-opacity="0.12" stroke-width="0.5"/>
<rect x="1118.0" y="1028.0" width="6" height="8" fill="#FFE9B0" opacity="0.45"/>
<rect x="1142.0" y="1028.0" width="6" height="8" fill="#FFE9B0" opacity="0.45"/>
<polygon points="1160.0,947.0 1216.0,975.0 1160.0,957.0" fill="#727B85" opacity="0.85"/>
<polygon points="1104.0,975.0 1160.0,1003.0 1160.0,957.0" fill="#2D353F" opacity="0.75"/>
<polygon points="1520.0,1000.0 1464.0,1028.0 1464.0,950.0 1520.0,922.0" fill="#2D353F" stroke="#000" stroke-opacity="0.15" stroke-width="0.6"/>
<polygon points="1464.0,1028.0 1520.0,1056.0 1520.0,978.0 1464.0,950.0" fill="#727B85" stroke="#000" stroke-opacity="0.18" stroke-width="0.6"/>
<polygon points="1520.0,922.0 1576.0,950.0 1520.0,978.0 1464.0,950.0" fill="#2D353F" opacity="0.92" stroke="#000" stroke-opacity="0.12" stroke-width="0.5"/>
<polygon points="1400.0,1060.0 1344.0,1088.0 1344.0,1037.0 1400.0,1009.0" fill="#2D353F" stroke="#000" stroke-opacity="0.15" stroke-width="0.6"/>
<polygon points="1344.0,1088.0 1400.0,1116.0 1400.0,1065.0 1344.0,1037.0" fill="#727B85" stroke="#000" stroke-opacity="0.18" stroke-width="0.6"/>
<polygon points="1400.0,1009.0 1456.0,1037.0 1400.0,1065.0 1344.0,1037.0" fill="#2D353F" opacity="0.92" stroke="#000" stroke-opacity="0.12" stroke-width="0.5"/>
<polygon points="1280.0,1120.0 1224.0,1148.0 1224.0,1077.0 1280.0,1049.0" fill="#2D353F" stroke="#000" stroke-opacity="0.15" stroke-width="0.6"/>
<polygon points="1224.0,1148.0 1280.0,1176.0 1280.0,1105.0 1224.0,1077.0" fill="#727B85" stroke="#000" stroke-opacity="0.18" stroke-width="0.6"/>
<polygon points="1280.0,1049.0 1336.0,1077.0 1280.0,1105.0 1224.0,1077.0" fill="#2D353F" opacity="0.92" stroke="#000" stroke-opacity="0.12" stroke-width="0.5"/>
<polygon points="1160.0,1180.0 1104.0,1208.0 1104.0,1118.0 1160.0,1090.0" fill="#2D353F" stroke="#000" stroke-opacity="0.15" stroke-width="0.6"/>
<polygon points="1104.0,1208.0 1160.0,1236.0 1160.0,1146.0 1104.0,1118.0" fill="#727B85" stroke="#000" stroke-opacity="0.18" stroke-width="0.6"/>
<polygon points="1160.0,1090.0 1216.0,1118.0 1160.0,1146.0 1104.0,1118.0" fill="#2D353F" opacity="0.92" stroke="#000" stroke-opacity="0.12" stroke-width="0.5"/>
<rect x="1118.0" y="1148.0" width="6" height="8" fill="#FFE9B0" opacity="0.45"/>
<rect x="1142.0" y="1148.0" width="6" height="8" fill="#FFE9B0" opacity="0.45"/>

    <ellipse cx="748.1246404991623" cy="890.9391903503982" rx="13.860000000000003" ry="5.390000000000001" fill="#2D353F" opacity="0.35"/>
    <rect x="742.1246404991623" y="874.9391903503982" width="3" height="14" fill="#3A2A20" opacity="0.85"/>
    <circle cx="743.1246404991623" cy="864.9391903503982" r="15.400000000000002" fill="#727B85" opacity="0.92"/>
    <circle cx="752.1246404991623" cy="858.9391903503982" r="10.780000000000001" fill="#727B85" opacity="0.8"/>
    <circle cx="736.1246404991623" cy="858.9391903503982" r="10.010000000000002" fill="#727B85" opacity="0.7"/>
    

    <ellipse cx="1264.7490012600674" cy="950.1392167623155" rx="13.860000000000003" ry="5.390000000000001" fill="#2D353F" opacity="0.35"/>
    <rect x="1258.7490012600674" y="934.1392167623155" width="3" height="14" fill="#3A2A20" opacity="0.85"/>
    <circle cx="1259.7490012600674" cy="924.1392167623155" r="15.400000000000002" fill="#727B85" opacity="0.92"/>
    <circle cx="1268.7490012600674" cy="918.1392167623155" r="10.780000000000001" fill="#727B85" opacity="0.8"/>
    <circle cx="1252.7490012600674" cy="918.1392167623155" r="10.010000000000002" fill="#727B85" opacity="0.7"/>
    

    <ellipse cx="819.8890129838269" cy="697.5243616635232" rx="13.860000000000003" ry="5.390000000000001" fill="#2D353F" opacity="0.35"/>
    <rect x="813.8890129838269" y="681.5243616635232" width="3" height="14" fill="#3A2A20" opacity="0.85"/>
    <circle cx="814.8890129838269" cy="671.5243616635232" r="15.400000000000002" fill="#727B85" opacity="0.92"/>
    <circle cx="823.8890129838269" cy="665.5243616635232" r="10.780000000000001" fill="#727B85" opacity="0.8"/>
    <circle cx="807.8890129838269" cy="665.5243616635232" r="10.010000000000002" fill="#727B85" opacity="0.7"/>
    

    <ellipse cx="1088.9123484922625" cy="961.1669813835024" rx="13.860000000000003" ry="5.390000000000001" fill="#2D353F" opacity="0.35"/>
    <rect x="1082.9123484922625" y="945.1669813835024" width="3" height="14" fill="#3A2A20" opacity="0.85"/>
    <circle cx="1083.9123484922625" cy="935.1669813835024" r="15.400000000000002" fill="#727B85" opacity="0.92"/>
    <circle cx="1092.9123484922625" cy="929.1669813835024" r="10.780000000000001" fill="#727B85" opacity="0.8"/>
    <circle cx="1076.9123484922625" cy="929.1669813835024" r="10.010000000000002" fill="#727B85" opacity="0.7"/>
    

    <ellipse cx="960.5066106675903" cy="752.6410925336381" rx="13.860000000000003" ry="5.390000000000001" fill="#2D353F" opacity="0.35"/>
    <rect x="954.5066106675903" y="736.6410925336381" width="3" height="14" fill="#3A2A20" opacity="0.85"/>
    <circle cx="955.5066106675903" cy="726.6410925336381" r="15.400000000000002" fill="#727B85" opacity="0.92"/>
    <circle cx="964.5066106675903" cy="720.6410925336381" r="10.780000000000001" fill="#727B85" opacity="0.8"/>
    <circle cx="948.5066106675903" cy="720.6410925336381" r="10.010000000000002" fill="#727B85" opacity="0.7"/>
    

    <ellipse cx="1245.7976951643814" cy="829.185243443431" rx="13.860000000000003" ry="5.390000000000001" fill="#2D353F" opacity="0.35"/>
    <rect x="1239.7976951643814" y="813.185243443431" width="3" height="14" fill="#3A2A20" opacity="0.85"/>
    <circle cx="1240.7976951643814" cy="803.185243443431" r="15.400000000000002" fill="#727B85" opacity="0.92"/>
    <circle cx="1249.7976951643814" cy="797.185243443431" r="10.780000000000001" fill="#727B85" opacity="0.8"/>
    <circle cx="1233.7976951643814" cy="797.185243443431" r="10.010000000000002" fill="#727B85" opacity="0.7"/>
    

    <ellipse cx="1180.7841906810509" cy="1169.0016057684907" rx="13.860000000000003" ry="5.390000000000001" fill="#2D353F" opacity="0.35"/>
    <rect x="1174.7841906810509" y="1153.0016057684907" width="3" height="14" fill="#3A2A20" opacity="0.85"/>
    <circle cx="1175.7841906810509" cy="1143.0016057684907" r="15.400000000000002" fill="#727B85" opacity="0.92"/>
    <circle cx="1184.7841906810509" cy="1137.0016057684907" r="10.780000000000001" fill="#727B85" opacity="0.8"/>
    <circle cx="1168.7841906810509" cy="1137.0016057684907" r="10.010000000000002" fill="#727B85" opacity="0.7"/>
    

    <ellipse cx="860.8416921442639" cy="831.0035421867269" rx="13.860000000000003" ry="5.390000000000001" fill="#2D353F" opacity="0.35"/>
    <rect x="854.8416921442639" y="815.0035421867269" width="3" height="14" fill="#3A2A20" opacity="0.85"/>
    <circle cx="855.8416921442639" cy="805.0035421867269" r="15.400000000000002" fill="#727B85" opacity="0.92"/>
    <circle cx="864.8416921442639" cy="799.0035421867269" r="10.780000000000001" fill="#727B85" opacity="0.8"/>
    <circle cx="848.8416921442639" cy="799.0035421867269" r="10.010000000000002" fill="#727B85" opacity="0.7"/>
    

    <ellipse cx="637.5765915874294" cy="731.806027468085" rx="13.860000000000003" ry="5.390000000000001" fill="#2D353F" opacity="0.35"/>
    <rect x="631.5765915874294" y="715.806027468085" width="3" height="14" fill="#3A2A20" opacity="0.85"/>
    <circle cx="632.5765915874294" cy="705.806027468085" r="15.400000000000002" fill="#727B85" opacity="0.92"/>
    <circle cx="641.5765915874294" cy="699.806027468085" r="10.780000000000001" fill="#727B85" opacity="0.8"/>
    <circle cx="625.5765915874294" cy="699.806027468085" r="10.010000000000002" fill="#727B85" opacity="0.7"/>
    

    <ellipse cx="1239.7320956017506" cy="878.3871717231044" rx="13.860000000000003" ry="5.390000000000001" fill="#2D353F" opacity="0.35"/>
    <rect x="1233.7320956017506" y="862.3871717231044" width="3" height="14" fill="#3A2A20" opacity="0.85"/>
    <circle cx="1234.7320956017506" cy="852.3871717231044" r="15.400000000000002" fill="#727B85" opacity="0.92"/>
    <circle cx="1243.7320956017506" cy="846.3871717231044" r="10.780000000000001" fill="#727B85" opacity="0.8"/>
    <circle cx="1227.7320956017506" cy="846.3871717231044" r="10.010000000000002" fill="#727B85" opacity="0.7"/>
    

    <ellipse cx="937.0591467132583" cy="727.4080506545127" rx="13.860000000000003" ry="5.390000000000001" fill="#2D353F" opacity="0.35"/>
    <rect x="931.0591467132583" y="711.4080506545127" width="3" height="14" fill="#3A2A20" opacity="0.85"/>
    <circle cx="932.0591467132583" cy="701.4080506545127" r="15.400000000000002" fill="#727B85" opacity="0.92"/>
    <circle cx="941.0591467132583" cy="695.4080506545127" r="10.780000000000001" fill="#727B85" opacity="0.8"/>
    <circle cx="925.0591467132583" cy="695.4080506545127" r="10.010000000000002" fill="#727B85" opacity="0.7"/>
    

    <ellipse cx="666.6959060050808" cy="852.7297333097179" rx="13.860000000000003" ry="5.390000000000001" fill="#2D353F" opacity="0.35"/>
    <rect x="660.6959060050808" y="836.7297333097179" width="3" height="14" fill="#3A2A20" opacity="0.85"/>
    <circle cx="661.6959060050808" cy="826.7297333097179" r="15.400000000000002" fill="#727B85" opacity="0.92"/>
    <circle cx="670.6959060050808" cy="820.7297333097179" r="10.780000000000001" fill="#727B85" opacity="0.8"/>
    <circle cx="654.6959060050808" cy="820.7297333097179" r="10.010000000000002" fill="#727B85" opacity="0.7"/>
    

    <ellipse cx="930.574886761965" cy="1077.6433158409188" rx="13.860000000000003" ry="5.390000000000001" fill="#2D353F" opacity="0.35"/>
    <rect x="924.574886761965" y="1061.6433158409188" width="3" height="14" fill="#3A2A20" opacity="0.85"/>
    <circle cx="925.574886761965" cy="1051.6433158409188" r="15.400000000000002" fill="#727B85" opacity="0.92"/>
    <circle cx="934.574886761965" cy="1045.6433158409188" r="10.780000000000001" fill="#727B85" opacity="0.8"/>
    <circle cx="918.574886761965" cy="1045.6433158409188" r="10.010000000000002" fill="#727B85" opacity="0.7"/>
    

    <ellipse cx="1028.5270832666115" cy="1067.3141012417757" rx="13.860000000000003" ry="5.390000000000001" fill="#2D353F" opacity="0.35"/>
    <rect x="1022.5270832666115" y="1051.3141012417757" width="3" height="14" fill="#3A2A20" opacity="0.85"/>
    <circle cx="1023.5270832666115" cy="1041.3141012417757" r="15.400000000000002" fill="#727B85" opacity="0.92"/>
    <circle cx="1032.5270832666115" cy="1035.3141012417757" r="10.780000000000001" fill="#727B85" opacity="0.8"/>
    <circle cx="1016.5270832666115" cy="1035.3141012417757" r="10.010000000000002" fill="#727B85" opacity="0.7"/>
    

    <ellipse cx="1324.1409231886903" cy="1108.4176133816713" rx="13.860000000000003" ry="5.390000000000001" fill="#2D353F" opacity="0.35"/>
    <rect x="1318.1409231886903" y="1092.4176133816713" width="3" height="14" fill="#3A2A20" opacity="0.85"/>
    <circle cx="1319.1409231886903" cy="1082.4176133816713" r="15.400000000000002" fill="#727B85" opacity="0.92"/>
    <circle cx="1328.1409231886903" cy="1076.4176133816713" r="10.780000000000001" fill="#727B85" opacity="0.8"/>
    <circle cx="1312.1409231886903" cy="1076.4176133816713" r="10.010000000000002" fill="#727B85" opacity="0.7"/>
    

    <ellipse cx="852.9384205901704" cy="946.8359581457642" rx="13.860000000000003" ry="5.390000000000001" fill="#2D353F" opacity="0.35"/>
    <rect x="846.9384205901704" y="930.8359581457642" width="3" height="14" fill="#3A2A20" opacity="0.85"/>
    <circle cx="847.9384205901704" cy="920.8359581457642" r="15.400000000000002" fill="#727B85" opacity="0.92"/>
    <circle cx="856.9384205901704" cy="914.8359581457642" r="10.780000000000001" fill="#727B85" opacity="0.8"/>
    <circle cx="840.9384205901704" cy="914.8359581457642" r="10.010000000000002" fill="#727B85" opacity="0.7"/>
    

    <ellipse cx="505.4628520563513" cy="859.918517402727" rx="13.860000000000003" ry="5.390000000000001" fill="#2D353F" opacity="0.35"/>
    <rect x="499.4628520563513" y="843.918517402727" width="3" height="14" fill="#3A2A20" opacity="0.85"/>
    <circle cx="500.4628520563513" cy="833.918517402727" r="15.400000000000002" fill="#727B85" opacity="0.92"/>
    <circle cx="509.4628520563513" cy="827.918517402727" r="10.780000000000001" fill="#727B85" opacity="0.8"/>
    <circle cx="493.4628520563513" cy="827.918517402727" r="10.010000000000002" fill="#727B85" opacity="0.7"/>
    

    <ellipse cx="625.0322398060616" cy="910.5346604712124" rx="13.860000000000003" ry="5.390000000000001" fill="#2D353F" opacity="0.35"/>
    <rect x="619.0322398060616" y="894.5346604712124" width="3" height="14" fill="#3A2A20" opacity="0.85"/>
    <circle cx="620.0322398060616" cy="884.5346604712124" r="15.400000000000002" fill="#727B85" opacity="0.92"/>
    <circle cx="629.0322398060616" cy="878.5346604712124" r="10.780000000000001" fill="#727B85" opacity="0.8"/>
    <circle cx="613.0322398060616" cy="878.5346604712124" r="10.010000000000002" fill="#727B85" opacity="0.7"/>
    

    <rect x="611.0" y="698.0" width="2" height="36" fill="#2A2A2A" opacity="0.85"/>
    <circle cx="612.0" cy="696.0" r="3.5" fill="#FFE6A0" opacity="0.95"/>
    <circle cx="612.0" cy="696.0" r="11" fill="#FFE6A0" opacity="0.15"/>
    

    <rect x="691.0" y="738.0" width="2" height="36" fill="#2A2A2A" opacity="0.85"/>
    <circle cx="692.0" cy="736.0" r="3.5" fill="#FFE6A0" opacity="0.95"/>
    <circle cx="692.0" cy="736.0" r="11" fill="#FFE6A0" opacity="0.15"/>
    

    <rect x="771.0" y="778.0" width="2" height="36" fill="#2A2A2A" opacity="0.85"/>
    <circle cx="772.0" cy="776.0" r="3.5" fill="#FFE6A0" opacity="0.95"/>
    <circle cx="772.0" cy="776.0" r="11" fill="#FFE6A0" opacity="0.15"/>
    

    <rect x="851.0" y="818.0" width="2" height="36" fill="#2A2A2A" opacity="0.85"/>
    <circle cx="852.0" cy="816.0" r="3.5" fill="#FFE6A0" opacity="0.95"/>
    <circle cx="852.0" cy="816.0" r="11" fill="#FFE6A0" opacity="0.15"/>
    

    <rect x="931.0" y="858.0" width="2" height="36" fill="#2A2A2A" opacity="0.85"/>
    <circle cx="932.0" cy="856.0" r="3.5" fill="#FFE6A0" opacity="0.95"/>
    <circle cx="932.0" cy="856.0" r="11" fill="#FFE6A0" opacity="0.15"/>
    

    <rect x="1011.0" y="898.0" width="2" height="36" fill="#2A2A2A" opacity="0.85"/>
    <circle cx="1012.0" cy="896.0" r="3.5" fill="#FFE6A0" opacity="0.95"/>
    <circle cx="1012.0" cy="896.0" r="11" fill="#FFE6A0" opacity="0.15"/>
    

    <rect x="1091.0" y="938.0" width="2" height="36" fill="#2A2A2A" opacity="0.85"/>
    <circle cx="1092.0" cy="936.0" r="3.5" fill="#FFE6A0" opacity="0.95"/>
    <circle cx="1092.0" cy="936.0" r="11" fill="#FFE6A0" opacity="0.15"/>
    

    <rect x="1171.0" y="978.0" width="2" height="36" fill="#2A2A2A" opacity="0.85"/>
    <circle cx="1172.0" cy="976.0" r="3.5" fill="#FFE6A0" opacity="0.95"/>
    <circle cx="1172.0" cy="976.0" r="11" fill="#FFE6A0" opacity="0.15"/>
    

    <rect x="1251.0" y="1018.0" width="2" height="36" fill="#2A2A2A" opacity="0.85"/>
    <circle cx="1252.0" cy="1016.0" r="3.5" fill="#FFE6A0" opacity="0.95"/>
    <circle cx="1252.0" cy="1016.0" r="11" fill="#FFE6A0" opacity="0.15"/>
    

    <rect x="1331.0" y="1058.0" width="2" height="36" fill="#2A2A2A" opacity="0.85"/>
    <circle cx="1332.0" cy="1056.0" r="3.5" fill="#FFE6A0" opacity="0.95"/>
    <circle cx="1332.0" cy="1056.0" r="11" fill="#FFE6A0" opacity="0.15"/>
    
  <rect x="0" y="0" width="1600" height="900" filter="url(#grain-W-103)"/>
  
    <g font-family="Inter, Helvetica, sans-serif">
      <text x="60" y="60" font-size="14" fill="#E9E9E8" opacity="0.7" letter-spacing="4">GENESIS · W-103</text>
      <text x="60" y="86" font-size="34" fill="#E9E9E8" opacity="0.95" letter-spacing="6">DMV</text>
      <text x="60" y="112" font-size="11" fill="#E9E9E8" opacity="0.55" letter-spacing="2">DC · Maryland · Virginia — the corridor</text>
      <text x="60" y="840" font-size="10" fill="#E9E9E8" opacity="0.55" letter-spacing="2">38.9072, -77.0369</text>
      <text x="60" y="858" font-size="12" fill="#E9E9E8" opacity="0.7" letter-spacing="1.5" font-style="italic">"The metro is on time. The argument is older than the train."</text>
    </g>
    
</svg>
