<?xml version="1.0" encoding="UTF-8"?>
<svg xmlns="http://www.w3.org/2000/svg" viewBox="0 0 1200 1500" width="1200" height="1500">
  <defs>
    <filter id="grain-4134863330" x="0" y="0" width="100%" height="100%">
      <feTurbulence type="fractalNoise" baseFrequency="0.95" numOctaves="2" seed="4134863330"/>
      <feColorMatrix values="0 0 0 0 0  0 0 0 0 0  0 0 0 0 0  0 0 0 0.03 0"/>
    </filter>
    <rect x="0" y="0" width="1200" height="1500" filter="url(#grain-4134863330)"/>
    </defs>
  <rect x="0" y="0" width="1200" height="1500" fill="#EFE9D8"/>
  <text x="600" y="780" font-family="Helvetica Neue, sans-serif" font-weight="900" font-size="46" letter-spacing="6" fill="#EEE9E2" text-anchor="middle" opacity="0.85" transform="rotate(0.0 600 780) translate(0 -300)">CARITAS</text>
<text x="600" y="780" font-family="Helvetica Neue, sans-serif" font-weight="900" font-size="46" letter-spacing="6" fill="#EEE9E2" text-anchor="middle" opacity="0.85" transform="rotate(30.0 600 780) translate(0 -300)">CARITAS</text>
<text x="600" y="780" font-family="Helvetica Neue, sans-serif" font-weight="900" font-size="46" letter-spacing="6" fill="#EEE9E2" text-anchor="middle" opacity="0.85" transform="rotate(60.0 600 780) translate(0 -300)">CARITAS</text>
<text x="600" y="780" font-family="Helvetica Neue, sans-serif" font-weight="900" font-size="46" letter-spacing="6" fill="#EEE9E2" text-anchor="middle" opacity="0.85" transform="rotate(90.0 600 780) translate(0 -300)">CARITAS</text>
<text x="600" y="780" font-family="Helvetica Neue, sans-serif" font-weight="900" font-size="46" letter-spacing="6" fill="#EEE9E2" text-anchor="middle" opacity="0.85" transform="rotate(120.0 600 780) translate(0 -300)">CARITAS</text>
<text x="600" y="780" font-family="Helvetica Neue, sans-serif" font-weight="900" font-size="46" letter-spacing="6" fill="#EEE9E2" text-anchor="middle" opacity="0.85" transform="rotate(150.0 600 780) translate(0 -300)">CARITAS</text>
<text x="600" y="780" font-family="Helvetica Neue, sans-serif" font-weight="900" font-size="46" letter-spacing="6" fill="#EEE9E2" text-anchor="middle" opacity="0.85" transform="rotate(180.0 600 780) translate(0 -300)">CARITAS</text>
<text x="600" y="780" font-family="Helvetica Neue, sans-serif" font-weight="900" font-size="46" letter-spacing="6" fill="#EEE9E2" text-anchor="middle" opacity="0.85" transform="rotate(210.0 600 780) translate(0 -300)">CARITAS</text>
<text x="600" y="780" font-family="Helvetica Neue, sans-serif" font-weight="900" font-size="46" letter-spacing="6" fill="#EEE9E2" text-anchor="middle" opacity="0.85" transform="rotate(240.0 600 780) translate(0 -300)">CARITAS</text>
<text x="600" y="780" font-family="Helvetica Neue, sans-serif" font-weight="900" font-size="46" letter-spacing="6" fill="#EEE9E2" text-anchor="middle" opacity="0.85" transform="rotate(270.0 600 780) translate(0 -300)">CARITAS</text>
<text x="600" y="780" font-family="Helvetica Neue, sans-serif" font-weight="900" font-size="46" letter-spacing="6" fill="#EEE9E2" text-anchor="middle" opacity="0.85" transform="rotate(300.0 600 780) translate(0 -300)">CARITAS</text>
<text x="600" y="780" font-family="Helvetica Neue, sans-serif" font-weight="900" font-size="46" letter-spacing="6" fill="#EEE9E2" text-anchor="middle" opacity="0.85" transform="rotate(330.0 600 780) translate(0 -300)">CARITAS</text>
<circle cx="600" cy="780" r="60" fill="#EEE9E2"/>
<text x="600" y="800" font-family="Trajan Pro, serif" font-size="40" font-weight="700" fill="#EFE9D8" text-anchor="middle">FTC</text>
</svg>
