<?xml version="1.0" encoding="UTF-8"?>
<svg xmlns="http://www.w3.org/2000/svg" viewBox="0 0 1200 1500" width="1200" height="1500">
  <defs>
    <filter id="grain-4082196506" x="0" y="0" width="100%" height="100%">
      <feTurbulence type="fractalNoise" baseFrequency="0.95" numOctaves="2" seed="4082196506"/>
      <feColorMatrix values="0 0 0 0 0  0 0 0 0 0  0 0 0 0 0  0 0 0 0.03 0"/>
    </filter>
    <rect x="0" y="0" width="1200" height="1500" filter="url(#grain-4082196506)"/>
    </defs>
  <rect x="0" y="0" width="1200" height="1500" fill="#43454C"/>
  <text x="140" y="240" font-family="Helvetica Neue, sans-serif" font-weight="900" font-size="56" letter-spacing="4" fill="#EFE9D8" opacity="0.39" transform="rotate(1 140 240)">EMUNAH</text>
<text x="380" y="240" font-family="Helvetica Neue, sans-serif" font-weight="900" font-size="56" letter-spacing="4" fill="#EFE9D8" opacity="0.67" transform="rotate(-2 380 240)">EMUNAH</text>
<text x="620" y="240" font-family="Helvetica Neue, sans-serif" font-weight="900" font-size="56" letter-spacing="4" fill="#EFE9D8" opacity="0.61" transform="rotate(1 620 240)">EMUNAH</text>
<text x="860" y="240" font-family="Helvetica Neue, sans-serif" font-weight="900" font-size="56" letter-spacing="4" fill="#EFE9D8" opacity="0.39" transform="rotate(0 860 240)">EMUNAH</text>
<text x="1100" y="240" font-family="Helvetica Neue, sans-serif" font-weight="900" font-size="56" letter-spacing="4" fill="#EFE9D8" opacity="0.56" transform="rotate(2 1100 240)">EMUNAH</text>
<text x="80" y="380" font-family="Helvetica Neue, sans-serif" font-weight="900" font-size="56" letter-spacing="4" fill="#EFE9D8" opacity="0.77" transform="rotate(-2 80 380)">EMUNAH</text>
<text x="320" y="380" font-family="Helvetica Neue, sans-serif" font-weight="900" font-size="56" letter-spacing="4" fill="#EFE9D8" opacity="0.76" transform="rotate(1 320 380)">EMUNAH</text>
<text x="560" y="380" font-family="Helvetica Neue, sans-serif" font-weight="900" font-size="56" letter-spacing="4" fill="#EFE9D8" opacity="0.62" transform="rotate(-2 560 380)">EMUNAH</text>
<text x="800" y="380" font-family="Helvetica Neue, sans-serif" font-weight="900" font-size="56" letter-spacing="4" fill="#EFE9D8" opacity="0.36" transform="rotate(-1 800 380)">EMUNAH</text>
<text x="1040" y="380" font-family="Helvetica Neue, sans-serif" font-weight="900" font-size="56" letter-spacing="4" fill="#EFE9D8" opacity="0.78" transform="rotate(2 1040 380)">EMUNAH</text>
<text x="140" y="520" font-family="Helvetica Neue, sans-serif" font-weight="900" font-size="56" letter-spacing="4" fill="#EFE9D8" opacity="0.49" transform="rotate(3 140 520)">EMUNAH</text>
<text x="380" y="520" font-family="Helvetica Neue, sans-serif" font-weight="900" font-size="56" letter-spacing="4" fill="#EFE9D8" opacity="0.67" transform="rotate(3 380 520)">EMUNAH</text>
<text x="620" y="520" font-family="Helvetica Neue, sans-serif" font-weight="900" font-size="56" letter-spacing="4" fill="#EFE9D8" opacity="0.57" transform="rotate(2 620 520)">EMUNAH</text>
<text x="860" y="520" font-family="Helvetica Neue, sans-serif" font-weight="900" font-size="56" letter-spacing="4" fill="#EFE9D8" opacity="0.53" transform="rotate(-3 860 520)">EMUNAH</text>
<text x="1100" y="520" font-family="Helvetica Neue, sans-serif" font-weight="900" font-size="56" letter-spacing="4" fill="#EFE9D8" opacity="0.50" transform="rotate(0 1100 520)">EMUNAH</text>
<text x="80" y="660" font-family="Helvetica Neue, sans-serif" font-weight="900" font-size="56" letter-spacing="4" fill="#EFE9D8" opacity="0.47" transform="rotate(1 80 660)">EMUNAH</text>
<text x="320" y="660" font-family="Helvetica Neue, sans-serif" font-weight="900" font-size="56" letter-spacing="4" fill="#EFE9D8" opacity="0.77" transform="rotate(-2 320 660)">EMUNAH</text>
<text x="560" y="660" font-family="Helvetica Neue, sans-serif" font-weight="900" font-size="56" letter-spacing="4" fill="#EFE9D8" opacity="0.42" transform="rotate(-1 560 660)">EMUNAH</text>
<text x="800" y="660" font-family="Helvetica Neue, sans-serif" font-weight="900" font-size="56" letter-spacing="4" fill="#EFE9D8" opacity="0.68" transform="rotate(3 800 660)">EMUNAH</text>
<text x="1040" y="660" font-family="Helvetica Neue, sans-serif" font-weight="900" font-size="56" letter-spacing="4" fill="#EFE9D8" opacity="0.60" transform="rotate(1 1040 660)">EMUNAH</text>
<text x="140" y="800" font-family="Helvetica Neue, sans-serif" font-weight="900" font-size="56" letter-spacing="4" fill="#EFE9D8" opacity="0.79" transform="rotate(-2 140 800)">EMUNAH</text>
<text x="380" y="800" font-family="Helvetica Neue, sans-serif" font-weight="900" font-size="56" letter-spacing="4" fill="#EFE9D8" opacity="0.79" transform="rotate(2 380 800)">EMUNAH</text>
<text x="620" y="800" font-family="Helvetica Neue, sans-serif" font-weight="900" font-size="56" letter-spacing="4" fill="#EFE9D8" opacity="0.77" transform="rotate(-2 620 800)">EMUNAH</text>
<text x="860" y="800" font-family="Helvetica Neue, sans-serif" font-weight="900" font-size="56" letter-spacing="4" fill="#EFE9D8" opacity="0.49" transform="rotate(2 860 800)">EMUNAH</text>
<text x="1100" y="800" font-family="Helvetica Neue, sans-serif" font-weight="900" font-size="56" letter-spacing="4" fill="#EFE9D8" opacity="0.42" transform="rotate(-3 1100 800)">EMUNAH</text>
<text x="80" y="940" font-family="Helvetica Neue, sans-serif" font-weight="900" font-size="56" letter-spacing="4" fill="#EFE9D8" opacity="0.69" transform="rotate(2 80 940)">EMUNAH</text>
<text x="320" y="940" font-family="Helvetica Neue, sans-serif" font-weight="900" font-size="56" letter-spacing="4" fill="#EFE9D8" opacity="0.64" transform="rotate(-2 320 940)">EMUNAH</text>
<text x="560" y="940" font-family="Helvetica Neue, sans-serif" font-weight="900" font-size="56" letter-spacing="4" fill="#EFE9D8" opacity="0.49" transform="rotate(2 560 940)">EMUNAH</text>
<text x="800" y="940" font-family="Helvetica Neue, sans-serif" font-weight="900" font-size="56" letter-spacing="4" fill="#EFE9D8" opacity="0.46" transform="rotate(-3 800 940)">EMUNAH</text>
<text x="1040" y="940" font-family="Helvetica Neue, sans-serif" font-weight="900" font-size="56" letter-spacing="4" fill="#EFE9D8" opacity="0.68" transform="rotate(1 1040 940)">EMUNAH</text>
<text x="140" y="1080" font-family="Helvetica Neue, sans-serif" font-weight="900" font-size="56" letter-spacing="4" fill="#EFE9D8" opacity="0.59" transform="rotate(1 140 1080)">EMUNAH</text>
<text x="380" y="1080" font-family="Helvetica Neue, sans-serif" font-weight="900" font-size="56" letter-spacing="4" fill="#EFE9D8" opacity="0.36" transform="rotate(-2 380 1080)">EMUNAH</text>
<text x="620" y="1080" font-family="Helvetica Neue, sans-serif" font-weight="900" font-size="56" letter-spacing="4" fill="#EFE9D8" opacity="0.80" transform="rotate(-1 620 1080)">EMUNAH</text>
<text x="860" y="1080" font-family="Helvetica Neue, sans-serif" font-weight="900" font-size="56" letter-spacing="4" fill="#EFE9D8" opacity="0.50" transform="rotate(-2 860 1080)">EMUNAH</text>
<text x="1100" y="1080" font-family="Helvetica Neue, sans-serif" font-weight="900" font-size="56" letter-spacing="4" fill="#EFE9D8" opacity="0.57" transform="rotate(-2 1100 1080)">EMUNAH</text>
<text x="80" y="1220" font-family="Helvetica Neue, sans-serif" font-weight="900" font-size="56" letter-spacing="4" fill="#EFE9D8" opacity="0.43" transform="rotate(3 80 1220)">EMUNAH</text>
<text x="320" y="1220" font-family="Helvetica Neue, sans-serif" font-weight="900" font-size="56" letter-spacing="4" fill="#EFE9D8" opacity="0.57" transform="rotate(-1 320 1220)">EMUNAH</text>
<text x="560" y="1220" font-family="Helvetica Neue, sans-serif" font-weight="900" font-size="56" letter-spacing="4" fill="#EFE9D8" opacity="0.74" transform="rotate(0 560 1220)">EMUNAH</text>
<text x="800" y="1220" font-family="Helvetica Neue, sans-serif" font-weight="900" font-size="56" letter-spacing="4" fill="#EFE9D8" opacity="0.49" transform="rotate(3 800 1220)">EMUNAH</text>
<text x="1040" y="1220" font-family="Helvetica Neue, sans-serif" font-weight="900" font-size="56" letter-spacing="4" fill="#EFE9D8" opacity="0.76" transform="rotate(-2 1040 1220)">EMUNAH</text>
<text x="140" y="1360" font-family="Helvetica Neue, sans-serif" font-weight="900" font-size="56" letter-spacing="4" fill="#EFE9D8" opacity="0.35" transform="rotate(-1 140 1360)">EMUNAH</text>
<text x="380" y="1360" font-family="Helvetica Neue, sans-serif" font-weight="900" font-size="56" letter-spacing="4" fill="#EFE9D8" opacity="0.71" transform="rotate(-2 380 1360)">EMUNAH</text>
<text x="620" y="1360" font-family="Helvetica Neue, sans-serif" font-weight="900" font-size="56" letter-spacing="4" fill="#EFE9D8" opacity="0.78" transform="rotate(3 620 1360)">EMUNAH</text>
<text x="860" y="1360" font-family="Helvetica Neue, sans-serif" font-weight="900" font-size="56" letter-spacing="4" fill="#EFE9D8" opacity="0.42" transform="rotate(-2 860 1360)">EMUNAH</text>
<text x="1100" y="1360" font-family="Helvetica Neue, sans-serif" font-weight="900" font-size="56" letter-spacing="4" fill="#EFE9D8" opacity="0.54" transform="rotate(-1 1100 1360)">EMUNAH</text>
<rect x="320" y="700" width="560" height="200" fill="#43454C"/>
<rect x="320" y="700" width="560" height="200" fill="none" stroke="#EFE9D8" stroke-width="3"/>
<text x="600" y="830" font-family="Trajan Pro, Cinzel, Georgia, serif" font-weight="900" font-size="80" letter-spacing="8" fill="#EFE9D8" text-anchor="middle">FTC</text>
</svg>
