<?xml version="1.0" encoding="UTF-8"?>
<svg xmlns="http://www.w3.org/2000/svg" viewBox="0 0 1200 1500" width="1200" height="1500">
  <defs>
    <filter id="grain-1561340722" x="0" y="0" width="100%" height="100%">
      <feTurbulence type="fractalNoise" baseFrequency="0.95" numOctaves="2" seed="1561340722"/>
      <feColorMatrix values="0 0 0 0 0  0 0 0 0 0  0 0 0 0 0  0 0 0 0.03 0"/>
    </filter>
    <rect x="0" y="0" width="1200" height="1500" filter="url(#grain-1561340722)"/>
    </defs>
  <rect x="0" y="0" width="1200" height="1500" fill="#EFE9D8"/>
  <g transform="rotate(2 600 800)">
<rect x="240" y="450" width="720" height="700" fill="#C8C1B6" opacity="0.92"/>
<rect x="240" y="450" width="720" height="700" fill="none" stroke="#393432" stroke-width="3" opacity="0.55"/>
<text x="600" y="850" font-family="Impact, Haettenschweiler, Arial Black, sans-serif" font-weight="900" font-size="180" letter-spacing="2" fill="#393432" text-anchor="middle">DAY</text>
<text x="600" y="970" font-family="Helvetica Neue, sans-serif" font-weight="700" font-size="36" letter-spacing="6" fill="#393432" text-anchor="middle" opacity="0.7">1700</text>
</g>
<line x1="447" y1="464" x2="452" y2="479" stroke="#393432" stroke-width="1" opacity="0.3"/>
<line x1="447" y1="1142" x2="452" y2="1127" stroke="#393432" stroke-width="1" opacity="0.3"/>
<line x1="497" y1="463" x2="502" y2="478" stroke="#393432" stroke-width="1" opacity="0.3"/>
<line x1="497" y1="1148" x2="502" y2="1133" stroke="#393432" stroke-width="1" opacity="0.3"/>
<line x1="221" y1="464" x2="226" y2="479" stroke="#393432" stroke-width="1" opacity="0.3"/>
<line x1="221" y1="1166" x2="226" y2="1151" stroke="#393432" stroke-width="1" opacity="0.3"/>
<line x1="523" y1="463" x2="528" y2="478" stroke="#393432" stroke-width="1" opacity="0.3"/>
<line x1="523" y1="1151" x2="528" y2="1136" stroke="#393432" stroke-width="1" opacity="0.3"/>
<line x1="564" y1="469" x2="569" y2="484" stroke="#393432" stroke-width="1" opacity="0.3"/>
<line x1="564" y1="1151" x2="569" y2="1136" stroke="#393432" stroke-width="1" opacity="0.3"/>
<line x1="390" y1="457" x2="395" y2="472" stroke="#393432" stroke-width="1" opacity="0.3"/>
<line x1="390" y1="1142" x2="395" y2="1127" stroke="#393432" stroke-width="1" opacity="0.3"/>
<line x1="518" y1="460" x2="523" y2="475" stroke="#393432" stroke-width="1" opacity="0.3"/>
<line x1="518" y1="1167" x2="523" y2="1152" stroke="#393432" stroke-width="1" opacity="0.3"/>
<line x1="715" y1="446" x2="720" y2="461" stroke="#393432" stroke-width="1" opacity="0.3"/>
<line x1="715" y1="1164" x2="720" y2="1149" stroke="#393432" stroke-width="1" opacity="0.3"/>
</svg>
