<?xml version="1.0" encoding="UTF-8"?>
<svg xmlns="http://www.w3.org/2000/svg" viewBox="0 0 1200 1500" width="1200" height="1500">
  <defs>
    <filter id="grain-304433155" x="0" y="0" width="100%" height="100%">
      <feTurbulence type="fractalNoise" baseFrequency="0.95" numOctaves="2" seed="304433155"/>
      <feColorMatrix values="0 0 0 0 0  0 0 0 0 0  0 0 0 0 0  0 0 0 0.03 0"/>
    </filter>
    <rect x="0" y="0" width="1200" height="1500" filter="url(#grain-304433155)"/>
    </defs>
  <rect x="0" y="0" width="1200" height="1500" fill="#2C2C2D"/>
  <g transform="rotate(-3 600 800)">
<rect x="240" y="450" width="720" height="700" fill="#C2C5CE" opacity="0.92"/>
<rect x="240" y="450" width="720" height="700" fill="none" stroke="#EFE9D8" stroke-width="3" opacity="0.55"/>
<text x="600" y="850" font-family="Impact, Haettenschweiler, Arial Black, sans-serif" font-weight="900" font-size="180" letter-spacing="2" fill="#EFE9D8" text-anchor="middle">DAY</text>
<text x="600" y="970" font-family="Helvetica Neue, sans-serif" font-weight="700" font-size="36" letter-spacing="6" fill="#EFE9D8" text-anchor="middle" opacity="0.7">1850</text>
</g>
<line x1="985" y1="460" x2="990" y2="475" stroke="#EFE9D8" stroke-width="1" opacity="0.3"/>
<line x1="985" y1="1146" x2="990" y2="1131" stroke="#EFE9D8" stroke-width="1" opacity="0.3"/>
<line x1="424" y1="452" x2="429" y2="467" stroke="#EFE9D8" stroke-width="1" opacity="0.3"/>
<line x1="424" y1="1147" x2="429" y2="1132" stroke="#EFE9D8" stroke-width="1" opacity="0.3"/>
<line x1="353" y1="446" x2="358" y2="461" stroke="#EFE9D8" stroke-width="1" opacity="0.3"/>
<line x1="353" y1="1156" x2="358" y2="1141" stroke="#EFE9D8" stroke-width="1" opacity="0.3"/>
<line x1="661" y1="460" x2="666" y2="475" stroke="#EFE9D8" stroke-width="1" opacity="0.3"/>
<line x1="661" y1="1160" x2="666" y2="1145" stroke="#EFE9D8" stroke-width="1" opacity="0.3"/>
<line x1="301" y1="440" x2="306" y2="455" stroke="#EFE9D8" stroke-width="1" opacity="0.3"/>
<line x1="301" y1="1143" x2="306" y2="1128" stroke="#EFE9D8" stroke-width="1" opacity="0.3"/>
<line x1="876" y1="446" x2="881" y2="461" stroke="#EFE9D8" stroke-width="1" opacity="0.3"/>
<line x1="876" y1="1140" x2="881" y2="1125" stroke="#EFE9D8" stroke-width="1" opacity="0.3"/>
<line x1="836" y1="444" x2="841" y2="459" stroke="#EFE9D8" stroke-width="1" opacity="0.3"/>
<line x1="836" y1="1163" x2="841" y2="1148" stroke="#EFE9D8" stroke-width="1" opacity="0.3"/>
<line x1="992" y1="462" x2="997" y2="477" stroke="#EFE9D8" stroke-width="1" opacity="0.3"/>
<line x1="992" y1="1157" x2="997" y2="1142" stroke="#EFE9D8" stroke-width="1" opacity="0.3"/>
</svg>
