<?xml version="1.0" encoding="UTF-8"?>
<svg xmlns="http://www.w3.org/2000/svg" viewBox="0 0 1200 1500" width="1200" height="1500">
  <defs>
    <filter id="grain-1542377646" x="0" y="0" width="100%" height="100%">
      <feTurbulence type="fractalNoise" baseFrequency="0.95" numOctaves="2" seed="1542377646"/>
      <feColorMatrix values="0 0 0 0 0  0 0 0 0 0  0 0 0 0 0  0 0 0 0.03 0"/>
    </filter>
    <rect x="0" y="0" width="1200" height="1500" filter="url(#grain-1542377646)"/>
    </defs>
  <rect x="0" y="0" width="1200" height="1500" fill="#EFE9D8"/>
  <g transform="rotate(0 600 780)">
<text x="600" y="800" font-family="Impact, Haettenschweiler, sans-serif" font-weight="900" font-size="240" letter-spacing="-6" fill="#373533" text-anchor="middle">RACHAMIM</text>
</g>
<rect x="635" y="820" width="3" height="23" fill="#373533" opacity="0.85"/>
<circle cx="636" cy="843" r="3" fill="#373533" opacity="0.85"/>
<rect x="887" y="820" width="3" height="33" fill="#373533" opacity="0.85"/>
<circle cx="888" cy="853" r="3" fill="#373533" opacity="0.85"/>
<rect x="881" y="820" width="3" height="28" fill="#373533" opacity="0.85"/>
<circle cx="882" cy="848" r="3" fill="#373533" opacity="0.85"/>
<rect x="452" y="820" width="3" height="30" fill="#373533" opacity="0.85"/>
<circle cx="453" cy="850" r="3" fill="#373533" opacity="0.85"/>
<rect x="505" y="820" width="3" height="21" fill="#373533" opacity="0.85"/>
<circle cx="506" cy="841" r="3" fill="#373533" opacity="0.85"/>
<rect x="889" y="820" width="3" height="84" fill="#373533" opacity="0.85"/>
<circle cx="890" cy="904" r="3" fill="#373533" opacity="0.85"/>
</svg>
