<?xml version="1.0" encoding="UTF-8"?>
<svg xmlns="http://www.w3.org/2000/svg" viewBox="0 0 1200 1500" width="1200" height="1500">
  <defs>
    <filter id="grain-1592111649" x="0" y="0" width="100%" height="100%">
      <feTurbulence type="fractalNoise" baseFrequency="0.95" numOctaves="2" seed="1592111649"/>
      <feColorMatrix values="0 0 0 0 0  0 0 0 0 0  0 0 0 0 0  0 0 0 0.03 0"/>
    </filter>
    <rect x="0" y="0" width="1200" height="1500" filter="url(#grain-1592111649)"/>
    </defs>
  <rect x="0" y="0" width="1200" height="1500" fill="#2B2A28"/>
  <circle cx="451" cy="506" r="3.0898622683491337" fill="#D0C7BF" opacity="0.35"/>
<circle cx="350" cy="1232" r="2.6605181381863003" fill="#D0C7BF" opacity="0.35"/>
<circle cx="608" cy="854" r="3.8398468636614127" fill="#D0C7BF" opacity="0.35"/>
<circle cx="591" cy="1222" r="3.1936147886672566" fill="#D0C7BF" opacity="0.35"/>
<circle cx="510" cy="443" r="4.700801680885327" fill="#D0C7BF" opacity="0.35"/>
<circle cx="674" cy="577" r="3.4038239645895985" fill="#D0C7BF" opacity="0.35"/>
<circle cx="205" cy="561" r="4.744730548164971" fill="#D0C7BF" opacity="0.35"/>
<circle cx="770" cy="604" r="3.0732294273185374" fill="#D0C7BF" opacity="0.35"/>
<circle cx="1070" cy="1020" r="3.259804608342124" fill="#D0C7BF" opacity="0.35"/>
<circle cx="718" cy="658" r="4.3825921297445065" fill="#D0C7BF" opacity="0.35"/>
<circle cx="864" cy="915" r="2.901859867340282" fill="#D0C7BF" opacity="0.35"/>
<circle cx="387" cy="506" r="3.89750748226927" fill="#D0C7BF" opacity="0.35"/>
<circle cx="597" cy="1266" r="2.122939984516198" fill="#D0C7BF" opacity="0.35"/>
<circle cx="563" cy="1174" r="3.0036230137946376" fill="#D0C7BF" opacity="0.35"/>
<circle cx="761" cy="773" r="2.797166280346976" fill="#D0C7BF" opacity="0.35"/>
<circle cx="253" cy="549" r="3.9433479225837367" fill="#D0C7BF" opacity="0.35"/>
<circle cx="481" cy="1198" r="2.9058052058104997" fill="#D0C7BF" opacity="0.35"/>
<circle cx="626" cy="1017" r="3.163360609974039" fill="#D0C7BF" opacity="0.35"/>
<circle cx="262" cy="489" r="2.2738487428104324" fill="#D0C7BF" opacity="0.35"/>
<circle cx="291" cy="1106" r="4.269693625128458" fill="#D0C7BF" opacity="0.35"/>
<circle cx="172" cy="812" r="4.773345970770986" fill="#D0C7BF" opacity="0.35"/>
<circle cx="702" cy="1062" r="3.05567765856864" fill="#D0C7BF" opacity="0.35"/>
<circle cx="656" cy="452" r="4.288640029087171" fill="#D0C7BF" opacity="0.35"/>
<circle cx="283" cy="435" r="3.00153385636907" fill="#D0C7BF" opacity="0.35"/>
<circle cx="1000" cy="805" r="4.600434730184138" fill="#D0C7BF" opacity="0.35"/>
<circle cx="953" cy="695" r="4.349333770780258" fill="#D0C7BF" opacity="0.35"/>
<circle cx="127" cy="1151" r="3.9897629657672713" fill="#D0C7BF" opacity="0.35"/>
<circle cx="698" cy="468" r="2.7499841476648985" fill="#D0C7BF" opacity="0.35"/>
<circle cx="1049" cy="983" r="3.4629131869812366" fill="#D0C7BF" opacity="0.35"/>
<circle cx="314" cy="636" r="4.887493548066245" fill="#D0C7BF" opacity="0.35"/>
<circle cx="151" cy="819" r="4.677853548877603" fill="#D0C7BF" opacity="0.35"/>
<circle cx="258" cy="657" r="3.095791249195078" fill="#D0C7BF" opacity="0.35"/>
<circle cx="454" cy="537" r="3.726470300835131" fill="#D0C7BF" opacity="0.35"/>
<circle cx="659" cy="574" r="4.2568411121385035" fill="#D0C7BF" opacity="0.35"/>
<circle cx="430" cy="1141" r="2.2548545873662396" fill="#D0C7BF" opacity="0.35"/>
<circle cx="801" cy="1174" r="2.358794012793404" fill="#D0C7BF" opacity="0.35"/>
<circle cx="127" cy="756" r="2.3921211597623646" fill="#D0C7BF" opacity="0.35"/>
<circle cx="158" cy="953" r="4.164010262433448" fill="#D0C7BF" opacity="0.35"/>
<circle cx="585" cy="1037" r="4.3140770367401515" fill="#D0C7BF" opacity="0.35"/>
<circle cx="1028" cy="936" r="3.6052453056882348" fill="#D0C7BF" opacity="0.35"/>
<circle cx="801" cy="845" r="4.2451359703226546" fill="#D0C7BF" opacity="0.35"/>
<circle cx="522" cy="492" r="2.531488750396009" fill="#D0C7BF" opacity="0.35"/>
<circle cx="225" cy="546" r="3.2688239854504855" fill="#D0C7BF" opacity="0.35"/>
<circle cx="924" cy="1238" r="3.7035724456241694" fill="#D0C7BF" opacity="0.35"/>
<circle cx="176" cy="1041" r="3.0817907847329122" fill="#D0C7BF" opacity="0.35"/>
<circle cx="488" cy="717" r="2.3260924619357475" fill="#D0C7BF" opacity="0.35"/>
<circle cx="730" cy="498" r="3.6695038177643533" fill="#D0C7BF" opacity="0.35"/>
<circle cx="178" cy="737" r="4.173269918761875" fill="#D0C7BF" opacity="0.35"/>
<circle cx="790" cy="976" r="4.217144210124141" fill="#D0C7BF" opacity="0.35"/>
<circle cx="662" cy="669" r="2.13244606452969" fill="#D0C7BF" opacity="0.35"/>
<circle cx="942" cy="400" r="2.5422096421432117" fill="#D0C7BF" opacity="0.35"/>
<circle cx="780" cy="1168" r="2.2465284085396844" fill="#D0C7BF" opacity="0.35"/>
<circle cx="181" cy="948" r="2.0308545482731226" fill="#D0C7BF" opacity="0.35"/>
<circle cx="872" cy="1239" r="4.76639609767675" fill="#D0C7BF" opacity="0.35"/>
<circle cx="701" cy="1089" r="3.755290271879084" fill="#D0C7BF" opacity="0.35"/>
<circle cx="684" cy="1026" r="3.184898451963315" fill="#D0C7BF" opacity="0.35"/>
<circle cx="755" cy="1127" r="2.531057777361481" fill="#D0C7BF" opacity="0.35"/>
<circle cx="673" cy="478" r="2.54141151351555" fill="#D0C7BF" opacity="0.35"/>
<circle cx="607" cy="1275" r="3.9159596947065576" fill="#D0C7BF" opacity="0.35"/>
<circle cx="163" cy="932" r="2.127197522405978" fill="#D0C7BF" opacity="0.35"/>
<circle cx="1020" cy="454" r="4.148072579049206" fill="#D0C7BF" opacity="0.35"/>
<circle cx="1017" cy="1093" r="4.747600519254278" fill="#D0C7BF" opacity="0.35"/>
<circle cx="639" cy="1183" r="2.3118893012386676" fill="#D0C7BF" opacity="0.35"/>
<circle cx="931" cy="722" r="4.7216252905503655" fill="#D0C7BF" opacity="0.35"/>
<circle cx="718" cy="1015" r="3.2642421555790255" fill="#D0C7BF" opacity="0.35"/>
<circle cx="706" cy="586" r="4.816304583087568" fill="#D0C7BF" opacity="0.35"/>
<circle cx="832" cy="1049" r="4.206397776146705" fill="#D0C7BF" opacity="0.35"/>
<circle cx="875" cy="583" r="2.830870086525493" fill="#D0C7BF" opacity="0.35"/>
<circle cx="995" cy="714" r="4.939457907235045" fill="#D0C7BF" opacity="0.35"/>
<circle cx="304" cy="658" r="2.614562808069368" fill="#D0C7BF" opacity="0.35"/>
<circle cx="191" cy="1042" r="3.8751472868552144" fill="#D0C7BF" opacity="0.35"/>
<circle cx="938" cy="1150" r="2.3112820233940496" fill="#D0C7BF" opacity="0.35"/>
<circle cx="937" cy="1014" r="4.658380037252364" fill="#D0C7BF" opacity="0.35"/>
<circle cx="789" cy="862" r="3.4073090366666436" fill="#D0C7BF" opacity="0.35"/>
<circle cx="567" cy="469" r="3.7333755016142245" fill="#D0C7BF" opacity="0.35"/>
<circle cx="150" cy="938" r="3.6166629930509604" fill="#D0C7BF" opacity="0.35"/>
<circle cx="764" cy="832" r="4.944867686275533" fill="#D0C7BF" opacity="0.35"/>
<circle cx="148" cy="1254" r="4.716453633625511" fill="#D0C7BF" opacity="0.35"/>
<circle cx="276" cy="1209" r="3.3914488537156378" fill="#D0C7BF" opacity="0.35"/>
<circle cx="625" cy="1054" r="4.250828051770921" fill="#D0C7BF" opacity="0.35"/>
<text x="600" y="640" font-family="Trajan Pro, Cinzel, Georgia, serif" font-size="98" font-weight="700" letter-spacing="2" fill="#EFE9D8" text-anchor="middle">STREAMS</text>
<text x="600" y="740" font-family="Trajan Pro, Cinzel, Georgia, serif" font-size="98" font-weight="700" letter-spacing="2" fill="#EFE9D8" text-anchor="middle">OF</text>
<line x1="200" y1="1180" x2="1000" y2="1180" stroke="#EFE9D8" stroke-width="2"/>
<text x="600" y="1240" font-family="Helvetica Neue, sans-serif" font-weight="900" font-size="64" letter-spacing="14" fill="#EFE9D8" text-anchor="middle">BROOKLYN</text>
<text x="600" y="1290" font-family="Helvetica Neue, sans-serif" font-size="22" letter-spacing="4" fill="#EFE9D8" text-anchor="middle" opacity="0.7">FULL TIME CHRISTIAN</text>
</svg>
