<?xml version="1.0" encoding="UTF-8"?>
<svg xmlns="http://www.w3.org/2000/svg" viewBox="0 0 1600 900" width="1600" height="900">
  
    <defs>
      <linearGradient id="sky-W-005" x1="0" y1="0" x2="0" y2="1">
        <stop offset="0%" stop-color="#11120D"/>
        <stop offset="55%" stop-color="#2C2E26"/>
        <stop offset="100%" stop-color="#6B6F5F"/>
      </linearGradient>
      <linearGradient id="ground-W-005" x1="0" y1="0" x2="0" y2="1">
        <stop offset="0%" stop-color="#6B6F5F"/>
        <stop offset="50%" stop-color="#C0C2B0"/>
        <stop offset="100%" stop-color="#E8E9DB"/>
      </linearGradient>
      <radialGradient id="sun-W-005" cx="50%" cy="50%" r="50%">
        <stop offset="0%" stop-color="#E8E9DB" stop-opacity="0.9"/>
        <stop offset="100%" stop-color="#E8E9DB" stop-opacity="0"/>
      </radialGradient>
      <filter id="grain-W-005" x="0" y="0" width="100%" height="100%">
        <feTurbulence type="fractalNoise" baseFrequency="0.85" numOctaves="2" seed="4227295799"/>
        <feColorMatrix values="0 0 0 0 0  0 0 0 0 0  0 0 0 0 0  0 0 0 0.05 0"/>
      </filter>
    </defs>
    
  
    <rect x="0" y="0" width="1600" height="900" fill="url(#sky-W-005)"/>
    <circle cx="1180" cy="280" r="220" fill="url(#sun-W-005)"/>
    <rect x="0" y="520" width="1600" height="380" fill="url(#ground-W-005)"/>
    
  <rect x="0" y="500" width="1600" height="40" fill="#6B6F5F" opacity="0.35"/><rect x="0" y="520" width="1600" height="14" fill="#C0C2B0" opacity="0.25"/>
  <polygon points="1155.648802552952,981.3885445608515 1099.648802552952,1009.3885445608515 1099.648802552952,837.3885445608515 1155.648802552952,809.3885445608515" fill="#2C2E26" stroke="#000" stroke-opacity="0.15" stroke-width="0.6"/>
<polygon points="1099.648802552952,1009.3885445608515 1155.648802552952,1037.3885445608516 1155.648802552952,865.3885445608516 1099.648802552952,837.3885445608515" fill="#6B6F5F" stroke="#000" stroke-opacity="0.18" stroke-width="0.6"/>
<polygon points="1155.648802552952,809.3885445608515 1211.648802552952,837.3885445608515 1155.648802552952,865.3885445608516 1099.648802552952,837.3885445608515" fill="#2C2E26" opacity="0.92" stroke="#000" stroke-opacity="0.12" stroke-width="0.5"/>
<rect x="1113.648802552952" y="949.3885445608515" width="6" height="8" fill="#FFE9B0" opacity="0.45"/>
<rect x="1137.648802552952" y="949.3885445608515" width="6" height="8" fill="#FFE9B0" opacity="0.45"/>
<rect x="1113.648802552952" y="921.3885445608515" width="6" height="8" fill="#FFE9B0" opacity="0.45"/>
<rect x="1137.648802552952" y="921.3885445608515" width="6" height="8" fill="#FFE9B0" opacity="0.45"/>
<rect x="1113.648802552952" y="893.3885445608515" width="6" height="8" fill="#FFE9B0" opacity="0.45"/>
<rect x="1137.648802552952" y="893.3885445608515" width="6" height="8" fill="#FFE9B0" opacity="0.45"/>
<polygon points="1155.648802552952,809.3885445608515 1211.648802552952,837.3885445608515 1155.648802552952,819.3885445608516" fill="#6B6F5F" opacity="0.85"/>
<polygon points="1099.648802552952,837.3885445608515 1155.648802552952,865.3885445608516 1155.648802552952,819.3885445608516" fill="#2C2E26" opacity="0.75"/>
<polygon points="697.4507884794666,763.4607387715679 641.4507884794665,791.4607387715679 641.4507884794665,597.4607387715679 697.4507884794666,569.4607387715679" fill="#2C2E26" stroke="#000" stroke-opacity="0.15" stroke-width="0.6"/>
<polygon points="641.4507884794665,791.4607387715679 697.4507884794665,819.4607387715679 697.4507884794665,625.4607387715679 641.4507884794665,597.4607387715679" fill="#6B6F5F" stroke="#000" stroke-opacity="0.18" stroke-width="0.6"/>
<polygon points="697.4507884794666,569.4607387715679 753.4507884794665,597.4607387715679 697.4507884794665,625.4607387715679 641.4507884794665,597.4607387715679" fill="#2C2E26" opacity="0.92" stroke="#000" stroke-opacity="0.12" stroke-width="0.5"/>
<rect x="655.4507884794665" y="731.4607387715679" width="6" height="8" fill="#FFE9B0" opacity="0.45"/>
<rect x="679.4507884794665" y="731.4607387715679" width="6" height="8" fill="#FFE9B0" opacity="0.45"/>
<rect x="655.4507884794665" y="703.4607387715679" width="6" height="8" fill="#FFE9B0" opacity="0.45"/>
<rect x="679.4507884794665" y="703.4607387715679" width="6" height="8" fill="#FFE9B0" opacity="0.45"/>
<rect x="655.4507884794665" y="675.4607387715679" width="6" height="8" fill="#FFE9B0" opacity="0.45"/>
<rect x="679.4507884794665" y="675.4607387715679" width="6" height="8" fill="#FFE9B0" opacity="0.45"/>
<rect x="655.4507884794665" y="647.4607387715679" width="6" height="8" fill="#FFE9B0" opacity="0.45"/>
<rect x="679.4507884794665" y="647.4607387715679" width="6" height="8" fill="#FFE9B0" opacity="0.45"/>
<polygon points="697.4507884794666,569.4607387715679 753.4507884794665,597.4607387715679 697.4507884794666,579.4607387715679" fill="#6B6F5F" opacity="0.85"/>
<polygon points="641.4507884794665,597.4607387715679 697.4507884794665,625.4607387715679 697.4507884794666,579.4607387715679" fill="#2C2E26" opacity="0.75"/>
<polygon points="1084.4801792111311,1086.0928734035072 1028.4801792111311,1114.0928734035072 1028.4801792111311,946.0928734035072 1084.4801792111311,918.0928734035072" fill="#2C2E26" stroke="#000" stroke-opacity="0.15" stroke-width="0.6"/>
<polygon points="1028.4801792111311,1114.0928734035072 1084.4801792111311,1142.0928734035072 1084.4801792111311,974.0928734035072 1028.4801792111311,946.0928734035072" fill="#6B6F5F" stroke="#000" stroke-opacity="0.18" stroke-width="0.6"/>
<polygon points="1084.4801792111311,918.0928734035072 1140.4801792111311,946.0928734035072 1084.4801792111311,974.0928734035072 1028.4801792111311,946.0928734035072" fill="#2C2E26" opacity="0.92" stroke="#000" stroke-opacity="0.12" stroke-width="0.5"/>
<rect x="1042.4801792111311" y="1054.0928734035072" width="6" height="8" fill="#FFE9B0" opacity="0.45"/>
<rect x="1066.4801792111311" y="1054.0928734035072" width="6" height="8" fill="#FFE9B0" opacity="0.45"/>
<rect x="1042.4801792111311" y="1026.0928734035072" width="6" height="8" fill="#FFE9B0" opacity="0.45"/>
<rect x="1066.4801792111311" y="1026.0928734035072" width="6" height="8" fill="#FFE9B0" opacity="0.45"/>
<rect x="1042.4801792111311" y="998.0928734035072" width="6" height="8" fill="#FFE9B0" opacity="0.45"/>
<rect x="1066.4801792111311" y="998.0928734035072" width="6" height="8" fill="#FFE9B0" opacity="0.45"/>
<polygon points="1084.4801792111311,918.0928734035072 1140.4801792111311,946.0928734035072 1084.4801792111311,928.0928734035072" fill="#6B6F5F" opacity="0.85"/>
<polygon points="1028.4801792111311,946.0928734035072 1084.4801792111311,974.0928734035072 1084.4801792111311,928.0928734035072" fill="#2C2E26" opacity="0.75"/>
<polygon points="805.989399376472,744.0381358583627 749.989399376472,772.0381358583627 749.989399376472,533.0381358583627 805.989399376472,505.0381358583627" fill="#2C2E26" stroke="#000" stroke-opacity="0.15" stroke-width="0.6"/>
<polygon points="749.989399376472,772.0381358583627 805.989399376472,800.0381358583627 805.989399376472,561.0381358583627 749.989399376472,533.0381358583627" fill="#6B6F5F" stroke="#000" stroke-opacity="0.18" stroke-width="0.6"/>
<polygon points="805.989399376472,505.0381358583627 861.989399376472,533.0381358583627 805.989399376472,561.0381358583627 749.989399376472,533.0381358583627" fill="#2C2E26" opacity="0.92" stroke="#000" stroke-opacity="0.12" stroke-width="0.5"/>
<rect x="763.989399376472" y="712.0381358583627" width="6" height="8" fill="#FFE9B0" opacity="0.45"/>
<rect x="787.989399376472" y="712.0381358583627" width="6" height="8" fill="#FFE9B0" opacity="0.45"/>
<rect x="763.989399376472" y="684.0381358583627" width="6" height="8" fill="#FFE9B0" opacity="0.45"/>
<rect x="787.989399376472" y="684.0381358583627" width="6" height="8" fill="#FFE9B0" opacity="0.45"/>
<rect x="763.989399376472" y="656.0381358583627" width="6" height="8" fill="#FFE9B0" opacity="0.45"/>
<rect x="787.989399376472" y="656.0381358583627" width="6" height="8" fill="#FFE9B0" opacity="0.45"/>
<rect x="763.989399376472" y="628.0381358583627" width="6" height="8" fill="#FFE9B0" opacity="0.45"/>
<rect x="787.989399376472" y="628.0381358583627" width="6" height="8" fill="#FFE9B0" opacity="0.45"/>
<rect x="763.989399376472" y="600.0381358583627" width="6" height="8" fill="#FFE9B0" opacity="0.45"/>
<rect x="787.989399376472" y="600.0381358583627" width="6" height="8" fill="#FFE9B0" opacity="0.45"/>
<polygon points="805.989399376472,505.0381358583627 861.989399376472,533.0381358583627 805.989399376472,515.0381358583627" fill="#6B6F5F" opacity="0.85"/>
<polygon points="749.989399376472,533.0381358583627 805.989399376472,561.0381358583627 805.989399376472,515.0381358583627" fill="#2C2E26" opacity="0.75"/>
<polygon points="1080.2532726732823,1049.0839027803543 1024.2532726732823,1077.0839027803543 1024.2532726732823,884.0839027803543 1080.2532726732823,856.0839027803543" fill="#2C2E26" stroke="#000" stroke-opacity="0.15" stroke-width="0.6"/>
<polygon points="1024.2532726732823,1077.0839027803543 1080.253272673282,1105.0839027803543 1080.253272673282,912.0839027803543 1024.2532726732823,884.0839027803543" fill="#6B6F5F" stroke="#000" stroke-opacity="0.18" stroke-width="0.6"/>
<polygon points="1080.2532726732823,856.0839027803543 1136.253272673282,884.083902780354 1080.253272673282,912.0839027803543 1024.2532726732823,884.0839027803543" fill="#2C2E26" opacity="0.92" stroke="#000" stroke-opacity="0.12" stroke-width="0.5"/>
<rect x="1038.2532726732823" y="1017.0839027803543" width="6" height="8" fill="#FFE9B0" opacity="0.45"/>
<rect x="1062.2532726732823" y="1017.0839027803543" width="6" height="8" fill="#FFE9B0" opacity="0.45"/>
<rect x="1038.2532726732823" y="989.0839027803543" width="6" height="8" fill="#FFE9B0" opacity="0.45"/>
<rect x="1062.2532726732823" y="989.0839027803543" width="6" height="8" fill="#FFE9B0" opacity="0.45"/>
<rect x="1038.2532726732823" y="961.0839027803543" width="6" height="8" fill="#FFE9B0" opacity="0.45"/>
<rect x="1062.2532726732823" y="961.0839027803543" width="6" height="8" fill="#FFE9B0" opacity="0.45"/>
<rect x="1038.2532726732823" y="933.0839027803543" width="6" height="8" fill="#FFE9B0" opacity="0.45"/>
<rect x="1062.2532726732823" y="933.0839027803543" width="6" height="8" fill="#FFE9B0" opacity="0.45"/>
<polygon points="1080.2532726732823,856.0839027803543 1136.253272673282,884.083902780354 1080.253272673282,866.0839027803543" fill="#6B6F5F" opacity="0.85"/>
<polygon points="1024.2532726732823,884.0839027803543 1080.253272673282,912.0839027803543 1080.253272673282,866.0839027803543" fill="#2C2E26" opacity="0.75"/>
<polygon points="784.963046631704,741.1205923082139 728.963046631704,769.120592308214 728.963046631704,501.120592308214 784.963046631704,473.1205923082139" fill="#2C2E26" stroke="#000" stroke-opacity="0.15" stroke-width="0.6"/>
<polygon points="728.963046631704,769.120592308214 784.963046631704,797.120592308214 784.963046631704,529.120592308214 728.963046631704,501.120592308214" fill="#6B6F5F" stroke="#000" stroke-opacity="0.18" stroke-width="0.6"/>
<polygon points="784.963046631704,473.1205923082139 840.963046631704,501.120592308214 784.963046631704,529.120592308214 728.963046631704,501.120592308214" fill="#2C2E26" opacity="0.92" stroke="#000" stroke-opacity="0.12" stroke-width="0.5"/>
<rect x="742.963046631704" y="709.120592308214" width="6" height="8" fill="#FFE9B0" opacity="0.45"/>
<rect x="766.963046631704" y="709.120592308214" width="6" height="8" fill="#FFE9B0" opacity="0.45"/>
<rect x="742.963046631704" y="681.120592308214" width="6" height="8" fill="#FFE9B0" opacity="0.45"/>
<rect x="766.963046631704" y="681.120592308214" width="6" height="8" fill="#FFE9B0" opacity="0.45"/>
<rect x="742.963046631704" y="653.120592308214" width="6" height="8" fill="#FFE9B0" opacity="0.45"/>
<rect x="766.963046631704" y="653.120592308214" width="6" height="8" fill="#FFE9B0" opacity="0.45"/>
<rect x="742.963046631704" y="625.120592308214" width="6" height="8" fill="#FFE9B0" opacity="0.45"/>
<rect x="766.963046631704" y="625.120592308214" width="6" height="8" fill="#FFE9B0" opacity="0.45"/>
<rect x="742.963046631704" y="597.120592308214" width="6" height="8" fill="#FFE9B0" opacity="0.45"/>
<rect x="766.963046631704" y="597.120592308214" width="6" height="8" fill="#FFE9B0" opacity="0.45"/>
<rect x="742.963046631704" y="569.120592308214" width="6" height="8" fill="#FFE9B0" opacity="0.45"/>
<rect x="766.963046631704" y="569.120592308214" width="6" height="8" fill="#FFE9B0" opacity="0.45"/>
<polygon points="784.963046631704,473.1205923082139 840.963046631704,501.120592308214 784.963046631704,483.12059230821393" fill="#6B6F5F" opacity="0.85"/>
<polygon points="728.963046631704,501.120592308214 784.963046631704,529.120592308214 784.963046631704,483.12059230821393" fill="#2C2E26" opacity="0.75"/>
<polygon points="538.7048251167942,817.6653241184101 482.7048251167941,845.6653241184101 482.7048251167941,606.6653241184101 538.7048251167942,578.6653241184101" fill="#2C2E26" stroke="#000" stroke-opacity="0.15" stroke-width="0.6"/>
<polygon points="482.7048251167941,845.6653241184101 538.7048251167942,873.6653241184101 538.7048251167942,634.6653241184101 482.7048251167941,606.6653241184101" fill="#6B6F5F" stroke="#000" stroke-opacity="0.18" stroke-width="0.6"/>
<polygon points="538.7048251167942,578.6653241184101 594.7048251167942,606.6653241184101 538.7048251167942,634.6653241184101 482.7048251167941,606.6653241184101" fill="#2C2E26" opacity="0.92" stroke="#000" stroke-opacity="0.12" stroke-width="0.5"/>
<rect x="496.7048251167941" y="785.6653241184101" width="6" height="8" fill="#FFE9B0" opacity="0.45"/>
<rect x="520.7048251167942" y="785.6653241184101" width="6" height="8" fill="#FFE9B0" opacity="0.45"/>
<rect x="496.7048251167941" y="757.6653241184101" width="6" height="8" fill="#FFE9B0" opacity="0.45"/>
<rect x="520.7048251167942" y="757.6653241184101" width="6" height="8" fill="#FFE9B0" opacity="0.45"/>
<rect x="496.7048251167941" y="729.6653241184101" width="6" height="8" fill="#FFE9B0" opacity="0.45"/>
<rect x="520.7048251167942" y="729.6653241184101" width="6" height="8" fill="#FFE9B0" opacity="0.45"/>
<rect x="496.7048251167941" y="701.6653241184101" width="6" height="8" fill="#FFE9B0" opacity="0.45"/>
<rect x="520.7048251167942" y="701.6653241184101" width="6" height="8" fill="#FFE9B0" opacity="0.45"/>
<rect x="496.7048251167941" y="673.6653241184101" width="6" height="8" fill="#FFE9B0" opacity="0.45"/>
<rect x="520.7048251167942" y="673.6653241184101" width="6" height="8" fill="#FFE9B0" opacity="0.45"/>
<polygon points="538.7048251167942,578.6653241184101 594.7048251167942,606.6653241184101 538.7048251167942,588.6653241184101" fill="#6B6F5F" opacity="0.85"/>
<polygon points="482.7048251167941,606.6653241184101 538.7048251167942,634.6653241184101 538.7048251167942,588.6653241184101" fill="#2C2E26" opacity="0.75"/>
<polygon points="1046.10355520539,1097.2184595002682 990.10355520539,1125.2184595002682 990.10355520539,942.2184595002682 1046.10355520539,914.2184595002682" fill="#2C2E26" stroke="#000" stroke-opacity="0.15" stroke-width="0.6"/>
<polygon points="990.10355520539,1125.2184595002682 1046.10355520539,1153.2184595002682 1046.10355520539,970.2184595002682 990.10355520539,942.2184595002682" fill="#6B6F5F" stroke="#000" stroke-opacity="0.18" stroke-width="0.6"/>
<polygon points="1046.10355520539,914.2184595002682 1102.10355520539,942.2184595002682 1046.10355520539,970.2184595002682 990.10355520539,942.2184595002682" fill="#2C2E26" opacity="0.92" stroke="#000" stroke-opacity="0.12" stroke-width="0.5"/>
<rect x="1004.10355520539" y="1065.2184595002682" width="6" height="8" fill="#FFE9B0" opacity="0.45"/>
<rect x="1028.10355520539" y="1065.2184595002682" width="6" height="8" fill="#FFE9B0" opacity="0.45"/>
<rect x="1004.10355520539" y="1037.2184595002682" width="6" height="8" fill="#FFE9B0" opacity="0.45"/>
<rect x="1028.10355520539" y="1037.2184595002682" width="6" height="8" fill="#FFE9B0" opacity="0.45"/>
<rect x="1004.10355520539" y="1009.2184595002682" width="6" height="8" fill="#FFE9B0" opacity="0.45"/>
<rect x="1028.10355520539" y="1009.2184595002682" width="6" height="8" fill="#FFE9B0" opacity="0.45"/>
<rect x="1004.10355520539" y="981.2184595002682" width="6" height="8" fill="#FFE9B0" opacity="0.45"/>
<rect x="1028.10355520539" y="981.2184595002682" width="6" height="8" fill="#FFE9B0" opacity="0.45"/>
<polygon points="1046.10355520539,914.2184595002682 1102.10355520539,942.2184595002682 1046.10355520539,924.2184595002682" fill="#6B6F5F" opacity="0.85"/>
<polygon points="990.10355520539,942.2184595002682 1046.10355520539,970.2184595002682 1046.10355520539,924.2184595002682" fill="#2C2E26" opacity="0.75"/>
<polygon points="1304.5928835747027,1010.0007230706592 1248.5928835747027,1038.0007230706592 1248.5928835747027,835.0007230706592 1304.5928835747027,807.0007230706592" fill="#2C2E26" stroke="#000" stroke-opacity="0.15" stroke-width="0.6"/>
<polygon points="1248.5928835747027,1038.0007230706592 1304.5928835747027,1066.0007230706592 1304.5928835747027,863.0007230706592 1248.5928835747027,835.0007230706592" fill="#6B6F5F" stroke="#000" stroke-opacity="0.18" stroke-width="0.6"/>
<polygon points="1304.5928835747027,807.0007230706592 1360.5928835747027,835.0007230706592 1304.5928835747027,863.0007230706592 1248.5928835747027,835.0007230706592" fill="#2C2E26" opacity="0.92" stroke="#000" stroke-opacity="0.12" stroke-width="0.5"/>
<rect x="1262.5928835747027" y="978.0007230706592" width="6" height="8" fill="#FFE9B0" opacity="0.45"/>
<rect x="1286.5928835747027" y="978.0007230706592" width="6" height="8" fill="#FFE9B0" opacity="0.45"/>
<rect x="1262.5928835747027" y="950.0007230706592" width="6" height="8" fill="#FFE9B0" opacity="0.45"/>
<rect x="1286.5928835747027" y="950.0007230706592" width="6" height="8" fill="#FFE9B0" opacity="0.45"/>
<rect x="1262.5928835747027" y="922.0007230706592" width="6" height="8" fill="#FFE9B0" opacity="0.45"/>
<rect x="1286.5928835747027" y="922.0007230706592" width="6" height="8" fill="#FFE9B0" opacity="0.45"/>
<rect x="1262.5928835747027" y="894.0007230706592" width="6" height="8" fill="#FFE9B0" opacity="0.45"/>
<rect x="1286.5928835747027" y="894.0007230706592" width="6" height="8" fill="#FFE9B0" opacity="0.45"/>
<polygon points="1304.5928835747027,807.0007230706592 1360.5928835747027,835.0007230706592 1304.5928835747027,817.0007230706592" fill="#6B6F5F" opacity="0.85"/>
<polygon points="1248.5928835747027,835.0007230706592 1304.5928835747027,863.0007230706592 1304.5928835747027,817.0007230706592" fill="#2C2E26" opacity="0.75"/>
<polygon points="1387.3608130929947,947.1019809627115 1331.3608130929947,975.1019809627117 1331.3608130929947,706.1019809627117 1387.3608130929947,678.1019809627115" fill="#2C2E26" stroke="#000" stroke-opacity="0.15" stroke-width="0.6"/>
<polygon points="1331.3608130929947,975.1019809627117 1387.3608130929947,1003.1019809627117 1387.3608130929947,734.1019809627117 1331.3608130929947,706.1019809627117" fill="#6B6F5F" stroke="#000" stroke-opacity="0.18" stroke-width="0.6"/>
<polygon points="1387.3608130929947,678.1019809627115 1443.360813092995,706.1019809627115 1387.3608130929947,734.1019809627117 1331.3608130929947,706.1019809627117" fill="#2C2E26" opacity="0.92" stroke="#000" stroke-opacity="0.12" stroke-width="0.5"/>
<rect x="1345.3608130929947" y="915.1019809627117" width="6" height="8" fill="#FFE9B0" opacity="0.45"/>
<rect x="1369.3608130929947" y="915.1019809627117" width="6" height="8" fill="#FFE9B0" opacity="0.45"/>
<rect x="1345.3608130929947" y="887.1019809627117" width="6" height="8" fill="#FFE9B0" opacity="0.45"/>
<rect x="1369.3608130929947" y="887.1019809627117" width="6" height="8" fill="#FFE9B0" opacity="0.45"/>
<rect x="1345.3608130929947" y="859.1019809627117" width="6" height="8" fill="#FFE9B0" opacity="0.45"/>
<rect x="1369.3608130929947" y="859.1019809627117" width="6" height="8" fill="#FFE9B0" opacity="0.45"/>
<rect x="1345.3608130929947" y="831.1019809627117" width="6" height="8" fill="#FFE9B0" opacity="0.45"/>
<rect x="1369.3608130929947" y="831.1019809627117" width="6" height="8" fill="#FFE9B0" opacity="0.45"/>
<rect x="1345.3608130929947" y="803.1019809627117" width="6" height="8" fill="#FFE9B0" opacity="0.45"/>
<rect x="1369.3608130929947" y="803.1019809627117" width="6" height="8" fill="#FFE9B0" opacity="0.45"/>
<rect x="1345.3608130929947" y="775.1019809627117" width="6" height="8" fill="#FFE9B0" opacity="0.45"/>
<rect x="1369.3608130929947" y="775.1019809627117" width="6" height="8" fill="#FFE9B0" opacity="0.45"/>
<polygon points="1387.3608130929947,678.1019809627115 1443.360813092995,706.1019809627115 1387.3608130929947,688.1019809627117" fill="#6B6F5F" opacity="0.85"/>
<polygon points="1331.3608130929947,706.1019809627117 1387.3608130929947,734.1019809627117 1387.3608130929947,688.1019809627117" fill="#2C2E26" opacity="0.75"/>
<polygon points="1211.4957661999272,867.2667715653381 1155.4957661999272,895.2667715653381 1155.4957661999272,707.2667715653381 1211.4957661999272,679.2667715653381" fill="#2C2E26" stroke="#000" stroke-opacity="0.15" stroke-width="0.6"/>
<polygon points="1155.4957661999272,895.2667715653381 1211.4957661999272,923.2667715653381 1211.4957661999272,735.2667715653381 1155.4957661999272,707.2667715653381" fill="#6B6F5F" stroke="#000" stroke-opacity="0.18" stroke-width="0.6"/>
<polygon points="1211.4957661999272,679.2667715653381 1267.4957661999272,707.2667715653381 1211.4957661999272,735.2667715653381 1155.4957661999272,707.2667715653381" fill="#2C2E26" opacity="0.92" stroke="#000" stroke-opacity="0.12" stroke-width="0.5"/>
<rect x="1169.4957661999272" y="835.2667715653381" width="6" height="8" fill="#FFE9B0" opacity="0.45"/>
<rect x="1193.4957661999272" y="835.2667715653381" width="6" height="8" fill="#FFE9B0" opacity="0.45"/>
<rect x="1169.4957661999272" y="807.2667715653381" width="6" height="8" fill="#FFE9B0" opacity="0.45"/>
<rect x="1193.4957661999272" y="807.2667715653381" width="6" height="8" fill="#FFE9B0" opacity="0.45"/>
<rect x="1169.4957661999272" y="779.2667715653381" width="6" height="8" fill="#FFE9B0" opacity="0.45"/>
<rect x="1193.4957661999272" y="779.2667715653381" width="6" height="8" fill="#FFE9B0" opacity="0.45"/>
<rect x="1169.4957661999272" y="751.2667715653381" width="6" height="8" fill="#FFE9B0" opacity="0.45"/>
<rect x="1193.4957661999272" y="751.2667715653381" width="6" height="8" fill="#FFE9B0" opacity="0.45"/>
<polygon points="1211.4957661999272,679.2667715653381 1267.4957661999272,707.2667715653381 1211.4957661999272,689.2667715653381" fill="#6B6F5F" opacity="0.85"/>
<polygon points="1155.4957661999272,707.2667715653381 1211.4957661999272,735.2667715653381 1211.4957661999272,689.2667715653381" fill="#2C2E26" opacity="0.75"/>
<polygon points="888.3003754367865,885.4097247309019 832.3003754367865,913.4097247309019 832.3003754367865,725.4097247309019 888.3003754367865,697.4097247309019" fill="#2C2E26" stroke="#000" stroke-opacity="0.15" stroke-width="0.6"/>
<polygon points="832.3003754367865,913.4097247309019 888.3003754367865,941.4097247309019 888.3003754367865,753.4097247309019 832.3003754367865,725.4097247309019" fill="#6B6F5F" stroke="#000" stroke-opacity="0.18" stroke-width="0.6"/>
<polygon points="888.3003754367865,697.4097247309019 944.3003754367865,725.4097247309019 888.3003754367865,753.4097247309019 832.3003754367865,725.4097247309019" fill="#2C2E26" opacity="0.92" stroke="#000" stroke-opacity="0.12" stroke-width="0.5"/>
<rect x="846.3003754367865" y="853.4097247309019" width="6" height="8" fill="#FFE9B0" opacity="0.45"/>
<rect x="870.3003754367865" y="853.4097247309019" width="6" height="8" fill="#FFE9B0" opacity="0.45"/>
<rect x="846.3003754367865" y="825.4097247309019" width="6" height="8" fill="#FFE9B0" opacity="0.45"/>
<rect x="870.3003754367865" y="825.4097247309019" width="6" height="8" fill="#FFE9B0" opacity="0.45"/>
<rect x="846.3003754367865" y="797.4097247309019" width="6" height="8" fill="#FFE9B0" opacity="0.45"/>
<rect x="870.3003754367865" y="797.4097247309019" width="6" height="8" fill="#FFE9B0" opacity="0.45"/>
<rect x="846.3003754367865" y="769.4097247309019" width="6" height="8" fill="#FFE9B0" opacity="0.45"/>
<rect x="870.3003754367865" y="769.4097247309019" width="6" height="8" fill="#FFE9B0" opacity="0.45"/>
<polygon points="888.3003754367865,697.4097247309019 944.3003754367865,725.4097247309019 888.3003754367865,707.4097247309019" fill="#6B6F5F" opacity="0.85"/>
<polygon points="832.3003754367865,725.4097247309019 888.3003754367865,753.4097247309019 888.3003754367865,707.4097247309019" fill="#2C2E26" opacity="0.75"/>
<polygon points="532.5179419846761,896.2622468267616 476.5179419846761,924.2622468267616 476.5179419846761,698.2622468267616 532.5179419846761,670.2622468267616" fill="#2C2E26" stroke="#000" stroke-opacity="0.15" stroke-width="0.6"/>
<polygon points="476.5179419846761,924.2622468267616 532.5179419846761,952.2622468267616 532.5179419846761,726.2622468267616 476.5179419846761,698.2622468267616" fill="#6B6F5F" stroke="#000" stroke-opacity="0.18" stroke-width="0.6"/>
<polygon points="532.5179419846761,670.2622468267616 588.5179419846761,698.2622468267616 532.5179419846761,726.2622468267616 476.5179419846761,698.2622468267616" fill="#2C2E26" opacity="0.92" stroke="#000" stroke-opacity="0.12" stroke-width="0.5"/>
<rect x="490.5179419846761" y="864.2622468267616" width="6" height="8" fill="#FFE9B0" opacity="0.45"/>
<rect x="514.5179419846761" y="864.2622468267616" width="6" height="8" fill="#FFE9B0" opacity="0.45"/>
<rect x="490.5179419846761" y="836.2622468267616" width="6" height="8" fill="#FFE9B0" opacity="0.45"/>
<rect x="514.5179419846761" y="836.2622468267616" width="6" height="8" fill="#FFE9B0" opacity="0.45"/>
<rect x="490.5179419846761" y="808.2622468267616" width="6" height="8" fill="#FFE9B0" opacity="0.45"/>
<rect x="514.5179419846761" y="808.2622468267616" width="6" height="8" fill="#FFE9B0" opacity="0.45"/>
<rect x="490.5179419846761" y="780.2622468267616" width="6" height="8" fill="#FFE9B0" opacity="0.45"/>
<rect x="514.5179419846761" y="780.2622468267616" width="6" height="8" fill="#FFE9B0" opacity="0.45"/>
<rect x="490.5179419846761" y="752.2622468267616" width="6" height="8" fill="#FFE9B0" opacity="0.45"/>
<rect x="514.5179419846761" y="752.2622468267616" width="6" height="8" fill="#FFE9B0" opacity="0.45"/>
<polygon points="532.5179419846761,670.2622468267616 588.5179419846761,698.2622468267616 532.5179419846761,680.2622468267616" fill="#6B6F5F" opacity="0.85"/>
<polygon points="476.5179419846761,698.2622468267616 532.5179419846761,726.2622468267616 532.5179419846761,680.2622468267616" fill="#2C2E26" opacity="0.75"/>
<polygon points="1169.1827381788573,1143.2742209189073 1113.182738178857,1171.2742209189073 1113.182738178857,943.2742209189073 1169.1827381788573,915.2742209189073" fill="#2C2E26" stroke="#000" stroke-opacity="0.15" stroke-width="0.6"/>
<polygon points="1113.182738178857,1171.2742209189073 1169.182738178857,1199.2742209189073 1169.182738178857,971.2742209189073 1113.182738178857,943.2742209189073" fill="#6B6F5F" stroke="#000" stroke-opacity="0.18" stroke-width="0.6"/>
<polygon points="1169.1827381788573,915.2742209189073 1225.182738178857,943.2742209189073 1169.182738178857,971.2742209189073 1113.182738178857,943.2742209189073" fill="#2C2E26" opacity="0.92" stroke="#000" stroke-opacity="0.12" stroke-width="0.5"/>
<rect x="1127.182738178857" y="1111.2742209189073" width="6" height="8" fill="#FFE9B0" opacity="0.45"/>
<rect x="1151.182738178857" y="1111.2742209189073" width="6" height="8" fill="#FFE9B0" opacity="0.45"/>
<rect x="1127.182738178857" y="1083.2742209189073" width="6" height="8" fill="#FFE9B0" opacity="0.45"/>
<rect x="1151.182738178857" y="1083.2742209189073" width="6" height="8" fill="#FFE9B0" opacity="0.45"/>
<rect x="1127.182738178857" y="1055.2742209189073" width="6" height="8" fill="#FFE9B0" opacity="0.45"/>
<rect x="1151.182738178857" y="1055.2742209189073" width="6" height="8" fill="#FFE9B0" opacity="0.45"/>
<rect x="1127.182738178857" y="1027.2742209189073" width="6" height="8" fill="#FFE9B0" opacity="0.45"/>
<rect x="1151.182738178857" y="1027.2742209189073" width="6" height="8" fill="#FFE9B0" opacity="0.45"/>
<rect x="1127.182738178857" y="999.2742209189073" width="6" height="8" fill="#FFE9B0" opacity="0.45"/>
<rect x="1151.182738178857" y="999.2742209189073" width="6" height="8" fill="#FFE9B0" opacity="0.45"/>
<polygon points="1169.1827381788573,915.2742209189073 1225.182738178857,943.2742209189073 1169.182738178857,925.2742209189073" fill="#6B6F5F" opacity="0.85"/>
<polygon points="1113.182738178857,943.2742209189073 1169.182738178857,971.2742209189073 1169.182738178857,925.2742209189073" fill="#2C2E26" opacity="0.75"/>
  <rect x="0" y="0" width="1600" height="900" filter="url(#grain-W-005)"/>
  
    <g font-family="Inter, Helvetica, sans-serif">
      <text x="60" y="60" font-size="14" fill="#E8E9DB" opacity="0.7" letter-spacing="4">GENESIS · W-005</text>
      <text x="60" y="86" font-size="34" fill="#E8E9DB" opacity="0.95" letter-spacing="6">SINAI</text>
      <text x="60" y="112" font-size="11" fill="#E8E9DB" opacity="0.55" letter-spacing="2">The Burning Mountain</text>
      <text x="60" y="840" font-size="10" fill="#E8E9DB" opacity="0.55" letter-spacing="2">—</text>
      <text x="60" y="858" font-size="12" fill="#E8E9DB" opacity="0.7" letter-spacing="1.5" font-style="italic">"The bush is on fire but the wood does not burn."</text>
    </g>
    
</svg>
