<?xml version="1.0" encoding="UTF-8"?>
<svg xmlns="http://www.w3.org/2000/svg" viewBox="0 0 1600 900" width="1600" height="900">
  
    <defs>
      <linearGradient id="sky-W-107" x1="0" y1="0" x2="0" y2="1">
        <stop offset="0%" stop-color="#1A1410"/>
        <stop offset="55%" stop-color="#3D2F25"/>
        <stop offset="100%" stop-color="#9C7A55"/>
      </linearGradient>
      <linearGradient id="ground-W-107" x1="0" y1="0" x2="0" y2="1">
        <stop offset="0%" stop-color="#9C7A55"/>
        <stop offset="50%" stop-color="#D9C09C"/>
        <stop offset="100%" stop-color="#F3E8D0"/>
      </linearGradient>
      <radialGradient id="sun-W-107" cx="50%" cy="50%" r="50%">
        <stop offset="0%" stop-color="#F3E8D0" stop-opacity="0.9"/>
        <stop offset="100%" stop-color="#F3E8D0" stop-opacity="0"/>
      </radialGradient>
      <filter id="grain-W-107" x="0" y="0" width="100%" height="100%">
        <feTurbulence type="fractalNoise" baseFrequency="0.85" numOctaves="2" seed="778976693"/>
        <feColorMatrix values="0 0 0 0 0  0 0 0 0 0  0 0 0 0 0  0 0 0 0.05 0"/>
      </filter>
    </defs>
    
  
    <rect x="0" y="0" width="1600" height="900" fill="url(#sky-W-107)"/>
    <circle cx="1180" cy="280" r="220" fill="url(#sun-W-107)"/>
    <rect x="0" y="520" width="1600" height="380" fill="url(#ground-W-107)"/>
    
  <rect x="0" y="500" width="1600" height="40" fill="#9C7A55" opacity="0.35"/><rect x="0" y="520" width="1600" height="14" fill="#D9C09C" opacity="0.25"/>
  <polygon points="800.0,680.0 744.0,708.0 744.0,655.0 800.0,627.0" fill="#3D2F25" stroke="#000" stroke-opacity="0.15" stroke-width="0.6"/>
<polygon points="744.0,708.0 800.0,736.0 800.0,683.0 744.0,655.0" fill="#9C7A55" stroke="#000" stroke-opacity="0.18" stroke-width="0.6"/>
<polygon points="800.0,627.0 856.0,655.0 800.0,683.0 744.0,655.0" fill="#3D2F25" opacity="0.92" stroke="#000" stroke-opacity="0.12" stroke-width="0.5"/>
<polygon points="920.0,740.0 864.0,768.0 864.0,712.0 920.0,684.0" fill="#3D2F25" stroke="#000" stroke-opacity="0.15" stroke-width="0.6"/>
<polygon points="864.0,768.0 920.0,796.0 920.0,740.0 864.0,712.0" fill="#9C7A55" stroke="#000" stroke-opacity="0.18" stroke-width="0.6"/>
<polygon points="920.0,684.0 976.0,712.0 920.0,740.0 864.0,712.0" fill="#3D2F25" opacity="0.92" stroke="#000" stroke-opacity="0.12" stroke-width="0.5"/>
<polygon points="1040.0,800.0 984.0,828.0 984.0,768.0 1040.0,740.0" fill="#3D2F25" stroke="#000" stroke-opacity="0.15" stroke-width="0.6"/>
<polygon points="984.0,828.0 1040.0,856.0 1040.0,796.0 984.0,768.0" fill="#9C7A55" stroke="#000" stroke-opacity="0.18" stroke-width="0.6"/>
<polygon points="1040.0,740.0 1096.0,768.0 1040.0,796.0 984.0,768.0" fill="#3D2F25" opacity="0.92" stroke="#000" stroke-opacity="0.12" stroke-width="0.5"/>
<polygon points="1160.0,860.0 1104.0,888.0 1104.0,829.0 1160.0,801.0" fill="#3D2F25" stroke="#000" stroke-opacity="0.15" stroke-width="0.6"/>
<polygon points="1104.0,888.0 1160.0,916.0 1160.0,857.0 1104.0,829.0" fill="#9C7A55" stroke="#000" stroke-opacity="0.18" stroke-width="0.6"/>
<polygon points="1160.0,801.0 1216.0,829.0 1160.0,857.0 1104.0,829.0" fill="#3D2F25" opacity="0.92" stroke="#000" stroke-opacity="0.12" stroke-width="0.5"/>
<polygon points="1280.0,920.0 1224.0,948.0 1224.0,883.0 1280.0,855.0" fill="#3D2F25" stroke="#000" stroke-opacity="0.15" stroke-width="0.6"/>
<polygon points="1224.0,948.0 1280.0,976.0 1280.0,911.0 1224.0,883.0" fill="#9C7A55" stroke="#000" stroke-opacity="0.18" stroke-width="0.6"/>
<polygon points="1280.0,855.0 1336.0,883.0 1280.0,911.0 1224.0,883.0" fill="#3D2F25" opacity="0.92" stroke="#000" stroke-opacity="0.12" stroke-width="0.5"/>
<polygon points="1400.0,980.0 1344.0,1008.0 1344.0,950.0 1400.0,922.0" fill="#3D2F25" stroke="#000" stroke-opacity="0.15" stroke-width="0.6"/>
<polygon points="1344.0,1008.0 1400.0,1036.0 1400.0,978.0 1344.0,950.0" fill="#9C7A55" stroke="#000" stroke-opacity="0.18" stroke-width="0.6"/>
<polygon points="1400.0,922.0 1456.0,950.0 1400.0,978.0 1344.0,950.0" fill="#3D2F25" opacity="0.92" stroke="#000" stroke-opacity="0.12" stroke-width="0.5"/>
<polygon points="680.0,900.0 624.0,928.0 624.0,922.0 680.0,894.0" fill="#D9C09C" stroke="#000" stroke-opacity="0.15" stroke-width="0.6"/>
<polygon points="624.0,928.0 680.0,956.0 680.0,950.0 624.0,922.0" fill="#9C7A55" stroke="#000" stroke-opacity="0.18" stroke-width="0.6"/>
<polygon points="680.0,894.0 736.0,922.0 680.0,950.0 624.0,922.0" fill="#D9C09C" opacity="0.92" stroke="#000" stroke-opacity="0.12" stroke-width="0.5"/>
<polygon points="720.0,920.0 664.0,948.0 664.0,942.0 720.0,914.0" fill="#D9C09C" stroke="#000" stroke-opacity="0.15" stroke-width="0.6"/>
<polygon points="664.0,948.0 720.0,976.0 720.0,970.0 664.0,942.0" fill="#9C7A55" stroke="#000" stroke-opacity="0.18" stroke-width="0.6"/>
<polygon points="720.0,914.0 776.0,942.0 720.0,970.0 664.0,942.0" fill="#D9C09C" opacity="0.92" stroke="#000" stroke-opacity="0.12" stroke-width="0.5"/>
<polygon points="760.0,940.0 704.0,968.0 704.0,962.0 760.0,934.0" fill="#D9C09C" stroke="#000" stroke-opacity="0.15" stroke-width="0.6"/>
<polygon points="704.0,968.0 760.0,996.0 760.0,990.0 704.0,962.0" fill="#9C7A55" stroke="#000" stroke-opacity="0.18" stroke-width="0.6"/>
<polygon points="760.0,934.0 816.0,962.0 760.0,990.0 704.0,962.0" fill="#D9C09C" opacity="0.92" stroke="#000" stroke-opacity="0.12" stroke-width="0.5"/>
<polygon points="800.0,960.0 744.0,988.0 744.0,982.0 800.0,954.0" fill="#D9C09C" stroke="#000" stroke-opacity="0.15" stroke-width="0.6"/>
<polygon points="744.0,988.0 800.0,1016.0 800.0,1010.0 744.0,982.0" fill="#9C7A55" stroke="#000" stroke-opacity="0.18" stroke-width="0.6"/>
<polygon points="800.0,954.0 856.0,982.0 800.0,1010.0 744.0,982.0" fill="#D9C09C" opacity="0.92" stroke="#000" stroke-opacity="0.12" stroke-width="0.5"/>
<polygon points="840.0,980.0 784.0,1008.0 784.0,1002.0 840.0,974.0" fill="#D9C09C" stroke="#000" stroke-opacity="0.15" stroke-width="0.6"/>
<polygon points="784.0,1008.0 840.0,1036.0 840.0,1030.0 784.0,1002.0" fill="#9C7A55" stroke="#000" stroke-opacity="0.18" stroke-width="0.6"/>
<polygon points="840.0,974.0 896.0,1002.0 840.0,1030.0 784.0,1002.0" fill="#D9C09C" opacity="0.92" stroke="#000" stroke-opacity="0.12" stroke-width="0.5"/>
<polygon points="880.0,1000.0 824.0,1028.0 824.0,1022.0 880.0,994.0" fill="#D9C09C" stroke="#000" stroke-opacity="0.15" stroke-width="0.6"/>
<polygon points="824.0,1028.0 880.0,1056.0 880.0,1050.0 824.0,1022.0" fill="#9C7A55" stroke="#000" stroke-opacity="0.18" stroke-width="0.6"/>
<polygon points="880.0,994.0 936.0,1022.0 880.0,1050.0 824.0,1022.0" fill="#D9C09C" opacity="0.92" stroke="#000" stroke-opacity="0.12" stroke-width="0.5"/>
<polygon points="920.0,1020.0 864.0,1048.0 864.0,1042.0 920.0,1014.0" fill="#D9C09C" stroke="#000" stroke-opacity="0.15" stroke-width="0.6"/>
<polygon points="864.0,1048.0 920.0,1076.0 920.0,1070.0 864.0,1042.0" fill="#9C7A55" stroke="#000" stroke-opacity="0.18" stroke-width="0.6"/>
<polygon points="920.0,1014.0 976.0,1042.0 920.0,1070.0 864.0,1042.0" fill="#D9C09C" opacity="0.92" stroke="#000" stroke-opacity="0.12" stroke-width="0.5"/>
<polygon points="960.0,1040.0 904.0,1068.0 904.0,1062.0 960.0,1034.0" fill="#D9C09C" stroke="#000" stroke-opacity="0.15" stroke-width="0.6"/>
<polygon points="904.0,1068.0 960.0,1096.0 960.0,1090.0 904.0,1062.0" fill="#9C7A55" stroke="#000" stroke-opacity="0.18" stroke-width="0.6"/>
<polygon points="960.0,1034.0 1016.0,1062.0 960.0,1090.0 904.0,1062.0" fill="#D9C09C" opacity="0.92" stroke="#000" stroke-opacity="0.12" stroke-width="0.5"/>

    <rect x="414.25889405159353" y="811.6294470257967" width="2" height="36" fill="#2A2A2A" opacity="0.85"/>
    <circle cx="415.25889405159353" cy="809.6294470257967" r="3.5" fill="#FFE6A0" opacity="0.95"/>
    <circle cx="415.25889405159353" cy="809.6294470257967" r="11" fill="#FFE6A0" opacity="0.15"/>
    

    <rect x="572.4981480662987" y="890.7490740331493" width="2" height="36" fill="#2A2A2A" opacity="0.85"/>
    <circle cx="573.4981480662987" cy="888.7490740331493" r="3.5" fill="#FFE6A0" opacity="0.95"/>
    <circle cx="573.4981480662987" cy="888.7490740331493" r="11" fill="#FFE6A0" opacity="0.15"/>
    

    <rect x="509.6909303895508" y="859.3454651947754" width="2" height="36" fill="#2A2A2A" opacity="0.85"/>
    <circle cx="510.6909303895508" cy="857.3454651947754" r="3.5" fill="#FFE6A0" opacity="0.95"/>
    <circle cx="510.6909303895508" cy="857.3454651947754" r="11" fill="#FFE6A0" opacity="0.15"/>
    

    <rect x="485.74714269599656" y="847.3735713479982" width="2" height="36" fill="#2A2A2A" opacity="0.85"/>
    <circle cx="486.74714269599656" cy="845.3735713479982" r="3.5" fill="#FFE6A0" opacity="0.95"/>
    <circle cx="486.74714269599656" cy="845.3735713479982" r="11" fill="#FFE6A0" opacity="0.15"/>
    

    <rect x="846.9494422458447" y="1027.9747211229223" width="2" height="36" fill="#2A2A2A" opacity="0.85"/>
    <circle cx="847.9494422458447" cy="1025.9747211229223" r="3.5" fill="#FFE6A0" opacity="0.95"/>
    <circle cx="847.9494422458447" cy="1025.9747211229223" r="11" fill="#FFE6A0" opacity="0.15"/>
    

    <rect x="1087.6470531146304" y="1148.3235265573153" width="2" height="36" fill="#2A2A2A" opacity="0.85"/>
    <circle cx="1088.6470531146304" cy="1146.3235265573153" r="3.5" fill="#FFE6A0" opacity="0.95"/>
    <circle cx="1088.6470531146304" cy="1146.3235265573153" r="11" fill="#FFE6A0" opacity="0.15"/>
    
  <rect x="0" y="0" width="1600" height="900" filter="url(#grain-W-107)"/>
  
    <g font-family="Inter, Helvetica, sans-serif">
      <text x="60" y="60" font-size="14" fill="#F3E8D0" opacity="0.7" letter-spacing="4">GENESIS · W-107</text>
      <text x="60" y="86" font-size="34" fill="#F3E8D0" opacity="0.95" letter-spacing="6">LAGOS ISLAND</text>
      <text x="60" y="112" font-size="11" fill="#F3E8D0" opacity="0.55" letter-spacing="2">Lagos, Nigeria — Eko</text>
      <text x="60" y="840" font-size="10" fill="#F3E8D0" opacity="0.55" letter-spacing="2">6.4541, 3.3947</text>
      <text x="60" y="858" font-size="12" fill="#F3E8D0" opacity="0.7" letter-spacing="1.5" font-style="italic">"Traffic is sermon. Patience is the only currency that holds value."</text>
    </g>
    
</svg>
