<?xml version="1.0" encoding="UTF-8"?>
<svg xmlns="http://www.w3.org/2000/svg" viewBox="0 0 1600 900" width="1600" height="900">
  
    <defs>
      <linearGradient id="sky-W-104" x1="0" y1="0" x2="0" y2="1">
        <stop offset="0%" stop-color="#101511"/>
        <stop offset="55%" stop-color="#2F3A2D"/>
        <stop offset="100%" stop-color="#7C8A6E"/>
      </linearGradient>
      <linearGradient id="ground-W-104" x1="0" y1="0" x2="0" y2="1">
        <stop offset="0%" stop-color="#7C8A6E"/>
        <stop offset="50%" stop-color="#BDC4AB"/>
        <stop offset="100%" stop-color="#EAE8D2"/>
      </linearGradient>
      <radialGradient id="sun-W-104" cx="50%" cy="50%" r="50%">
        <stop offset="0%" stop-color="#EAE8D2" stop-opacity="0.9"/>
        <stop offset="100%" stop-color="#EAE8D2" stop-opacity="0"/>
      </radialGradient>
      <filter id="grain-W-104" x="0" y="0" width="100%" height="100%">
        <feTurbulence type="fractalNoise" baseFrequency="0.85" numOctaves="2" seed="631583385"/>
        <feColorMatrix values="0 0 0 0 0  0 0 0 0 0  0 0 0 0 0  0 0 0 0.05 0"/>
      </filter>
    </defs>
    
  
    <rect x="0" y="0" width="1600" height="900" fill="url(#sky-W-104)"/>
    <circle cx="1180" cy="280" r="220" fill="url(#sun-W-104)"/>
    <rect x="0" y="520" width="1600" height="380" fill="url(#ground-W-104)"/>
    
  <rect x="0" y="500" width="1600" height="40" fill="#7C8A6E" opacity="0.35"/><rect x="0" y="520" width="1600" height="14" fill="#BDC4AB" opacity="0.25"/>
  <line x1="560.0" y1="640.0" x2="1360.0" y2="1200.0" stroke="#3A5C66" stroke-width="14" opacity="0.55" stroke-linecap="round"/>
<line x1="540.0" y1="650.0" x2="1340.0" y2="1210.0" stroke="#456A75" stroke-width="14" opacity="0.55" stroke-linecap="round"/>

    <ellipse cx="1219.30174383275" cy="909.6005327532349" rx="17.011860583124538" ry="6.615723560103986" fill="#2F3A2D" opacity="0.35"/>
    <rect x="1213.30174383275" y="893.6005327532349" width="3" height="14" fill="#3A2A20" opacity="0.85"/>
    <circle cx="1214.30174383275" cy="883.6005327532349" r="18.90206731458282" fill="#7C8A6E" opacity="0.92"/>
    <circle cx="1223.30174383275" cy="877.6005327532349" r="13.231447120207973" fill="#7C8A6E" opacity="0.8"/>
    <circle cx="1207.30174383275" cy="877.6005327532349" r="12.286343754478834" fill="#7C8A6E" opacity="0.7"/>
    

    <ellipse cx="710.0024909880281" cy="904.6167900210739" rx="16.460901196855204" ry="6.4014615765548015" fill="#2F3A2D" opacity="0.35"/>
    <rect x="704.0024909880281" y="888.6167900210739" width="3" height="14" fill="#3A2A20" opacity="0.85"/>
    <circle cx="705.0024909880281" cy="878.6167900210739" r="18.289890218728004" fill="#7C8A6E" opacity="0.92"/>
    <circle cx="714.0024909880281" cy="872.6167900210739" r="12.802923153109603" fill="#7C8A6E" opacity="0.8"/>
    <circle cx="698.0024909880281" cy="872.6167900210739" r="11.888428642173203" fill="#7C8A6E" opacity="0.7"/>
    

    <ellipse cx="853.3110650680397" cy="939.5661876041839" rx="16.677698514410125" ry="6.485771644492825" fill="#2F3A2D" opacity="0.35"/>
    <rect x="847.3110650680397" y="923.5661876041839" width="3" height="14" fill="#3A2A20" opacity="0.85"/>
    <circle cx="848.3110650680397" cy="913.5661876041839" r="18.53077612712236" fill="#7C8A6E" opacity="0.92"/>
    <circle cx="857.3110650680397" cy="907.5661876041839" r="12.97154328898565" fill="#7C8A6E" opacity="0.8"/>
    <circle cx="841.3110650680397" cy="907.5661876041839" r="12.045004482629533" fill="#7C8A6E" opacity="0.7"/>
    

    <ellipse cx="909.833267489195" cy="1074.1465470011008" rx="11.6015193108335" ry="4.511701954213028" fill="#2F3A2D" opacity="0.35"/>
    <rect x="903.833267489195" y="1058.1465470011008" width="3" height="14" fill="#3A2A20" opacity="0.85"/>
    <circle cx="904.833267489195" cy="1048.1465470011008" r="12.890577012037223" fill="#7C8A6E" opacity="0.92"/>
    <circle cx="913.833267489195" cy="1042.1465470011008" r="9.023403908426056" fill="#7C8A6E" opacity="0.8"/>
    <circle cx="897.833267489195" cy="1042.1465470011008" r="8.378875057824196" fill="#7C8A6E" opacity="0.7"/>
    

    <ellipse cx="1054.510708415987" cy="884.2197715686948" rx="12.807037545932095" ry="4.980514601195814" fill="#2F3A2D" opacity="0.35"/>
    <rect x="1048.510708415987" y="868.2197715686948" width="3" height="14" fill="#3A2A20" opacity="0.85"/>
    <circle cx="1049.510708415987" cy="858.2197715686948" r="14.230041717702328" fill="#7C8A6E" opacity="0.92"/>
    <circle cx="1058.510708415987" cy="852.2197715686948" r="9.961029202391629" fill="#7C8A6E" opacity="0.8"/>
    <circle cx="1042.510708415987" cy="852.2197715686948" r="9.249527116506513" fill="#7C8A6E" opacity="0.7"/>
    

    <ellipse cx="905.7187678028382" cy="785.8612149003984" rx="13.037595419625108" ry="5.070175996520875" fill="#2F3A2D" opacity="0.35"/>
    <rect x="899.7187678028382" y="769.8612149003984" width="3" height="14" fill="#3A2A20" opacity="0.85"/>
    <circle cx="900.7187678028382" cy="759.8612149003984" r="14.486217132916785" fill="#7C8A6E" opacity="0.92"/>
    <circle cx="909.7187678028382" cy="753.8612149003984" r="10.14035199304175" fill="#7C8A6E" opacity="0.8"/>
    <circle cx="893.7187678028382" cy="753.8612149003984" r="9.416041136395911" fill="#7C8A6E" opacity="0.7"/>
    

    <ellipse cx="609.8982195729473" cy="840.3955199530094" rx="15.785090662137893" ry="6.13864636860918" fill="#2F3A2D" opacity="0.35"/>
    <rect x="603.8982195729473" y="824.3955199530094" width="3" height="14" fill="#3A2A20" opacity="0.85"/>
    <circle cx="604.8982195729473" cy="814.3955199530094" r="17.538989624597658" fill="#7C8A6E" opacity="0.92"/>
    <circle cx="613.8982195729473" cy="808.3955199530094" r="12.27729273721836" fill="#7C8A6E" opacity="0.8"/>
    <circle cx="597.8982195729473" cy="808.3955199530094" r="11.400343255988478" fill="#7C8A6E" opacity="0.7"/>
    

    <ellipse cx="1243.2486787480166" cy="887.1954540605936" rx="14.805899740294597" ry="5.757849899003454" fill="#2F3A2D" opacity="0.35"/>
    <rect x="1237.2486787480166" y="871.1954540605936" width="3" height="14" fill="#3A2A20" opacity="0.85"/>
    <circle cx="1238.2486787480166" cy="861.1954540605936" r="16.450999711438442" fill="#7C8A6E" opacity="0.92"/>
    <circle cx="1247.2486787480166" cy="855.1954540605936" r="11.515699798006908" fill="#7C8A6E" opacity="0.8"/>
    <circle cx="1231.2486787480166" cy="855.1954540605936" r="10.693149812434987" fill="#7C8A6E" opacity="0.7"/>
    

    <ellipse cx="1015.1200057012636" cy="1101.7804989062633" rx="17.233839598345696" ry="6.702048732689993" fill="#2F3A2D" opacity="0.35"/>
    <rect x="1009.1200057012636" y="1085.7804989062633" width="3" height="14" fill="#3A2A20" opacity="0.85"/>
    <circle cx="1010.1200057012636" cy="1075.7804989062633" r="19.148710664828553" fill="#7C8A6E" opacity="0.92"/>
    <circle cx="1019.1200057012636" cy="1069.7804989062633" r="13.404097465379985" fill="#7C8A6E" opacity="0.8"/>
    <circle cx="1003.1200057012636" cy="1069.7804989062633" r="12.446661932138559" fill="#7C8A6E" opacity="0.7"/>
    

    <ellipse cx="932.5344278488919" cy="730.1280539951989" rx="12.517855829688035" ry="4.8680550448786795" fill="#2F3A2D" opacity="0.35"/>
    <rect x="926.5344278488919" y="714.1280539951989" width="3" height="14" fill="#3A2A20" opacity="0.85"/>
    <circle cx="927.5344278488919" cy="704.1280539951989" r="13.908728699653372" fill="#7C8A6E" opacity="0.92"/>
    <circle cx="936.5344278488919" cy="698.1280539951989" r="9.736110089757359" fill="#7C8A6E" opacity="0.8"/>
    <circle cx="920.5344278488919" cy="698.1280539951989" r="9.040673654774691" fill="#7C8A6E" opacity="0.7"/>
    

    <ellipse cx="1160.6697254201154" cy="970.3555593778715" rx="16.355987102342567" ry="6.360661650910998" fill="#2F3A2D" opacity="0.35"/>
    <rect x="1154.6697254201154" y="954.3555593778715" width="3" height="14" fill="#3A2A20" opacity="0.85"/>
    <circle cx="1155.6697254201154" cy="944.3555593778715" r="18.173319002602852" fill="#7C8A6E" opacity="0.92"/>
    <circle cx="1164.6697254201154" cy="938.3555593778715" r="12.721323301821997" fill="#7C8A6E" opacity="0.8"/>
    <circle cx="1148.6697254201154" cy="938.3555593778715" r="11.812657351691854" fill="#7C8A6E" opacity="0.7"/>
    

    <ellipse cx="716.429027951725" cy="931.491949027621" rx="14.892625937243004" ry="5.791576753372279" fill="#2F3A2D" opacity="0.35"/>
    <rect x="710.429027951725" y="915.491949027621" width="3" height="14" fill="#3A2A20" opacity="0.85"/>
    <circle cx="711.429027951725" cy="905.491949027621" r="16.547362152492227" fill="#7C8A6E" opacity="0.92"/>
    <circle cx="720.429027951725" cy="899.491949027621" r="11.583153506744559" fill="#7C8A6E" opacity="0.8"/>
    <circle cx="704.429027951725" cy="899.491949027621" r="10.755785399119947" fill="#7C8A6E" opacity="0.7"/>
    

    <ellipse cx="948.4700496464893" cy="1049.2915228230436" rx="11.64631815633674" ry="4.529123727464287" fill="#2F3A2D" opacity="0.35"/>
    <rect x="942.4700496464893" y="1033.2915228230436" width="3" height="14" fill="#3A2A20" opacity="0.85"/>
    <circle cx="943.4700496464893" cy="1023.2915228230436" r="12.940353507040822" fill="#7C8A6E" opacity="0.92"/>
    <circle cx="952.4700496464893" cy="1017.2915228230436" r="9.058247454928575" fill="#7C8A6E" opacity="0.8"/>
    <circle cx="936.4700496464893" cy="1017.2915228230436" r="8.411229779576534" fill="#7C8A6E" opacity="0.7"/>
    

    <ellipse cx="539.7424376207919" cy="813.8795261544376" rx="17.462109843312813" ry="6.790820494621649" fill="#2F3A2D" opacity="0.35"/>
    <rect x="533.7424376207919" y="797.8795261544376" width="3" height="14" fill="#3A2A20" opacity="0.85"/>
    <circle cx="534.7424376207919" cy="787.8795261544376" r="19.40234427034757" fill="#7C8A6E" opacity="0.92"/>
    <circle cx="543.7424376207919" cy="781.8795261544376" r="13.581640989243297" fill="#7C8A6E" opacity="0.8"/>
    <circle cx="527.7424376207919" cy="781.8795261544376" r="12.61152377572592" fill="#7C8A6E" opacity="0.7"/>
    

    <ellipse cx="892.7762223354831" cy="1060.9926847149986" rx="16.55154098785545" ry="6.436710384166008" fill="#2F3A2D" opacity="0.35"/>
    <rect x="886.7762223354831" y="1044.9926847149986" width="3" height="14" fill="#3A2A20" opacity="0.85"/>
    <circle cx="887.7762223354831" cy="1034.9926847149986" r="18.390601097617168" fill="#7C8A6E" opacity="0.92"/>
    <circle cx="896.7762223354831" cy="1028.9926847149986" r="12.873420768332016" fill="#7C8A6E" opacity="0.8"/>
    <circle cx="880.7762223354831" cy="1028.9926847149986" r="11.953890713451159" fill="#7C8A6E" opacity="0.7"/>
    

    <ellipse cx="1239.0012791012114" cy="985.9139599862009" rx="15.426460573151624" ry="5.999179111781187" fill="#2F3A2D" opacity="0.35"/>
    <rect x="1233.0012791012114" y="969.9139599862009" width="3" height="14" fill="#3A2A20" opacity="0.85"/>
    <circle cx="1234.0012791012114" cy="959.9139599862009" r="17.14051174794625" fill="#7C8A6E" opacity="0.92"/>
    <circle cx="1243.0012791012114" cy="953.9139599862009" r="11.998358223562374" fill="#7C8A6E" opacity="0.8"/>
    <circle cx="1227.0012791012114" cy="953.9139599862009" r="11.141332636165062" fill="#7C8A6E" opacity="0.7"/>
    

    <ellipse cx="1114.7762252255397" cy="1191.7462841354948" rx="11.596540891574206" ry="4.509765902278857" fill="#2F3A2D" opacity="0.35"/>
    <rect x="1108.7762252255397" y="1175.7462841354948" width="3" height="14" fill="#3A2A20" opacity="0.85"/>
    <circle cx="1109.7762252255397" cy="1165.7462841354948" r="12.88504543508245" fill="#7C8A6E" opacity="0.92"/>
    <circle cx="1118.7762252255397" cy="1159.7462841354948" r="9.019531804557714" fill="#7C8A6E" opacity="0.8"/>
    <circle cx="1102.7762252255397" cy="1159.7462841354948" r="8.375279532803592" fill="#7C8A6E" opacity="0.7"/>
    

    <ellipse cx="1178.8747035808028" cy="885.6846299014101" rx="14.150485547190907" ry="5.502966601685353" fill="#2F3A2D" opacity="0.35"/>
    <rect x="1172.8747035808028" y="869.6846299014101" width="3" height="14" fill="#3A2A20" opacity="0.85"/>
    <circle cx="1173.8747035808028" cy="859.6846299014101" r="15.722761719101008" fill="#7C8A6E" opacity="0.92"/>
    <circle cx="1182.8747035808028" cy="853.6846299014101" r="11.005933203370706" fill="#7C8A6E" opacity="0.8"/>
    <circle cx="1166.8747035808028" cy="853.6846299014101" r="10.219795117415655" fill="#7C8A6E" opacity="0.7"/>
    

    <ellipse cx="1294.6465784367513" cy="889.2892484122415" rx="13.569983713259859" ry="5.277215888489945" fill="#2F3A2D" opacity="0.35"/>
    <rect x="1288.6465784367513" y="873.2892484122415" width="3" height="14" fill="#3A2A20" opacity="0.85"/>
    <circle cx="1289.6465784367513" cy="863.2892484122415" r="15.077759681399844" fill="#7C8A6E" opacity="0.92"/>
    <circle cx="1298.6465784367513" cy="857.2892484122415" r="10.55443177697989" fill="#7C8A6E" opacity="0.8"/>
    <circle cx="1282.6465784367513" cy="857.2892484122415" r="9.800543792909899" fill="#7C8A6E" opacity="0.7"/>
    

    <ellipse cx="1234.0941849290712" cy="1033.8808058976758" rx="14.427968917474395" ry="5.6108768012400425" fill="#2F3A2D" opacity="0.35"/>
    <rect x="1228.0941849290712" y="1017.8808058976758" width="3" height="14" fill="#3A2A20" opacity="0.85"/>
    <circle cx="1229.0941849290712" cy="1007.8808058976758" r="16.03107657497155" fill="#7C8A6E" opacity="0.92"/>
    <circle cx="1238.0941849290712" cy="1001.8808058976758" r="11.221753602480085" fill="#7C8A6E" opacity="0.8"/>
    <circle cx="1222.0941849290712" cy="1001.8808058976758" r="10.420199773731508" fill="#7C8A6E" opacity="0.7"/>
    

    <ellipse cx="896.6797918609778" cy="772.8667711308311" rx="12.690239435812913" ry="4.935093113927243" fill="#2F3A2D" opacity="0.35"/>
    <rect x="890.6797918609778" y="756.8667711308311" width="3" height="14" fill="#3A2A20" opacity="0.85"/>
    <circle cx="891.6797918609778" cy="746.8667711308311" r="14.100266039792125" fill="#7C8A6E" opacity="0.92"/>
    <circle cx="900.6797918609778" cy="740.8667711308311" r="9.870186227854486" fill="#7C8A6E" opacity="0.8"/>
    <circle cx="884.6797918609778" cy="740.8667711308311" r="9.165172925864882" fill="#7C8A6E" opacity="0.7"/>
    

    <ellipse cx="1355.848747261575" cy="911.617315950396" rx="14.868748272782412" ry="5.782290994970937" fill="#2F3A2D" opacity="0.35"/>
    <rect x="1349.848747261575" y="895.617315950396" width="3" height="14" fill="#3A2A20" opacity="0.85"/>
    <circle cx="1350.848747261575" cy="885.617315950396" r="16.52083141420268" fill="#7C8A6E" opacity="0.92"/>
    <circle cx="1359.848747261575" cy="879.617315950396" r="11.564581989941875" fill="#7C8A6E" opacity="0.8"/>
    <circle cx="1343.848747261575" cy="879.617315950396" r="10.738540419231741" fill="#7C8A6E" opacity="0.7"/>
    

    <ellipse cx="723.030698430101" cy="865.7394286372607" rx="15.605392806754761" ry="6.068763869293518" fill="#2F3A2D" opacity="0.35"/>
    <rect x="717.030698430101" y="849.7394286372607" width="3" height="14" fill="#3A2A20" opacity="0.85"/>
    <circle cx="718.030698430101" cy="839.7394286372607" r="17.339325340838624" fill="#7C8A6E" opacity="0.92"/>
    <circle cx="727.030698430101" cy="833.7394286372607" r="12.137527738587035" fill="#7C8A6E" opacity="0.8"/>
    <circle cx="711.030698430101" cy="833.7394286372607" r="11.270561471545106" fill="#7C8A6E" opacity="0.7"/>
    

    <ellipse cx="1099.5776798341574" cy="825.7571784664872" rx="13.010739044129581" ry="5.0597318504948365" fill="#2F3A2D" opacity="0.35"/>
    <rect x="1093.5776798341574" y="809.7571784664872" width="3" height="14" fill="#3A2A20" opacity="0.85"/>
    <circle cx="1094.5776798341574" cy="799.7571784664872" r="14.456376715699534" fill="#7C8A6E" opacity="0.92"/>
    <circle cx="1103.5776798341574" cy="793.7571784664872" r="10.119463700989673" fill="#7C8A6E" opacity="0.8"/>
    <circle cx="1087.5776798341574" cy="793.7571784664872" r="9.396644865204697" fill="#7C8A6E" opacity="0.7"/>
    

    <ellipse cx="1518.0443835152482" cy="1012.788536972497" rx="14.18053230659403" ry="5.514651452564345" fill="#2F3A2D" opacity="0.35"/>
    <rect x="1512.0443835152482" y="996.788536972497" width="3" height="14" fill="#3A2A20" opacity="0.85"/>
    <circle cx="1513.0443835152482" cy="986.788536972497" r="15.7561470073267" fill="#7C8A6E" opacity="0.92"/>
    <circle cx="1522.0443835152482" cy="980.788536972497" r="11.02930290512869" fill="#7C8A6E" opacity="0.8"/>
    <circle cx="1506.0443835152482" cy="980.788536972497" r="10.241495554762356" fill="#7C8A6E" opacity="0.7"/>
    

    <ellipse cx="1316.9303253897895" cy="1064.1090981018874" rx="11.88500926108471" ry="4.621948045977386" fill="#2F3A2D" opacity="0.35"/>
    <rect x="1310.9303253897895" y="1048.1090981018874" width="3" height="14" fill="#3A2A20" opacity="0.85"/>
    <circle cx="1311.9303253897895" cy="1038.1090981018874" r="13.205565845649677" fill="#7C8A6E" opacity="0.92"/>
    <circle cx="1320.9303253897895" cy="1032.1090981018874" r="9.243896091954772" fill="#7C8A6E" opacity="0.8"/>
    <circle cx="1304.9303253897895" cy="1032.1090981018874" r="8.58361779967229" fill="#7C8A6E" opacity="0.7"/>
    

    <ellipse cx="521.4212005313511" cy="834.267836277209" rx="16.8165994260858" ry="6.5397886657000335" fill="#2F3A2D" opacity="0.35"/>
    <rect x="515.4212005313511" y="818.267836277209" width="3" height="14" fill="#3A2A20" opacity="0.85"/>
    <circle cx="516.4212005313511" cy="808.267836277209" r="18.68511047342867" fill="#7C8A6E" opacity="0.92"/>
    <circle cx="525.4212005313511" cy="802.267836277209" r="13.079577331400067" fill="#7C8A6E" opacity="0.8"/>
    <circle cx="509.42120053135113" cy="802.267836277209" r="12.145321807728635" fill="#7C8A6E" opacity="0.7"/>
    

    <ellipse cx="846.6826245727354" cy="1012.0738353208762" rx="12.861393713104585" ry="5.001653110651783" fill="#2F3A2D" opacity="0.35"/>
    <rect x="840.6826245727354" y="996.0738353208762" width="3" height="14" fill="#3A2A20" opacity="0.85"/>
    <circle cx="841.6826245727354" cy="986.0738353208762" r="14.290437459005094" fill="#7C8A6E" opacity="0.92"/>
    <circle cx="850.6826245727354" cy="980.0738353208762" r="10.003306221303566" fill="#7C8A6E" opacity="0.8"/>
    <circle cx="834.6826245727354" cy="980.0738353208762" r="9.288784348353312" fill="#7C8A6E" opacity="0.7"/>
    

    <ellipse cx="826.2744890833997" cy="1031.445200940128" rx="13.474494711977144" ry="5.240081276880001" fill="#2F3A2D" opacity="0.35"/>
    <rect x="820.2744890833997" y="1015.445200940128" width="3" height="14" fill="#3A2A20" opacity="0.85"/>
    <circle cx="821.2744890833997" cy="1005.445200940128" r="14.971660791085716" fill="#7C8A6E" opacity="0.92"/>
    <circle cx="830.2744890833997" cy="999.445200940128" r="10.480162553760001" fill="#7C8A6E" opacity="0.8"/>
    <circle cx="814.2744890833997" cy="999.445200940128" r="9.731579514205716" fill="#7C8A6E" opacity="0.7"/>
    

    <ellipse cx="923.126203510598" cy="684.7406188722966" rx="16.69858565906185" ry="6.493894422968497" fill="#2F3A2D" opacity="0.35"/>
    <rect x="917.126203510598" y="668.7406188722966" width="3" height="14" fill="#3A2A20" opacity="0.85"/>
    <circle cx="918.126203510598" cy="658.7406188722966" r="18.553984065624277" fill="#7C8A6E" opacity="0.92"/>
    <circle cx="927.126203510598" cy="652.7406188722966" r="12.987788845936993" fill="#7C8A6E" opacity="0.8"/>
    <circle cx="911.126203510598" cy="652.7406188722966" r="12.06008964265578" fill="#7C8A6E" opacity="0.7"/>
    

    <ellipse cx="1179.62745693695" cy="802.1114416590768" rx="17.601285332317286" ry="6.844944295901167" fill="#2F3A2D" opacity="0.35"/>
    <rect x="1173.62745693695" y="786.1114416590768" width="3" height="14" fill="#3A2A20" opacity="0.85"/>
    <circle cx="1174.62745693695" cy="776.1114416590768" r="19.55698370257476" fill="#7C8A6E" opacity="0.92"/>
    <circle cx="1183.62745693695" cy="770.1114416590768" r="13.689888591802333" fill="#7C8A6E" opacity="0.8"/>
    <circle cx="1167.62745693695" cy="770.1114416590768" r="12.712039406673595" fill="#7C8A6E" opacity="0.7"/>
    
<polygon points="520.0,820.0 464.0,848.0 464.0,795.0 520.0,767.0" fill="#2F3A2D" stroke="#000" stroke-opacity="0.15" stroke-width="0.6"/>
<polygon points="464.0,848.0 520.0,876.0 520.0,823.0 464.0,795.0" fill="#7C8A6E" stroke="#000" stroke-opacity="0.18" stroke-width="0.6"/>
<polygon points="520.0,767.0 576.0,795.0 520.0,823.0 464.0,795.0" fill="#2F3A2D" opacity="0.92" stroke="#000" stroke-opacity="0.12" stroke-width="0.5"/>
<polygon points="520.0,767.0 576.0,795.0 520.0,777.0" fill="#7C8A6E" opacity="0.85"/>
<polygon points="464.0,795.0 520.0,823.0 520.0,777.0" fill="#2F3A2D" opacity="0.75"/>
<polygon points="720.0,920.0 664.0,948.0 664.0,903.0 720.0,875.0" fill="#2F3A2D" stroke="#000" stroke-opacity="0.15" stroke-width="0.6"/>
<polygon points="664.0,948.0 720.0,976.0 720.0,931.0 664.0,903.0" fill="#7C8A6E" stroke="#000" stroke-opacity="0.18" stroke-width="0.6"/>
<polygon points="720.0,875.0 776.0,903.0 720.0,931.0 664.0,903.0" fill="#2F3A2D" opacity="0.92" stroke="#000" stroke-opacity="0.12" stroke-width="0.5"/>
<polygon points="720.0,875.0 776.0,903.0 720.0,885.0" fill="#7C8A6E" opacity="0.85"/>
<polygon points="664.0,903.0 720.0,931.0 720.0,885.0" fill="#2F3A2D" opacity="0.75"/>
<polygon points="920.0,1020.0 864.0,1048.0 864.0,1008.0 920.0,980.0" fill="#2F3A2D" stroke="#000" stroke-opacity="0.15" stroke-width="0.6"/>
<polygon points="864.0,1048.0 920.0,1076.0 920.0,1036.0 864.0,1008.0" fill="#7C8A6E" stroke="#000" stroke-opacity="0.18" stroke-width="0.6"/>
<polygon points="920.0,980.0 976.0,1008.0 920.0,1036.0 864.0,1008.0" fill="#2F3A2D" opacity="0.92" stroke="#000" stroke-opacity="0.12" stroke-width="0.5"/>
<polygon points="920.0,980.0 976.0,1008.0 920.0,990.0" fill="#7C8A6E" opacity="0.85"/>
<polygon points="864.0,1008.0 920.0,1036.0 920.0,990.0" fill="#2F3A2D" opacity="0.75"/>
<polygon points="1120.0,1120.0 1064.0,1148.0 1064.0,1073.0 1120.0,1045.0" fill="#2F3A2D" stroke="#000" stroke-opacity="0.15" stroke-width="0.6"/>
<polygon points="1064.0,1148.0 1120.0,1176.0 1120.0,1101.0 1064.0,1073.0" fill="#7C8A6E" stroke="#000" stroke-opacity="0.18" stroke-width="0.6"/>
<polygon points="1120.0,1045.0 1176.0,1073.0 1120.0,1101.0 1064.0,1073.0" fill="#2F3A2D" opacity="0.92" stroke="#000" stroke-opacity="0.12" stroke-width="0.5"/>
<polygon points="1120.0,1045.0 1176.0,1073.0 1120.0,1055.0" fill="#7C8A6E" opacity="0.85"/>
<polygon points="1064.0,1073.0 1120.0,1101.0 1120.0,1055.0" fill="#2F3A2D" opacity="0.75"/>
  <rect x="0" y="0" width="1600" height="900" filter="url(#grain-W-104)"/>
  
    <g font-family="Inter, Helvetica, sans-serif">
      <text x="60" y="60" font-size="14" fill="#EAE8D2" opacity="0.7" letter-spacing="4">GENESIS · W-104</text>
      <text x="60" y="86" font-size="34" fill="#EAE8D2" opacity="0.95" letter-spacing="6">MARYLAND</text>
      <text x="60" y="112" font-size="11" fill="#EAE8D2" opacity="0.55" letter-spacing="2">Maryland — Chesapeake watershed, Baltimore, PG County</text>
      <text x="60" y="840" font-size="10" fill="#EAE8D2" opacity="0.55" letter-spacing="2">39.0458, -76.6413</text>
      <text x="60" y="858" font-size="12" fill="#EAE8D2" opacity="0.7" letter-spacing="1.5" font-style="italic">"The crab knows the tide. We forget what the water taught."</text>
    </g>
    
</svg>
