<?xml version="1.0" encoding="UTF-8"?>
<svg xmlns="http://www.w3.org/2000/svg" viewBox="0 0 1600 900" width="1600" height="900">
  
    <defs>
      <linearGradient id="sky-W-102" x1="0" y1="0" x2="0" y2="1">
        <stop offset="0%" stop-color="#0F1418"/>
        <stop offset="55%" stop-color="#3A4A55"/>
        <stop offset="100%" stop-color="#94A7B0"/>
      </linearGradient>
      <linearGradient id="ground-W-102" x1="0" y1="0" x2="0" y2="1">
        <stop offset="0%" stop-color="#94A7B0"/>
        <stop offset="50%" stop-color="#D2D8D0"/>
        <stop offset="100%" stop-color="#F3EEDC"/>
      </linearGradient>
      <radialGradient id="sun-W-102" cx="50%" cy="50%" r="50%">
        <stop offset="0%" stop-color="#F3EEDC" stop-opacity="0.9"/>
        <stop offset="100%" stop-color="#F3EEDC" stop-opacity="0"/>
      </radialGradient>
      <filter id="grain-W-102" x="0" y="0" width="100%" height="100%">
        <feTurbulence type="fractalNoise" baseFrequency="0.85" numOctaves="2" seed="4034737018"/>
        <feColorMatrix values="0 0 0 0 0  0 0 0 0 0  0 0 0 0 0  0 0 0 0.05 0"/>
      </filter>
    </defs>
    
  
    <rect x="0" y="0" width="1600" height="900" fill="url(#sky-W-102)"/>
    <circle cx="1180" cy="280" r="220" fill="url(#sun-W-102)"/>
    <rect x="0" y="520" width="1600" height="380" fill="url(#ground-W-102)"/>
    
  <rect x="0" y="500" width="1600" height="40" fill="#94A7B0" opacity="0.35"/><rect x="0" y="520" width="1600" height="14" fill="#D2D8D0" opacity="0.25"/>
  <polygon points="800.0,680.0 744.0,708.0 744.0,654.0 800.0,626.0" fill="#3A4A55" stroke="#000" stroke-opacity="0.15" stroke-width="0.6"/>
<polygon points="744.0,708.0 800.0,736.0 800.0,682.0 744.0,654.0" fill="#94A7B0" stroke="#000" stroke-opacity="0.18" stroke-width="0.6"/>
<polygon points="800.0,626.0 856.0,654.0 800.0,682.0 744.0,654.0" fill="#3A4A55" opacity="0.92" stroke="#000" stroke-opacity="0.12" stroke-width="0.5"/>
<polygon points="920.0,740.0 864.0,768.0 864.0,738.0 920.0,710.0" fill="#3A4A55" stroke="#000" stroke-opacity="0.15" stroke-width="0.6"/>
<polygon points="864.0,768.0 920.0,796.0 920.0,766.0 864.0,738.0" fill="#94A7B0" stroke="#000" stroke-opacity="0.18" stroke-width="0.6"/>
<polygon points="920.0,710.0 976.0,738.0 920.0,766.0 864.0,738.0" fill="#3A4A55" opacity="0.92" stroke="#000" stroke-opacity="0.12" stroke-width="0.5"/>
<polygon points="1040.0,800.0 984.0,828.0 984.0,775.0 1040.0,747.0" fill="#3A4A55" stroke="#000" stroke-opacity="0.15" stroke-width="0.6"/>
<polygon points="984.0,828.0 1040.0,856.0 1040.0,803.0 984.0,775.0" fill="#94A7B0" stroke="#000" stroke-opacity="0.18" stroke-width="0.6"/>
<polygon points="1040.0,747.0 1096.0,775.0 1040.0,803.0 984.0,775.0" fill="#3A4A55" opacity="0.92" stroke="#000" stroke-opacity="0.12" stroke-width="0.5"/>
<polygon points="1160.0,860.0 1104.0,888.0 1104.0,832.0 1160.0,804.0" fill="#3A4A55" stroke="#000" stroke-opacity="0.15" stroke-width="0.6"/>
<polygon points="1104.0,888.0 1160.0,916.0 1160.0,860.0 1104.0,832.0" fill="#94A7B0" stroke="#000" stroke-opacity="0.18" stroke-width="0.6"/>
<polygon points="1160.0,804.0 1216.0,832.0 1160.0,860.0 1104.0,832.0" fill="#3A4A55" opacity="0.92" stroke="#000" stroke-opacity="0.12" stroke-width="0.5"/>
<polygon points="1280.0,920.0 1224.0,948.0 1224.0,882.0 1280.0,854.0" fill="#3A4A55" stroke="#000" stroke-opacity="0.15" stroke-width="0.6"/>
<polygon points="1224.0,948.0 1280.0,976.0 1280.0,910.0 1224.0,882.0" fill="#94A7B0" stroke="#000" stroke-opacity="0.18" stroke-width="0.6"/>
<polygon points="1280.0,854.0 1336.0,882.0 1280.0,910.0 1224.0,882.0" fill="#3A4A55" opacity="0.92" stroke="#000" stroke-opacity="0.12" stroke-width="0.5"/>
<polygon points="1400.0,980.0 1344.0,1008.0 1344.0,973.0 1400.0,945.0" fill="#3A4A55" stroke="#000" stroke-opacity="0.15" stroke-width="0.6"/>
<polygon points="1344.0,1008.0 1400.0,1036.0 1400.0,1001.0 1344.0,973.0" fill="#94A7B0" stroke="#000" stroke-opacity="0.18" stroke-width="0.6"/>
<polygon points="1400.0,945.0 1456.0,973.0 1400.0,1001.0 1344.0,973.0" fill="#3A4A55" opacity="0.92" stroke="#000" stroke-opacity="0.12" stroke-width="0.5"/>
<polygon points="680.0,900.0 624.0,928.0 624.0,922.0 680.0,894.0" fill="#D2D8D0" stroke="#000" stroke-opacity="0.15" stroke-width="0.6"/>
<polygon points="624.0,928.0 680.0,956.0 680.0,950.0 624.0,922.0" fill="#94A7B0" stroke="#000" stroke-opacity="0.18" stroke-width="0.6"/>
<polygon points="680.0,894.0 736.0,922.0 680.0,950.0 624.0,922.0" fill="#D2D8D0" opacity="0.92" stroke="#000" stroke-opacity="0.12" stroke-width="0.5"/>
<polygon points="720.0,920.0 664.0,948.0 664.0,942.0 720.0,914.0" fill="#D2D8D0" stroke="#000" stroke-opacity="0.15" stroke-width="0.6"/>
<polygon points="664.0,948.0 720.0,976.0 720.0,970.0 664.0,942.0" fill="#94A7B0" stroke="#000" stroke-opacity="0.18" stroke-width="0.6"/>
<polygon points="720.0,914.0 776.0,942.0 720.0,970.0 664.0,942.0" fill="#D2D8D0" opacity="0.92" stroke="#000" stroke-opacity="0.12" stroke-width="0.5"/>
<polygon points="760.0,940.0 704.0,968.0 704.0,962.0 760.0,934.0" fill="#D2D8D0" stroke="#000" stroke-opacity="0.15" stroke-width="0.6"/>
<polygon points="704.0,968.0 760.0,996.0 760.0,990.0 704.0,962.0" fill="#94A7B0" stroke="#000" stroke-opacity="0.18" stroke-width="0.6"/>
<polygon points="760.0,934.0 816.0,962.0 760.0,990.0 704.0,962.0" fill="#D2D8D0" opacity="0.92" stroke="#000" stroke-opacity="0.12" stroke-width="0.5"/>
<polygon points="800.0,960.0 744.0,988.0 744.0,982.0 800.0,954.0" fill="#D2D8D0" stroke="#000" stroke-opacity="0.15" stroke-width="0.6"/>
<polygon points="744.0,988.0 800.0,1016.0 800.0,1010.0 744.0,982.0" fill="#94A7B0" stroke="#000" stroke-opacity="0.18" stroke-width="0.6"/>
<polygon points="800.0,954.0 856.0,982.0 800.0,1010.0 744.0,982.0" fill="#D2D8D0" opacity="0.92" stroke="#000" stroke-opacity="0.12" stroke-width="0.5"/>
<polygon points="840.0,980.0 784.0,1008.0 784.0,1002.0 840.0,974.0" fill="#D2D8D0" stroke="#000" stroke-opacity="0.15" stroke-width="0.6"/>
<polygon points="784.0,1008.0 840.0,1036.0 840.0,1030.0 784.0,1002.0" fill="#94A7B0" stroke="#000" stroke-opacity="0.18" stroke-width="0.6"/>
<polygon points="840.0,974.0 896.0,1002.0 840.0,1030.0 784.0,1002.0" fill="#D2D8D0" opacity="0.92" stroke="#000" stroke-opacity="0.12" stroke-width="0.5"/>
<polygon points="880.0,1000.0 824.0,1028.0 824.0,1022.0 880.0,994.0" fill="#D2D8D0" stroke="#000" stroke-opacity="0.15" stroke-width="0.6"/>
<polygon points="824.0,1028.0 880.0,1056.0 880.0,1050.0 824.0,1022.0" fill="#94A7B0" stroke="#000" stroke-opacity="0.18" stroke-width="0.6"/>
<polygon points="880.0,994.0 936.0,1022.0 880.0,1050.0 824.0,1022.0" fill="#D2D8D0" opacity="0.92" stroke="#000" stroke-opacity="0.12" stroke-width="0.5"/>
<polygon points="920.0,1020.0 864.0,1048.0 864.0,1042.0 920.0,1014.0" fill="#D2D8D0" stroke="#000" stroke-opacity="0.15" stroke-width="0.6"/>
<polygon points="864.0,1048.0 920.0,1076.0 920.0,1070.0 864.0,1042.0" fill="#94A7B0" stroke="#000" stroke-opacity="0.18" stroke-width="0.6"/>
<polygon points="920.0,1014.0 976.0,1042.0 920.0,1070.0 864.0,1042.0" fill="#D2D8D0" opacity="0.92" stroke="#000" stroke-opacity="0.12" stroke-width="0.5"/>
<polygon points="960.0,1040.0 904.0,1068.0 904.0,1062.0 960.0,1034.0" fill="#D2D8D0" stroke="#000" stroke-opacity="0.15" stroke-width="0.6"/>
<polygon points="904.0,1068.0 960.0,1096.0 960.0,1090.0 904.0,1062.0" fill="#94A7B0" stroke="#000" stroke-opacity="0.18" stroke-width="0.6"/>
<polygon points="960.0,1034.0 1016.0,1062.0 960.0,1090.0 904.0,1062.0" fill="#D2D8D0" opacity="0.92" stroke="#000" stroke-opacity="0.12" stroke-width="0.5"/>

    <rect x="763.8339860118336" y="986.4169930059168" width="2" height="36" fill="#2A2A2A" opacity="0.85"/>
    <circle cx="764.8339860118336" cy="984.4169930059168" r="3.5" fill="#FFE6A0" opacity="0.95"/>
    <circle cx="764.8339860118336" cy="984.4169930059168" r="11" fill="#FFE6A0" opacity="0.15"/>
    

    <rect x="431.38289316368594" y="820.1914465818429" width="2" height="36" fill="#2A2A2A" opacity="0.85"/>
    <circle cx="432.38289316368594" cy="818.1914465818429" r="3.5" fill="#FFE6A0" opacity="0.95"/>
    <circle cx="432.38289316368594" cy="818.1914465818429" r="11" fill="#FFE6A0" opacity="0.15"/>
    

    <rect x="858.1678794020722" y="1033.5839397010361" width="2" height="36" fill="#2A2A2A" opacity="0.85"/>
    <circle cx="859.1678794020722" cy="1031.5839397010361" r="3.5" fill="#FFE6A0" opacity="0.95"/>
    <circle cx="859.1678794020722" cy="1031.5839397010361" r="11" fill="#FFE6A0" opacity="0.15"/>
    

    <rect x="873.8845088732852" y="1041.4422544366425" width="2" height="36" fill="#2A2A2A" opacity="0.85"/>
    <circle cx="874.8845088732852" cy="1039.4422544366425" r="3.5" fill="#FFE6A0" opacity="0.95"/>
    <circle cx="874.8845088732852" cy="1039.4422544366425" r="11" fill="#FFE6A0" opacity="0.15"/>
    

    <rect x="1069.3899247909794" y="1139.1949623954897" width="2" height="36" fill="#2A2A2A" opacity="0.85"/>
    <circle cx="1070.3899247909794" cy="1137.1949623954897" r="3.5" fill="#FFE6A0" opacity="0.95"/>
    <circle cx="1070.3899247909794" cy="1137.1949623954897" r="11" fill="#FFE6A0" opacity="0.15"/>
    

    <rect x="767.3046875246091" y="988.1523437623046" width="2" height="36" fill="#2A2A2A" opacity="0.85"/>
    <circle cx="768.3046875246091" cy="986.1523437623046" r="3.5" fill="#FFE6A0" opacity="0.95"/>
    <circle cx="768.3046875246091" cy="986.1523437623046" r="11" fill="#FFE6A0" opacity="0.15"/>
    
  <rect x="0" y="0" width="1600" height="900" filter="url(#grain-W-102)"/>
  
    <g font-family="Inter, Helvetica, sans-serif">
      <text x="60" y="60" font-size="14" fill="#F3EEDC" opacity="0.7" letter-spacing="4">GENESIS · W-102</text>
      <text x="60" y="86" font-size="34" fill="#F3EEDC" opacity="0.95" letter-spacing="6">PERTH</text>
      <text x="60" y="112" font-size="11" fill="#F3EEDC" opacity="0.55" letter-spacing="2">Western Australia — Indian Ocean coast</text>
      <text x="60" y="840" font-size="10" fill="#F3EEDC" opacity="0.55" letter-spacing="2">-31.9505, 115.8605</text>
      <text x="60" y="858" font-size="12" fill="#F3EEDC" opacity="0.7" letter-spacing="1.5" font-style="italic">"The Indian Ocean does not negotiate. Walk earlier."</text>
    </g>
    
</svg>
