<?xml version="1.0" encoding="UTF-8"?>
<svg xmlns="http://www.w3.org/2000/svg" viewBox="0 0 1600 900" width="1600" height="900">
  
    <defs>
      <linearGradient id="sky-W-006" x1="0" y1="0" x2="0" y2="1">
        <stop offset="0%" stop-color="#0E1410"/>
        <stop offset="55%" stop-color="#243126"/>
        <stop offset="100%" stop-color="#6E8270"/>
      </linearGradient>
      <linearGradient id="ground-W-006" x1="0" y1="0" x2="0" y2="1">
        <stop offset="0%" stop-color="#6E8270"/>
        <stop offset="50%" stop-color="#B6BFA8"/>
        <stop offset="100%" stop-color="#EBE6D2"/>
      </linearGradient>
      <radialGradient id="sun-W-006" cx="50%" cy="50%" r="50%">
        <stop offset="0%" stop-color="#EBE6D2" stop-opacity="0.9"/>
        <stop offset="100%" stop-color="#EBE6D2" stop-opacity="0"/>
      </radialGradient>
      <filter id="grain-W-006" x="0" y="0" width="100%" height="100%">
        <feTurbulence type="fractalNoise" baseFrequency="0.85" numOctaves="2" seed="749797575"/>
        <feColorMatrix values="0 0 0 0 0  0 0 0 0 0  0 0 0 0 0  0 0 0 0.05 0"/>
      </filter>
    </defs>
    
  
    <rect x="0" y="0" width="1600" height="900" fill="url(#sky-W-006)"/>
    <circle cx="1180" cy="280" r="220" fill="url(#sun-W-006)"/>
    <rect x="0" y="520" width="1600" height="380" fill="url(#ground-W-006)"/>
    
  <rect x="0" y="500" width="1600" height="40" fill="#6E8270" opacity="0.35"/><rect x="0" y="520" width="1600" height="14" fill="#B6BFA8" opacity="0.25"/>
  
    <ellipse cx="804.0" cy="644.0" rx="18.900000000000002" ry="7.35" fill="#243126" opacity="0.35"/>
    <rect x="798.0" y="628.0" width="3" height="14" fill="#3A2A20" opacity="0.85"/>
    <circle cx="799.0" cy="618.0" r="21.0" fill="#6E8270" opacity="0.92"/>
    <circle cx="808.0" cy="612.0" r="14.7" fill="#6E8270" opacity="0.8"/>
    <circle cx="792.0" cy="612.0" r="13.65" fill="#6E8270" opacity="0.7"/>
    

    <ellipse cx="724.0" cy="684.0" rx="18.900000000000002" ry="7.35" fill="#243126" opacity="0.35"/>
    <rect x="718.0" y="668.0" width="3" height="14" fill="#3A2A20" opacity="0.85"/>
    <circle cx="719.0" cy="658.0" r="21.0" fill="#6E8270" opacity="0.92"/>
    <circle cx="728.0" cy="652.0" r="14.7" fill="#6E8270" opacity="0.8"/>
    <circle cx="712.0" cy="652.0" r="13.65" fill="#6E8270" opacity="0.7"/>
    

    <ellipse cx="644.0" cy="724.0" rx="18.900000000000002" ry="7.35" fill="#243126" opacity="0.35"/>
    <rect x="638.0" y="708.0" width="3" height="14" fill="#3A2A20" opacity="0.85"/>
    <circle cx="639.0" cy="698.0" r="21.0" fill="#6E8270" opacity="0.92"/>
    <circle cx="648.0" cy="692.0" r="14.7" fill="#6E8270" opacity="0.8"/>
    <circle cx="632.0" cy="692.0" r="13.65" fill="#6E8270" opacity="0.7"/>
    

    <ellipse cx="564.0" cy="764.0" rx="18.900000000000002" ry="7.35" fill="#243126" opacity="0.35"/>
    <rect x="558.0" y="748.0" width="3" height="14" fill="#3A2A20" opacity="0.85"/>
    <circle cx="559.0" cy="738.0" r="21.0" fill="#6E8270" opacity="0.92"/>
    <circle cx="568.0" cy="732.0" r="14.7" fill="#6E8270" opacity="0.8"/>
    <circle cx="552.0" cy="732.0" r="13.65" fill="#6E8270" opacity="0.7"/>
    

    <ellipse cx="484.0" cy="804.0" rx="18.900000000000002" ry="7.35" fill="#243126" opacity="0.35"/>
    <rect x="478.0" y="788.0" width="3" height="14" fill="#3A2A20" opacity="0.85"/>
    <circle cx="479.0" cy="778.0" r="21.0" fill="#6E8270" opacity="0.92"/>
    <circle cx="488.0" cy="772.0" r="14.7" fill="#6E8270" opacity="0.8"/>
    <circle cx="472.0" cy="772.0" r="13.65" fill="#6E8270" opacity="0.7"/>
    

    <ellipse cx="404.0" cy="844.0" rx="18.900000000000002" ry="7.35" fill="#243126" opacity="0.35"/>
    <rect x="398.0" y="828.0" width="3" height="14" fill="#3A2A20" opacity="0.85"/>
    <circle cx="399.0" cy="818.0" r="21.0" fill="#6E8270" opacity="0.92"/>
    <circle cx="408.0" cy="812.0" r="14.7" fill="#6E8270" opacity="0.8"/>
    <circle cx="392.0" cy="812.0" r="13.65" fill="#6E8270" opacity="0.7"/>
    

    <ellipse cx="884.0" cy="684.0" rx="18.900000000000002" ry="7.35" fill="#243126" opacity="0.35"/>
    <rect x="878.0" y="668.0" width="3" height="14" fill="#3A2A20" opacity="0.85"/>
    <circle cx="879.0" cy="658.0" r="21.0" fill="#6E8270" opacity="0.92"/>
    <circle cx="888.0" cy="652.0" r="14.7" fill="#6E8270" opacity="0.8"/>
    <circle cx="872.0" cy="652.0" r="13.65" fill="#6E8270" opacity="0.7"/>
    

    <ellipse cx="804.0" cy="724.0" rx="18.900000000000002" ry="7.35" fill="#243126" opacity="0.35"/>
    <rect x="798.0" y="708.0" width="3" height="14" fill="#3A2A20" opacity="0.85"/>
    <circle cx="799.0" cy="698.0" r="21.0" fill="#6E8270" opacity="0.92"/>
    <circle cx="808.0" cy="692.0" r="14.7" fill="#6E8270" opacity="0.8"/>
    <circle cx="792.0" cy="692.0" r="13.65" fill="#6E8270" opacity="0.7"/>
    

    <ellipse cx="724.0" cy="764.0" rx="18.900000000000002" ry="7.35" fill="#243126" opacity="0.35"/>
    <rect x="718.0" y="748.0" width="3" height="14" fill="#3A2A20" opacity="0.85"/>
    <circle cx="719.0" cy="738.0" r="21.0" fill="#6E8270" opacity="0.92"/>
    <circle cx="728.0" cy="732.0" r="14.7" fill="#6E8270" opacity="0.8"/>
    <circle cx="712.0" cy="732.0" r="13.65" fill="#6E8270" opacity="0.7"/>
    

    <ellipse cx="644.0" cy="804.0" rx="18.900000000000002" ry="7.35" fill="#243126" opacity="0.35"/>
    <rect x="638.0" y="788.0" width="3" height="14" fill="#3A2A20" opacity="0.85"/>
    <circle cx="639.0" cy="778.0" r="21.0" fill="#6E8270" opacity="0.92"/>
    <circle cx="648.0" cy="772.0" r="14.7" fill="#6E8270" opacity="0.8"/>
    <circle cx="632.0" cy="772.0" r="13.65" fill="#6E8270" opacity="0.7"/>
    

    <ellipse cx="564.0" cy="844.0" rx="18.900000000000002" ry="7.35" fill="#243126" opacity="0.35"/>
    <rect x="558.0" y="828.0" width="3" height="14" fill="#3A2A20" opacity="0.85"/>
    <circle cx="559.0" cy="818.0" r="21.0" fill="#6E8270" opacity="0.92"/>
    <circle cx="568.0" cy="812.0" r="14.7" fill="#6E8270" opacity="0.8"/>
    <circle cx="552.0" cy="812.0" r="13.65" fill="#6E8270" opacity="0.7"/>
    

    <ellipse cx="484.0" cy="884.0" rx="18.900000000000002" ry="7.35" fill="#243126" opacity="0.35"/>
    <rect x="478.0" y="868.0" width="3" height="14" fill="#3A2A20" opacity="0.85"/>
    <circle cx="479.0" cy="858.0" r="21.0" fill="#6E8270" opacity="0.92"/>
    <circle cx="488.0" cy="852.0" r="14.7" fill="#6E8270" opacity="0.8"/>
    <circle cx="472.0" cy="852.0" r="13.65" fill="#6E8270" opacity="0.7"/>
    

    <ellipse cx="964.0" cy="724.0" rx="18.900000000000002" ry="7.35" fill="#243126" opacity="0.35"/>
    <rect x="958.0" y="708.0" width="3" height="14" fill="#3A2A20" opacity="0.85"/>
    <circle cx="959.0" cy="698.0" r="21.0" fill="#6E8270" opacity="0.92"/>
    <circle cx="968.0" cy="692.0" r="14.7" fill="#6E8270" opacity="0.8"/>
    <circle cx="952.0" cy="692.0" r="13.65" fill="#6E8270" opacity="0.7"/>
    

    <ellipse cx="884.0" cy="764.0" rx="18.900000000000002" ry="7.35" fill="#243126" opacity="0.35"/>
    <rect x="878.0" y="748.0" width="3" height="14" fill="#3A2A20" opacity="0.85"/>
    <circle cx="879.0" cy="738.0" r="21.0" fill="#6E8270" opacity="0.92"/>
    <circle cx="888.0" cy="732.0" r="14.7" fill="#6E8270" opacity="0.8"/>
    <circle cx="872.0" cy="732.0" r="13.65" fill="#6E8270" opacity="0.7"/>
    

    <ellipse cx="804.0" cy="804.0" rx="18.900000000000002" ry="7.35" fill="#243126" opacity="0.35"/>
    <rect x="798.0" y="788.0" width="3" height="14" fill="#3A2A20" opacity="0.85"/>
    <circle cx="799.0" cy="778.0" r="21.0" fill="#6E8270" opacity="0.92"/>
    <circle cx="808.0" cy="772.0" r="14.7" fill="#6E8270" opacity="0.8"/>
    <circle cx="792.0" cy="772.0" r="13.65" fill="#6E8270" opacity="0.7"/>
    

    <ellipse cx="724.0" cy="844.0" rx="18.900000000000002" ry="7.35" fill="#243126" opacity="0.35"/>
    <rect x="718.0" y="828.0" width="3" height="14" fill="#3A2A20" opacity="0.85"/>
    <circle cx="719.0" cy="818.0" r="21.0" fill="#6E8270" opacity="0.92"/>
    <circle cx="728.0" cy="812.0" r="14.7" fill="#6E8270" opacity="0.8"/>
    <circle cx="712.0" cy="812.0" r="13.65" fill="#6E8270" opacity="0.7"/>
    

    <ellipse cx="644.0" cy="884.0" rx="18.900000000000002" ry="7.35" fill="#243126" opacity="0.35"/>
    <rect x="638.0" y="868.0" width="3" height="14" fill="#3A2A20" opacity="0.85"/>
    <circle cx="639.0" cy="858.0" r="21.0" fill="#6E8270" opacity="0.92"/>
    <circle cx="648.0" cy="852.0" r="14.7" fill="#6E8270" opacity="0.8"/>
    <circle cx="632.0" cy="852.0" r="13.65" fill="#6E8270" opacity="0.7"/>
    

    <ellipse cx="564.0" cy="924.0" rx="18.900000000000002" ry="7.35" fill="#243126" opacity="0.35"/>
    <rect x="558.0" y="908.0" width="3" height="14" fill="#3A2A20" opacity="0.85"/>
    <circle cx="559.0" cy="898.0" r="21.0" fill="#6E8270" opacity="0.92"/>
    <circle cx="568.0" cy="892.0" r="14.7" fill="#6E8270" opacity="0.8"/>
    <circle cx="552.0" cy="892.0" r="13.65" fill="#6E8270" opacity="0.7"/>
    

    <ellipse cx="1044.0" cy="764.0" rx="18.900000000000002" ry="7.35" fill="#243126" opacity="0.35"/>
    <rect x="1038.0" y="748.0" width="3" height="14" fill="#3A2A20" opacity="0.85"/>
    <circle cx="1039.0" cy="738.0" r="21.0" fill="#6E8270" opacity="0.92"/>
    <circle cx="1048.0" cy="732.0" r="14.7" fill="#6E8270" opacity="0.8"/>
    <circle cx="1032.0" cy="732.0" r="13.65" fill="#6E8270" opacity="0.7"/>
    

    <ellipse cx="964.0" cy="804.0" rx="18.900000000000002" ry="7.35" fill="#243126" opacity="0.35"/>
    <rect x="958.0" y="788.0" width="3" height="14" fill="#3A2A20" opacity="0.85"/>
    <circle cx="959.0" cy="778.0" r="21.0" fill="#6E8270" opacity="0.92"/>
    <circle cx="968.0" cy="772.0" r="14.7" fill="#6E8270" opacity="0.8"/>
    <circle cx="952.0" cy="772.0" r="13.65" fill="#6E8270" opacity="0.7"/>
    

    <ellipse cx="884.0" cy="844.0" rx="18.900000000000002" ry="7.35" fill="#243126" opacity="0.35"/>
    <rect x="878.0" y="828.0" width="3" height="14" fill="#3A2A20" opacity="0.85"/>
    <circle cx="879.0" cy="818.0" r="21.0" fill="#6E8270" opacity="0.92"/>
    <circle cx="888.0" cy="812.0" r="14.7" fill="#6E8270" opacity="0.8"/>
    <circle cx="872.0" cy="812.0" r="13.65" fill="#6E8270" opacity="0.7"/>
    

    <ellipse cx="804.0" cy="884.0" rx="18.900000000000002" ry="7.35" fill="#243126" opacity="0.35"/>
    <rect x="798.0" y="868.0" width="3" height="14" fill="#3A2A20" opacity="0.85"/>
    <circle cx="799.0" cy="858.0" r="21.0" fill="#6E8270" opacity="0.92"/>
    <circle cx="808.0" cy="852.0" r="14.7" fill="#6E8270" opacity="0.8"/>
    <circle cx="792.0" cy="852.0" r="13.65" fill="#6E8270" opacity="0.7"/>
    

    <ellipse cx="724.0" cy="924.0" rx="18.900000000000002" ry="7.35" fill="#243126" opacity="0.35"/>
    <rect x="718.0" y="908.0" width="3" height="14" fill="#3A2A20" opacity="0.85"/>
    <circle cx="719.0" cy="898.0" r="21.0" fill="#6E8270" opacity="0.92"/>
    <circle cx="728.0" cy="892.0" r="14.7" fill="#6E8270" opacity="0.8"/>
    <circle cx="712.0" cy="892.0" r="13.65" fill="#6E8270" opacity="0.7"/>
    

    <ellipse cx="644.0" cy="964.0" rx="18.900000000000002" ry="7.35" fill="#243126" opacity="0.35"/>
    <rect x="638.0" y="948.0" width="3" height="14" fill="#3A2A20" opacity="0.85"/>
    <circle cx="639.0" cy="938.0" r="21.0" fill="#6E8270" opacity="0.92"/>
    <circle cx="648.0" cy="932.0" r="14.7" fill="#6E8270" opacity="0.8"/>
    <circle cx="632.0" cy="932.0" r="13.65" fill="#6E8270" opacity="0.7"/>
    

    <ellipse cx="1124.0" cy="804.0" rx="18.900000000000002" ry="7.35" fill="#243126" opacity="0.35"/>
    <rect x="1118.0" y="788.0" width="3" height="14" fill="#3A2A20" opacity="0.85"/>
    <circle cx="1119.0" cy="778.0" r="21.0" fill="#6E8270" opacity="0.92"/>
    <circle cx="1128.0" cy="772.0" r="14.7" fill="#6E8270" opacity="0.8"/>
    <circle cx="1112.0" cy="772.0" r="13.65" fill="#6E8270" opacity="0.7"/>
    

    <ellipse cx="1044.0" cy="844.0" rx="18.900000000000002" ry="7.35" fill="#243126" opacity="0.35"/>
    <rect x="1038.0" y="828.0" width="3" height="14" fill="#3A2A20" opacity="0.85"/>
    <circle cx="1039.0" cy="818.0" r="21.0" fill="#6E8270" opacity="0.92"/>
    <circle cx="1048.0" cy="812.0" r="14.7" fill="#6E8270" opacity="0.8"/>
    <circle cx="1032.0" cy="812.0" r="13.65" fill="#6E8270" opacity="0.7"/>
    

    <ellipse cx="964.0" cy="884.0" rx="18.900000000000002" ry="7.35" fill="#243126" opacity="0.35"/>
    <rect x="958.0" y="868.0" width="3" height="14" fill="#3A2A20" opacity="0.85"/>
    <circle cx="959.0" cy="858.0" r="21.0" fill="#6E8270" opacity="0.92"/>
    <circle cx="968.0" cy="852.0" r="14.7" fill="#6E8270" opacity="0.8"/>
    <circle cx="952.0" cy="852.0" r="13.65" fill="#6E8270" opacity="0.7"/>
    

    <ellipse cx="884.0" cy="924.0" rx="18.900000000000002" ry="7.35" fill="#243126" opacity="0.35"/>
    <rect x="878.0" y="908.0" width="3" height="14" fill="#3A2A20" opacity="0.85"/>
    <circle cx="879.0" cy="898.0" r="21.0" fill="#6E8270" opacity="0.92"/>
    <circle cx="888.0" cy="892.0" r="14.7" fill="#6E8270" opacity="0.8"/>
    <circle cx="872.0" cy="892.0" r="13.65" fill="#6E8270" opacity="0.7"/>
    

    <ellipse cx="804.0" cy="964.0" rx="18.900000000000002" ry="7.35" fill="#243126" opacity="0.35"/>
    <rect x="798.0" y="948.0" width="3" height="14" fill="#3A2A20" opacity="0.85"/>
    <circle cx="799.0" cy="938.0" r="21.0" fill="#6E8270" opacity="0.92"/>
    <circle cx="808.0" cy="932.0" r="14.7" fill="#6E8270" opacity="0.8"/>
    <circle cx="792.0" cy="932.0" r="13.65" fill="#6E8270" opacity="0.7"/>
    

    <ellipse cx="724.0" cy="1004.0" rx="18.900000000000002" ry="7.35" fill="#243126" opacity="0.35"/>
    <rect x="718.0" y="988.0" width="3" height="14" fill="#3A2A20" opacity="0.85"/>
    <circle cx="719.0" cy="978.0" r="21.0" fill="#6E8270" opacity="0.92"/>
    <circle cx="728.0" cy="972.0" r="14.7" fill="#6E8270" opacity="0.8"/>
    <circle cx="712.0" cy="972.0" r="13.65" fill="#6E8270" opacity="0.7"/>
    

    <ellipse cx="1204.0" cy="844.0" rx="18.900000000000002" ry="7.35" fill="#243126" opacity="0.35"/>
    <rect x="1198.0" y="828.0" width="3" height="14" fill="#3A2A20" opacity="0.85"/>
    <circle cx="1199.0" cy="818.0" r="21.0" fill="#6E8270" opacity="0.92"/>
    <circle cx="1208.0" cy="812.0" r="14.7" fill="#6E8270" opacity="0.8"/>
    <circle cx="1192.0" cy="812.0" r="13.65" fill="#6E8270" opacity="0.7"/>
    

    <ellipse cx="1124.0" cy="884.0" rx="18.900000000000002" ry="7.35" fill="#243126" opacity="0.35"/>
    <rect x="1118.0" y="868.0" width="3" height="14" fill="#3A2A20" opacity="0.85"/>
    <circle cx="1119.0" cy="858.0" r="21.0" fill="#6E8270" opacity="0.92"/>
    <circle cx="1128.0" cy="852.0" r="14.7" fill="#6E8270" opacity="0.8"/>
    <circle cx="1112.0" cy="852.0" r="13.65" fill="#6E8270" opacity="0.7"/>
    

    <ellipse cx="1044.0" cy="924.0" rx="18.900000000000002" ry="7.35" fill="#243126" opacity="0.35"/>
    <rect x="1038.0" y="908.0" width="3" height="14" fill="#3A2A20" opacity="0.85"/>
    <circle cx="1039.0" cy="898.0" r="21.0" fill="#6E8270" opacity="0.92"/>
    <circle cx="1048.0" cy="892.0" r="14.7" fill="#6E8270" opacity="0.8"/>
    <circle cx="1032.0" cy="892.0" r="13.65" fill="#6E8270" opacity="0.7"/>
    

    <ellipse cx="964.0" cy="964.0" rx="18.900000000000002" ry="7.35" fill="#243126" opacity="0.35"/>
    <rect x="958.0" y="948.0" width="3" height="14" fill="#3A2A20" opacity="0.85"/>
    <circle cx="959.0" cy="938.0" r="21.0" fill="#6E8270" opacity="0.92"/>
    <circle cx="968.0" cy="932.0" r="14.7" fill="#6E8270" opacity="0.8"/>
    <circle cx="952.0" cy="932.0" r="13.65" fill="#6E8270" opacity="0.7"/>
    

    <ellipse cx="884.0" cy="1004.0" rx="18.900000000000002" ry="7.35" fill="#243126" opacity="0.35"/>
    <rect x="878.0" y="988.0" width="3" height="14" fill="#3A2A20" opacity="0.85"/>
    <circle cx="879.0" cy="978.0" r="21.0" fill="#6E8270" opacity="0.92"/>
    <circle cx="888.0" cy="972.0" r="14.7" fill="#6E8270" opacity="0.8"/>
    <circle cx="872.0" cy="972.0" r="13.65" fill="#6E8270" opacity="0.7"/>
    

    <ellipse cx="804.0" cy="1044.0" rx="18.900000000000002" ry="7.35" fill="#243126" opacity="0.35"/>
    <rect x="798.0" y="1028.0" width="3" height="14" fill="#3A2A20" opacity="0.85"/>
    <circle cx="799.0" cy="1018.0" r="21.0" fill="#6E8270" opacity="0.92"/>
    <circle cx="808.0" cy="1012.0" r="14.7" fill="#6E8270" opacity="0.8"/>
    <circle cx="792.0" cy="1012.0" r="13.65" fill="#6E8270" opacity="0.7"/>
    

    <ellipse cx="1284.0" cy="884.0" rx="18.900000000000002" ry="7.35" fill="#243126" opacity="0.35"/>
    <rect x="1278.0" y="868.0" width="3" height="14" fill="#3A2A20" opacity="0.85"/>
    <circle cx="1279.0" cy="858.0" r="21.0" fill="#6E8270" opacity="0.92"/>
    <circle cx="1288.0" cy="852.0" r="14.7" fill="#6E8270" opacity="0.8"/>
    <circle cx="1272.0" cy="852.0" r="13.65" fill="#6E8270" opacity="0.7"/>
    

    <ellipse cx="1204.0" cy="924.0" rx="18.900000000000002" ry="7.35" fill="#243126" opacity="0.35"/>
    <rect x="1198.0" y="908.0" width="3" height="14" fill="#3A2A20" opacity="0.85"/>
    <circle cx="1199.0" cy="898.0" r="21.0" fill="#6E8270" opacity="0.92"/>
    <circle cx="1208.0" cy="892.0" r="14.7" fill="#6E8270" opacity="0.8"/>
    <circle cx="1192.0" cy="892.0" r="13.65" fill="#6E8270" opacity="0.7"/>
    

    <ellipse cx="1124.0" cy="964.0" rx="18.900000000000002" ry="7.35" fill="#243126" opacity="0.35"/>
    <rect x="1118.0" y="948.0" width="3" height="14" fill="#3A2A20" opacity="0.85"/>
    <circle cx="1119.0" cy="938.0" r="21.0" fill="#6E8270" opacity="0.92"/>
    <circle cx="1128.0" cy="932.0" r="14.7" fill="#6E8270" opacity="0.8"/>
    <circle cx="1112.0" cy="932.0" r="13.65" fill="#6E8270" opacity="0.7"/>
    

    <ellipse cx="1044.0" cy="1004.0" rx="18.900000000000002" ry="7.35" fill="#243126" opacity="0.35"/>
    <rect x="1038.0" y="988.0" width="3" height="14" fill="#3A2A20" opacity="0.85"/>
    <circle cx="1039.0" cy="978.0" r="21.0" fill="#6E8270" opacity="0.92"/>
    <circle cx="1048.0" cy="972.0" r="14.7" fill="#6E8270" opacity="0.8"/>
    <circle cx="1032.0" cy="972.0" r="13.65" fill="#6E8270" opacity="0.7"/>
    

    <ellipse cx="964.0" cy="1044.0" rx="18.900000000000002" ry="7.35" fill="#243126" opacity="0.35"/>
    <rect x="958.0" y="1028.0" width="3" height="14" fill="#3A2A20" opacity="0.85"/>
    <circle cx="959.0" cy="1018.0" r="21.0" fill="#6E8270" opacity="0.92"/>
    <circle cx="968.0" cy="1012.0" r="14.7" fill="#6E8270" opacity="0.8"/>
    <circle cx="952.0" cy="1012.0" r="13.65" fill="#6E8270" opacity="0.7"/>
    

    <ellipse cx="884.0" cy="1084.0" rx="18.900000000000002" ry="7.35" fill="#243126" opacity="0.35"/>
    <rect x="878.0" y="1068.0" width="3" height="14" fill="#3A2A20" opacity="0.85"/>
    <circle cx="879.0" cy="1058.0" r="21.0" fill="#6E8270" opacity="0.92"/>
    <circle cx="888.0" cy="1052.0" r="14.7" fill="#6E8270" opacity="0.8"/>
    <circle cx="872.0" cy="1052.0" r="13.65" fill="#6E8270" opacity="0.7"/>
    

    <ellipse cx="1364.0" cy="924.0" rx="18.900000000000002" ry="7.35" fill="#243126" opacity="0.35"/>
    <rect x="1358.0" y="908.0" width="3" height="14" fill="#3A2A20" opacity="0.85"/>
    <circle cx="1359.0" cy="898.0" r="21.0" fill="#6E8270" opacity="0.92"/>
    <circle cx="1368.0" cy="892.0" r="14.7" fill="#6E8270" opacity="0.8"/>
    <circle cx="1352.0" cy="892.0" r="13.65" fill="#6E8270" opacity="0.7"/>
    

    <ellipse cx="1284.0" cy="964.0" rx="18.900000000000002" ry="7.35" fill="#243126" opacity="0.35"/>
    <rect x="1278.0" y="948.0" width="3" height="14" fill="#3A2A20" opacity="0.85"/>
    <circle cx="1279.0" cy="938.0" r="21.0" fill="#6E8270" opacity="0.92"/>
    <circle cx="1288.0" cy="932.0" r="14.7" fill="#6E8270" opacity="0.8"/>
    <circle cx="1272.0" cy="932.0" r="13.65" fill="#6E8270" opacity="0.7"/>
    

    <ellipse cx="1204.0" cy="1004.0" rx="18.900000000000002" ry="7.35" fill="#243126" opacity="0.35"/>
    <rect x="1198.0" y="988.0" width="3" height="14" fill="#3A2A20" opacity="0.85"/>
    <circle cx="1199.0" cy="978.0" r="21.0" fill="#6E8270" opacity="0.92"/>
    <circle cx="1208.0" cy="972.0" r="14.7" fill="#6E8270" opacity="0.8"/>
    <circle cx="1192.0" cy="972.0" r="13.65" fill="#6E8270" opacity="0.7"/>
    

    <ellipse cx="1124.0" cy="1044.0" rx="18.900000000000002" ry="7.35" fill="#243126" opacity="0.35"/>
    <rect x="1118.0" y="1028.0" width="3" height="14" fill="#3A2A20" opacity="0.85"/>
    <circle cx="1119.0" cy="1018.0" r="21.0" fill="#6E8270" opacity="0.92"/>
    <circle cx="1128.0" cy="1012.0" r="14.7" fill="#6E8270" opacity="0.8"/>
    <circle cx="1112.0" cy="1012.0" r="13.65" fill="#6E8270" opacity="0.7"/>
    

    <ellipse cx="1044.0" cy="1084.0" rx="18.900000000000002" ry="7.35" fill="#243126" opacity="0.35"/>
    <rect x="1038.0" y="1068.0" width="3" height="14" fill="#3A2A20" opacity="0.85"/>
    <circle cx="1039.0" cy="1058.0" r="21.0" fill="#6E8270" opacity="0.92"/>
    <circle cx="1048.0" cy="1052.0" r="14.7" fill="#6E8270" opacity="0.8"/>
    <circle cx="1032.0" cy="1052.0" r="13.65" fill="#6E8270" opacity="0.7"/>
    

    <ellipse cx="964.0" cy="1124.0" rx="18.900000000000002" ry="7.35" fill="#243126" opacity="0.35"/>
    <rect x="958.0" y="1108.0" width="3" height="14" fill="#3A2A20" opacity="0.85"/>
    <circle cx="959.0" cy="1098.0" r="21.0" fill="#6E8270" opacity="0.92"/>
    <circle cx="968.0" cy="1092.0" r="14.7" fill="#6E8270" opacity="0.8"/>
    <circle cx="952.0" cy="1092.0" r="13.65" fill="#6E8270" opacity="0.7"/>
    

    <ellipse cx="1444.0" cy="964.0" rx="18.900000000000002" ry="7.35" fill="#243126" opacity="0.35"/>
    <rect x="1438.0" y="948.0" width="3" height="14" fill="#3A2A20" opacity="0.85"/>
    <circle cx="1439.0" cy="938.0" r="21.0" fill="#6E8270" opacity="0.92"/>
    <circle cx="1448.0" cy="932.0" r="14.7" fill="#6E8270" opacity="0.8"/>
    <circle cx="1432.0" cy="932.0" r="13.65" fill="#6E8270" opacity="0.7"/>
    

    <ellipse cx="1364.0" cy="1004.0" rx="18.900000000000002" ry="7.35" fill="#243126" opacity="0.35"/>
    <rect x="1358.0" y="988.0" width="3" height="14" fill="#3A2A20" opacity="0.85"/>
    <circle cx="1359.0" cy="978.0" r="21.0" fill="#6E8270" opacity="0.92"/>
    <circle cx="1368.0" cy="972.0" r="14.7" fill="#6E8270" opacity="0.8"/>
    <circle cx="1352.0" cy="972.0" r="13.65" fill="#6E8270" opacity="0.7"/>
    

    <ellipse cx="1284.0" cy="1044.0" rx="18.900000000000002" ry="7.35" fill="#243126" opacity="0.35"/>
    <rect x="1278.0" y="1028.0" width="3" height="14" fill="#3A2A20" opacity="0.85"/>
    <circle cx="1279.0" cy="1018.0" r="21.0" fill="#6E8270" opacity="0.92"/>
    <circle cx="1288.0" cy="1012.0" r="14.7" fill="#6E8270" opacity="0.8"/>
    <circle cx="1272.0" cy="1012.0" r="13.65" fill="#6E8270" opacity="0.7"/>
    

    <ellipse cx="1204.0" cy="1084.0" rx="18.900000000000002" ry="7.35" fill="#243126" opacity="0.35"/>
    <rect x="1198.0" y="1068.0" width="3" height="14" fill="#3A2A20" opacity="0.85"/>
    <circle cx="1199.0" cy="1058.0" r="21.0" fill="#6E8270" opacity="0.92"/>
    <circle cx="1208.0" cy="1052.0" r="14.7" fill="#6E8270" opacity="0.8"/>
    <circle cx="1192.0" cy="1052.0" r="13.65" fill="#6E8270" opacity="0.7"/>
    

    <ellipse cx="1124.0" cy="1124.0" rx="18.900000000000002" ry="7.35" fill="#243126" opacity="0.35"/>
    <rect x="1118.0" y="1108.0" width="3" height="14" fill="#3A2A20" opacity="0.85"/>
    <circle cx="1119.0" cy="1098.0" r="21.0" fill="#6E8270" opacity="0.92"/>
    <circle cx="1128.0" cy="1092.0" r="14.7" fill="#6E8270" opacity="0.8"/>
    <circle cx="1112.0" cy="1092.0" r="13.65" fill="#6E8270" opacity="0.7"/>
    

    <ellipse cx="1044.0" cy="1164.0" rx="18.900000000000002" ry="7.35" fill="#243126" opacity="0.35"/>
    <rect x="1038.0" y="1148.0" width="3" height="14" fill="#3A2A20" opacity="0.85"/>
    <circle cx="1039.0" cy="1138.0" r="21.0" fill="#6E8270" opacity="0.92"/>
    <circle cx="1048.0" cy="1132.0" r="14.7" fill="#6E8270" opacity="0.8"/>
    <circle cx="1032.0" cy="1132.0" r="13.65" fill="#6E8270" opacity="0.7"/>
    

    <ellipse cx="1524.0" cy="1004.0" rx="18.900000000000002" ry="7.35" fill="#243126" opacity="0.35"/>
    <rect x="1518.0" y="988.0" width="3" height="14" fill="#3A2A20" opacity="0.85"/>
    <circle cx="1519.0" cy="978.0" r="21.0" fill="#6E8270" opacity="0.92"/>
    <circle cx="1528.0" cy="972.0" r="14.7" fill="#6E8270" opacity="0.8"/>
    <circle cx="1512.0" cy="972.0" r="13.65" fill="#6E8270" opacity="0.7"/>
    

    <ellipse cx="1444.0" cy="1044.0" rx="18.900000000000002" ry="7.35" fill="#243126" opacity="0.35"/>
    <rect x="1438.0" y="1028.0" width="3" height="14" fill="#3A2A20" opacity="0.85"/>
    <circle cx="1439.0" cy="1018.0" r="21.0" fill="#6E8270" opacity="0.92"/>
    <circle cx="1448.0" cy="1012.0" r="14.7" fill="#6E8270" opacity="0.8"/>
    <circle cx="1432.0" cy="1012.0" r="13.65" fill="#6E8270" opacity="0.7"/>
    

    <ellipse cx="1364.0" cy="1084.0" rx="18.900000000000002" ry="7.35" fill="#243126" opacity="0.35"/>
    <rect x="1358.0" y="1068.0" width="3" height="14" fill="#3A2A20" opacity="0.85"/>
    <circle cx="1359.0" cy="1058.0" r="21.0" fill="#6E8270" opacity="0.92"/>
    <circle cx="1368.0" cy="1052.0" r="14.7" fill="#6E8270" opacity="0.8"/>
    <circle cx="1352.0" cy="1052.0" r="13.65" fill="#6E8270" opacity="0.7"/>
    

    <ellipse cx="1284.0" cy="1124.0" rx="18.900000000000002" ry="7.35" fill="#243126" opacity="0.35"/>
    <rect x="1278.0" y="1108.0" width="3" height="14" fill="#3A2A20" opacity="0.85"/>
    <circle cx="1279.0" cy="1098.0" r="21.0" fill="#6E8270" opacity="0.92"/>
    <circle cx="1288.0" cy="1092.0" r="14.7" fill="#6E8270" opacity="0.8"/>
    <circle cx="1272.0" cy="1092.0" r="13.65" fill="#6E8270" opacity="0.7"/>
    

    <ellipse cx="1204.0" cy="1164.0" rx="18.900000000000002" ry="7.35" fill="#243126" opacity="0.35"/>
    <rect x="1198.0" y="1148.0" width="3" height="14" fill="#3A2A20" opacity="0.85"/>
    <circle cx="1199.0" cy="1138.0" r="21.0" fill="#6E8270" opacity="0.92"/>
    <circle cx="1208.0" cy="1132.0" r="14.7" fill="#6E8270" opacity="0.8"/>
    <circle cx="1192.0" cy="1132.0" r="13.65" fill="#6E8270" opacity="0.7"/>
    

    <ellipse cx="1124.0" cy="1204.0" rx="18.900000000000002" ry="7.35" fill="#243126" opacity="0.35"/>
    <rect x="1118.0" y="1188.0" width="3" height="14" fill="#3A2A20" opacity="0.85"/>
    <circle cx="1119.0" cy="1178.0" r="21.0" fill="#6E8270" opacity="0.92"/>
    <circle cx="1128.0" cy="1172.0" r="14.7" fill="#6E8270" opacity="0.8"/>
    <circle cx="1112.0" cy="1172.0" r="13.65" fill="#6E8270" opacity="0.7"/>
    
  <rect x="0" y="0" width="1600" height="900" filter="url(#grain-W-006)"/>
  
    <g font-family="Inter, Helvetica, sans-serif">
      <text x="60" y="60" font-size="14" fill="#EBE6D2" opacity="0.7" letter-spacing="4">GENESIS · W-006</text>
      <text x="60" y="86" font-size="34" fill="#EBE6D2" opacity="0.95" letter-spacing="6">GETHSEMANE</text>
      <text x="60" y="112" font-size="11" fill="#EBE6D2" opacity="0.55" letter-spacing="2">The Garden of the Press</text>
      <text x="60" y="840" font-size="10" fill="#EBE6D2" opacity="0.55" letter-spacing="2">—</text>
      <text x="60" y="858" font-size="12" fill="#EBE6D2" opacity="0.7" letter-spacing="1.5" font-style="italic">"The cup did not pass. The yes was harder than the cross."</text>
    </g>
    
</svg>
