<?xml version="1.0" encoding="UTF-8"?>
<svg xmlns="http://www.w3.org/2000/svg" viewBox="0 0 1600 900" width="1600" height="900">
  
    <defs>
      <linearGradient id="sky-W-101" x1="0" y1="0" x2="0" y2="1">
        <stop offset="0%" stop-color="#0E1417"/>
        <stop offset="55%" stop-color="#2A3036"/>
        <stop offset="100%" stop-color="#6B7077"/>
      </linearGradient>
      <linearGradient id="ground-W-101" x1="0" y1="0" x2="0" y2="1">
        <stop offset="0%" stop-color="#6B7077"/>
        <stop offset="50%" stop-color="#B4B9BD"/>
        <stop offset="100%" stop-color="#E4E6E5"/>
      </linearGradient>
      <radialGradient id="sun-W-101" cx="50%" cy="50%" r="50%">
        <stop offset="0%" stop-color="#E4E6E5" stop-opacity="0.9"/>
        <stop offset="100%" stop-color="#E4E6E5" stop-opacity="0"/>
      </radialGradient>
      <filter id="grain-W-101" x="0" y="0" width="100%" height="100%">
        <feTurbulence type="fractalNoise" baseFrequency="0.85" numOctaves="2" seed="2570615985"/>
        <feColorMatrix values="0 0 0 0 0  0 0 0 0 0  0 0 0 0 0  0 0 0 0.05 0"/>
      </filter>
    </defs>
    
  
    <rect x="0" y="0" width="1600" height="900" fill="url(#sky-W-101)"/>
    <circle cx="1180" cy="280" r="220" fill="url(#sun-W-101)"/>
    <rect x="0" y="520" width="1600" height="380" fill="url(#ground-W-101)"/>
    
  <rect x="0" y="500" width="1600" height="40" fill="#6B7077" opacity="0.35"/><rect x="0" y="520" width="1600" height="14" fill="#B4B9BD" opacity="0.25"/>
  <line x1="560.0" y1="720.0" x2="1360.0" y2="1120.0" stroke="#0E1417" stroke-width="14" opacity="0.55" stroke-linecap="round"/>
<line x1="1200.0" y1="800.0" x2="720.0" y2="1040.0" stroke="#0E1417" stroke-width="14" opacity="0.55" stroke-linecap="round"/>
<polygon points="800.0,640.0 744.0,668.0 744.0,543.0 800.0,515.0" fill="#2A3036" stroke="#000" stroke-opacity="0.15" stroke-width="0.6"/>
<polygon points="744.0,668.0 800.0,696.0 800.0,571.0 744.0,543.0" fill="#6B7077" stroke="#000" stroke-opacity="0.18" stroke-width="0.6"/>
<polygon points="800.0,515.0 856.0,543.0 800.0,571.0 744.0,543.0" fill="#2A3036" opacity="0.92" stroke="#000" stroke-opacity="0.12" stroke-width="0.5"/>
<rect x="758.0" y="608.0" width="6" height="8" fill="#FFE9B0" opacity="0.45"/>
<rect x="782.0" y="608.0" width="6" height="8" fill="#FFE9B0" opacity="0.45"/>
<rect x="758.0" y="580.0" width="6" height="8" fill="#FFE9B0" opacity="0.45"/>
<rect x="782.0" y="580.0" width="6" height="8" fill="#FFE9B0" opacity="0.45"/>
<polygon points="800.0,515.0 856.0,543.0 800.0,525.0" fill="#6B7077" opacity="0.85"/>
<polygon points="744.0,543.0 800.0,571.0 800.0,525.0" fill="#2A3036" opacity="0.75"/>
<polygon points="680.0,700.0 624.0,728.0 624.0,681.0 680.0,653.0" fill="#2A3036" stroke="#000" stroke-opacity="0.15" stroke-width="0.6"/>
<polygon points="624.0,728.0 680.0,756.0 680.0,709.0 624.0,681.0" fill="#6B7077" stroke="#000" stroke-opacity="0.18" stroke-width="0.6"/>
<polygon points="680.0,653.0 736.0,681.0 680.0,709.0 624.0,681.0" fill="#2A3036" opacity="0.92" stroke="#000" stroke-opacity="0.12" stroke-width="0.5"/>
<polygon points="560.0,760.0 504.0,788.0 504.0,682.0 560.0,654.0" fill="#2A3036" stroke="#000" stroke-opacity="0.15" stroke-width="0.6"/>
<polygon points="504.0,788.0 560.0,816.0 560.0,710.0 504.0,682.0" fill="#6B7077" stroke="#000" stroke-opacity="0.18" stroke-width="0.6"/>
<polygon points="560.0,654.0 616.0,682.0 560.0,710.0 504.0,682.0" fill="#2A3036" opacity="0.92" stroke="#000" stroke-opacity="0.12" stroke-width="0.5"/>
<rect x="518.0" y="728.0" width="6" height="8" fill="#FFE9B0" opacity="0.45"/>
<rect x="542.0" y="728.0" width="6" height="8" fill="#FFE9B0" opacity="0.45"/>
<polygon points="440.0,820.0 384.0,848.0 384.0,757.0 440.0,729.0" fill="#2A3036" stroke="#000" stroke-opacity="0.15" stroke-width="0.6"/>
<polygon points="384.0,848.0 440.0,876.0 440.0,785.0 384.0,757.0" fill="#6B7077" stroke="#000" stroke-opacity="0.18" stroke-width="0.6"/>
<polygon points="440.0,729.0 496.0,757.0 440.0,785.0 384.0,757.0" fill="#2A3036" opacity="0.92" stroke="#000" stroke-opacity="0.12" stroke-width="0.5"/>
<rect x="398.0" y="788.0" width="6" height="8" fill="#FFE9B0" opacity="0.45"/>
<rect x="422.0" y="788.0" width="6" height="8" fill="#FFE9B0" opacity="0.45"/>
<polygon points="920.0,700.0 864.0,728.0 864.0,637.0 920.0,609.0" fill="#2A3036" stroke="#000" stroke-opacity="0.15" stroke-width="0.6"/>
<polygon points="864.0,728.0 920.0,756.0 920.0,665.0 864.0,637.0" fill="#6B7077" stroke="#000" stroke-opacity="0.18" stroke-width="0.6"/>
<polygon points="920.0,609.0 976.0,637.0 920.0,665.0 864.0,637.0" fill="#2A3036" opacity="0.92" stroke="#000" stroke-opacity="0.12" stroke-width="0.5"/>
<rect x="878.0" y="668.0" width="6" height="8" fill="#FFE9B0" opacity="0.45"/>
<rect x="902.0" y="668.0" width="6" height="8" fill="#FFE9B0" opacity="0.45"/>
<polygon points="800.0,760.0 744.0,788.0 744.0,746.0 800.0,718.0" fill="#2A3036" stroke="#000" stroke-opacity="0.15" stroke-width="0.6"/>
<polygon points="744.0,788.0 800.0,816.0 800.0,774.0 744.0,746.0" fill="#6B7077" stroke="#000" stroke-opacity="0.18" stroke-width="0.6"/>
<polygon points="800.0,718.0 856.0,746.0 800.0,774.0 744.0,746.0" fill="#2A3036" opacity="0.92" stroke="#000" stroke-opacity="0.12" stroke-width="0.5"/>
<polygon points="680.0,820.0 624.0,848.0 624.0,764.0 680.0,736.0" fill="#2A3036" stroke="#000" stroke-opacity="0.15" stroke-width="0.6"/>
<polygon points="624.0,848.0 680.0,876.0 680.0,792.0 624.0,764.0" fill="#6B7077" stroke="#000" stroke-opacity="0.18" stroke-width="0.6"/>
<polygon points="680.0,736.0 736.0,764.0 680.0,792.0 624.0,764.0" fill="#2A3036" opacity="0.92" stroke="#000" stroke-opacity="0.12" stroke-width="0.5"/>
<polygon points="680.0,736.0 736.0,764.0 680.0,746.0" fill="#6B7077" opacity="0.85"/>
<polygon points="624.0,764.0 680.0,792.0 680.0,746.0" fill="#2A3036" opacity="0.75"/>
<polygon points="560.0,880.0 504.0,908.0 504.0,778.0 560.0,750.0" fill="#2A3036" stroke="#000" stroke-opacity="0.15" stroke-width="0.6"/>
<polygon points="504.0,908.0 560.0,936.0 560.0,806.0 504.0,778.0" fill="#6B7077" stroke="#000" stroke-opacity="0.18" stroke-width="0.6"/>
<polygon points="560.0,750.0 616.0,778.0 560.0,806.0 504.0,778.0" fill="#2A3036" opacity="0.92" stroke="#000" stroke-opacity="0.12" stroke-width="0.5"/>
<rect x="518.0" y="848.0" width="6" height="8" fill="#FFE9B0" opacity="0.45"/>
<rect x="542.0" y="848.0" width="6" height="8" fill="#FFE9B0" opacity="0.45"/>
<rect x="518.0" y="820.0" width="6" height="8" fill="#FFE9B0" opacity="0.45"/>
<rect x="542.0" y="820.0" width="6" height="8" fill="#FFE9B0" opacity="0.45"/>
<polygon points="920.0,820.0 864.0,848.0 864.0,776.0 920.0,748.0" fill="#2A3036" stroke="#000" stroke-opacity="0.15" stroke-width="0.6"/>
<polygon points="864.0,848.0 920.0,876.0 920.0,804.0 864.0,776.0" fill="#6B7077" stroke="#000" stroke-opacity="0.18" stroke-width="0.6"/>
<polygon points="920.0,748.0 976.0,776.0 920.0,804.0 864.0,776.0" fill="#2A3036" opacity="0.92" stroke="#000" stroke-opacity="0.12" stroke-width="0.5"/>
<polygon points="920.0,748.0 976.0,776.0 920.0,758.0" fill="#6B7077" opacity="0.85"/>
<polygon points="864.0,776.0 920.0,804.0 920.0,758.0" fill="#2A3036" opacity="0.75"/>
<polygon points="800.0,880.0 744.0,908.0 744.0,808.0 800.0,780.0" fill="#2A3036" stroke="#000" stroke-opacity="0.15" stroke-width="0.6"/>
<polygon points="744.0,908.0 800.0,936.0 800.0,836.0 744.0,808.0" fill="#6B7077" stroke="#000" stroke-opacity="0.18" stroke-width="0.6"/>
<polygon points="800.0,780.0 856.0,808.0 800.0,836.0 744.0,808.0" fill="#2A3036" opacity="0.92" stroke="#000" stroke-opacity="0.12" stroke-width="0.5"/>
<rect x="758.0" y="848.0" width="6" height="8" fill="#FFE9B0" opacity="0.45"/>
<rect x="782.0" y="848.0" width="6" height="8" fill="#FFE9B0" opacity="0.45"/>
<polygon points="800.0,780.0 856.0,808.0 800.0,790.0" fill="#6B7077" opacity="0.85"/>
<polygon points="744.0,808.0 800.0,836.0 800.0,790.0" fill="#2A3036" opacity="0.75"/>
<polygon points="680.0,940.0 624.0,968.0 624.0,890.0 680.0,862.0" fill="#2A3036" stroke="#000" stroke-opacity="0.15" stroke-width="0.6"/>
<polygon points="624.0,968.0 680.0,996.0 680.0,918.0 624.0,890.0" fill="#6B7077" stroke="#000" stroke-opacity="0.18" stroke-width="0.6"/>
<polygon points="680.0,862.0 736.0,890.0 680.0,918.0 624.0,890.0" fill="#2A3036" opacity="0.92" stroke="#000" stroke-opacity="0.12" stroke-width="0.5"/>
<polygon points="1280.0,880.0 1224.0,908.0 1224.0,802.0 1280.0,774.0" fill="#2A3036" stroke="#000" stroke-opacity="0.15" stroke-width="0.6"/>
<polygon points="1224.0,908.0 1280.0,936.0 1280.0,830.0 1224.0,802.0" fill="#6B7077" stroke="#000" stroke-opacity="0.18" stroke-width="0.6"/>
<polygon points="1280.0,774.0 1336.0,802.0 1280.0,830.0 1224.0,802.0" fill="#2A3036" opacity="0.92" stroke="#000" stroke-opacity="0.12" stroke-width="0.5"/>
<rect x="1238.0" y="848.0" width="6" height="8" fill="#FFE9B0" opacity="0.45"/>
<rect x="1262.0" y="848.0" width="6" height="8" fill="#FFE9B0" opacity="0.45"/>
<polygon points="1160.0,940.0 1104.0,968.0 1104.0,904.0 1160.0,876.0" fill="#2A3036" stroke="#000" stroke-opacity="0.15" stroke-width="0.6"/>
<polygon points="1104.0,968.0 1160.0,996.0 1160.0,932.0 1104.0,904.0" fill="#6B7077" stroke="#000" stroke-opacity="0.18" stroke-width="0.6"/>
<polygon points="1160.0,876.0 1216.0,904.0 1160.0,932.0 1104.0,904.0" fill="#2A3036" opacity="0.92" stroke="#000" stroke-opacity="0.12" stroke-width="0.5"/>
<polygon points="920.0,1060.0 864.0,1088.0 864.0,1005.0 920.0,977.0" fill="#2A3036" stroke="#000" stroke-opacity="0.15" stroke-width="0.6"/>
<polygon points="864.0,1088.0 920.0,1116.0 920.0,1033.0 864.0,1005.0" fill="#6B7077" stroke="#000" stroke-opacity="0.18" stroke-width="0.6"/>
<polygon points="920.0,977.0 976.0,1005.0 920.0,1033.0 864.0,1005.0" fill="#2A3036" opacity="0.92" stroke="#000" stroke-opacity="0.12" stroke-width="0.5"/>
<polygon points="1400.0,940.0 1344.0,968.0 1344.0,894.0 1400.0,866.0" fill="#2A3036" stroke="#000" stroke-opacity="0.15" stroke-width="0.6"/>
<polygon points="1344.0,968.0 1400.0,996.0 1400.0,922.0 1344.0,894.0" fill="#6B7077" stroke="#000" stroke-opacity="0.18" stroke-width="0.6"/>
<polygon points="1400.0,866.0 1456.0,894.0 1400.0,922.0 1344.0,894.0" fill="#2A3036" opacity="0.92" stroke="#000" stroke-opacity="0.12" stroke-width="0.5"/>
<polygon points="1280.0,1000.0 1224.0,1028.0 1224.0,961.0 1280.0,933.0" fill="#2A3036" stroke="#000" stroke-opacity="0.15" stroke-width="0.6"/>
<polygon points="1224.0,1028.0 1280.0,1056.0 1280.0,989.0 1224.0,961.0" fill="#6B7077" stroke="#000" stroke-opacity="0.18" stroke-width="0.6"/>
<polygon points="1280.0,933.0 1336.0,961.0 1280.0,989.0 1224.0,961.0" fill="#2A3036" opacity="0.92" stroke="#000" stroke-opacity="0.12" stroke-width="0.5"/>
<polygon points="1160.0,1060.0 1104.0,1088.0 1104.0,1025.0 1160.0,997.0" fill="#2A3036" stroke="#000" stroke-opacity="0.15" stroke-width="0.6"/>
<polygon points="1104.0,1088.0 1160.0,1116.0 1160.0,1053.0 1104.0,1025.0" fill="#6B7077" stroke="#000" stroke-opacity="0.18" stroke-width="0.6"/>
<polygon points="1160.0,997.0 1216.0,1025.0 1160.0,1053.0 1104.0,1025.0" fill="#2A3036" opacity="0.92" stroke="#000" stroke-opacity="0.12" stroke-width="0.5"/>
<polygon points="1040.0,1120.0 984.0,1148.0 984.0,1061.0 1040.0,1033.0" fill="#2A3036" stroke="#000" stroke-opacity="0.15" stroke-width="0.6"/>
<polygon points="984.0,1148.0 1040.0,1176.0 1040.0,1089.0 984.0,1061.0" fill="#6B7077" stroke="#000" stroke-opacity="0.18" stroke-width="0.6"/>
<polygon points="1040.0,1033.0 1096.0,1061.0 1040.0,1089.0 984.0,1061.0" fill="#2A3036" opacity="0.92" stroke="#000" stroke-opacity="0.12" stroke-width="0.5"/>
<polygon points="1520.0,1000.0 1464.0,1028.0 1464.0,929.0 1520.0,901.0" fill="#2A3036" stroke="#000" stroke-opacity="0.15" stroke-width="0.6"/>
<polygon points="1464.0,1028.0 1520.0,1056.0 1520.0,957.0 1464.0,929.0" fill="#6B7077" stroke="#000" stroke-opacity="0.18" stroke-width="0.6"/>
<polygon points="1520.0,901.0 1576.0,929.0 1520.0,957.0 1464.0,929.0" fill="#2A3036" opacity="0.92" stroke="#000" stroke-opacity="0.12" stroke-width="0.5"/>
<rect x="1478.0" y="968.0" width="6" height="8" fill="#FFE9B0" opacity="0.45"/>
<rect x="1502.0" y="968.0" width="6" height="8" fill="#FFE9B0" opacity="0.45"/>
<polygon points="1520.0,901.0 1576.0,929.0 1520.0,911.0" fill="#6B7077" opacity="0.85"/>
<polygon points="1464.0,929.0 1520.0,957.0 1520.0,911.0" fill="#2A3036" opacity="0.75"/>
<polygon points="1400.0,1060.0 1344.0,1088.0 1344.0,1036.0 1400.0,1008.0" fill="#2A3036" stroke="#000" stroke-opacity="0.15" stroke-width="0.6"/>
<polygon points="1344.0,1088.0 1400.0,1116.0 1400.0,1064.0 1344.0,1036.0" fill="#6B7077" stroke="#000" stroke-opacity="0.18" stroke-width="0.6"/>
<polygon points="1400.0,1008.0 1456.0,1036.0 1400.0,1064.0 1344.0,1036.0" fill="#2A3036" opacity="0.92" stroke="#000" stroke-opacity="0.12" stroke-width="0.5"/>
<polygon points="1280.0,1120.0 1224.0,1148.0 1224.0,1037.0 1280.0,1009.0" fill="#2A3036" stroke="#000" stroke-opacity="0.15" stroke-width="0.6"/>
<polygon points="1224.0,1148.0 1280.0,1176.0 1280.0,1065.0 1224.0,1037.0" fill="#6B7077" stroke="#000" stroke-opacity="0.18" stroke-width="0.6"/>
<polygon points="1280.0,1009.0 1336.0,1037.0 1280.0,1065.0 1224.0,1037.0" fill="#2A3036" opacity="0.92" stroke="#000" stroke-opacity="0.12" stroke-width="0.5"/>
<rect x="1238.0" y="1088.0" width="6" height="8" fill="#FFE9B0" opacity="0.45"/>
<rect x="1262.0" y="1088.0" width="6" height="8" fill="#FFE9B0" opacity="0.45"/>
<polygon points="1160.0,1180.0 1104.0,1208.0 1104.0,1094.0 1160.0,1066.0" fill="#2A3036" stroke="#000" stroke-opacity="0.15" stroke-width="0.6"/>
<polygon points="1104.0,1208.0 1160.0,1236.0 1160.0,1122.0 1104.0,1094.0" fill="#6B7077" stroke="#000" stroke-opacity="0.18" stroke-width="0.6"/>
<polygon points="1160.0,1066.0 1216.0,1094.0 1160.0,1122.0 1104.0,1094.0" fill="#2A3036" opacity="0.92" stroke="#000" stroke-opacity="0.12" stroke-width="0.5"/>
<rect x="1118.0" y="1148.0" width="6" height="8" fill="#FFE9B0" opacity="0.45"/>
<rect x="1142.0" y="1148.0" width="6" height="8" fill="#FFE9B0" opacity="0.45"/>
<polygon points="1160.0,1066.0 1216.0,1094.0 1160.0,1076.0" fill="#6B7077" opacity="0.85"/>
<polygon points="1104.0,1094.0 1160.0,1122.0 1160.0,1076.0" fill="#2A3036" opacity="0.75"/>

    <ellipse cx="1090.8975084768003" cy="969.6643320550783" rx="13.860000000000003" ry="5.390000000000001" fill="#2A3036" opacity="0.35"/>
    <rect x="1084.8975084768003" y="953.6643320550783" width="3" height="14" fill="#3A2A20" opacity="0.85"/>
    <circle cx="1085.8975084768003" cy="943.6643320550783" r="15.400000000000002" fill="#6B7077" opacity="0.92"/>
    <circle cx="1094.8975084768003" cy="937.6643320550783" r="10.780000000000001" fill="#6B7077" opacity="0.8"/>
    <circle cx="1078.8975084768003" cy="937.6643320550783" r="10.010000000000002" fill="#6B7077" opacity="0.7"/>
    

    <ellipse cx="593.4102658832771" cy="759.8214035031957" rx="13.860000000000003" ry="5.390000000000001" fill="#2A3036" opacity="0.35"/>
    <rect x="587.4102658832771" y="743.8214035031957" width="3" height="14" fill="#3A2A20" opacity="0.85"/>
    <circle cx="588.4102658832771" cy="733.8214035031957" r="15.400000000000002" fill="#6B7077" opacity="0.92"/>
    <circle cx="597.4102658832771" cy="727.8214035031957" r="10.780000000000001" fill="#6B7077" opacity="0.8"/>
    <circle cx="581.4102658832771" cy="727.8214035031957" r="10.010000000000002" fill="#6B7077" opacity="0.7"/>
    

    <ellipse cx="1103.179269952746" cy="973.9124092408633" rx="13.860000000000003" ry="5.390000000000001" fill="#2A3036" opacity="0.35"/>
    <rect x="1097.179269952746" y="957.9124092408633" width="3" height="14" fill="#3A2A20" opacity="0.85"/>
    <circle cx="1098.179269952746" cy="947.9124092408633" r="15.400000000000002" fill="#6B7077" opacity="0.92"/>
    <circle cx="1107.179269952746" cy="941.9124092408633" r="10.780000000000001" fill="#6B7077" opacity="0.8"/>
    <circle cx="1091.179269952746" cy="941.9124092408633" r="10.010000000000002" fill="#6B7077" opacity="0.7"/>
    

    <ellipse cx="1436.7289144001825" cy="964.7650444690893" rx="13.860000000000003" ry="5.390000000000001" fill="#2A3036" opacity="0.35"/>
    <rect x="1430.7289144001825" y="948.7650444690893" width="3" height="14" fill="#3A2A20" opacity="0.85"/>
    <circle cx="1431.7289144001825" cy="938.7650444690893" r="15.400000000000002" fill="#6B7077" opacity="0.92"/>
    <circle cx="1440.7289144001825" cy="932.7650444690893" r="10.780000000000001" fill="#6B7077" opacity="0.8"/>
    <circle cx="1424.7289144001825" cy="932.7650444690893" r="10.010000000000002" fill="#6B7077" opacity="0.7"/>
    

    <ellipse cx="1034.1749254277674" cy="1117.3397542183025" rx="13.860000000000003" ry="5.390000000000001" fill="#2A3036" opacity="0.35"/>
    <rect x="1028.1749254277674" y="1101.3397542183025" width="3" height="14" fill="#3A2A20" opacity="0.85"/>
    <circle cx="1029.1749254277674" cy="1091.3397542183025" r="15.400000000000002" fill="#6B7077" opacity="0.92"/>
    <circle cx="1038.1749254277674" cy="1085.3397542183025" r="10.780000000000001" fill="#6B7077" opacity="0.8"/>
    <circle cx="1022.1749254277674" cy="1085.3397542183025" r="10.010000000000002" fill="#6B7077" opacity="0.7"/>
    

    <ellipse cx="922.7474546706533" cy="1044.4317167633412" rx="13.860000000000003" ry="5.390000000000001" fill="#2A3036" opacity="0.35"/>
    <rect x="916.7474546706533" y="1028.4317167633412" width="3" height="14" fill="#3A2A20" opacity="0.85"/>
    <circle cx="917.7474546706533" cy="1018.4317167633412" r="15.400000000000002" fill="#6B7077" opacity="0.92"/>
    <circle cx="926.7474546706533" cy="1012.4317167633412" r="10.780000000000001" fill="#6B7077" opacity="0.8"/>
    <circle cx="910.7474546706533" cy="1012.4317167633412" r="10.010000000000002" fill="#6B7077" opacity="0.7"/>
    

    <ellipse cx="638.3650692733695" cy="931.3888715651426" rx="13.860000000000003" ry="5.390000000000001" fill="#2A3036" opacity="0.35"/>
    <rect x="632.3650692733695" y="915.3888715651426" width="3" height="14" fill="#3A2A20" opacity="0.85"/>
    <circle cx="633.3650692733695" cy="905.3888715651426" r="15.400000000000002" fill="#6B7077" opacity="0.92"/>
    <circle cx="642.3650692733695" cy="899.3888715651426" r="10.780000000000001" fill="#6B7077" opacity="0.8"/>
    <circle cx="626.3650692733695" cy="899.3888715651426" r="10.010000000000002" fill="#6B7077" opacity="0.7"/>
    

    <ellipse cx="669.1586582235533" cy="716.989917352508" rx="13.860000000000003" ry="5.390000000000001" fill="#2A3036" opacity="0.35"/>
    <rect x="663.1586582235533" y="700.989917352508" width="3" height="14" fill="#3A2A20" opacity="0.85"/>
    <circle cx="664.1586582235533" cy="690.989917352508" r="15.400000000000002" fill="#6B7077" opacity="0.92"/>
    <circle cx="673.1586582235533" cy="684.989917352508" r="10.780000000000001" fill="#6B7077" opacity="0.8"/>
    <circle cx="657.1586582235533" cy="684.989917352508" r="10.010000000000002" fill="#6B7077" opacity="0.7"/>
    

    <ellipse cx="1513.5176383327341" cy="1030.0291204865212" rx="13.860000000000003" ry="5.390000000000001" fill="#2A3036" opacity="0.35"/>
    <rect x="1507.5176383327341" y="1014.0291204865212" width="3" height="14" fill="#3A2A20" opacity="0.85"/>
    <circle cx="1508.5176383327341" cy="1004.0291204865212" r="15.400000000000002" fill="#6B7077" opacity="0.92"/>
    <circle cx="1517.5176383327341" cy="998.0291204865212" r="10.780000000000001" fill="#6B7077" opacity="0.8"/>
    <circle cx="1501.5176383327341" cy="998.0291204865212" r="10.010000000000002" fill="#6B7077" opacity="0.7"/>
    

    <ellipse cx="915.5436225032183" cy="999.9897231895695" rx="13.860000000000003" ry="5.390000000000001" fill="#2A3036" opacity="0.35"/>
    <rect x="909.5436225032183" y="983.9897231895695" width="3" height="14" fill="#3A2A20" opacity="0.85"/>
    <circle cx="910.5436225032183" cy="973.9897231895695" r="15.400000000000002" fill="#6B7077" opacity="0.92"/>
    <circle cx="919.5436225032183" cy="967.9897231895695" r="10.780000000000001" fill="#6B7077" opacity="0.8"/>
    <circle cx="903.5436225032183" cy="967.9897231895695" r="10.010000000000002" fill="#6B7077" opacity="0.7"/>
    

    <ellipse cx="859.9178641097778" cy="967.6366022501275" rx="13.860000000000003" ry="5.390000000000001" fill="#2A3036" opacity="0.35"/>
    <rect x="853.9178641097778" y="951.6366022501275" width="3" height="14" fill="#3A2A20" opacity="0.85"/>
    <circle cx="854.9178641097778" cy="941.6366022501275" r="15.400000000000002" fill="#6B7077" opacity="0.92"/>
    <circle cx="863.9178641097778" cy="935.6366022501275" r="10.780000000000001" fill="#6B7077" opacity="0.8"/>
    <circle cx="847.9178641097778" cy="935.6366022501275" r="10.010000000000002" fill="#6B7077" opacity="0.7"/>
    

    <ellipse cx="1117.9946832422324" cy="1037.227806210573" rx="13.860000000000003" ry="5.390000000000001" fill="#2A3036" opacity="0.35"/>
    <rect x="1111.9946832422324" y="1021.2278062105729" width="3" height="14" fill="#3A2A20" opacity="0.85"/>
    <circle cx="1112.9946832422324" cy="1011.2278062105729" r="15.400000000000002" fill="#6B7077" opacity="0.92"/>
    <circle cx="1121.9946832422324" cy="1005.2278062105729" r="10.780000000000001" fill="#6B7077" opacity="0.8"/>
    <circle cx="1105.9946832422324" cy="1005.2278062105729" r="10.010000000000002" fill="#6B7077" opacity="0.7"/>
    

    <ellipse cx="1080.6155146737474" cy="883.7160313729034" rx="13.860000000000003" ry="5.390000000000001" fill="#2A3036" opacity="0.35"/>
    <rect x="1074.6155146737474" y="867.7160313729034" width="3" height="14" fill="#3A2A20" opacity="0.85"/>
    <circle cx="1075.6155146737474" cy="857.7160313729034" r="15.400000000000002" fill="#6B7077" opacity="0.92"/>
    <circle cx="1084.6155146737474" cy="851.7160313729034" r="10.780000000000001" fill="#6B7077" opacity="0.8"/>
    <circle cx="1068.6155146737474" cy="851.7160313729034" r="10.010000000000002" fill="#6B7077" opacity="0.7"/>
    

    <ellipse cx="891.2878905563578" cy="1079.0619678401422" rx="13.860000000000003" ry="5.390000000000001" fill="#2A3036" opacity="0.35"/>
    <rect x="885.2878905563578" y="1063.0619678401422" width="3" height="14" fill="#3A2A20" opacity="0.85"/>
    <circle cx="886.2878905563578" cy="1053.0619678401422" r="15.400000000000002" fill="#6B7077" opacity="0.92"/>
    <circle cx="895.2878905563578" cy="1047.0619678401422" r="10.780000000000001" fill="#6B7077" opacity="0.8"/>
    <circle cx="879.2878905563578" cy="1047.0619678401422" r="10.010000000000002" fill="#6B7077" opacity="0.7"/>
    

    <ellipse cx="861.5362146831894" cy="780.3176039673697" rx="13.860000000000003" ry="5.390000000000001" fill="#2A3036" opacity="0.35"/>
    <rect x="855.5362146831894" y="764.3176039673697" width="3" height="14" fill="#3A2A20" opacity="0.85"/>
    <circle cx="856.5362146831894" cy="754.3176039673697" r="15.400000000000002" fill="#6B7077" opacity="0.92"/>
    <circle cx="865.5362146831894" cy="748.3176039673697" r="10.780000000000001" fill="#6B7077" opacity="0.8"/>
    <circle cx="849.5362146831894" cy="748.3176039673697" r="10.010000000000002" fill="#6B7077" opacity="0.7"/>
    

    <ellipse cx="830.7028883608543" cy="767.9003767741754" rx="13.860000000000003" ry="5.390000000000001" fill="#2A3036" opacity="0.35"/>
    <rect x="824.7028883608543" y="751.9003767741754" width="3" height="14" fill="#3A2A20" opacity="0.85"/>
    <circle cx="825.7028883608543" cy="741.9003767741754" r="15.400000000000002" fill="#6B7077" opacity="0.92"/>
    <circle cx="834.7028883608543" cy="735.9003767741754" r="10.780000000000001" fill="#6B7077" opacity="0.8"/>
    <circle cx="818.7028883608543" cy="735.9003767741754" r="10.010000000000002" fill="#6B7077" opacity="0.7"/>
    

    <ellipse cx="829.2719557172326" cy="1092.4532667190222" rx="13.860000000000003" ry="5.390000000000001" fill="#2A3036" opacity="0.35"/>
    <rect x="823.2719557172326" y="1076.4532667190222" width="3" height="14" fill="#3A2A20" opacity="0.85"/>
    <circle cx="824.2719557172326" cy="1066.4532667190222" r="15.400000000000002" fill="#6B7077" opacity="0.92"/>
    <circle cx="833.2719557172326" cy="1060.4532667190222" r="10.780000000000001" fill="#6B7077" opacity="0.8"/>
    <circle cx="817.2719557172326" cy="1060.4532667190222" r="10.010000000000002" fill="#6B7077" opacity="0.7"/>
    

    <ellipse cx="784.2433658931012" cy="994.8508917760598" rx="13.860000000000003" ry="5.390000000000001" fill="#2A3036" opacity="0.35"/>
    <rect x="778.2433658931012" y="978.8508917760598" width="3" height="14" fill="#3A2A20" opacity="0.85"/>
    <circle cx="779.2433658931012" cy="968.8508917760598" r="15.400000000000002" fill="#6B7077" opacity="0.92"/>
    <circle cx="788.2433658931012" cy="962.8508917760598" r="10.780000000000001" fill="#6B7077" opacity="0.8"/>
    <circle cx="772.2433658931012" cy="962.8508917760598" r="10.010000000000002" fill="#6B7077" opacity="0.7"/>
    

    <rect x="611.0" y="698.0" width="2" height="36" fill="#2A2A2A" opacity="0.85"/>
    <circle cx="612.0" cy="696.0" r="3.5" fill="#FFE6A0" opacity="0.95"/>
    <circle cx="612.0" cy="696.0" r="11" fill="#FFE6A0" opacity="0.15"/>
    

    <rect x="691.0" y="738.0" width="2" height="36" fill="#2A2A2A" opacity="0.85"/>
    <circle cx="692.0" cy="736.0" r="3.5" fill="#FFE6A0" opacity="0.95"/>
    <circle cx="692.0" cy="736.0" r="11" fill="#FFE6A0" opacity="0.15"/>
    

    <rect x="771.0" y="778.0" width="2" height="36" fill="#2A2A2A" opacity="0.85"/>
    <circle cx="772.0" cy="776.0" r="3.5" fill="#FFE6A0" opacity="0.95"/>
    <circle cx="772.0" cy="776.0" r="11" fill="#FFE6A0" opacity="0.15"/>
    

    <rect x="851.0" y="818.0" width="2" height="36" fill="#2A2A2A" opacity="0.85"/>
    <circle cx="852.0" cy="816.0" r="3.5" fill="#FFE6A0" opacity="0.95"/>
    <circle cx="852.0" cy="816.0" r="11" fill="#FFE6A0" opacity="0.15"/>
    

    <rect x="931.0" y="858.0" width="2" height="36" fill="#2A2A2A" opacity="0.85"/>
    <circle cx="932.0" cy="856.0" r="3.5" fill="#FFE6A0" opacity="0.95"/>
    <circle cx="932.0" cy="856.0" r="11" fill="#FFE6A0" opacity="0.15"/>
    

    <rect x="1011.0" y="898.0" width="2" height="36" fill="#2A2A2A" opacity="0.85"/>
    <circle cx="1012.0" cy="896.0" r="3.5" fill="#FFE6A0" opacity="0.95"/>
    <circle cx="1012.0" cy="896.0" r="11" fill="#FFE6A0" opacity="0.15"/>
    

    <rect x="1091.0" y="938.0" width="2" height="36" fill="#2A2A2A" opacity="0.85"/>
    <circle cx="1092.0" cy="936.0" r="3.5" fill="#FFE6A0" opacity="0.95"/>
    <circle cx="1092.0" cy="936.0" r="11" fill="#FFE6A0" opacity="0.15"/>
    

    <rect x="1171.0" y="978.0" width="2" height="36" fill="#2A2A2A" opacity="0.85"/>
    <circle cx="1172.0" cy="976.0" r="3.5" fill="#FFE6A0" opacity="0.95"/>
    <circle cx="1172.0" cy="976.0" r="11" fill="#FFE6A0" opacity="0.15"/>
    

    <rect x="1251.0" y="1018.0" width="2" height="36" fill="#2A2A2A" opacity="0.85"/>
    <circle cx="1252.0" cy="1016.0" r="3.5" fill="#FFE6A0" opacity="0.95"/>
    <circle cx="1252.0" cy="1016.0" r="11" fill="#FFE6A0" opacity="0.15"/>
    

    <rect x="1331.0" y="1058.0" width="2" height="36" fill="#2A2A2A" opacity="0.85"/>
    <circle cx="1332.0" cy="1056.0" r="3.5" fill="#FFE6A0" opacity="0.95"/>
    <circle cx="1332.0" cy="1056.0" r="11" fill="#FFE6A0" opacity="0.15"/>
    
  <rect x="0" y="0" width="1600" height="900" filter="url(#grain-W-101)"/>
  
    <g font-family="Inter, Helvetica, sans-serif">
      <text x="60" y="60" font-size="14" fill="#E4E6E5" opacity="0.7" letter-spacing="4">GENESIS · W-101</text>
      <text x="60" y="86" font-size="34" fill="#E4E6E5" opacity="0.95" letter-spacing="6">SCARBOROUGH</text>
      <text x="60" y="112" font-size="11" fill="#E4E6E5" opacity="0.55" letter-spacing="2">Ontario, Canada — the eastern suburbs of Toronto</text>
      <text x="60" y="840" font-size="10" fill="#E4E6E5" opacity="0.55" letter-spacing="2">43.7764, -79.2318</text>
      <text x="60" y="858" font-size="12" fill="#E4E6E5" opacity="0.7" letter-spacing="1.5" font-style="italic">"Bus-shelter prayer at 5:47 AM. The faithful keep their hours."</text>
    </g>
    
</svg>
