<?xml version="1.0" encoding="UTF-8"?>
<svg xmlns="http://www.w3.org/2000/svg" viewBox="0 0 1200 1500" width="1200" height="1500">
  <defs>
    
    <filter id="grain-2079509937" x="0" y="0" width="100%" height="100%">
      <feTurbulence type="fractalNoise" baseFrequency="0.9" numOctaves="2" seed="2079509937"/>
      <feColorMatrix values="0 0 0 0 0  0 0 0 0 0  0 0 0 0 0  0 0 0 0.04 0"/>
    </filter>
    <rect x="0" y="0" width="1200" height="1500" filter="url(#grain-2079509937)"/>
    
  </defs>
  <rect x="0" y="0" width="1200" height="1500" fill="#E2DDD6"/>
  <rect x="100" y="900" width="1000" height="1.2" fill="#191A1D" opacity="0.18"/>
<rect x="100" y="916" width="1000" height="1.2" fill="#191A1D" opacity="0.22"/>
<rect x="100" y="932" width="1000" height="1.2" fill="#191A1D" opacity="0.26"/>
<rect x="100" y="948" width="1000" height="1.2" fill="#191A1D" opacity="0.18"/>
<rect x="100" y="964" width="1000" height="1.2" fill="#191A1D" opacity="0.22"/>
<rect x="100" y="980" width="1000" height="1.2" fill="#191A1D" opacity="0.26"/>
<rect x="100" y="996" width="1000" height="1.2" fill="#191A1D" opacity="0.18"/>
<rect x="100" y="1012" width="1000" height="1.2" fill="#191A1D" opacity="0.22"/>
<rect x="100" y="1028" width="1000" height="1.2" fill="#191A1D" opacity="0.26"/>
<rect x="100" y="1044" width="1000" height="1.2" fill="#191A1D" opacity="0.18"/>
<rect x="100" y="1060" width="1000" height="1.2" fill="#191A1D" opacity="0.22"/>
<rect x="100" y="1076" width="1000" height="1.2" fill="#191A1D" opacity="0.26"/>
<rect x="100" y="1092" width="1000" height="1.2" fill="#191A1D" opacity="0.18"/>
<rect x="100" y="1108" width="1000" height="1.2" fill="#191A1D" opacity="0.22"/>
<rect x="100" y="1124" width="1000" height="1.2" fill="#191A1D" opacity="0.26"/>
<rect x="100" y="1140" width="1000" height="1.2" fill="#191A1D" opacity="0.18"/>
<rect x="100" y="1156" width="1000" height="1.2" fill="#191A1D" opacity="0.22"/>
<rect x="100" y="1172" width="1000" height="1.2" fill="#191A1D" opacity="0.26"/>
<rect x="100" y="1188" width="1000" height="1.2" fill="#191A1D" opacity="0.18"/>
<rect x="100" y="1204" width="1000" height="1.2" fill="#191A1D" opacity="0.22"/>
<rect x="100" y="1220" width="1000" height="1.2" fill="#191A1D" opacity="0.26"/>
<rect x="100" y="1236" width="1000" height="1.2" fill="#191A1D" opacity="0.18"/>
<rect x="100" y="1252" width="1000" height="1.2" fill="#191A1D" opacity="0.22"/>
<rect x="100" y="1268" width="1000" height="1.2" fill="#191A1D" opacity="0.26"/>
<rect x="100" y="1284" width="1000" height="1.2" fill="#191A1D" opacity="0.18"/>
  
    <text x="600" y="1380" font-family="'JetBrains Mono', Menlo, monospace" font-size="22"
          fill="#0E0D0C" text-anchor="middle"
          letter-spacing="6" opacity="0.85">STILL WATERS</text>
    <text x="600" y="1420" font-family="'JetBrains Mono', Menlo, monospace" font-size="11"
          fill="#0E0D0C" text-anchor="middle"
          letter-spacing="3" opacity="0.55">FTC · FULL TIME CHRISTIAN</text>
    
</svg>
