<?xml version="1.0" encoding="UTF-8"?>
<svg xmlns="http://www.w3.org/2000/svg" viewBox="0 0 1200 1500" width="1200" height="1500">
  <defs>
    
    <filter id="grain-257533661" x="0" y="0" width="100%" height="100%">
      <feTurbulence type="fractalNoise" baseFrequency="0.9" numOctaves="2" seed="257533661"/>
      <feColorMatrix values="0 0 0 0 0  0 0 0 0 0  0 0 0 0 0  0 0 0 0.04 0"/>
    </filter>
    <rect x="0" y="0" width="1200" height="1500" filter="url(#grain-257533661)"/>
    
  </defs>
  <rect x="0" y="0" width="1200" height="1500" fill="#D0C6BE"/>
  <rect x="0" y="0" width="90" height="1500" fill="#68807F" opacity="0.069"/>
<rect x="90" y="0" width="90" height="1500" fill="#68807F" opacity="0.127"/>
<rect x="180" y="0" width="90" height="1500" fill="#68807F" opacity="0.177"/>
<rect x="270" y="0" width="90" height="1500" fill="#68807F" opacity="0.130"/>
<rect x="360" y="0" width="90" height="1500" fill="#68807F" opacity="0.127"/>
<rect x="450" y="0" width="90" height="1500" fill="#68807F" opacity="0.119"/>
<rect x="540" y="0" width="90" height="1500" fill="#68807F" opacity="0.135"/>
<rect x="630" y="0" width="90" height="1500" fill="#68807F" opacity="0.046"/>
<rect x="720" y="0" width="90" height="1500" fill="#68807F" opacity="0.058"/>
<rect x="810" y="0" width="90" height="1500" fill="#68807F" opacity="0.043"/>
<rect x="900" y="0" width="90" height="1500" fill="#68807F" opacity="0.129"/>
<rect x="990" y="0" width="90" height="1500" fill="#68807F" opacity="0.106"/>
<rect x="1080" y="0" width="90" height="1500" fill="#68807F" opacity="0.092"/>
<rect x="1170" y="0" width="90" height="1500" fill="#68807F" opacity="0.088"/>
<rect x="1260" y="0" width="90" height="1500" fill="#68807F" opacity="0.175"/>
  
    <text x="600" y="1380" font-family="Inter, Helvetica, sans-serif" font-size="22"
          fill="#0E0D0C" text-anchor="middle"
          letter-spacing="6" opacity="0.85">VEIL</text>
    <text x="600" y="1420" font-family="Inter, Helvetica, sans-serif" font-size="11"
          fill="#0E0D0C" text-anchor="middle"
          letter-spacing="3" opacity="0.55">FTC · FULL TIME CHRISTIAN</text>
    
</svg>
