<?xml version="1.0" encoding="UTF-8"?>
<svg xmlns="http://www.w3.org/2000/svg" viewBox="0 0 1200 1500" width="1200" height="1500">
  <defs>
    
    <filter id="grain-2724740606" x="0" y="0" width="100%" height="100%">
      <feTurbulence type="fractalNoise" baseFrequency="0.9" numOctaves="2" seed="2724740606"/>
      <feColorMatrix values="0 0 0 0 0  0 0 0 0 0  0 0 0 0 0  0 0 0 0.04 0"/>
    </filter>
    <rect x="0" y="0" width="1200" height="1500" filter="url(#grain-2724740606)"/>
    
  </defs>
  <rect x="0" y="0" width="1200" height="1500" fill="#E6E1DA"/>
  <rect x="1134" y="1028" width="0.8" height="26" fill="#17181B" opacity="0.40"/>
<rect x="82" y="855" width="0.8" height="19" fill="#17181B" opacity="0.27"/>
<rect x="537" y="945" width="0.8" height="68" fill="#17181B" opacity="0.40"/>
<rect x="498" y="1081" width="0.8" height="71" fill="#17181B" opacity="0.57"/>
<rect x="1094" y="899" width="0.8" height="76" fill="#17181B" opacity="0.59"/>
<rect x="807" y="766" width="0.8" height="68" fill="#17181B" opacity="0.58"/>
<rect x="255" y="836" width="0.8" height="57" fill="#17181B" opacity="0.63"/>
<rect x="586" y="936" width="0.8" height="44" fill="#17181B" opacity="0.48"/>
<rect x="458" y="870" width="0.8" height="77" fill="#17181B" opacity="0.69"/>
<rect x="99" y="960" width="0.8" height="24" fill="#17181B" opacity="0.47"/>
<rect x="451" y="778" width="0.8" height="80" fill="#17181B" opacity="0.68"/>
<rect x="340" y="984" width="0.8" height="27" fill="#17181B" opacity="0.25"/>
<rect x="366" y="1065" width="0.8" height="59" fill="#17181B" opacity="0.32"/>
<rect x="702" y="983" width="0.8" height="69" fill="#17181B" opacity="0.58"/>
<rect x="110" y="1067" width="0.8" height="30" fill="#17181B" opacity="0.27"/>
<rect x="689" y="744" width="0.8" height="75" fill="#17181B" opacity="0.28"/>
<rect x="263" y="701" width="0.8" height="15" fill="#17181B" opacity="0.36"/>
<rect x="381" y="861" width="0.8" height="65" fill="#17181B" opacity="0.49"/>
<rect x="904" y="815" width="0.8" height="30" fill="#17181B" opacity="0.26"/>
<rect x="121" y="763" width="0.8" height="16" fill="#17181B" opacity="0.29"/>
<rect x="866" y="953" width="0.8" height="26" fill="#17181B" opacity="0.48"/>
<rect x="712" y="911" width="0.8" height="17" fill="#17181B" opacity="0.36"/>
<rect x="561" y="1083" width="0.8" height="62" fill="#17181B" opacity="0.70"/>
<rect x="450" y="967" width="0.8" height="68" fill="#17181B" opacity="0.56"/>
<rect x="156" y="825" width="0.8" height="20" fill="#17181B" opacity="0.29"/>
<rect x="102" y="1090" width="0.8" height="55" fill="#17181B" opacity="0.44"/>
<rect x="431" y="930" width="0.8" height="80" fill="#17181B" opacity="0.33"/>
<rect x="724" y="870" width="0.8" height="12" fill="#17181B" opacity="0.61"/>
<rect x="904" y="1009" width="0.8" height="75" fill="#17181B" opacity="0.29"/>
<rect x="925" y="782" width="0.8" height="21" fill="#17181B" opacity="0.36"/>
<rect x="411" y="910" width="0.8" height="38" fill="#17181B" opacity="0.43"/>
<rect x="351" y="786" width="0.8" height="42" fill="#17181B" opacity="0.35"/>
<rect x="792" y="1011" width="0.8" height="14" fill="#17181B" opacity="0.38"/>
<rect x="113" y="932" width="0.8" height="18" fill="#17181B" opacity="0.66"/>
<rect x="522" y="925" width="0.8" height="56" fill="#17181B" opacity="0.28"/>
<rect x="423" y="824" width="0.8" height="44" fill="#17181B" opacity="0.45"/>
<rect x="825" y="891" width="0.8" height="21" fill="#17181B" opacity="0.27"/>
<rect x="1004" y="812" width="0.8" height="53" fill="#17181B" opacity="0.49"/>
  
    <text x="600" y="1380" font-family="Inter, Helvetica, sans-serif" font-size="22"
          fill="#0E0D0C" text-anchor="middle"
          letter-spacing="6" opacity="0.85">WILDERNESS</text>
    <text x="600" y="1420" font-family="Inter, Helvetica, sans-serif" font-size="11"
          fill="#0E0D0C" text-anchor="middle"
          letter-spacing="3" opacity="0.55">FTC · FULL TIME CHRISTIAN</text>
    
</svg>
