<?xml version="1.0" encoding="UTF-8"?>
<svg xmlns="http://www.w3.org/2000/svg" viewBox="0 0 1200 1500" width="1200" height="1500">
  <defs>
    
    <filter id="grain-2003690923" x="0" y="0" width="100%" height="100%">
      <feTurbulence type="fractalNoise" baseFrequency="0.9" numOctaves="2" seed="2003690923"/>
      <feColorMatrix values="0 0 0 0 0  0 0 0 0 0  0 0 0 0 0  0 0 0 0.04 0"/>
    </filter>
    <rect x="0" y="0" width="1200" height="1500" filter="url(#grain-2003690923)"/>
    
  </defs>
  <rect x="0" y="0" width="1200" height="1500" fill="#E7E2DB"/>
  <rect x="347" y="967" width="0.8" height="49" fill="#161719" opacity="0.41"/>
<rect x="1059" y="944" width="0.8" height="14" fill="#161719" opacity="0.41"/>
<rect x="554" y="968" width="0.8" height="29" fill="#161719" opacity="0.57"/>
<rect x="837" y="925" width="0.8" height="53" fill="#161719" opacity="0.55"/>
<rect x="313" y="824" width="0.8" height="58" fill="#161719" opacity="0.49"/>
<rect x="1061" y="839" width="0.8" height="19" fill="#161719" opacity="0.54"/>
<rect x="370" y="1065" width="0.8" height="16" fill="#161719" opacity="0.69"/>
<rect x="445" y="710" width="0.8" height="57" fill="#161719" opacity="0.52"/>
<rect x="854" y="779" width="0.8" height="15" fill="#161719" opacity="0.48"/>
<rect x="407" y="989" width="0.8" height="68" fill="#161719" opacity="0.57"/>
<rect x="511" y="883" width="0.8" height="25" fill="#161719" opacity="0.36"/>
<rect x="152" y="823" width="0.8" height="22" fill="#161719" opacity="0.31"/>
<rect x="843" y="961" width="0.8" height="79" fill="#161719" opacity="0.59"/>
<rect x="757" y="797" width="0.8" height="80" fill="#161719" opacity="0.49"/>
<rect x="638" y="886" width="0.8" height="65" fill="#161719" opacity="0.40"/>
<rect x="1034" y="969" width="0.8" height="66" fill="#161719" opacity="0.37"/>
<rect x="249" y="962" width="0.8" height="33" fill="#161719" opacity="0.37"/>
<rect x="794" y="736" width="0.8" height="55" fill="#161719" opacity="0.59"/>
<rect x="604" y="866" width="0.8" height="68" fill="#161719" opacity="0.48"/>
<rect x="266" y="998" width="0.8" height="70" fill="#161719" opacity="0.33"/>
<rect x="565" y="921" width="0.8" height="38" fill="#161719" opacity="0.55"/>
<rect x="746" y="871" width="0.8" height="33" fill="#161719" opacity="0.63"/>
<rect x="444" y="902" width="0.8" height="43" fill="#161719" opacity="0.45"/>
<rect x="565" y="947" width="0.8" height="10" fill="#161719" opacity="0.67"/>
<rect x="203" y="912" width="0.8" height="75" fill="#161719" opacity="0.68"/>
<rect x="241" y="1040" width="0.8" height="40" fill="#161719" opacity="0.57"/>
<rect x="960" y="1100" width="0.8" height="51" fill="#161719" opacity="0.30"/>
<rect x="558" y="924" width="0.8" height="39" fill="#161719" opacity="0.37"/>
<rect x="268" y="710" width="0.8" height="17" fill="#161719" opacity="0.39"/>
<rect x="127" y="1052" width="0.8" height="18" fill="#161719" opacity="0.57"/>
<rect x="783" y="839" width="0.8" height="31" fill="#161719" opacity="0.40"/>
<rect x="1060" y="873" width="0.8" height="73" fill="#161719" opacity="0.70"/>
<rect x="509" y="1005" width="0.8" height="63" fill="#161719" opacity="0.26"/>
<rect x="357" y="816" width="0.8" height="28" fill="#161719" opacity="0.57"/>
<rect x="796" y="1011" width="0.8" height="28" fill="#161719" opacity="0.39"/>
<rect x="173" y="923" width="0.8" height="68" fill="#161719" opacity="0.57"/>
<rect x="910" y="824" width="0.8" height="24" fill="#161719" opacity="0.56"/>
<rect x="588" y="954" width="0.8" height="59" fill="#161719" opacity="0.51"/>
  
    <text x="600" y="1380" font-family="Inter, Helvetica, sans-serif" font-size="22"
          fill="#0E0D0C" text-anchor="middle"
          letter-spacing="6" opacity="0.85">WITNESS</text>
    <text x="600" y="1420" font-family="Inter, Helvetica, sans-serif" font-size="11"
          fill="#0E0D0C" text-anchor="middle"
          letter-spacing="3" opacity="0.55">FTC · FULL TIME CHRISTIAN</text>
    
</svg>
