<?xml version="1.0" encoding="UTF-8"?>
<svg xmlns="http://www.w3.org/2000/svg" viewBox="0 0 1200 1500" width="1200" height="1500">
  <defs>
    
    <filter id="grain-3118004947" x="0" y="0" width="100%" height="100%">
      <feTurbulence type="fractalNoise" baseFrequency="0.9" numOctaves="2" seed="3118004947"/>
      <feColorMatrix values="0 0 0 0 0  0 0 0 0 0  0 0 0 0 0  0 0 0 0.04 0"/>
    </filter>
    <rect x="0" y="0" width="1200" height="1500" filter="url(#grain-3118004947)"/>
    
  </defs>
  <rect x="0" y="0" width="1200" height="1500" fill="#1A1919"/>
  <circle cx="1008" cy="1116" r="2.34" fill="#DAD3CD" opacity="0.48"/>
<circle cx="190" cy="870" r="1.68" fill="#DAD3CD" opacity="0.38"/>
<circle cx="445" cy="788" r="1.58" fill="#DAD3CD" opacity="0.82"/>
<circle cx="149" cy="1129" r="1.47" fill="#DAD3CD" opacity="0.62"/>
<circle cx="205" cy="1234" r="1.21" fill="#DAD3CD" opacity="0.83"/>
<circle cx="830" cy="913" r="2.61" fill="#DAD3CD" opacity="0.73"/>
<circle cx="1105" cy="1222" r="1.55" fill="#DAD3CD" opacity="0.78"/>
<circle cx="1017" cy="319" r="1.92" fill="#DAD3CD" opacity="0.78"/>
<circle cx="115" cy="622" r="2.05" fill="#DAD3CD" opacity="0.72"/>
<circle cx="741" cy="870" r="2.12" fill="#DAD3CD" opacity="0.53"/>
<circle cx="674" cy="351" r="2.54" fill="#DAD3CD" opacity="0.38"/>
<circle cx="546" cy="923" r="1.83" fill="#DAD3CD" opacity="0.49"/>
<circle cx="414" cy="365" r="2.70" fill="#DAD3CD" opacity="0.42"/>
<circle cx="726" cy="1086" r="1.65" fill="#DAD3CD" opacity="0.50"/>
<circle cx="537" cy="1073" r="2.25" fill="#DAD3CD" opacity="0.84"/>
<circle cx="693" cy="387" r="2.26" fill="#DAD3CD" opacity="0.44"/>
<circle cx="878" cy="167" r="1.37" fill="#DAD3CD" opacity="0.72"/>
<circle cx="518" cy="467" r="2.55" fill="#DAD3CD" opacity="0.49"/>
<circle cx="533" cy="800" r="2.66" fill="#DAD3CD" opacity="0.69"/>
<circle cx="636" cy="1045" r="1.82" fill="#DAD3CD" opacity="0.74"/>
<circle cx="557" cy="280" r="3.35" fill="#DAD3CD" opacity="0.40"/>
<circle cx="768" cy="774" r="1.90" fill="#DAD3CD" opacity="0.51"/>
<circle cx="1000" cy="548" r="1.44" fill="#DAD3CD" opacity="0.49"/>
<circle cx="178" cy="171" r="2.64" fill="#DAD3CD" opacity="0.64"/>
<circle cx="258" cy="704" r="1.90" fill="#DAD3CD" opacity="0.72"/>
<circle cx="372" cy="587" r="3.16" fill="#DAD3CD" opacity="0.52"/>
<circle cx="790" cy="578" r="2.74" fill="#DAD3CD" opacity="0.60"/>
<circle cx="793" cy="439" r="2.37" fill="#DAD3CD" opacity="0.71"/>
<circle cx="148" cy="350" r="1.59" fill="#DAD3CD" opacity="0.68"/>
<circle cx="231" cy="980" r="1.25" fill="#DAD3CD" opacity="0.31"/>
<circle cx="402" cy="245" r="1.91" fill="#DAD3CD" opacity="0.40"/>
<circle cx="744" cy="493" r="2.39" fill="#DAD3CD" opacity="0.32"/>
<circle cx="974" cy="250" r="2.11" fill="#DAD3CD" opacity="0.84"/>
<circle cx="214" cy="771" r="1.91" fill="#DAD3CD" opacity="0.84"/>
<circle cx="126" cy="1208" r="3.06" fill="#DAD3CD" opacity="0.84"/>
<circle cx="1025" cy="476" r="1.70" fill="#DAD3CD" opacity="0.51"/>
<circle cx="408" cy="569" r="1.88" fill="#DAD3CD" opacity="0.40"/>
<circle cx="774" cy="924" r="3.18" fill="#DAD3CD" opacity="0.50"/>
<circle cx="576" cy="313" r="1.48" fill="#DAD3CD" opacity="0.84"/>
<circle cx="562" cy="959" r="2.62" fill="#DAD3CD" opacity="0.49"/>
<circle cx="416" cy="708" r="1.76" fill="#DAD3CD" opacity="0.55"/>
<circle cx="872" cy="400" r="2.95" fill="#DAD3CD" opacity="0.37"/>
<circle cx="230" cy="1136" r="2.09" fill="#DAD3CD" opacity="0.73"/>
<circle cx="314" cy="832" r="1.83" fill="#DAD3CD" opacity="0.81"/>
<circle cx="1034" cy="1063" r="1.23" fill="#DAD3CD" opacity="0.67"/>
<circle cx="722" cy="837" r="1.59" fill="#DAD3CD" opacity="0.78"/>
<circle cx="863" cy="1016" r="3.01" fill="#DAD3CD" opacity="0.59"/>
<circle cx="948" cy="254" r="1.31" fill="#DAD3CD" opacity="0.82"/>
<circle cx="928" cy="387" r="2.88" fill="#DAD3CD" opacity="0.64"/>
<circle cx="648" cy="227" r="1.43" fill="#DAD3CD" opacity="0.50"/>
<circle cx="568" cy="261" r="2.58" fill="#DAD3CD" opacity="0.65"/>
<circle cx="906" cy="922" r="1.41" fill="#DAD3CD" opacity="0.76"/>
<circle cx="694" cy="950" r="3.08" fill="#DAD3CD" opacity="0.83"/>
<circle cx="847" cy="917" r="1.52" fill="#DAD3CD" opacity="0.77"/>
<circle cx="300" cy="254" r="2.44" fill="#DAD3CD" opacity="0.38"/>
<circle cx="209" cy="650" r="1.21" fill="#DAD3CD" opacity="0.63"/>
<circle cx="450" cy="230" r="3.26" fill="#DAD3CD" opacity="0.82"/>
<circle cx="471" cy="971" r="2.81" fill="#DAD3CD" opacity="0.38"/>
<circle cx="1013" cy="330" r="2.18" fill="#DAD3CD" opacity="0.62"/>
<circle cx="362" cy="315" r="1.23" fill="#DAD3CD" opacity="0.45"/>
<circle cx="604" cy="1028" r="1.56" fill="#DAD3CD" opacity="0.53"/>
<circle cx="628" cy="627" r="2.13" fill="#DAD3CD" opacity="0.78"/>
<circle cx="207" cy="819" r="2.56" fill="#DAD3CD" opacity="0.32"/>
<circle cx="1048" cy="556" r="1.29" fill="#DAD3CD" opacity="0.39"/>
<circle cx="551" cy="1202" r="1.97" fill="#DAD3CD" opacity="0.59"/>
<circle cx="973" cy="944" r="1.33" fill="#DAD3CD" opacity="0.44"/>
<circle cx="548" cy="1020" r="2.28" fill="#DAD3CD" opacity="0.47"/>
<circle cx="188" cy="357" r="1.86" fill="#DAD3CD" opacity="0.48"/>
<circle cx="979" cy="764" r="1.73" fill="#DAD3CD" opacity="0.48"/>
<circle cx="443" cy="896" r="1.60" fill="#DAD3CD" opacity="0.74"/>
<circle cx="958" cy="136" r="1.75" fill="#DAD3CD" opacity="0.69"/>
<circle cx="696" cy="838" r="1.49" fill="#DAD3CD" opacity="0.54"/>
<circle cx="769" cy="280" r="1.22" fill="#DAD3CD" opacity="0.38"/>
<circle cx="348" cy="1037" r="2.90" fill="#DAD3CD" opacity="0.59"/>
<circle cx="1026" cy="732" r="2.73" fill="#DAD3CD" opacity="0.74"/>
<circle cx="218" cy="1121" r="2.83" fill="#DAD3CD" opacity="0.32"/>
<circle cx="836" cy="915" r="2.02" fill="#DAD3CD" opacity="0.48"/>
<circle cx="503" cy="645" r="1.63" fill="#DAD3CD" opacity="0.47"/>
<circle cx="771" cy="278" r="1.99" fill="#DAD3CD" opacity="0.36"/>
<circle cx="996" cy="133" r="2.42" fill="#DAD3CD" opacity="0.33"/>
<circle cx="594" cy="844" r="1.78" fill="#DAD3CD" opacity="0.84"/>
<circle cx="212" cy="1182" r="2.08" fill="#DAD3CD" opacity="0.75"/>
<circle cx="1039" cy="229" r="1.41" fill="#DAD3CD" opacity="0.46"/>
<circle cx="860" cy="899" r="3.05" fill="#DAD3CD" opacity="0.46"/>
<circle cx="298" cy="1101" r="1.94" fill="#DAD3CD" opacity="0.33"/>
<circle cx="655" cy="990" r="3.30" fill="#DAD3CD" opacity="0.36"/>
<circle cx="602" cy="185" r="2.84" fill="#DAD3CD" opacity="0.70"/>
<circle cx="1074" cy="885" r="2.68" fill="#DAD3CD" opacity="0.77"/>
<circle cx="299" cy="396" r="2.12" fill="#DAD3CD" opacity="0.41"/>
<circle cx="824" cy="198" r="2.35" fill="#DAD3CD" opacity="0.63"/>
<circle cx="842" cy="1020" r="3.33" fill="#DAD3CD" opacity="0.80"/>
<circle cx="180" cy="863" r="1.23" fill="#DAD3CD" opacity="0.41"/>
<circle cx="770" cy="1150" r="1.83" fill="#DAD3CD" opacity="0.60"/>
<circle cx="809" cy="309" r="1.47" fill="#DAD3CD" opacity="0.72"/>
<circle cx="94" cy="489" r="1.53" fill="#DAD3CD" opacity="0.71"/>
<circle cx="968" cy="483" r="1.23" fill="#DAD3CD" opacity="0.78"/>
<circle cx="438" cy="1128" r="1.88" fill="#DAD3CD" opacity="0.66"/>
<circle cx="988" cy="1041" r="2.64" fill="#DAD3CD" opacity="0.32"/>
<circle cx="850" cy="648" r="2.00" fill="#DAD3CD" opacity="0.79"/>
<circle cx="333" cy="190" r="1.27" fill="#DAD3CD" opacity="0.73"/>
<circle cx="709" cy="1010" r="2.32" fill="#DAD3CD" opacity="0.48"/>
<circle cx="893" cy="1288" r="2.95" fill="#DAD3CD" opacity="0.33"/>
<circle cx="778" cy="991" r="1.65" fill="#DAD3CD" opacity="0.36"/>
<circle cx="1030" cy="492" r="2.15" fill="#DAD3CD" opacity="0.34"/>
<circle cx="873" cy="1152" r="1.56" fill="#DAD3CD" opacity="0.42"/>
<circle cx="1020" cy="379" r="2.87" fill="#DAD3CD" opacity="0.66"/>
<circle cx="505" cy="151" r="1.82" fill="#DAD3CD" opacity="0.61"/>
<circle cx="740" cy="229" r="2.81" fill="#DAD3CD" opacity="0.57"/>
<circle cx="565" cy="194" r="2.07" fill="#DAD3CD" opacity="0.59"/>
<circle cx="915" cy="886" r="2.46" fill="#DAD3CD" opacity="0.74"/>
<circle cx="724" cy="500" r="3.11" fill="#DAD3CD" opacity="0.43"/>
<circle cx="842" cy="316" r="3.17" fill="#DAD3CD" opacity="0.33"/>
<circle cx="274" cy="756" r="2.85" fill="#DAD3CD" opacity="0.72"/>
<circle cx="494" cy="522" r="2.11" fill="#DAD3CD" opacity="0.37"/>
<circle cx="402" cy="835" r="2.05" fill="#DAD3CD" opacity="0.54"/>
<circle cx="521" cy="412" r="3.24" fill="#DAD3CD" opacity="0.53"/>
<circle cx="703" cy="138" r="1.69" fill="#DAD3CD" opacity="0.71"/>
<circle cx="100" cy="768" r="2.33" fill="#DAD3CD" opacity="0.42"/>
<circle cx="750" cy="765" r="3.17" fill="#DAD3CD" opacity="0.36"/>
<circle cx="658" cy="1117" r="2.38" fill="#DAD3CD" opacity="0.54"/>
<circle cx="703" cy="714" r="1.82" fill="#DAD3CD" opacity="0.52"/>
<circle cx="485" cy="491" r="2.85" fill="#DAD3CD" opacity="0.65"/>
<circle cx="1100" cy="934" r="1.74" fill="#DAD3CD" opacity="0.65"/>
<circle cx="143" cy="639" r="2.47" fill="#DAD3CD" opacity="0.58"/>
<circle cx="1033" cy="363" r="1.27" fill="#DAD3CD" opacity="0.73"/>
<circle cx="945" cy="171" r="3.20" fill="#DAD3CD" opacity="0.36"/>
<circle cx="1044" cy="595" r="3.22" fill="#DAD3CD" opacity="0.68"/>
<circle cx="720" cy="455" r="2.38" fill="#DAD3CD" opacity="0.44"/>
<circle cx="666" cy="202" r="1.57" fill="#DAD3CD" opacity="0.39"/>
<circle cx="748" cy="292" r="3.35" fill="#DAD3CD" opacity="0.53"/>
<circle cx="915" cy="946" r="1.42" fill="#DAD3CD" opacity="0.31"/>
<circle cx="526" cy="425" r="2.64" fill="#DAD3CD" opacity="0.42"/>
<circle cx="1003" cy="892" r="2.36" fill="#DAD3CD" opacity="0.78"/>
<circle cx="744" cy="734" r="2.61" fill="#DAD3CD" opacity="0.64"/>
<circle cx="805" cy="1028" r="1.46" fill="#DAD3CD" opacity="0.50"/>
<circle cx="835" cy="173" r="3.29" fill="#DAD3CD" opacity="0.84"/>
<circle cx="387" cy="449" r="1.60" fill="#DAD3CD" opacity="0.38"/>
<circle cx="504" cy="1139" r="3.27" fill="#DAD3CD" opacity="0.45"/>
<circle cx="800" cy="1035" r="2.42" fill="#DAD3CD" opacity="0.60"/>
<circle cx="605" cy="1032" r="2.01" fill="#DAD3CD" opacity="0.40"/>
<circle cx="478" cy="680" r="3.12" fill="#DAD3CD" opacity="0.57"/>
<circle cx="943" cy="593" r="2.76" fill="#DAD3CD" opacity="0.52"/>
<circle cx="540" cy="412" r="1.86" fill="#DAD3CD" opacity="0.57"/>
<circle cx="1115" cy="1121" r="2.82" fill="#DAD3CD" opacity="0.48"/>
<circle cx="889" cy="677" r="2.33" fill="#DAD3CD" opacity="0.41"/>
<circle cx="973" cy="888" r="1.69" fill="#DAD3CD" opacity="0.31"/>
<circle cx="356" cy="1009" r="2.51" fill="#DAD3CD" opacity="0.62"/>
<circle cx="959" cy="184" r="2.93" fill="#DAD3CD" opacity="0.67"/>
<circle cx="932" cy="436" r="2.71" fill="#DAD3CD" opacity="0.84"/>
<circle cx="497" cy="681" r="3.09" fill="#DAD3CD" opacity="0.42"/>
<circle cx="298" cy="653" r="1.51" fill="#DAD3CD" opacity="0.39"/>
<circle cx="90" cy="989" r="1.23" fill="#DAD3CD" opacity="0.66"/>
<circle cx="965" cy="1192" r="2.48" fill="#DAD3CD" opacity="0.72"/>
<circle cx="316" cy="382" r="2.06" fill="#DAD3CD" opacity="0.49"/>
<circle cx="751" cy="820" r="2.21" fill="#DAD3CD" opacity="0.70"/>
<circle cx="516" cy="941" r="2.54" fill="#DAD3CD" opacity="0.71"/>
<circle cx="835" cy="667" r="2.11" fill="#DAD3CD" opacity="0.64"/>
<circle cx="383" cy="934" r="1.78" fill="#DAD3CD" opacity="0.57"/>
<circle cx="1057" cy="556" r="2.84" fill="#DAD3CD" opacity="0.55"/>
<circle cx="729" cy="575" r="1.52" fill="#DAD3CD" opacity="0.83"/>
<circle cx="522" cy="609" r="2.55" fill="#DAD3CD" opacity="0.53"/>
<circle cx="941" cy="624" r="1.64" fill="#DAD3CD" opacity="0.51"/>
<circle cx="1033" cy="780" r="1.48" fill="#DAD3CD" opacity="0.62"/>
<circle cx="624" cy="467" r="1.58" fill="#DAD3CD" opacity="0.35"/>
<circle cx="250" cy="312" r="3.40" fill="#DAD3CD" opacity="0.73"/>
<circle cx="1010" cy="1138" r="2.28" fill="#DAD3CD" opacity="0.61"/>
<circle cx="606" cy="280" r="1.83" fill="#DAD3CD" opacity="0.59"/>
<circle cx="910" cy="876" r="2.29" fill="#DAD3CD" opacity="0.60"/>
<circle cx="408" cy="410" r="1.44" fill="#DAD3CD" opacity="0.32"/>
<circle cx="143" cy="410" r="3.11" fill="#DAD3CD" opacity="0.66"/>
<circle cx="772" cy="788" r="1.67" fill="#DAD3CD" opacity="0.50"/>
<circle cx="1044" cy="1162" r="3.02" fill="#DAD3CD" opacity="0.76"/>
<circle cx="188" cy="535" r="1.72" fill="#DAD3CD" opacity="0.63"/>
<circle cx="107" cy="956" r="2.89" fill="#DAD3CD" opacity="0.50"/>
<circle cx="1066" cy="856" r="3.38" fill="#DAD3CD" opacity="0.66"/>
<circle cx="432" cy="870" r="3.19" fill="#DAD3CD" opacity="0.63"/>
<circle cx="309" cy="1259" r="1.42" fill="#DAD3CD" opacity="0.75"/>
<circle cx="182" cy="795" r="3.23" fill="#DAD3CD" opacity="0.37"/>
<circle cx="216" cy="455" r="3.03" fill="#DAD3CD" opacity="0.32"/>
<circle cx="984" cy="353" r="2.93" fill="#DAD3CD" opacity="0.65"/>
  
    <text x="600" y="1380" font-family="Georgia, 'Times New Roman', serif" font-size="22"
          fill="#E8E2D3" text-anchor="middle"
          letter-spacing="6" opacity="0.85">STONE</text>
    <text x="600" y="1420" font-family="Georgia, 'Times New Roman', serif" font-size="11"
          fill="#E8E2D3" text-anchor="middle"
          letter-spacing="3" opacity="0.55">FTC · FULL TIME CHRISTIAN</text>
    
</svg>
