<?xml version="1.0" encoding="UTF-8"?>
<svg xmlns="http://www.w3.org/2000/svg" viewBox="0 0 1200 1500" width="1200" height="1500">
  <defs>
    
    <filter id="grain-1696672619" x="0" y="0" width="100%" height="100%">
      <feTurbulence type="fractalNoise" baseFrequency="0.9" numOctaves="2" seed="1696672619"/>
      <feColorMatrix values="0 0 0 0 0  0 0 0 0 0  0 0 0 0 0  0 0 0 0.04 0"/>
    </filter>
    <rect x="0" y="0" width="1200" height="1500" filter="url(#grain-1696672619)"/>
    
  </defs>
  <rect x="0" y="0" width="1200" height="1500" fill="#333436"/>
  <circle cx="576" cy="747" r="2.69" fill="#C4D2BA" opacity="0.51"/>
<circle cx="531" cy="450" r="2.38" fill="#C4D2BA" opacity="0.68"/>
<circle cx="867" cy="469" r="1.28" fill="#C4D2BA" opacity="0.79"/>
<circle cx="385" cy="499" r="2.05" fill="#C4D2BA" opacity="0.42"/>
<circle cx="1090" cy="1116" r="2.70" fill="#C4D2BA" opacity="0.66"/>
<circle cx="447" cy="1086" r="2.89" fill="#C4D2BA" opacity="0.73"/>
<circle cx="973" cy="1288" r="1.98" fill="#C4D2BA" opacity="0.34"/>
<circle cx="541" cy="646" r="2.70" fill="#C4D2BA" opacity="0.54"/>
<circle cx="537" cy="1243" r="1.63" fill="#C4D2BA" opacity="0.43"/>
<circle cx="212" cy="323" r="2.03" fill="#C4D2BA" opacity="0.78"/>
<circle cx="927" cy="1243" r="2.20" fill="#C4D2BA" opacity="0.68"/>
<circle cx="566" cy="1164" r="1.69" fill="#C4D2BA" opacity="0.80"/>
<circle cx="794" cy="931" r="1.33" fill="#C4D2BA" opacity="0.72"/>
<circle cx="682" cy="237" r="3.40" fill="#C4D2BA" opacity="0.74"/>
<circle cx="145" cy="813" r="2.47" fill="#C4D2BA" opacity="0.36"/>
<circle cx="707" cy="791" r="3.24" fill="#C4D2BA" opacity="0.30"/>
<circle cx="100" cy="200" r="1.87" fill="#C4D2BA" opacity="0.78"/>
<circle cx="203" cy="411" r="2.50" fill="#C4D2BA" opacity="0.71"/>
<circle cx="1080" cy="883" r="2.45" fill="#C4D2BA" opacity="0.36"/>
<circle cx="1119" cy="155" r="2.52" fill="#C4D2BA" opacity="0.82"/>
<circle cx="756" cy="697" r="3.14" fill="#C4D2BA" opacity="0.73"/>
<circle cx="338" cy="1226" r="3.23" fill="#C4D2BA" opacity="0.45"/>
<circle cx="723" cy="1013" r="3.32" fill="#C4D2BA" opacity="0.50"/>
<circle cx="597" cy="909" r="2.28" fill="#C4D2BA" opacity="0.41"/>
<circle cx="395" cy="739" r="1.23" fill="#C4D2BA" opacity="0.61"/>
<circle cx="858" cy="741" r="1.30" fill="#C4D2BA" opacity="0.63"/>
<circle cx="213" cy="172" r="2.17" fill="#C4D2BA" opacity="0.76"/>
<circle cx="369" cy="1290" r="3.26" fill="#C4D2BA" opacity="0.31"/>
<circle cx="177" cy="1191" r="2.14" fill="#C4D2BA" opacity="0.77"/>
<circle cx="713" cy="741" r="1.47" fill="#C4D2BA" opacity="0.52"/>
<circle cx="315" cy="905" r="2.02" fill="#C4D2BA" opacity="0.69"/>
<circle cx="1059" cy="268" r="1.36" fill="#C4D2BA" opacity="0.38"/>
<circle cx="395" cy="276" r="3.05" fill="#C4D2BA" opacity="0.82"/>
<circle cx="436" cy="173" r="3.05" fill="#C4D2BA" opacity="0.38"/>
<circle cx="151" cy="1083" r="1.76" fill="#C4D2BA" opacity="0.66"/>
<circle cx="774" cy="640" r="1.84" fill="#C4D2BA" opacity="0.46"/>
<circle cx="838" cy="1150" r="2.16" fill="#C4D2BA" opacity="0.58"/>
<circle cx="763" cy="881" r="2.17" fill="#C4D2BA" opacity="0.61"/>
<circle cx="350" cy="973" r="1.48" fill="#C4D2BA" opacity="0.65"/>
<circle cx="800" cy="341" r="1.91" fill="#C4D2BA" opacity="0.33"/>
<circle cx="387" cy="1150" r="2.28" fill="#C4D2BA" opacity="0.45"/>
<circle cx="768" cy="938" r="2.46" fill="#C4D2BA" opacity="0.55"/>
<circle cx="757" cy="374" r="2.43" fill="#C4D2BA" opacity="0.60"/>
<circle cx="646" cy="266" r="2.00" fill="#C4D2BA" opacity="0.43"/>
<circle cx="839" cy="484" r="3.00" fill="#C4D2BA" opacity="0.67"/>
<circle cx="497" cy="894" r="2.78" fill="#C4D2BA" opacity="0.53"/>
<circle cx="843" cy="485" r="2.74" fill="#C4D2BA" opacity="0.50"/>
<circle cx="963" cy="374" r="1.94" fill="#C4D2BA" opacity="0.69"/>
<circle cx="664" cy="1107" r="3.14" fill="#C4D2BA" opacity="0.52"/>
<circle cx="187" cy="800" r="3.00" fill="#C4D2BA" opacity="0.82"/>
<circle cx="718" cy="279" r="3.15" fill="#C4D2BA" opacity="0.76"/>
<circle cx="360" cy="1106" r="2.95" fill="#C4D2BA" opacity="0.57"/>
<circle cx="304" cy="1075" r="2.86" fill="#C4D2BA" opacity="0.63"/>
<circle cx="747" cy="1255" r="3.15" fill="#C4D2BA" opacity="0.36"/>
<circle cx="292" cy="400" r="2.05" fill="#C4D2BA" opacity="0.66"/>
<circle cx="599" cy="1118" r="1.47" fill="#C4D2BA" opacity="0.69"/>
<circle cx="524" cy="1204" r="2.32" fill="#C4D2BA" opacity="0.59"/>
<circle cx="96" cy="1125" r="2.51" fill="#C4D2BA" opacity="0.80"/>
<circle cx="355" cy="416" r="3.23" fill="#C4D2BA" opacity="0.79"/>
<circle cx="356" cy="876" r="1.96" fill="#C4D2BA" opacity="0.57"/>
<circle cx="1024" cy="396" r="1.64" fill="#C4D2BA" opacity="0.66"/>
<circle cx="748" cy="377" r="2.24" fill="#C4D2BA" opacity="0.75"/>
<circle cx="330" cy="1003" r="2.80" fill="#C4D2BA" opacity="0.30"/>
<circle cx="840" cy="1001" r="2.07" fill="#C4D2BA" opacity="0.77"/>
<circle cx="189" cy="781" r="1.93" fill="#C4D2BA" opacity="0.67"/>
<circle cx="890" cy="1017" r="3.22" fill="#C4D2BA" opacity="0.62"/>
<circle cx="688" cy="1293" r="1.21" fill="#C4D2BA" opacity="0.41"/>
<circle cx="900" cy="280" r="2.61" fill="#C4D2BA" opacity="0.34"/>
<circle cx="297" cy="193" r="1.26" fill="#C4D2BA" opacity="0.46"/>
<circle cx="533" cy="259" r="2.22" fill="#C4D2BA" opacity="0.71"/>
<circle cx="251" cy="729" r="2.70" fill="#C4D2BA" opacity="0.61"/>
<circle cx="731" cy="1150" r="2.46" fill="#C4D2BA" opacity="0.57"/>
<circle cx="84" cy="944" r="1.77" fill="#C4D2BA" opacity="0.63"/>
<circle cx="498" cy="265" r="2.25" fill="#C4D2BA" opacity="0.59"/>
<circle cx="688" cy="441" r="2.38" fill="#C4D2BA" opacity="0.44"/>
<circle cx="425" cy="402" r="2.66" fill="#C4D2BA" opacity="0.70"/>
<circle cx="865" cy="1183" r="3.37" fill="#C4D2BA" opacity="0.72"/>
<circle cx="735" cy="1171" r="2.03" fill="#C4D2BA" opacity="0.59"/>
<circle cx="467" cy="124" r="2.64" fill="#C4D2BA" opacity="0.83"/>
<circle cx="283" cy="1245" r="2.01" fill="#C4D2BA" opacity="0.40"/>
<circle cx="579" cy="284" r="2.17" fill="#C4D2BA" opacity="0.63"/>
<circle cx="864" cy="936" r="2.21" fill="#C4D2BA" opacity="0.84"/>
<circle cx="518" cy="1016" r="2.80" fill="#C4D2BA" opacity="0.58"/>
<circle cx="710" cy="743" r="2.78" fill="#C4D2BA" opacity="0.49"/>
<circle cx="787" cy="160" r="2.24" fill="#C4D2BA" opacity="0.51"/>
<circle cx="698" cy="1260" r="1.55" fill="#C4D2BA" opacity="0.58"/>
<circle cx="637" cy="454" r="3.10" fill="#C4D2BA" opacity="0.67"/>
<circle cx="663" cy="159" r="2.30" fill="#C4D2BA" opacity="0.49"/>
<circle cx="426" cy="455" r="1.39" fill="#C4D2BA" opacity="0.49"/>
<circle cx="399" cy="345" r="1.28" fill="#C4D2BA" opacity="0.32"/>
<circle cx="509" cy="1096" r="3.22" fill="#C4D2BA" opacity="0.68"/>
<circle cx="451" cy="365" r="2.36" fill="#C4D2BA" opacity="0.57"/>
<circle cx="148" cy="1027" r="2.19" fill="#C4D2BA" opacity="0.50"/>
<circle cx="575" cy="454" r="2.07" fill="#C4D2BA" opacity="0.83"/>
<circle cx="240" cy="1077" r="3.03" fill="#C4D2BA" opacity="0.83"/>
<circle cx="668" cy="1103" r="3.08" fill="#C4D2BA" opacity="0.58"/>
<circle cx="889" cy="183" r="2.41" fill="#C4D2BA" opacity="0.73"/>
<circle cx="1097" cy="717" r="2.88" fill="#C4D2BA" opacity="0.44"/>
<circle cx="548" cy="1204" r="3.12" fill="#C4D2BA" opacity="0.45"/>
<circle cx="718" cy="693" r="2.46" fill="#C4D2BA" opacity="0.30"/>
<circle cx="885" cy="351" r="1.24" fill="#C4D2BA" opacity="0.40"/>
<circle cx="148" cy="1001" r="3.17" fill="#C4D2BA" opacity="0.34"/>
<circle cx="571" cy="922" r="2.55" fill="#C4D2BA" opacity="0.42"/>
<circle cx="911" cy="794" r="3.39" fill="#C4D2BA" opacity="0.50"/>
<circle cx="1098" cy="881" r="2.69" fill="#C4D2BA" opacity="0.50"/>
<circle cx="115" cy="733" r="2.34" fill="#C4D2BA" opacity="0.76"/>
<circle cx="850" cy="231" r="2.84" fill="#C4D2BA" opacity="0.44"/>
<circle cx="876" cy="1080" r="3.21" fill="#C4D2BA" opacity="0.83"/>
<circle cx="1000" cy="677" r="3.27" fill="#C4D2BA" opacity="0.47"/>
<circle cx="916" cy="1225" r="1.38" fill="#C4D2BA" opacity="0.76"/>
<circle cx="600" cy="741" r="2.14" fill="#C4D2BA" opacity="0.46"/>
<circle cx="899" cy="335" r="2.68" fill="#C4D2BA" opacity="0.83"/>
<circle cx="802" cy="1172" r="2.32" fill="#C4D2BA" opacity="0.70"/>
<circle cx="741" cy="884" r="2.62" fill="#C4D2BA" opacity="0.56"/>
<circle cx="192" cy="503" r="2.79" fill="#C4D2BA" opacity="0.40"/>
<circle cx="704" cy="1012" r="1.69" fill="#C4D2BA" opacity="0.77"/>
<circle cx="95" cy="1103" r="2.15" fill="#C4D2BA" opacity="0.63"/>
<circle cx="964" cy="643" r="3.30" fill="#C4D2BA" opacity="0.53"/>
<circle cx="362" cy="836" r="3.19" fill="#C4D2BA" opacity="0.62"/>
<circle cx="795" cy="465" r="2.93" fill="#C4D2BA" opacity="0.49"/>
<circle cx="574" cy="811" r="1.62" fill="#C4D2BA" opacity="0.60"/>
<circle cx="1056" cy="402" r="3.30" fill="#C4D2BA" opacity="0.35"/>
<circle cx="221" cy="1093" r="3.08" fill="#C4D2BA" opacity="0.58"/>
<circle cx="391" cy="162" r="1.99" fill="#C4D2BA" opacity="0.53"/>
<circle cx="799" cy="1275" r="1.83" fill="#C4D2BA" opacity="0.82"/>
<circle cx="1066" cy="374" r="1.94" fill="#C4D2BA" opacity="0.53"/>
<circle cx="431" cy="675" r="2.40" fill="#C4D2BA" opacity="0.76"/>
<circle cx="142" cy="450" r="2.46" fill="#C4D2BA" opacity="0.76"/>
<circle cx="958" cy="356" r="2.53" fill="#C4D2BA" opacity="0.38"/>
<circle cx="492" cy="747" r="1.41" fill="#C4D2BA" opacity="0.36"/>
<circle cx="690" cy="1278" r="3.37" fill="#C4D2BA" opacity="0.43"/>
<circle cx="292" cy="1153" r="1.98" fill="#C4D2BA" opacity="0.57"/>
<circle cx="379" cy="1007" r="2.70" fill="#C4D2BA" opacity="0.69"/>
<circle cx="630" cy="717" r="1.47" fill="#C4D2BA" opacity="0.59"/>
<circle cx="970" cy="831" r="2.56" fill="#C4D2BA" opacity="0.40"/>
<circle cx="960" cy="935" r="3.23" fill="#C4D2BA" opacity="0.31"/>
<circle cx="1096" cy="425" r="2.37" fill="#C4D2BA" opacity="0.37"/>
<circle cx="991" cy="1256" r="1.81" fill="#C4D2BA" opacity="0.74"/>
<circle cx="1052" cy="975" r="2.38" fill="#C4D2BA" opacity="0.38"/>
<circle cx="423" cy="606" r="1.67" fill="#C4D2BA" opacity="0.60"/>
<circle cx="363" cy="243" r="2.23" fill="#C4D2BA" opacity="0.78"/>
<circle cx="974" cy="434" r="1.96" fill="#C4D2BA" opacity="0.71"/>
<circle cx="461" cy="680" r="1.40" fill="#C4D2BA" opacity="0.44"/>
<circle cx="387" cy="206" r="2.43" fill="#C4D2BA" opacity="0.61"/>
<circle cx="1038" cy="338" r="3.04" fill="#C4D2BA" opacity="0.62"/>
<circle cx="140" cy="502" r="3.35" fill="#C4D2BA" opacity="0.72"/>
<circle cx="831" cy="914" r="2.47" fill="#C4D2BA" opacity="0.51"/>
<circle cx="551" cy="965" r="2.56" fill="#C4D2BA" opacity="0.79"/>
<circle cx="348" cy="587" r="1.57" fill="#C4D2BA" opacity="0.35"/>
<circle cx="911" cy="1299" r="2.70" fill="#C4D2BA" opacity="0.83"/>
<circle cx="857" cy="504" r="3.24" fill="#C4D2BA" opacity="0.81"/>
<circle cx="606" cy="1078" r="2.36" fill="#C4D2BA" opacity="0.54"/>
<circle cx="857" cy="713" r="2.63" fill="#C4D2BA" opacity="0.54"/>
<circle cx="644" cy="384" r="1.42" fill="#C4D2BA" opacity="0.78"/>
<circle cx="1029" cy="1222" r="1.47" fill="#C4D2BA" opacity="0.53"/>
<circle cx="126" cy="342" r="3.03" fill="#C4D2BA" opacity="0.65"/>
<circle cx="847" cy="1073" r="2.82" fill="#C4D2BA" opacity="0.45"/>
<circle cx="636" cy="964" r="1.50" fill="#C4D2BA" opacity="0.34"/>
<circle cx="549" cy="261" r="1.61" fill="#C4D2BA" opacity="0.46"/>
<circle cx="163" cy="773" r="2.15" fill="#C4D2BA" opacity="0.41"/>
<circle cx="667" cy="903" r="1.72" fill="#C4D2BA" opacity="0.43"/>
<circle cx="727" cy="950" r="3.31" fill="#C4D2BA" opacity="0.57"/>
<circle cx="800" cy="598" r="3.09" fill="#C4D2BA" opacity="0.66"/>
<circle cx="876" cy="559" r="2.97" fill="#C4D2BA" opacity="0.32"/>
<circle cx="384" cy="905" r="1.60" fill="#C4D2BA" opacity="0.57"/>
<circle cx="491" cy="306" r="2.29" fill="#C4D2BA" opacity="0.40"/>
<circle cx="656" cy="1221" r="2.79" fill="#C4D2BA" opacity="0.31"/>
<circle cx="330" cy="483" r="2.66" fill="#C4D2BA" opacity="0.59"/>
<circle cx="147" cy="541" r="3.17" fill="#C4D2BA" opacity="0.39"/>
<circle cx="1044" cy="1082" r="1.66" fill="#C4D2BA" opacity="0.40"/>
<circle cx="494" cy="1002" r="2.91" fill="#C4D2BA" opacity="0.40"/>
<circle cx="296" cy="159" r="1.93" fill="#C4D2BA" opacity="0.70"/>
<circle cx="1093" cy="1152" r="1.44" fill="#C4D2BA" opacity="0.43"/>
<circle cx="117" cy="1032" r="2.61" fill="#C4D2BA" opacity="0.64"/>
<circle cx="767" cy="764" r="3.22" fill="#C4D2BA" opacity="0.30"/>
<circle cx="733" cy="149" r="1.66" fill="#C4D2BA" opacity="0.63"/>
<circle cx="554" cy="1031" r="1.20" fill="#C4D2BA" opacity="0.40"/>
<circle cx="580" cy="525" r="1.76" fill="#C4D2BA" opacity="0.50"/>
<circle cx="546" cy="1126" r="1.62" fill="#C4D2BA" opacity="0.80"/>
<circle cx="149" cy="514" r="2.60" fill="#C4D2BA" opacity="0.64"/>
  
    <text x="600" y="1380" font-family="Georgia, 'Times New Roman', serif" font-size="22"
          fill="#E8E2D3" text-anchor="middle"
          letter-spacing="6" opacity="0.85">MANNA</text>
    <text x="600" y="1420" font-family="Georgia, 'Times New Roman', serif" font-size="11"
          fill="#E8E2D3" text-anchor="middle"
          letter-spacing="3" opacity="0.55">FTC · FULL TIME CHRISTIAN</text>
    
</svg>
