<?xml version="1.0" encoding="UTF-8"?>
<svg xmlns="http://www.w3.org/2000/svg" viewBox="0 0 1200 1500" width="1200" height="1500">
  <defs>
    
    <filter id="grain-648329639" x="0" y="0" width="100%" height="100%">
      <feTurbulence type="fractalNoise" baseFrequency="0.9" numOctaves="2" seed="648329639"/>
      <feColorMatrix values="0 0 0 0 0  0 0 0 0 0  0 0 0 0 0  0 0 0 0.04 0"/>
    </filter>
    <rect x="0" y="0" width="1200" height="1500" filter="url(#grain-648329639)"/>
    
  </defs>
  <rect x="0" y="0" width="1200" height="1500" fill="#43483F"/>
  <rect x="120" y="290" width="76" height="76" fill="none" stroke="#D4CDC1" stroke-width="0.6" opacity="0.5"/>
<rect x="120" y="380" width="76" height="76" fill="none" stroke="#D4CDC1" stroke-width="0.6" opacity="0.5"/>
<rect x="120" y="470" width="76" height="76" fill="none" stroke="#D4CDC1" stroke-width="0.6" opacity="0.5"/>
<rect x="120" y="560" width="76" height="76" fill="none" stroke="#D4CDC1" stroke-width="0.6" opacity="0.5"/>
<rect x="120" y="650" width="76" height="76" fill="none" stroke="#D4CDC1" stroke-width="0.6" opacity="0.5"/>
<rect x="120" y="740" width="76" height="76" fill="none" stroke="#D4CDC1" stroke-width="0.6" opacity="0.5"/>
<rect x="120" y="830" width="76" height="76" fill="none" stroke="#D4CDC1" stroke-width="0.6" opacity="0.5"/>
<rect x="120" y="1010" width="76" height="76" fill="none" stroke="#D4CDC1" stroke-width="0.6" opacity="0.5"/>
<rect x="120" y="1100" width="76" height="76" fill="none" stroke="#D4CDC1" stroke-width="0.6" opacity="0.5"/>
<rect x="120" y="1190" width="76" height="76" fill="none" stroke="#D4CDC1" stroke-width="0.6" opacity="0.5"/>
<rect x="120" y="1280" width="76" height="76" fill="none" stroke="#D4CDC1" stroke-width="0.6" opacity="0.5"/>
<rect x="210" y="290" width="76" height="76" fill="none" stroke="#D4CDC1" stroke-width="0.6" opacity="0.5"/>
<rect x="210" y="470" width="76" height="76" fill="none" stroke="#D4CDC1" stroke-width="0.6" opacity="0.5"/>
<rect x="210" y="560" width="76" height="76" fill="none" stroke="#D4CDC1" stroke-width="0.6" opacity="0.5"/>
<rect x="210" y="830" width="76" height="76" fill="none" stroke="#D4CDC1" stroke-width="0.6" opacity="0.5"/>
<rect x="210" y="920" width="76" height="76" fill="none" stroke="#D4CDC1" stroke-width="0.6" opacity="0.5"/>
<rect x="210" y="1100" width="76" height="76" fill="none" stroke="#D4CDC1" stroke-width="0.6" opacity="0.5"/>
<rect x="210" y="1190" width="76" height="76" fill="none" stroke="#D4CDC1" stroke-width="0.6" opacity="0.5"/>
<rect x="210" y="1280" width="76" height="76" fill="none" stroke="#D4CDC1" stroke-width="0.6" opacity="0.5"/>
<rect x="300" y="200" width="76" height="76" fill="none" stroke="#D4CDC1" stroke-width="0.6" opacity="0.5"/>
<rect x="300" y="380" width="76" height="76" fill="none" stroke="#D4CDC1" stroke-width="0.6" opacity="0.5"/>
<rect x="300" y="470" width="76" height="76" fill="none" stroke="#D4CDC1" stroke-width="0.6" opacity="0.5"/>
<rect x="300" y="560" width="76" height="76" fill="none" stroke="#D4CDC1" stroke-width="0.6" opacity="0.5"/>
<rect x="300" y="650" width="76" height="76" fill="none" stroke="#D4CDC1" stroke-width="0.6" opacity="0.5"/>
<rect x="300" y="740" width="76" height="76" fill="none" stroke="#D4CDC1" stroke-width="0.6" opacity="0.5"/>
<rect x="300" y="830" width="76" height="76" fill="none" stroke="#D4CDC1" stroke-width="0.6" opacity="0.5"/>
<rect x="300" y="920" width="76" height="76" fill="none" stroke="#D4CDC1" stroke-width="0.6" opacity="0.5"/>
<rect x="300" y="1010" width="76" height="76" fill="none" stroke="#D4CDC1" stroke-width="0.6" opacity="0.5"/>
<rect x="300" y="1100" width="76" height="76" fill="none" stroke="#D4CDC1" stroke-width="0.6" opacity="0.5"/>
<rect x="300" y="1190" width="76" height="76" fill="none" stroke="#D4CDC1" stroke-width="0.6" opacity="0.5"/>
<rect x="300" y="1280" width="76" height="76" fill="none" stroke="#D4CDC1" stroke-width="0.6" opacity="0.5"/>
<rect x="390" y="200" width="76" height="76" fill="none" stroke="#D4CDC1" stroke-width="0.6" opacity="0.5"/>
<rect x="390" y="290" width="76" height="76" fill="none" stroke="#D4CDC1" stroke-width="0.6" opacity="0.5"/>
<rect x="390" y="380" width="76" height="76" fill="none" stroke="#D4CDC1" stroke-width="0.6" opacity="0.5"/>
<rect x="390" y="470" width="76" height="76" fill="none" stroke="#D4CDC1" stroke-width="0.6" opacity="0.5"/>
<rect x="390" y="650" width="76" height="76" fill="none" stroke="#D4CDC1" stroke-width="0.6" opacity="0.5"/>
<rect x="390" y="740" width="76" height="76" fill="none" stroke="#D4CDC1" stroke-width="0.6" opacity="0.5"/>
<rect x="390" y="830" width="76" height="76" fill="none" stroke="#D4CDC1" stroke-width="0.6" opacity="0.5"/>
<rect x="390" y="920" width="76" height="76" fill="none" stroke="#D4CDC1" stroke-width="0.6" opacity="0.5"/>
<rect x="390" y="1010" width="76" height="76" fill="none" stroke="#D4CDC1" stroke-width="0.6" opacity="0.5"/>
<rect x="390" y="1190" width="76" height="76" fill="none" stroke="#D4CDC1" stroke-width="0.6" opacity="0.5"/>
<rect x="390" y="1280" width="76" height="76" fill="none" stroke="#D4CDC1" stroke-width="0.6" opacity="0.5"/>
<rect x="480" y="200" width="76" height="76" fill="none" stroke="#D4CDC1" stroke-width="0.6" opacity="0.5"/>
<rect x="480" y="290" width="76" height="76" fill="none" stroke="#D4CDC1" stroke-width="0.6" opacity="0.5"/>
<rect x="480" y="380" width="76" height="76" fill="none" stroke="#D4CDC1" stroke-width="0.6" opacity="0.5"/>
<rect x="480" y="470" width="76" height="76" fill="none" stroke="#D4CDC1" stroke-width="0.6" opacity="0.5"/>
<rect x="480" y="560" width="76" height="76" fill="none" stroke="#D4CDC1" stroke-width="0.6" opacity="0.5"/>
<rect x="480" y="650" width="76" height="76" fill="none" stroke="#D4CDC1" stroke-width="0.6" opacity="0.5"/>
<rect x="480" y="740" width="76" height="76" fill="none" stroke="#D4CDC1" stroke-width="0.6" opacity="0.5"/>
<rect x="480" y="830" width="76" height="76" fill="none" stroke="#D4CDC1" stroke-width="0.6" opacity="0.5"/>
<rect x="480" y="920" width="76" height="76" fill="none" stroke="#D4CDC1" stroke-width="0.6" opacity="0.5"/>
<rect x="480" y="1010" width="76" height="76" fill="none" stroke="#D4CDC1" stroke-width="0.6" opacity="0.5"/>
<rect x="480" y="1100" width="76" height="76" fill="none" stroke="#D4CDC1" stroke-width="0.6" opacity="0.5"/>
<rect x="480" y="1190" width="76" height="76" fill="none" stroke="#D4CDC1" stroke-width="0.6" opacity="0.5"/>
<rect x="480" y="1280" width="76" height="76" fill="none" stroke="#D4CDC1" stroke-width="0.6" opacity="0.5"/>
<rect x="570" y="200" width="76" height="76" fill="none" stroke="#D4CDC1" stroke-width="0.6" opacity="0.5"/>
<rect x="570" y="380" width="76" height="76" fill="none" stroke="#D4CDC1" stroke-width="0.6" opacity="0.5"/>
<rect x="570" y="470" width="76" height="76" fill="none" stroke="#D4CDC1" stroke-width="0.6" opacity="0.5"/>
<rect x="570" y="560" width="76" height="76" fill="none" stroke="#D4CDC1" stroke-width="0.6" opacity="0.5"/>
<rect x="570" y="650" width="76" height="76" fill="none" stroke="#D4CDC1" stroke-width="0.6" opacity="0.5"/>
<rect x="570" y="740" width="76" height="76" fill="none" stroke="#D4CDC1" stroke-width="0.6" opacity="0.5"/>
<rect x="570" y="830" width="76" height="76" fill="none" stroke="#D4CDC1" stroke-width="0.6" opacity="0.5"/>
<rect x="570" y="920" width="76" height="76" fill="none" stroke="#D4CDC1" stroke-width="0.6" opacity="0.5"/>
<rect x="570" y="1010" width="76" height="76" fill="none" stroke="#D4CDC1" stroke-width="0.6" opacity="0.5"/>
<rect x="570" y="1100" width="76" height="76" fill="none" stroke="#D4CDC1" stroke-width="0.6" opacity="0.5"/>
<rect x="570" y="1190" width="76" height="76" fill="none" stroke="#D4CDC1" stroke-width="0.6" opacity="0.5"/>
<rect x="570" y="1280" width="76" height="76" fill="none" stroke="#D4CDC1" stroke-width="0.6" opacity="0.5"/>
<rect x="660" y="290" width="76" height="76" fill="none" stroke="#D4CDC1" stroke-width="0.6" opacity="0.5"/>
<rect x="660" y="380" width="76" height="76" fill="none" stroke="#D4CDC1" stroke-width="0.6" opacity="0.5"/>
<rect x="660" y="560" width="76" height="76" fill="none" stroke="#D4CDC1" stroke-width="0.6" opacity="0.5"/>
<rect x="660" y="740" width="76" height="76" fill="none" stroke="#D4CDC1" stroke-width="0.6" opacity="0.5"/>
<rect x="660" y="830" width="76" height="76" fill="none" stroke="#D4CDC1" stroke-width="0.6" opacity="0.5"/>
<rect x="660" y="1010" width="76" height="76" fill="none" stroke="#D4CDC1" stroke-width="0.6" opacity="0.5"/>
<rect x="660" y="1100" width="76" height="76" fill="none" stroke="#D4CDC1" stroke-width="0.6" opacity="0.5"/>
<rect x="660" y="1190" width="76" height="76" fill="none" stroke="#D4CDC1" stroke-width="0.6" opacity="0.5"/>
<rect x="660" y="1280" width="76" height="76" fill="none" stroke="#D4CDC1" stroke-width="0.6" opacity="0.5"/>
<rect x="750" y="200" width="76" height="76" fill="none" stroke="#D4CDC1" stroke-width="0.6" opacity="0.5"/>
<rect x="750" y="290" width="76" height="76" fill="none" stroke="#D4CDC1" stroke-width="0.6" opacity="0.5"/>
<rect x="750" y="380" width="76" height="76" fill="none" stroke="#D4CDC1" stroke-width="0.6" opacity="0.5"/>
<rect x="750" y="470" width="76" height="76" fill="none" stroke="#D4CDC1" stroke-width="0.6" opacity="0.5"/>
<rect x="750" y="560" width="76" height="76" fill="none" stroke="#D4CDC1" stroke-width="0.6" opacity="0.5"/>
<rect x="750" y="740" width="76" height="76" fill="none" stroke="#D4CDC1" stroke-width="0.6" opacity="0.5"/>
<rect x="750" y="830" width="76" height="76" fill="none" stroke="#D4CDC1" stroke-width="0.6" opacity="0.5"/>
<rect x="750" y="1010" width="76" height="76" fill="none" stroke="#D4CDC1" stroke-width="0.6" opacity="0.5"/>
<rect x="750" y="1190" width="76" height="76" fill="none" stroke="#D4CDC1" stroke-width="0.6" opacity="0.5"/>
<rect x="750" y="1280" width="76" height="76" fill="none" stroke="#D4CDC1" stroke-width="0.6" opacity="0.5"/>
<rect x="840" y="200" width="76" height="76" fill="none" stroke="#D4CDC1" stroke-width="0.6" opacity="0.5"/>
<rect x="840" y="380" width="76" height="76" fill="none" stroke="#D4CDC1" stroke-width="0.6" opacity="0.5"/>
<rect x="840" y="560" width="76" height="76" fill="none" stroke="#D4CDC1" stroke-width="0.6" opacity="0.5"/>
<rect x="840" y="650" width="76" height="76" fill="none" stroke="#D4CDC1" stroke-width="0.6" opacity="0.5"/>
<rect x="840" y="740" width="76" height="76" fill="none" stroke="#D4CDC1" stroke-width="0.6" opacity="0.5"/>
<rect x="840" y="830" width="76" height="76" fill="none" stroke="#D4CDC1" stroke-width="0.6" opacity="0.5"/>
<rect x="840" y="920" width="76" height="76" fill="none" stroke="#D4CDC1" stroke-width="0.6" opacity="0.5"/>
<rect x="840" y="1010" width="76" height="76" fill="none" stroke="#D4CDC1" stroke-width="0.6" opacity="0.5"/>
<rect x="840" y="1100" width="76" height="76" fill="none" stroke="#D4CDC1" stroke-width="0.6" opacity="0.5"/>
<rect x="840" y="1280" width="76" height="76" fill="none" stroke="#D4CDC1" stroke-width="0.6" opacity="0.5"/>
<rect x="930" y="200" width="76" height="76" fill="none" stroke="#D4CDC1" stroke-width="0.6" opacity="0.5"/>
<rect x="930" y="290" width="76" height="76" fill="none" stroke="#D4CDC1" stroke-width="0.6" opacity="0.5"/>
<rect x="930" y="380" width="76" height="76" fill="none" stroke="#D4CDC1" stroke-width="0.6" opacity="0.5"/>
<rect x="930" y="470" width="76" height="76" fill="none" stroke="#D4CDC1" stroke-width="0.6" opacity="0.5"/>
<rect x="930" y="560" width="76" height="76" fill="none" stroke="#D4CDC1" stroke-width="0.6" opacity="0.5"/>
<rect x="930" y="740" width="76" height="76" fill="none" stroke="#D4CDC1" stroke-width="0.6" opacity="0.5"/>
<rect x="930" y="830" width="76" height="76" fill="none" stroke="#D4CDC1" stroke-width="0.6" opacity="0.5"/>
<rect x="930" y="920" width="76" height="76" fill="none" stroke="#D4CDC1" stroke-width="0.6" opacity="0.5"/>
<rect x="930" y="1010" width="76" height="76" fill="none" stroke="#D4CDC1" stroke-width="0.6" opacity="0.5"/>
<rect x="930" y="1190" width="76" height="76" fill="none" stroke="#D4CDC1" stroke-width="0.6" opacity="0.5"/>
<rect x="930" y="1280" width="76" height="76" fill="none" stroke="#D4CDC1" stroke-width="0.6" opacity="0.5"/>
<rect x="1020" y="200" width="76" height="76" fill="none" stroke="#D4CDC1" stroke-width="0.6" opacity="0.5"/>
<rect x="1020" y="380" width="76" height="76" fill="none" stroke="#D4CDC1" stroke-width="0.6" opacity="0.5"/>
<rect x="1020" y="470" width="76" height="76" fill="none" stroke="#D4CDC1" stroke-width="0.6" opacity="0.5"/>
<rect x="1020" y="560" width="76" height="76" fill="none" stroke="#D4CDC1" stroke-width="0.6" opacity="0.5"/>
<rect x="1020" y="740" width="76" height="76" fill="none" stroke="#D4CDC1" stroke-width="0.6" opacity="0.5"/>
<rect x="1020" y="830" width="76" height="76" fill="none" stroke="#D4CDC1" stroke-width="0.6" opacity="0.5"/>
<rect x="1020" y="920" width="76" height="76" fill="none" stroke="#D4CDC1" stroke-width="0.6" opacity="0.5"/>
<rect x="1020" y="1010" width="76" height="76" fill="none" stroke="#D4CDC1" stroke-width="0.6" opacity="0.5"/>
<rect x="1020" y="1100" width="76" height="76" fill="none" stroke="#D4CDC1" stroke-width="0.6" opacity="0.5"/>
<rect x="1020" y="1190" width="76" height="76" fill="none" stroke="#D4CDC1" stroke-width="0.6" opacity="0.5"/>
<rect x="1020" y="1280" width="76" height="76" fill="none" stroke="#D4CDC1" stroke-width="0.6" opacity="0.5"/>
  
    <text x="600" y="1380" font-family="Georgia, 'Times New Roman', serif" font-size="22"
          fill="#E8E2D3" text-anchor="middle"
          letter-spacing="6" opacity="0.85">BROKEN GRID</text>
    <text x="600" y="1420" font-family="Georgia, 'Times New Roman', serif" font-size="11"
          fill="#E8E2D3" text-anchor="middle"
          letter-spacing="3" opacity="0.55">FTC · FULL TIME CHRISTIAN</text>
    
</svg>
