<?xml version="1.0" encoding="UTF-8"?>
<svg xmlns="http://www.w3.org/2000/svg" viewBox="0 0 1200 1500" width="1200" height="1500">
  <defs>
    
    <filter id="grain-727786356" x="0" y="0" width="100%" height="100%">
      <feTurbulence type="fractalNoise" baseFrequency="0.9" numOctaves="2" seed="727786356"/>
      <feColorMatrix values="0 0 0 0 0  0 0 0 0 0  0 0 0 0 0  0 0 0 0.04 0"/>
    </filter>
    <rect x="0" y="0" width="1200" height="1500" filter="url(#grain-727786356)"/>
    
  </defs>
  <rect x="0" y="0" width="1200" height="1500" fill="#3C4239"/>
  <rect x="0" y="0" width="90" height="1500" fill="#CDBEAB" opacity="0.101"/>
<rect x="90" y="0" width="90" height="1500" fill="#CDBEAB" opacity="0.052"/>
<rect x="180" y="0" width="90" height="1500" fill="#CDBEAB" opacity="0.182"/>
<rect x="270" y="0" width="90" height="1500" fill="#CDBEAB" opacity="0.067"/>
<rect x="360" y="0" width="90" height="1500" fill="#CDBEAB" opacity="0.149"/>
<rect x="450" y="0" width="90" height="1500" fill="#CDBEAB" opacity="0.058"/>
<rect x="540" y="0" width="90" height="1500" fill="#CDBEAB" opacity="0.167"/>
<rect x="630" y="0" width="90" height="1500" fill="#CDBEAB" opacity="0.071"/>
<rect x="720" y="0" width="90" height="1500" fill="#CDBEAB" opacity="0.067"/>
<rect x="810" y="0" width="90" height="1500" fill="#CDBEAB" opacity="0.129"/>
<rect x="900" y="0" width="90" height="1500" fill="#CDBEAB" opacity="0.092"/>
<rect x="990" y="0" width="90" height="1500" fill="#CDBEAB" opacity="0.131"/>
<rect x="1080" y="0" width="90" height="1500" fill="#CDBEAB" opacity="0.078"/>
<rect x="1170" y="0" width="90" height="1500" fill="#CDBEAB" opacity="0.045"/>
<rect x="1260" y="0" width="90" height="1500" fill="#CDBEAB" opacity="0.072"/>
  
    <text x="600" y="1380" font-family="Inter, Helvetica, sans-serif" font-size="22"
          fill="#E8E2D3" text-anchor="middle"
          letter-spacing="6" opacity="0.85">ANCHOR</text>
    <text x="600" y="1420" font-family="Inter, Helvetica, sans-serif" font-size="11"
          fill="#E8E2D3" text-anchor="middle"
          letter-spacing="3" opacity="0.55">FTC · FULL TIME CHRISTIAN</text>
    
</svg>
