<?xml version="1.0" encoding="UTF-8"?>
<svg xmlns="http://www.w3.org/2000/svg" viewBox="0 0 1200 1500" width="1200" height="1500">
  <defs>
    
    <filter id="grain-2008284225" x="0" y="0" width="100%" height="100%">
      <feTurbulence type="fractalNoise" baseFrequency="0.9" numOctaves="2" seed="2008284225"/>
      <feColorMatrix values="0 0 0 0 0  0 0 0 0 0  0 0 0 0 0  0 0 0 0.04 0"/>
    </filter>
    <rect x="0" y="0" width="1200" height="1500" filter="url(#grain-2008284225)"/>
    
  </defs>
  <rect x="0" y="0" width="1200" height="1500" fill="#302C27"/>
  <rect x="540" y="1280" width="120" height="2.5" fill="#E4DCD1" opacity="0.85"/>
<rect x="540" y="1228" width="120" height="2.5" fill="#E4DCD1" opacity="0.81"/>
<rect x="540" y="1176" width="120" height="2.5" fill="#E4DCD1" opacity="0.78"/>
<rect x="540" y="1124" width="120" height="2.5" fill="#E4DCD1" opacity="0.74"/>
<rect x="540" y="1072" width="120" height="2.5" fill="#E4DCD1" opacity="0.71"/>
<rect x="540" y="1020" width="120" height="2.5" fill="#E4DCD1" opacity="0.67"/>
<rect x="540" y="968" width="120" height="2.5" fill="#E4DCD1" opacity="0.64"/>
<rect x="540" y="916" width="120" height="2.5" fill="#E4DCD1" opacity="0.60"/>
<rect x="540" y="864" width="120" height="2.5" fill="#E4DCD1" opacity="0.57"/>
<rect x="540" y="812" width="120" height="2.5" fill="#E4DCD1" opacity="0.53"/>
<rect x="540" y="760" width="120" height="2.5" fill="#E4DCD1" opacity="0.50"/>
<rect x="540" y="708" width="120" height="2.5" fill="#E4DCD1" opacity="0.46"/>
<rect x="540" y="656" width="120" height="2.5" fill="#E4DCD1" opacity="0.43"/>
<rect x="540" y="604" width="120" height="2.5" fill="#E4DCD1" opacity="0.39"/>
<rect x="540" y="552" width="120" height="2.5" fill="#E4DCD1" opacity="0.36"/>
<rect x="540" y="500" width="120" height="2.5" fill="#E4DCD1" opacity="0.32"/>
<rect x="540" y="448" width="120" height="2.5" fill="#E4DCD1" opacity="0.29"/>
<rect x="540" y="396" width="120" height="2.5" fill="#E4DCD1" opacity="0.25"/>
<rect x="540" y="344" width="120" height="2.5" fill="#E4DCD1" opacity="0.22"/>
<rect x="540" y="292" width="120" height="2.5" fill="#E4DCD1" opacity="0.18"/>
<rect x="540" y="240" width="120" height="2.5" fill="#E4DCD1" opacity="0.15"/>
<rect x="540" y="188" width="120" height="2.5" fill="#E4DCD1" opacity="0.11"/>
<rect x="540" y="280" width="2" height="1000" fill="#E4DCD1" opacity="0.6"/>
<rect x="658" y="280" width="2" height="1000" fill="#E4DCD1" opacity="0.6"/>
  
    <text x="600" y="1380" font-family="Inter, Helvetica, sans-serif" font-size="22"
          fill="#E8E2D3" text-anchor="middle"
          letter-spacing="6" opacity="0.85">LINEN</text>
    <text x="600" y="1420" font-family="Inter, Helvetica, sans-serif" font-size="11"
          fill="#E8E2D3" text-anchor="middle"
          letter-spacing="3" opacity="0.55">FTC · FULL TIME CHRISTIAN</text>
    
</svg>
